<?xml version="1.0" encoding="UTF-8"?>
<svg id="_Слой_2" data-name="Слой 2" xmlns="http://www.w3.org/2000/svg" viewBox="0 0 307.7 299.19">
  <defs>
    <style>
      .cls-1 {
        stroke-miterlimit: 10;
        stroke-width: 2px;
      }

      .cls-1, .cls-2, .cls-3, .cls-4, .cls-5, .cls-6, .cls-7, .cls-8, .cls-9, .cls-10, .cls-11, .cls-12, .cls-13, .cls-14, .cls-15, .cls-16, .cls-17 {
        fill: #39b54a;
      }

      .cls-1, .cls-2, .cls-4, .cls-5, .cls-6, .cls-7, .cls-8, .cls-9, .cls-10, .cls-11, .cls-12, .cls-13, .cls-14, .cls-15, .cls-16, .cls-17 {
        stroke: #006837;
      }

      .cls-2 {
        stroke-width: 2px;
      }

      .cls-2, .cls-18, .cls-19, .cls-20, .cls-21, .cls-22, .cls-23 {
        stroke-miterlimit: 10;
      }

      .cls-4 {
        stroke-miterlimit: 10;
        stroke-width: 2px;
      }

      .cls-18 {
        fill: none;
      }

      .cls-18, .cls-19, .cls-20, .cls-21, .cls-22, .cls-23 {
        stroke: #42210b;
      }

      .cls-24 {
        fill: #6fc8a6;
      }

      .cls-5 {
        stroke-miterlimit: 10;
        stroke-width: 2px;
      }

      .cls-6 {
        stroke-miterlimit: 10;
        stroke-width: 2px;
      }

      .cls-19, .cls-20, .cls-21, .cls-22, .cls-23 {
        stroke-width: 3px;
      }

      .cls-19, .cls-25 {
        fill: #603813;
      }

      .cls-7 {
        stroke-miterlimit: 10;
        stroke-width: 2px;
      }

      .cls-8 {
        stroke-miterlimit: 10;
        stroke-width: 2px;
      }

      .cls-9 {
        stroke-miterlimit: 10;
        stroke-width: 2px;
      }

      .cls-20 {
        fill: #fbb03b;
      }

      .cls-10 {
        stroke-miterlimit: 10;
        stroke-width: 2px;
      }

      .cls-11 {
        stroke-miterlimit: 10;
        stroke-width: 2px;
      }

      .cls-12 {
        stroke-miterlimit: 10;
        stroke-width: 2px;
      }

      .cls-21 {
        fill: #736357;
      }

      .cls-26 {
        fill: #08822a;
      }

      .cls-13 {
        stroke-miterlimit: 10;
        stroke-width: 2px;
      }

      .cls-14 {
        stroke-miterlimit: 10;
        stroke-width: 2px;
      }

      .cls-27 {
        fill: #006837;
      }

      .cls-15 {
        stroke-miterlimit: 10;
        stroke-width: 2px;
      }

      .cls-22, .cls-28 {
        fill: #754c24;
      }

      .cls-29 {
        fill: #42210b;
      }

      .cls-23 {
        fill: #8c6239;
      }

      .cls-16 {
        stroke-miterlimit: 10;
        stroke-width: 2px;
      }

      .cls-17 {
        stroke-miterlimit: 10;
        stroke-width: 2px;
      }
    </style>
  </defs>
  <g id="_Слой_1-2" data-name=" Слой 1">
    <g>
      <ellipse class="cls-20" cx="154.2" cy="242.65" rx="149.32" ry="55.04"/>
      <rect class="cls-23" x="6.16" y="215.06" width="296.14" height="27.58"/>
      <rect class="cls-23" x="6.13" y="187.48" width="296.14" height="27.58"/>
      <rect class="cls-23" x="6.16" y="159.9" width="296.14" height="27.58"/>
      <rect class="cls-23" x="7.42" y="133.45" width="296.14" height="26.33"/>
      <rect class="cls-22" x="7.42" y="133.45" width="296.14" height="19.32"/>
      <rect class="cls-23" x="129.4" y="161.03" width="49.6" height="81.62"/>
      <rect class="cls-23" x="42.7" y="104.73" width="225.57" height="27.58"/>
      <rect class="cls-22" x="201.93" y="150.13" width="27.58" height="92.68"/>
      <rect class="cls-22" x="77.52" y="150.13" width="27.58" height="92.68"/>
      <g>
        <polygon class="cls-28" points="155.7 109.33 155.7 18.3 303.31 148.29 303.31 239.33 155.7 109.33"/>
        <path class="cls-29" d="M157.2,21.62l144.61,127.35v87.04l-144.61-127.35V21.62M154.2,14.98v95.03l150.61,132.63v-95.03L154.2,14.98h0Z"/>
      </g>
      <g>
        <polygon class="cls-26" points="155.7 94.36 155.7 3.32 303.31 133.31 303.31 224.35 155.7 94.36"/>
        <path class="cls-27" d="M157.2,6.64l144.61,127.35v87.04l-144.61-127.35V6.64M154.2,0v95.03l150.61,132.63v-95.03L154.2,0h0Z"/>
      </g>
      <g>
        <polygon class="cls-28" points="5.09 148.29 152.7 18.3 152.7 109.33 5.09 239.33 5.09 148.29"/>
        <path class="cls-29" d="M151.2,21.62v87.04L6.59,236.01v-87.04L151.2,21.62M154.2,14.98L3.59,147.61v95.03L154.2,110.01V14.98h0Z"/>
      </g>
      <g>
        <polygon class="cls-26" points="5.09 133.31 152.7 3.32 152.7 94.36 5.09 224.35 5.09 133.31"/>
        <path class="cls-27" d="M151.2,6.64v87.04L6.59,221.03v-87.04L151.2,6.64M154.2,0L3.59,132.63v95.03L154.2,95.03V0h0Z"/>
      </g>
      <g>
        <polygon class="cls-24" points="37.75 136.8 82.73 97.19 82.73 123.46 37.75 163.07 37.75 136.8"/>
        <path class="cls-27" d="M81.23,100.51v22.28l-41.98,36.97v-22.28l41.98-36.97M84.23,93.87l-47.98,42.25v30.27l47.98-42.25v-30.27h0Z"/>
      </g>
      <g>
        <path class="cls-3" d="M35.17,137.02l2.85-2.51v31.34l-2.85,2.51v-31.34ZM85.32,92.86l2.85-2.51v31.34l-2.85,2.51v-31.34Z"/>
        <path class="cls-29" d="M89.67,87.02l-56.01,49.32v35.34l56.01-49.32v-35.34h0ZM39.52,162.83v-27.95l44.3-39.01v27.95l-44.3,39.01h0Z"/>
      </g>
      <g>
        <path class="cls-3" d="M32.07,137.02l2.85-2.51v31.34l-2.85,2.51v-31.34ZM82.22,92.86l2.86-2.51v31.34l-2.86,2.51v-31.34Z"/>
        <path class="cls-25" d="M86.57,87.02l-56.01,49.32v35.34l56.01-49.32v-35.34h0ZM36.42,162.83v-27.95l44.3-39.01v27.95l-44.3,39.01h0Z"/>
      </g>
      <g>
        <polygon class="cls-21" points="221.04 83.13 221.04 41.4 182.81 41.4 182.81 49.46 221.04 83.13"/>
        <rect class="cls-21" x="176.94" y="31.56" width="49.97" height="12.58"/>
        <rect class="cls-21" x="176.94" y="12.96" width="49.97" height="18.6"/>
        <rect class="cls-19" x="185.08" y="17.63" width="33.68" height="9.26"/>
      </g>
      <ellipse class="cls-5" cx="176.95" cy="31.55" rx="2.19" ry="4.2" transform="translate(-1.5 10.08) rotate(-3.25)"/>
      <ellipse class="cls-4" cx="177.99" cy="14.47" rx="4.2" ry="2.19" transform="translate(79.59 163.49) rotate(-61.21)"/>
      <ellipse class="cls-5" cx="175.8" cy="37.84" rx="2.19" ry="4.2" transform="translate(-1.86 10.03) rotate(-3.25)"/>
      <ellipse class="cls-5" cx="177.99" cy="45.59" rx="2.19" ry="4.2" transform="translate(-2.3 10.16) rotate(-3.25)"/>
      <ellipse class="cls-10" cx="221.06" cy="80.49" rx="4.2" ry="2.19" transform="translate(71.77 262.31) rotate(-70.62)"/>
      <ellipse class="cls-16" cx="223.11" cy="87.8" rx="2.19" ry="4.2" transform="translate(-14.54 56) rotate(-13.86)"/>
      <ellipse class="cls-5" cx="220.36" cy="71.69" rx="2.19" ry="4.2" transform="translate(-3.71 12.61) rotate(-3.25)"/>
      <ellipse class="cls-5" cx="220.37" cy="62.78" rx="2.19" ry="4.2" transform="translate(-3.21 12.59) rotate(-3.25)"/>
      <ellipse class="cls-5" cx="215.36" cy="68.28" rx="2.19" ry="4.2" transform="translate(-3.52 12.32) rotate(-3.25)"/>
      <ellipse class="cls-5" cx="219.9" cy="54.73" rx="2.19" ry="4.2" transform="translate(-2.75 12.55) rotate(-3.25)"/>
      <ellipse class="cls-12" cx="212.01" cy="72.84" rx="2.19" ry="4.2" transform="translate(-12.16 72.84) rotate(-18.96)"/>
      <ellipse class="cls-1" cx="207.63" cy="70.03" rx="2.19" ry="4.2" transform="translate(-10.69 88.79) rotate(-23.55)"/>
      <ellipse class="cls-9" cx="201.92" cy="66.33" rx="2.19" ry="4.2" transform="translate(-7.32 103.62) rotate(-28.29)"/>
      <ellipse class="cls-14" cx="180.47" cy="37.86" rx="4.2" ry="2.87" transform="translate(67.56 183.65) rotate(-64.09)"/>
      <ellipse class="cls-7" cx="182.83" cy="31.57" rx="2.19" ry="4.2" transform="translate(126.96 208.49) rotate(-82.27)"/>
      <ellipse class="cls-2" cx="109.48" cy="160.63" rx="2.19" ry="4.2"/>
      <ellipse class="cls-2" cx="107.29" cy="154.34" rx="2.19" ry="4.2"/>
      <ellipse class="cls-2" cx="111.67" cy="167.85" rx="2.19" ry="4.2"/>
      <ellipse class="cls-2" cx="4.88" cy="227.05" rx="2.19" ry="4.2"/>
      <ellipse class="cls-2" cx="8.36" cy="223.47" rx="2.19" ry="4.2"/>
      <ellipse class="cls-2" cx="11.43" cy="227.05" rx="2.19" ry="4.2"/>
      <ellipse class="cls-2" cx="14.7" cy="222.05" rx="2.19" ry="4.2"/>
      <ellipse class="cls-2" cx="37.4" cy="198.81" rx="2.19" ry="4.2"/>
      <ellipse class="cls-2" cx="39.59" cy="206.12" rx="2.19" ry="4.2"/>
      <ellipse class="cls-2" cx="40.82" cy="193.81" rx="2.19" ry="4.2"/>
      <ellipse class="cls-2" cx="38.63" cy="214.34" rx="2.19" ry="4.2"/>
      <ellipse class="cls-2" cx="39.59" cy="221.82" rx="2.19" ry="4.2"/>
      <ellipse class="cls-2" cx="111.67" cy="176.16" rx="2.19" ry="4.2"/>
      <ellipse class="cls-2" cx="8.36" cy="231.87" rx="2.19" ry="4.2"/>
      <ellipse class="cls-2" cx="8.36" cy="240.27" rx="2.19" ry="4.2"/>
      <ellipse class="cls-2" cx="102.9" cy="148.42" rx="2.19" ry="4.2"/>
      <ellipse class="cls-2" cx="107.29" cy="144.38" rx="2.19" ry="4.2"/>
      <ellipse class="cls-2" cx="116.99" cy="145.94" rx="2.19" ry="4.2"/>
      <ellipse class="cls-2" cx="116.99" cy="137.03" rx="2.19" ry="4.2"/>
      <ellipse class="cls-2" cx="112.6" cy="133.55" rx="2.19" ry="4.2"/>
      <ellipse class="cls-2" cx="119.18" cy="129.35" rx="2.19" ry="4.2"/>
      <ellipse class="cls-2" cx="114.79" cy="128.12" rx="2.19" ry="4.2"/>
      <ellipse class="cls-2" cx="116.99" cy="154.34" rx="2.19" ry="4.2"/>
      <ellipse class="cls-2" cx="114.79" cy="160.63" rx="2.19" ry="4.2"/>
      <ellipse class="cls-5" cx="157.61" cy="97.85" rx="2.19" ry="4.2" transform="translate(-5.29 9.09) rotate(-3.25)"/>
      <ellipse class="cls-5" cx="160.17" cy="104" rx="2.19" ry="4.2" transform="translate(-5.64 9.25) rotate(-3.25)"/>
      <ellipse class="cls-10" cx="162.36" cy="111.66" rx="4.2" ry="2.19" transform="translate(3.15 227.77) rotate(-70.62)"/>
      <ellipse class="cls-5" cx="172.67" cy="132.31" rx="2.19" ry="4.2" transform="translate(-7.22 10) rotate(-3.25)"/>
      <ellipse class="cls-5" cx="154.86" cy="104.3" rx="2.19" ry="4.2" transform="translate(-5.66 8.95) rotate(-3.25)"/>
      <ellipse class="cls-5" cx="150.48" cy="104.55" rx="2.19" ry="4.2" transform="translate(-5.69 8.7) rotate(-3.25)"/>
      <ellipse class="cls-5" cx="148.27" cy="111.65" rx="2.19" ry="4.2" transform="translate(-6.09 8.59) rotate(-3.25)"/>
      <ellipse class="cls-5" cx="152.3" cy="98.15" rx="2.19" ry="4.2" transform="translate(-5.32 8.79) rotate(-3.25)"/>
      <ellipse class="cls-2" cx="170.48" cy="116.98" rx="2.19" ry="4.2"/>
      <ellipse class="cls-2" cx="168.29" cy="110.69" rx="2.19" ry="4.2"/>
      <ellipse class="cls-2" cx="173.61" cy="110.69" rx="2.19" ry="4.2"/>
      <ellipse class="cls-2" cx="173.61" cy="124.17" rx="2.19" ry="4.2"/>
      <ellipse class="cls-2" cx="205.43" cy="137.75" rx="2.19" ry="4.2"/>
      <ellipse class="cls-2" cx="207.63" cy="145.94" rx="2.19" ry="4.2"/>
      <ellipse class="cls-2" cx="212.01" cy="144.38" rx="2.19" ry="4.2"/>
      <ellipse class="cls-6" cx="211.49" cy="138.45" rx="2.1" ry="4.94" transform="translate(-26.03 224.95) rotate(-53.22)"/>
      <ellipse class="cls-6" cx="181.73" cy="117.87" rx="1.96" ry="3.69" transform="translate(-21.49 192.85) rotate(-53.22)"/>
      <ellipse class="cls-6" cx="268.27" cy="192.61" rx="1.96" ry="3.69" transform="translate(-46.62 292.15) rotate(-53.22)"/>
      <ellipse class="cls-6" cx="249.1" cy="141.73" rx="1.96" ry="3.69" transform="translate(-13.56 256.38) rotate(-53.22)"/>
      <ellipse class="cls-6" cx="256.22" cy="143.1" rx="1.96" ry="3.69" transform="translate(-11.8 262.64) rotate(-53.22)"/>
      <ellipse class="cls-6" cx="282.2" cy="191.32" rx="1.96" ry="3.69" transform="translate(-40 302.79) rotate(-53.22)"/>
      <ellipse class="cls-6" cx="301.99" cy="146.59" rx="1.96" ry="3.69" transform="translate(3.76 300.7) rotate(-53.22)"/>
      <ellipse class="cls-6" cx="301.62" cy="140.93" rx="1.96" ry="3.69" transform="translate(8.15 298.13) rotate(-53.22)"/>
      <ellipse class="cls-6" cx="296.7" cy="140.17" rx="1.96" ry="3.69" transform="translate(6.79 293.88) rotate(-53.22)"/>
      <ellipse class="cls-6" cx="303.52" cy="132.82" rx="1.96" ry="3.69" transform="translate(15.41 296.39) rotate(-53.22)"/>
      <ellipse class="cls-6" cx="266.82" cy="102.19" rx="1.96" ry="3.69" transform="translate(25.22 254.71) rotate(-53.22)"/>
      <ellipse class="cls-6" cx="264.79" cy="95.86" rx="1.96" ry="3.69" transform="translate(29.47 250.54) rotate(-53.22)"/>
      <ellipse class="cls-6" cx="262.47" cy="98.94" rx="1.96" ry="3.69" transform="translate(26.08 249.93) rotate(-53.22)"/>
      <ellipse class="cls-6" cx="258.6" cy="93.68" rx="1.96" ry="3.69" transform="translate(28.73 244.71) rotate(-53.22)"/>
      <ellipse class="cls-6" cx="281.47" cy="186.12" rx="1.96" ry="3.69" transform="translate(-36.13 300.12) rotate(-53.22)"/>
      <ellipse class="cls-6" cx="251.36" cy="137.02" rx="1.96" ry="3.69" transform="translate(-8.88 256.31) rotate(-53.22)"/>
      <ellipse class="cls-6" cx="201.93" cy="108.29" rx="1.96" ry="3.69" transform="translate(-5.71 205.18) rotate(-53.22)"/>
      <ellipse class="cls-6" cx="206.82" cy="106.47" rx="1.96" ry="3.69" transform="translate(-2.29 208.37) rotate(-53.22)"/>
      <ellipse class="cls-6" cx="157.61" cy="61.79" rx="1.96" ry="3.69" transform="translate(13.75 151.03) rotate(-53.22)"/>
      <ellipse class="cls-6" cx="156.49" cy="66.42" rx="1.96" ry="3.69" transform="translate(9.6 151.99) rotate(-53.22)"/>
      <ellipse class="cls-6" cx="270" cy="198" rx="1.96" ry="3.69" transform="translate(-50.24 295.71) rotate(-53.22)"/>
      <ellipse class="cls-6" cx="249.11" cy="174.95" rx="2.1" ry="4.94" transform="translate(-40.17 269.72) rotate(-53.22)"/>
      <ellipse class="cls-6" cx="243.89" cy="167.83" rx="2.1" ry="4.94" transform="translate(-36.56 262.69) rotate(-53.22)"/>
      <ellipse class="cls-2" cx="203.24" cy="152.62" rx="2.19" ry="4.2"/>
      <ellipse class="cls-2" cx="201.05" cy="159.78" rx="2.19" ry="4.2"/>
      <ellipse class="cls-2" cx="207.63" cy="154.34" rx="2.19" ry="4.2"/>
      <ellipse class="cls-2" cx="212.01" cy="160.63" rx="2.19" ry="4.2"/>
      <ellipse class="cls-2" cx="214.2" cy="167.85" rx="2.19" ry="4.2"/>
      <ellipse class="cls-17" cx="217.91" cy="173.7" rx="2.19" ry="4.2" transform="translate(-60.7 167.77) rotate(-37.34)"/>
      <ellipse class="cls-2" cx="239.51" cy="177.89" rx="2.19" ry="4.2"/>
      <ellipse class="cls-14" cx="235.62" cy="180.52" rx="4.2" ry="2.19" transform="translate(-29.71 313.57) rotate(-64.09)"/>
      <ellipse class="cls-11" cx="230.9" cy="182.08" rx="4.2" ry="2.19" transform="translate(-24.8 327.28) rotate(-67.85)"/>
      <ellipse class="cls-8" cx="226.52" cy="182.09" rx="2.19" ry="4.2" transform="translate(-32.91 51.08) rotate(-12)"/>
      <ellipse class="cls-8" cx="229.51" cy="188.89" rx="2.19" ry="4.2" transform="translate(-34.26 51.85) rotate(-12)"/>
      <ellipse class="cls-2" cx="222.55" cy="179.08" rx="2.19" ry="4.2"/>
      <ellipse class="cls-2" cx="243.9" cy="173.69" rx="2.19" ry="4.2"/>
      <ellipse class="cls-2" cx="243.9" cy="181.94" rx="2.19" ry="4.2"/>
      <ellipse class="cls-2" cx="239.51" cy="169.49" rx="2.19" ry="4.2"/>
      <ellipse class="cls-2" cx="175.8" cy="116.98" rx="2.19" ry="4.2"/>
      <ellipse class="cls-13" cx="302.01" cy="219.74" rx="4.2" ry="2.19" transform="translate(55.8 500.59) rotate(-84.8)"/>
      <ellipse class="cls-13" cx="295.55" cy="232.06" rx="4.2" ry="2.19" transform="translate(37.66 505.36) rotate(-84.8)"/>
      <ellipse class="cls-14" cx="237.34" cy="267.77" rx="2.19" ry="4.2" transform="translate(-107.22 364.24) rotate(-64.09)"/>
      <ellipse class="cls-14" cx="273.42" cy="251.22" rx="2.19" ry="4.2" transform="translate(-72.03 387.38) rotate(-64.09)"/>
      <ellipse class="cls-14" cx="214.21" cy="251.21" rx="2.19" ry="4.2" transform="translate(-105.35 334.12) rotate(-64.09)"/>
      <ellipse class="cls-14" cx="102.9" cy="271.89" rx="2.19" ry="4.2" transform="translate(-186.62 245.65) rotate(-64.09)"/>
      <ellipse class="cls-14" cx="99.01" cy="265.07" rx="2.19" ry="4.2" transform="translate(-182.68 238.3) rotate(-64.09)"/>
      <ellipse class="cls-15" cx="152.32" cy="263.49" rx="4.2" ry="2.19" transform="translate(-99.82 93.04) rotate(-25.91)"/>
      <ellipse class="cls-15" cx="27.41" cy="176.99" rx="4.2" ry="2.19" transform="translate(-74.58 29.77) rotate(-25.91)"/>
      <ellipse class="cls-15" cx="4.9" cy="207.56" rx="4.2" ry="2.19" transform="translate(-90.2 23) rotate(-25.91)"/>
      <ellipse class="cls-15" cx="30.48" cy="171.82" rx="4.2" ry="2.19" transform="translate(-72.01 30.59) rotate(-25.91)"/>
      <ellipse class="cls-15" cx="28.87" cy="137.03" rx="4.2" ry="2.19" transform="translate(-56.97 26.39) rotate(-25.91)"/>
      <ellipse class="cls-15" cx="40.83" cy="124.16" rx="4.2" ry="2.19" transform="translate(-50.15 30.32) rotate(-25.91)"/>
      <ellipse class="cls-15" cx="33.68" cy="123.91" rx="4.2" ry="2.19" transform="translate(-50.76 27.17) rotate(-25.91)"/>
      <ellipse class="cls-15" cx="40.83" cy="118.52" rx="4.2" ry="2.19" transform="translate(-47.68 29.75) rotate(-25.91)"/>
      <ellipse class="cls-15" cx="38.66" cy="167.84" rx="4.2" ry="2.19" transform="translate(-69.45 33.76) rotate(-25.91)"/>
      <ellipse class="cls-15" cx="43.03" cy="170.12" rx="4.2" ry="2.19" transform="translate(-70.01 35.9) rotate(-25.91)"/>
      <ellipse class="cls-15" cx="87.73" cy="121.21" rx="4.2" ry="2.19" transform="translate(-44.14 50.52) rotate(-25.91)"/>
      <ellipse class="cls-15" cx="87.72" cy="88.74" rx="4.2" ry="2.19" transform="translate(-29.96 47.25) rotate(-25.91)"/>
      <ellipse class="cls-15" cx="102.9" cy="56.24" rx="4.2" ry="2.19" transform="translate(-14.23 50.62) rotate(-25.91)"/>
      <ellipse class="cls-15" cx="102.67" cy="62.25" rx="4.2" ry="2.19" transform="translate(-16.88 51.12) rotate(-25.91)"/>
      <ellipse class="cls-15" cx="149.78" cy="14.97" rx="4.2" ry="2.19" transform="translate(8.52 66.95) rotate(-25.91)"/>
      <ellipse class="cls-15" cx="146.66" cy="19.8" rx="4.2" ry="2.19" transform="translate(6.09 66.08) rotate(-25.91)"/>
      <ellipse class="cls-15" cx="150.47" cy="22.24" rx="4.2" ry="2.19" transform="translate(5.41 67.99) rotate(-25.91)"/>
      <ellipse class="cls-15" cx="80.04" cy="92.47" rx="4.2" ry="2.19" transform="translate(-32.36 44.27) rotate(-25.91)"/>
      <ellipse class="cls-15" cx="89.24" cy="115.01" rx="4.2" ry="2.19" transform="translate(-41.28 50.56) rotate(-25.91)"/>
      <ellipse class="cls-15" cx="91.3" cy="102.19" rx="4.2" ry="2.19" transform="translate(-35.48 50.17) rotate(-25.91)"/>
      <ellipse class="cls-15" cx="149.46" cy="63.73" rx="4.2" ry="2.19" transform="translate(-12.82 71.71) rotate(-25.91)"/>
      <ellipse class="cls-15" cx="150.47" cy="68.77" rx="4.2" ry="2.19" transform="translate(-14.92 72.66) rotate(-25.91)"/>
      <ellipse class="cls-15" cx="150.48" cy="58.25" rx="4.2" ry="2.19" transform="translate(-10.33 71.61) rotate(-25.91)"/>
      <ellipse class="cls-15" cx="144.25" cy="68.28" rx="4.2" ry="2.19" transform="translate(-15.33 69.89) rotate(-25.91)"/>
      <ellipse class="cls-15" cx="89.68" cy="92.77" rx="4.2" ry="2.19" transform="translate(-31.52 48.51) rotate(-25.91)"/>
      <ellipse class="cls-15" cx="94.41" cy="96" rx="4.2" ry="2.19" transform="translate(-32.46 50.9) rotate(-25.91)"/>
      <ellipse class="cls-15" cx="139.23" cy="22.25" rx="4.2" ry="2.19" transform="translate(4.27 63.07) rotate(-25.91)"/>
      <ellipse class="cls-15" cx="138" cy="28.3" rx="4.2" ry="2.19" transform="translate(1.5 63.15) rotate(-25.91)"/>
      <ellipse class="cls-15" cx="94.42" cy="116.07" rx="4.2" ry="2.19" transform="translate(-41.23 52.93) rotate(-25.91)"/>
      <ellipse class="cls-15" cx="84.63" cy="126.84" rx="4.2" ry="2.19" transform="translate(-46.92 49.73) rotate(-25.91)"/>
      <ellipse class="cls-15" cx="45.69" cy="162.82" rx="4.2" ry="2.19" transform="translate(-66.55 36.33) rotate(-25.91)"/>
      <ellipse class="cls-15" cx="29.12" cy="144.21" rx="4.2" ry="2.19" transform="translate(-60.09 27.22) rotate(-25.91)"/>
      <ellipse class="cls-15" cx="7.43" cy="137.02" rx="4.2" ry="2.19" transform="translate(-59.13 17.02) rotate(-25.91)"/>
      <ellipse class="cls-15" cx="6.17" cy="143.56" rx="4.2" ry="2.19" transform="translate(-62.11 17.13) rotate(-25.91)"/>
      <ellipse class="cls-15" cx="229.53" cy="280.02" rx="4.2" ry="2.19" transform="translate(-99.29 128.44) rotate(-25.91)"/>
      <ellipse class="cls-15" cx="55.82" cy="268.82" rx="4.2" ry="2.19" transform="translate(-111.85 51.41) rotate(-25.91)"/>
      <ellipse class="cls-14" cx="36.43" cy="246.8" rx="2.19" ry="4.2" transform="translate(-201.48 171.72) rotate(-64.09)"/>
      <ellipse class="cls-14" cx="44.31" cy="245.77" rx="2.19" ry="4.2" transform="translate(-196.11 178.24) rotate(-64.09)"/>
      <ellipse class="cls-14" cx="93.22" cy="268.85" rx="2.19" ry="4.2" transform="translate(-189.34 235.22) rotate(-64.09)"/>
      <ellipse class="cls-13" cx="298.33" cy="225.74" rx="4.2" ry="2.19" transform="translate(46.49 502.38) rotate(-84.8)"/>
      <ellipse class="cls-13" cx="293.96" cy="225.33" rx="4.2" ry="2.19" transform="translate(42.91 497.66) rotate(-84.8)"/>
      <ellipse class="cls-13" cx="296.71" cy="219.26" rx="4.2" ry="2.19" transform="translate(51.46 494.88) rotate(-84.8)"/>
    </g>
    <path class="cls-29" d="M142.23,161.76c-1.17,4.81-1.47,9.55.11,14.29.6,2.15,1.4,5.11,1.72,7.29.83,4.94.74,10.03.47,15-.19,4.76-.86,17.35-1.13,22.26h-.2c-.11-8.59.18-21.21-.08-29.67-.25-4.9-1.53-9.56-2.72-14.38-.56-2.46-.95-5.1-.59-7.64.32-2.56,1.17-4.95,2.22-7.21l.19.06h0Z"/>
    <path class="cls-29" d="M136.63,242.17c.42-1.24.66-2.07-.68-2.61-1.41-.83-1.97-2.53-1.54-3.85-.1,1.39.86,2.64,1.96,2.94,2.1.31,2.46,2.21,2.23,3.94l-1.96-.42h-.01Z"/>
    <polygon class="cls-29" points="148.12 241.99 151.6 236.83 149.94 242.82 148.12 241.99 148.12 241.99"/>
    <path class="cls-29" d="M160.52,240.92c6.17-.89,8.5-2.75,8.52-9.16.04-1.69-.15-3.4-.81-5,.89,1.48,1.35,3.22,1.56,4.96,1.1,7.24-1.95,10.16-8.54,12.11l-.73-2.91h0Z"/>
    <path class="cls-18" d="M87.38,241.75v-.23"/>
    <path class="cls-29" d="M87.64,241.07c1.22-3.03,1.08-6.45.46-9.63-.68-3.12-2.06-6.88.41-9.61-1,1.34-1.43,3.06-1.19,4.68.69,3.23,1.99,6.43,1.99,9.84.06,1.7-.17,3.44-.73,5.08l-.94-.35h0Z"/>
    <path class="cls-18" d="M94.77,204.71c.74-4.86,1.48-9.8.86-14.67-.23-1.82-.65-3.63-.7-5.47s.3-3.77,1.44-5.21"/>
    <path class="cls-29" d="M120.09,139.18c4.23.15,8.37-.81,12.58-.33v.1c-2.01.78-4.14.91-6.27.79-2.11-.03-4.22-.19-6.31-.47v-.1h0Z"/>
    <path class="cls-29" d="M224.39,241.75c1.02-3.41,1.03-7.14,1.16-10.71.08-3.62-.13-7.41-2.15-10.54,1.13,1.45,1.9,3.19,2.35,5,.46,1.81.67,3.67.8,5.52.2,3.75.54,7.47-.23,11.23l-1.94-.49h0Z"/>
    <path class="cls-29" d="M210.07,210.83c-1.73-3.52.59-7.2,1.76-10.48,1.39-5.88-.96-11.74-1.78-17.57l.1-.03c1.46,3.31,2.6,6.83,2.79,10.47.27,3.64-.79,7.25-1.69,10.72-.7,2.27-1.52,4.46-1.09,6.85l-.09.03h0Z"/>
    <path class="cls-29" d="M213.28,223.67c.54,3.25.55,6.82-.58,9.95-.51,1.02-1.16,1.98-2.15,2.7l-.18-.09c0-2.33.68-4.17,1.5-6.24.61-2.05,1.03-4.15,1.21-6.3h.2s0-.02,0-.02Z"/>
    <path class="cls-29" d="M249.78,236.12c3.15-.38,6.24-.15,9.36.13,5.21-.17,10.34-1.1,15.58-.77-4.8,1.7-10.44,1.13-15.58,1.1-3.05.22-6.55.54-9.36-.45h0Z"/>
    <path class="cls-29" d="M45.72,222.8c1.27,1.27,2.22,2.88,2.77,4.6.82,3.26,2.5,3.82,5.56,4.37,2.62.6,5.17,1.39,7.66,2.43l-.02.1c-2.68-.29-5.3-.83-7.88-1.57-1.7-.53-3.81-.91-4.83-2.6-.51-.82-.73-1.72-.97-2.58-.41-1.71-1.2-3.33-2.36-4.68l.07-.07h0Z"/>
    <path class="cls-23" d="M138.29,206.3c0,.83.83,0,0,0s0,.83,0,0-.83-1.5,0-1.5,0,.67,0,1.5Z"/>
  </g>
</svg>