<?xml version="1.0" encoding="UTF-8"?>
<svg id="_Слой_1" data-name="Слой 1" xmlns="http://www.w3.org/2000/svg" viewBox="0 0 197.05 472.31">
  <defs>
    <style>
      .cls-1 {
        fill: #964d22;
      }

      .cls-1, .cls-2, .cls-3, .cls-4, .cls-5, .cls-6, .cls-7, .cls-8 {
        stroke-miterlimit: 10;
      }

      .cls-1, .cls-2, .cls-4, .cls-5, .cls-6, .cls-7, .cls-8 {
        stroke: #000;
      }

      .cls-9, .cls-3, .cls-5 {
        fill: #c69c6d;
      }

      .cls-2 {
        fill: #c7c7c2;
      }

      .cls-3 {
        stroke: #a67c52;
      }

      .cls-4 {
        fill: #536074;
      }

      .cls-6 {
        fill: #e6e6e6;
      }

      .cls-10 {
        fill: #a67c52;
      }

      .cls-7 {
        fill: #b54d22;
      }

      .cls-8 {
        fill: #6d2c22;
      }

      .cls-11 {
        fill: #a65452;
      }
    </style>
  </defs>
  <polygon class="cls-5" points="27.69 153.91 4.82 155.18 12.33 116.96 17.1 100.94 16.88 94.12 23.71 78.74 33.49 100.49 31.46 129.1 28.92 142.58 27.69 153.91"/>
  <polygon class="cls-5" points="27.69 153.91 4.82 155.18 3.76 227.32 19.94 219.93 22.69 182.22 27.43 171.54 27.69 153.91"/>
  <g>
    <polygon class="cls-5" points="14.01 242.92 .61 242.51 3.76 227.32 19.94 219.93 15.46 236.46 14.01 242.92"/>
    <polygon class="cls-5" points="31.18 249.06 27.93 257.04 20.96 253.83 21.02 246.72 15.46 236.46 19.94 219.93 27.69 236.78 31.18 249.06"/>
    <polygon class="cls-5" points="14.84 258.12 3.76 262.45 .61 242.51 14.01 242.92 14.84 258.12"/>
    <polygon class="cls-5" points="24.21 265.59 18.67 268.09 3.76 262.45 14.84 258.12 24.21 265.59"/>
  </g>
  <polygon class="cls-6" points="142.53 162.3 54.52 162.3 33.49 100.49 23.71 78.74 173.34 78.74 163.55 100.49 142.53 162.3"/>
  <polygon class="cls-6" points="154 237.01 43.05 237.01 49.87 197.3 54.52 162.3 142.53 162.3 147.17 197.3 154 237.01"/>
  <polygon class="cls-4" points="158.94 268.8 38.1 268.8 40.16 222.97 156.88 222.97 158.94 268.8"/>
  <polygon class="cls-4" points="85.43 343.86 38.1 329.75 38.1 268.8 100.76 268.8 85.43 343.86"/>
  <polygon class="cls-4" points="87.27 383.91 94.12 425.03 48.42 417.89 38.1 329.75 85.43 343.86 87.27 383.91"/>
  <polygon class="cls-1" points="90.69 440.04 86.32 469.11 48.42 469.09 42.04 448.27 51.66 437.09 55.07 418.92 86.54 423.84 90.69 440.04"/>
  <polygon class="cls-4" points="118.33 344.43 161.09 336.01 158.94 268.8 100.76 268.8 98.8 283.81 118.33 344.43"/>
  <polygon class="cls-4" points="109.77 383.91 104.85 424.73 145.68 418.34 161.09 336.01 118.33 344.43 109.77 383.91"/>
  <polygon class="cls-1" points="105.6 444.01 109.74 471.49 148.16 471.8 154 451.97 141.94 436.85 141.97 418.92 110.5 423.84 105.6 444.01"/>
  <polygon class="cls-8" points="90.69 440.04 86.32 469.11 48.42 469.09 45.18 461.74 85.43 463.18 89.93 435.63 90.69 440.04"/>
  <polygon class="cls-8" points="105.6 444.01 109.74 471.49 148.16 471.8 152.14 463.34 113.43 465.42 106.07 439.82 105.6 444.01"/>
  <polygon class="cls-7" points="150.81 328.21 98.8 336.01 46.79 328.21 55.13 249.79 58.09 145.82 98.8 148.2 139.51 145.82 142.64 250.42 150.81 328.21"/>
  <polygon class="cls-7" points="76.74 146.91 59.82 145.82 25.85 76.59 46.51 76.59 76.74 146.91"/>
  <polygon class="cls-7" points="120.39 146.91 137.31 145.82 171.28 76.59 150.63 76.59 120.39 146.91"/>
  <g>
    <path class="cls-5" d="M148.65,55.82c0,30.55-18.55,55.32-50.16,55.32s-50.16-24.77-50.16-55.32S52.65.5,98.48.5s50.16,24.77,50.16,55.32Z"/>
    <polygon class="cls-2" points="79.88 51.85 68.03 53.36 56.75 48.39 85.61 48.09 79.88 51.85"/>
    <g>
      <polygon class="cls-2" points="72.42 25.62 51.22 36.61 50.82 69.49 52.73 88.9 33.98 60.17 43.16 28.3 56.84 7.78 71.21 4.53 67.83 15.11 72.42 25.62"/>
      <polygon class="cls-2" points="124.62 25.62 145.82 36.61 146.22 69.49 145.9 87.63 163.06 60.17 153.89 28.3 140.21 7.78 125.83 4.53 129.21 15.11 124.62 25.62"/>
    </g>
    <polygon class="cls-2" points="121.7 53.22 120.99 48.66 111.65 48.23 115.81 52 121.7 53.22"/>
    <polygon class="cls-2" points="128.75 53.28 126.76 48.17 140.02 48.29 128.75 53.28"/>
    <polygon class="cls-2" points="125.65 129.31 72.42 130.57 58.79 97.33 55.06 88.25 49.98 75.86 52.07 66.98 73.15 89.02 98.48 92.1 126.38 89.11 145.33 68.32 146.64 75.13 125.65 129.31"/>
    <polygon class="cls-2" points="109.46 82.22 101.01 81.66 99.77 75.13 111.76 77.59 125.65 87.05 109.46 82.22"/>
    <polygon class="cls-2" points="87.31 82.22 95.76 81.66 97 75.13 86.07 77.87 77.91 77.27 83.06 81.12 72.42 87.63 87.31 82.22"/>
    <g>
      <path class="cls-9" d="M57.7,40.55l19.74,2.84c12.92,1.86,26.2,1.86,39.12-.01l19.54-2.83"/>
      <path class="cls-10" d="M57.7,40.55c13.06,1.35,26.03,3.9,39.2,3.74,9.5.17,19.95-1.3,29.4-2.56,3.27-.39,6.53-.81,9.8-1.17-3.24.58-6.49,1.1-9.73,1.66-9.47,1.61-19.89,3.18-29.47,3.08-13.22.06-26.21-2.58-39.2-4.73h0Z"/>
    </g>
    <g>
      <path class="cls-9" d="M65.65,38.86l15.79,2.27c10.33,1.49,20.96,1.48,31.28-.01l15.63-2.26"/>
      <path class="cls-10" d="M65.65,38.86c10.45,1,20.83,3.03,31.35,2.89,7.59.14,15.95-1.02,23.5-2,2.62-.29,5.23-.62,7.85-.89-2.59.49-5.18.91-7.78,1.37-7.57,1.32-15.91,2.59-23.58,2.51-10.58.04-20.97-2.08-31.35-3.89h0Z"/>
    </g>
    <g>
      <path class="cls-9" d="M86.52,39.42l5.28.76c3.45.5,7.01.5,10.46,0l5.22-.76"/>
      <path class="cls-10" d="M86.52,39.42c3.51.08,6.98.68,10.48.63,3.51.05,6.97-.55,10.48-.63-3.44.87-6.92,1.65-10.48,1.63-3.56.01-7.04-.77-10.48-1.63h0Z"/>
    </g>
    <polyline class="cls-3" points="87.06 61.31 81.96 67.72 88.44 71.85 98.85 72.66 109.8 71.32 114.66 67.72 109.94 61.31"/>
    <polyline class="cls-3" points="57.12 58.22 69.2 63.08 78.92 61.31"/>
    <polyline class="cls-3" points="139.25 58.22 127.17 63.08 117.45 61.31"/>
    <path class="cls-11" d="M121.34,37.61c2.41,5.87,3.96,12.03,5.27,18.22-.84,3.55-1.77,7.07-3.07,10.5.05-1.81.22-3.6.43-5.38.21-1.78.47-3.55.77-5.31,0,0,0,.4,0,.4-1.58-6.05-2.93-12.18-3.4-18.43h0Z"/>
  </g>
  <polygon class="cls-6" points="21.48 213.9 2.74 222.97 2.74 159.62 29.1 159.62 31.2 173.96 24.56 182.22 21.48 213.9"/>
  <polygon class="cls-5" points="169.36 153.91 192.22 155.18 184.71 116.96 179.95 100.94 180.16 94.12 173.34 78.74 163.56 100.49 165.59 129.1 168.13 142.58 169.36 153.91"/>
  <polygon class="cls-5" points="169.36 153.91 192.22 155.18 193.29 227.32 177.11 219.93 174.36 182.22 169.61 171.54 169.36 153.91"/>
  <g>
    <polygon class="cls-5" points="183.03 242.92 196.44 242.51 193.29 227.32 177.11 219.93 181.59 236.46 183.03 242.92"/>
    <polygon class="cls-5" points="166.19 249.06 169.12 257.04 176.08 253.83 176.02 246.72 181.59 236.46 177.11 219.93 169.69 236.78 166.19 249.06"/>
    <polygon class="cls-5" points="183.26 257.47 194.34 261.8 196.44 242.51 183.03 242.92 183.26 257.47"/>
    <polygon class="cls-5" points="173.89 264.93 179.43 267.44 194.34 261.8 183.26 257.47 173.89 264.93"/>
  </g>
  <polygon class="cls-6" points="175.57 213.9 194.31 222.97 194.31 159.62 167.94 159.62 165.85 173.96 172.49 182.22 175.57 213.9"/>
  <polyline class="cls-7" points="130.06 186.92 122.48 195.04 80.16 195.4 71.47 188.5"/>
</svg>