<?xml version="1.0" encoding="UTF-8"?>
<svg id="_Слой_1" data-name="Слой 1" xmlns="http://www.w3.org/2000/svg" viewBox="0 0 200 200">
  <defs>
    <style>
      .cls-1 {
        fill: #ca9e67;
      }

      .cls-2 {
        opacity: .18;
      }

      .cls-3 {
        fill: #030304;
      }
    </style>
  </defs>
  <rect class="cls-1" width="200" height="200" rx="20" ry="20"/>
  <g class="cls-2">
    <path class="cls-3" d="M187.19,10c1.69.88,3.12,2.68,2.37,4.92l-14.97,44.89c-.57,1.7-2.13,2.57-3.47,3.7l-83.82,70.6,18.87,18.95c1.7,1.71,1.54,4.08.03,5.8l-7.33,7.37c-1.42.99-3.1,1.44-4.67.6l-26.7-16.05-27.46,23.11c.43,7.68-5.26,14.57-12.77,15.68-8.3,1.23-15.08-4.03-17.27-11.84v-5.96c1.99-7.45,8.27-12.53,15.87-12.18l23-27.43-16.17-26.91c-.63-1.58-.23-3.11.73-4.45l7.36-7.33c1.72-1.51,4.08-1.67,5.8.03l18.95,18.87L136.31,28.35c1.02-1.21,1.78-2.65,3.3-3.16l44.78-15.18h2.81ZM70.97,117.82l10.88,10.86,85.84-72.29,12.18-36.5-16.15,5.26-20.52,6.87-72.23,85.8ZM95.56,158.61c1.21-1.17,1.88-1.68,2.61-2.72l-54.42-54.42c-1.06.79-1.79,1.59-2.7,2.68l20.51,34.11,34,20.34ZM60.55,146.6c-5.88-3.58-3.92-1.61-7.49-7.49l-19.47,23.05,3.9,3.9,23.06-19.46ZM24.04,167.38c-4.44.64-7.03,4.57-6.29,8.68.69,3.85,4.23,6.5,8.5,5.87,3.67-.54,6.64-4.31,6.04-8.32-.56-3.75-3.98-6.83-8.25-6.22Z"/>
  </g>
</svg>