<?xml version="1.0" encoding="UTF-8"?>
<svg id="_Слой_2" data-name="Слой 2" xmlns="http://www.w3.org/2000/svg" viewBox="0 0 39.39 25.66">
  <defs>
    <style>
      .cls-1 {
        fill: #dd923a;
      }

      .cls-2 {
        fill: #e29939;
      }
    </style>
  </defs>
  <g id="_Слой_1-2" data-name="Слой 1">
    <g>
      <g>
        <path class="cls-2" d="M39.38,11.25c-.34,3.44-16.53,2.16-24.42,1.37C7.07,11.84.96,8.41,1.3,4.97S8.31-.62,16.2.16s23.68,6.09,23.18,11.09Z"/>
        <path class="cls-2" d="M37.65,18.75c-.34,3.44-16.09,7.6-23.98,6.82C5.79,24.78-.33,21.35.01,17.91c.34-3.44,7.01-5.59,14.9-4.81,7.89.78,23.08,2.2,22.74,5.64Z"/>
      </g>
      <g>
        <path class="cls-1" d="M38.97,11.12c-.3,3.02-14.53,1.9-21.46,1.21-6.93-.69-12.3-3.7-12-6.72S11.67.69,18.6,1.38c6.93.69,20.81,5.35,20.37,9.74Z"/>
        <path class="cls-1" d="M37.08,18.77c-.3,3.02-14.14,6.68-21.07,5.99-6.93-.69-12.3-3.7-12-6.72s6.16-4.92,13.09-4.23c6.93.69,20.28,1.94,19.98,4.96Z"/>
      </g>
    </g>
  </g>
</svg>