<?xml version="1.0" encoding="UTF-8"?>
<svg id="_Слой_2" data-name="Слой 2" xmlns="http://www.w3.org/2000/svg" viewBox="0 0 3837.69 355.26">
  <defs>
    <style>
      .cls-1 {
        fill: #fbb03b;
      }
    </style>
  </defs>
  <g id="_Слой_1-2" data-name="Слой 1">
    <path class="cls-1" d="M664.36,117.86C876.16,75.79,960.03.24,1177.75,14.55c141.16,9.28,195.41,46.92,385.04,62.25,50.13,4.05,142.82-10.52,276.89-.9,47.56,3.41,86.72,8.11,113.19,11.69,48.4,5.67,115.06,12.47,194.56,17.36,85.26,5.24,258.99,15.93,433.42-.12,306.6-28.21,296.14-117.59,513.39-103.3,141.16,9.28,195.41,46.92,385.04,62.26,150.57,12.18,275.14,1.28,356.82-9.82.53,83.21,1.06,166.42,1.59,249.63-345.52-85.46-615.58-78.02-799.79-54.77-164.52,20.76-245.28,52.21-438.26,75.13-285.12,33.87-522.08,14.33-678.45-7.72-345.52-85.19-615.58-77.66-799.79-54.39-164.56,20.79-245.33,52.21-438.26,75.13-287,34.09-525.22,14.07-681.55-8.16C1.06,245.62.53,162.41,0,79.2c294.95,83.36,516.58,68.01,664.36,38.66Z"/>
  </g>
</svg>