<?xml version="1.0" encoding="UTF-8"?>
<svg id="_Слой_2" data-name="Слой 2" xmlns="http://www.w3.org/2000/svg" viewBox="0 0 311.05 617.29">
  <defs>
    <style>
      .cls-1, .cls-2, .cls-3, .cls-4, .cls-5, .cls-6, .cls-7, .cls-8, .cls-9 {
        stroke: #000;
      }

      .cls-1, .cls-10 {
        fill: #e5d49d;
      }

      .cls-1, .cls-6, .cls-8, .cls-11, .cls-9, .cls-12 {
        stroke-miterlimit: 10;
      }

      .cls-13 {
        fill: #6d2c22;
      }

      .cls-14 {
        fill: #536074;
      }

      .cls-2 {
        stroke-miterlimit: 10;
        stroke-width: 1px;
      }

      .cls-2, .cls-3, .cls-15, .cls-4, .cls-5 {
        fill: #c7a28c;
      }

      .cls-3 {
        stroke-miterlimit: 10;
        stroke-width: 1px;
      }

      .cls-16 {
        fill: #534741;
      }

      .cls-17 {
        fill: #fff;
      }

      .cls-4 {
        stroke-miterlimit: 10;
        stroke-width: 1px;
      }

      .cls-5 {
        stroke-miterlimit: 10;
        stroke-width: 1px;
      }

      .cls-6 {
        fill: #46715b;
      }

      .cls-7 {
        stroke-miterlimit: 10;
        stroke-width: 1px;
      }

      .cls-7, .cls-11, .cls-18, .cls-9 {
        fill: #f1c0aa;
      }

      .cls-8 {
        fill: #a4868b;
      }

      .cls-11, .cls-12 {
        stroke: #c7a28c;
        stroke-width: 3px;
      }

      .cls-12 {
        fill: none;
      }
    </style>
  </defs>
  <g id="_Слой_1-2" data-name=" Слой 1">
    <g>
      <path class="cls-1" d="M138.76,597c0,12.06-13.12,17.86-29.94,17.86s-30.98-5.8-30.98-17.86,13.64-21.83,30.46-21.83,30.46,9.78,30.46,21.83h0Z"/>
      <path class="cls-1" d="M177.28,598.93c0,12.06,13.12,17.86,29.94,17.86s30.98-5.8,30.98-17.86-13.64-21.83-30.46-21.83-30.46,9.78-30.46,21.83h0Z"/>
      <g>
        <path class="cls-8" d="M133.24,598.63c0,10.23-10.74,15.15-24.52,15.15s-25.37-4.92-25.37-15.15,11.71-33.31,25.49-33.31,24.4,23.08,24.4,33.31Z"/>
        <g>
          <path class="cls-10" d="M109.57,613.65c-18.7,0-27.04-4.04-27.04-13.08,0-5.89,3.5-7.01,9.97-7.01,2.01,0,4.33.12,6.78.24,3.06.16,6.53.33,10.29.33,4.28,0,7.94-.29,11.16-.54,2.35-.18,4.37-.34,6.1-.34,4.8,0,7.23,1.13,7.23,7.31,0,11.12-7.9,13.08-24.49,13.08h0Z"/>
          <path d="M126.84,592.75v1c4.65,0,6.73.98,6.73,6.81,0,9.64-5.61,12.58-23.99,12.58s-26.54-3.88-26.54-12.58c0-4.92,2.3-6.51,9.47-6.51,1.99,0,4.31.12,6.76.24,3.07.16,6.55.33,10.31.33,4.3,0,7.97-.29,11.2-.54,2.34-.18,4.35-.34,6.06-.34v-1M126.84,592.75c-4.1,0-9.84.88-17.26.88-6.78,0-12.57-.58-17.07-.58-6.65,0-10.47,1.26-10.47,7.51,0,10.47,10.73,13.58,27.54,13.58s24.99-2.12,24.99-13.58c0-6.4-2.55-7.81-7.73-7.81h0Z"/>
        </g>
      </g>
      <g>
        <path class="cls-8" d="M232.68,600.13c0,10.23-10.74,15.15-24.52,15.15s-25.37-4.92-25.37-15.15,11.71-33.31,25.49-33.31,24.4,23.08,24.4,33.31Z"/>
        <g>
          <path class="cls-10" d="M209.01,615.15c-18.7,0-27.04-4.04-27.04-13.08,0-5.89,3.5-7.01,9.97-7.01,2.01,0,4.33.12,6.78.24,3.06.16,6.53.33,10.29.33,4.28,0,7.94-.29,11.16-.54,2.35-.18,4.37-.34,6.1-.34,4.8,0,7.23,1.13,7.23,7.31,0,11.12-7.9,13.08-24.49,13.08h0Z"/>
          <path d="M226.28,594.25v1c4.65,0,6.73.98,6.73,6.81,0,9.64-5.61,12.58-23.99,12.58s-26.54-3.88-26.54-12.58c0-4.92,2.3-6.51,9.47-6.51,1.99,0,4.31.12,6.76.24,3.07.16,6.55.33,10.31.33,4.3,0,7.97-.29,11.2-.54,2.34-.18,4.35-.34,6.06-.34v-1M226.28,594.25c-4.1,0-9.84.88-17.26.88-6.78,0-12.57-.58-17.07-.58-6.65,0-10.47,1.26-10.47,7.51,0,10.47,10.73,13.58,27.54,13.58s24.99-2.12,24.99-13.58c0-6.4-2.55-7.81-7.73-7.81h0Z"/>
        </g>
      </g>
      <g>
        <g>
          <polygon class="cls-14" points="106.55 582.78 82.44 586.03 78.98 528.38 85.24 494.3 108.1 505.27 134.16 502.08 138.74 538.17 133.76 589.28 106.55 582.78"/>
          <path d="M85.61,495.04l22.15,10.62.26.13.29-.04,25.42-3.11,4.51,35.54-4.92,50.49-26.56-6.35-.18-.04-.18.02-23.49,3.16-3.42-57.05,6.12-33.38M84.86,493.57l-6.38,34.78,3.49,58.24,24.55-3.31,27.68,6.61,5.04-51.74-4.65-36.63-26.41,3.23-23.33-11.18h.01Z"/>
        </g>
        <g>
          <polygon class="cls-14" points="85.3 493.22 73.7 441.08 77.45 372.42 164.84 377.47 152.73 435.88 134.2 501.07 108.27 504.24 85.3 493.22"/>
          <path d="M77.92,372.94l86.32,4.99-11.98,57.81-18.44,64.87-25.46,3.11-22.62-10.85-11.53-51.84,3.71-68.09M76.97,371.89l-3.77,69.23,11.66,52.45,23.33,11.18,26.41-3.23,18.63-65.54,12.23-58.98-88.48-5.11h0Z"/>
        </g>
      </g>
      <g>
        <g>
          <polygon class="cls-14" points="175.06 538.64 178.47 500.31 206.25 505.28 227.42 489.97 234.77 522.33 232.51 589.3 206.87 584.09 181.34 590.61 175.06 538.64"/>
          <path d="M227.1,490.82l7.18,31.55-2.24,66.31-24.96-5.07-.22-.05-.22.06-24.86,6.35-6.2-51.35,3.36-37.73,27.03,4.84.42.07.34-.25,20.38-14.74M227.74,489.12l-21.61,15.63-28.1-5.03-3.46,38.93,6.35,52.58,25.97-6.64,26.11,5.3,2.28-67.62-7.54-33.16h0Z"/>
        </g>
        <g>
          <polygon class="cls-14" points="178.45 499.29 169.18 446.36 153.78 434.36 165.87 377.45 236.87 367.7 240.05 432.79 227.29 488.83 206 504.22 178.45 499.29"/>
          <path d="M236.39,368.27l3.15,64.47-12.71,55.79-20.96,15.16-27-4.83-9.18-52.39-.07-.38-.3-.24-15-11.7,11.95-56.26,70.11-9.62M237.34,367.13l-71.89,9.87-12.23,57.56,15.5,12.08,9.3,53.08,28.1,5.03,21.61-15.63,12.82-56.29-3.21-65.7h0Z"/>
        </g>
      </g>
      <g>
        <path class="cls-18" d="M155.52,217.67c-50.79,0-92.12-19.2-92.12-42.8v-101.14c0-30.15,41.32-54.68,92.12-54.68s92.12,24.53,92.12,54.68v101.14c0,23.6-41.32,42.8-92.12,42.8Z"/>
        <path d="M155.52,19.54c50.52,0,91.62,24.31,91.62,54.18v101.14c0,23.33-41.1,42.3-91.62,42.3s-91.62-18.98-91.62-42.3v-101.14c0-29.88,41.1-54.18,91.62-54.18M155.52,18.54c-51.15,0-92.62,24.71-92.62,55.18v101.14c0,23.92,41.47,43.3,92.62,43.3s92.62-19.39,92.62-43.3v-101.14c0-30.48-41.47-55.18-92.62-55.18h0Z"/>
      </g>
      <g>
        <path class="cls-15" d="M65.35,154.87c-7.83,0-16.58-9.72-20.79-23.12-4.92-15.64-2.14-30.96,6.2-34.15,1.01-.39,2.08-.58,3.18-.58,7.83,0,16.58,9.72,20.79,23.12,4.92,15.64,2.14,30.96-6.2,34.15-1.01.39-2.08.58-3.18.58h0Z"/>
        <path d="M53.93,96.52v1h0c7.62,0,16.16,9.57,20.31,22.77,4.84,15.39,2.19,30.43-5.91,33.53-.95.36-1.96.55-3,.55-7.62,0-16.17-9.57-20.32-22.77-4.84-15.39-2.19-30.43,5.91-33.53.95-.36,1.96-.55,3-.55v-1M53.93,96.52c-1.15,0-2.27.2-3.36.62-8.6,3.29-11.51,18.85-6.5,34.76,4.37,13.9,13.34,23.47,21.27,23.47,1.15,0,2.27-.2,3.36-.62,8.6-3.29,11.51-18.85,6.5-34.76-4.37-13.9-13.34-23.47-21.27-23.47h0Z"/>
      </g>
      <g>
        <path class="cls-15" d="M247.69,154.87c-1.1,0-2.17-.2-3.18-.58-8.34-3.19-11.12-18.51-6.2-34.15,4.21-13.39,12.96-23.12,20.79-23.12,1.1,0,2.17.2,3.18.58,8.34,3.19,11.12,18.51,6.2,34.15-4.21,13.39-12.96,23.12-20.79,23.12h0Z"/>
        <path d="M259.11,97.52c1.04,0,2.05.18,3,.55,8.1,3.1,10.75,18.14,5.91,33.53-4.15,13.19-12.69,22.77-20.32,22.77-1.04,0-2.05-.18-3-.55-8.1-3.1-10.75-18.14-5.91-33.53,4.15-13.19,12.69-22.77,20.32-22.77M259.11,96.52c-7.93,0-16.9,9.56-21.27,23.47-5,15.91-2.09,31.47,6.5,34.76,1.08.42,2.21.62,3.36.62,7.93,0,16.9-9.56,21.27-23.47,5-15.91,2.09-31.47-6.5-34.76-1.08-.42-2.21-.62-3.36-.62h0Z"/>
      </g>
      <g>
        <path class="cls-9" d="M247.58,290.29v-71.95c0-2.07-43.57-10.17-44.62-10.17h-92.88c-1.05,0-41.63,8.1-41.63,10.17v71.95c0,2.07,3.52,3.74,3.52,3.74l8.17,65.71c0,1.04-.9,1.99-1.78,2.67-1.1.84-1.81,2.12-1.92,3.56l-3.33,45.45c0,1,6.54,4.18,13.28,7.18,9.14,4.08,18.96,6.17,28.88,6.17h85.51c9.91,0,19.73-2.1,28.88-6.17,6.74-3,13.28-6.18,13.28-7.18l-3.33-45.45c-.11-1.43-.82-2.72-1.92-3.56-.89-.68-1.78-1.62-1.78-2.67l8.17-65.71s3.52-1.68,3.52-3.74h-.02Z"/>
        <polyline class="cls-11" points="76.46 284.45 134.84 284.45 145.14 269.41"/>
        <polyline class="cls-11" points="239.58 284.45 181.2 284.45 170.9 269.41"/>
        <line class="cls-12" x1="158.02" y1="365.92" x2="158.02" y2="295.11"/>
        <path class="cls-6" d="M76.44,365.96l-3.33,45.45c0,1,6.54,4.18,13.28,7.18,9.14,4.08,18.96,6.17,28.88,6.17h85.51c9.91,0,19.73-2.1,28.88-6.17,6.74-3,13.28-6.18,13.28-7.18l-3.33-45.45s-37.62,9.13-81.58,9.13-81.58-9.13-81.58-9.13h-.01Z"/>
      </g>
      <g>
        <path class="cls-9" d="M41.72,375.14l-30.95-2.81s-21.64-72.99,9.68-93.68c10.73-7.09,28.38.6,30.91,5.93,12.04,25.37-9.64,90.56-9.64,90.56h0Z"/>
        <path class="cls-9" d="M48.03,301.5l-33.72-11.37s.15-74.39,35.91-88.47c12.25-4.82,27.38,6.17,28.45,11.89,5.1,27.19-30.64,87.95-30.64,87.95Z"/>
      </g>
      <g>
        <g>
          <polygon class="cls-17" points="7.06 285.66 21.25 234.47 17.06 226.46 31.29 198.73 58.53 198.73 65.74 269.75 53.76 299.11 7.06 285.66"/>
          <path d="M58.08,199.23l7.15,70.45-11.76,28.82-45.79-13.18,14.01-50.53.11-.38-.18-.35-3.98-7.6,13.97-27.22h26.48M58.98,198.23h-28l-14.49,28.23,4.22,8.06-14.27,51.48,47.61,13.71,12.2-29.89-7.27-71.59h0Z"/>
        </g>
        <g>
          <polygon class="cls-17" points="28.68 363.66 4.35 363.66 .5 316.46 3.35 305.25 .94 299.27 6.72 286.61 53.68 300.13 58.46 312.22 45.72 370.14 28.68 363.66"/>
          <path d="M7,287.21l46.31,13.33,4.64,11.72-12.58,57.21-16.41-6.25-.17-.07H4.83l-3.8-46.65,2.79-10.97.08-.32-.12-.3-2.27-5.63,5.51-12.08M6.45,286.01l-6.05,13.25,2.43,6.03-2.83,11.13,3.89,47.74h24.7l17.5,6.66,12.9-58.64-4.93-12.46-47.61-13.71h0Z"/>
        </g>
      </g>
      <g>
        <ellipse class="cls-5" cx="40.39" cy="393.79" rx="8.36" ry="17.26" transform="translate(-67.9 13.03) rotate(-10.02)"/>
        <ellipse class="cls-9" cx="24.67" cy="381.35" rx="17.56" ry="18.36"/>
        <ellipse class="cls-2" cx="14.65" cy="398.34" rx="17.24" ry="9.52" transform="translate(-376.65 322.39) rotate(-76.91)"/>
        <ellipse class="cls-7" cx="21.37" cy="413.31" rx="9.82" ry="16.61" transform="translate(-373.87 290.58) rotate(-69.79)"/>
      </g>
      <g>
        <path class="cls-9" d="M270.81,371.73l30.95-2.81s21.64-72.99-9.68-93.68c-10.73-7.09-28.38.6-30.91,5.93-12.04,25.37,9.64,90.56,9.64,90.56h0Z"/>
        <path class="cls-9" d="M264.5,298.09l33.72-11.37s-.15-74.39-35.91-88.47c-12.25-4.82-27.38,6.17-28.45,11.89-5.1,27.19,30.64,87.95,30.64,87.95Z"/>
      </g>
      <g>
        <g>
          <polygon class="cls-17" points="247.43 266.1 247.43 196.75 279.68 196.75 288.73 228.64 292.38 230.59 291.9 238.59 303.99 283.68 257.32 297.12 247.43 266.1"/>
          <path d="M279.3,197.25l8.89,31.31.12.41.38.2,3.18,1.7-.46,7.6v.16l.03.16,11.94,44.54-45.73,13.17-9.72-30.48v-68.77h31.37M280.06,196.25h-33.13v69.93l10.07,31.55,47.61-13.71-12.2-45.49.5-8.25-3.75-2-9.1-32.04h0Z"/>
        </g>
        <g>
          <polygon class="cls-17" points="252.58 310.24 257.37 298.15 304.32 284.63 310.1 297.29 307.69 303.27 310.54 314.48 306.7 361.68 282.36 361.68 265.32 368.16 252.58 310.24"/>
          <path d="M304.05,285.23l5.51,12.08-2.27,5.63-.12.3.08.32,2.79,10.97-3.8,46.65h-23.96l-.17.07-16.41,6.25-12.58-57.21,4.64-11.72,46.31-13.33M304.6,284.03l-47.61,13.71-4.93,12.46,12.9,58.64,17.5-6.66h24.7l3.89-47.74-2.83-11.13,2.43-6.03-6.05-13.25h0Z"/>
        </g>
      </g>
      <g>
        <ellipse class="cls-3" cx="272.07" cy="390.3" rx="17.26" ry="8.36" transform="translate(-159.62 590.31) rotate(-79.98)"/>
        <ellipse class="cls-9" cx="287.87" cy="377.94" rx="17.56" ry="18.36"/>
        <ellipse class="cls-4" cx="297.95" cy="394.81" rx="9.52" ry="17.24" transform="translate(-81.67 77.74) rotate(-13.09)"/>
        <ellipse class="cls-7" cx="291.16" cy="409.92" rx="16.61" ry="9.82" transform="translate(-123.68 125.82) rotate(-20.21)"/>
      </g>
      <g>
        <g>
          <polygon class="cls-17" points="139.78 445.69 75.38 443.03 67.22 427.4 73.64 372.43 134.84 378.22 215.26 373.4 240.12 366.1 246.41 428.5 236.25 439.77 173.35 446.14 139.78 445.69"/>
          <path d="M239.68,366.75l6.21,61.58-9.88,10.97-62.68,6.35-33.51-.45-64.12-2.65-7.96-15.23,6.35-54.33,60.72,5.74h.16l80.29-4.82h.11l.11-.04,24.22-7.11M240.55,365.45l-25.38,7.45-80.29,4.82-61.69-5.83-6.5,55.61,8.37,16.02,64.7,2.68,33.59.45,63.12-6.39,10.43-11.58-6.37-63.22h.02Z"/>
        </g>
        <g>
          <polygon class="cls-17" points="75.54 358.28 71.31 297.42 66.75 291.87 66.75 269.83 59.55 198.89 98.09 208.68 141.14 203.56 167.87 204.33 212.09 206.42 246.43 196.91 246.98 268.88 248.35 292.49 243.32 299.53 237.26 353.41 209.57 359.33 125.88 363.66 75.54 358.28"/>
          <path d="M245.94,197.57l.55,71.31v.05l1.35,23.42-4.85,6.79-.15.21-.03.26-6,53.39-27.26,5.83-83.65,4.33-49.88-5.33-4.19-60.29-.02-.32-.2-.25-4.35-5.28v-21.97l-7.13-70.17,37.76,9.59.18.05.18-.02,42.88-5.11,26.72.77,44.14,2.09h.16l.15-.04,33.64-9.32M246.93,196.25l-34.89,9.67-44.14-2.09-26.81-.77-42.95,5.11-39.14-9.94,7.27,71.59v22.23l4.58,5.56,4.25,61.12,50.79,5.42,83.81-4.34,28.04-6,6.08-54.11,5.05-7.07-1.37-23.77-.56-72.62h0Z"/>
        </g>
        <g>
          <polygon class="cls-13" points="73.73 371.44 74.55 359.18 125.81 364.65 209.7 360.32 238.99 353.8 240.02 366 215.05 372.42 134.9 377.22 73.73 371.44"/>
          <path d="M238.54,354.41l.95,11.21-24.47,6.29-80.11,4.81-60.64-5.73.75-11.25,50.74,5.42h.16l83.81-4.34h.08l.08-.02,28.64-6.39M239.44,353.18l-29.76,6.64-83.81,4.34-51.78-5.53-.89,13.26,61.69,5.83,80.29-4.82,25.38-6.53-1.12-13.19h0Z"/>
        </g>
      </g>
      <g>
        <g>
          <polygon class="cls-16" points="70.1 375.28 70.1 314.43 80.83 299.43 70.17 195.53 120.99 209.14 143.05 216.62 181.35 216.09 192.93 206.31 246.61 194.53 236.56 289.73 248.21 308.92 243.6 367.06 215.29 375.26 141.04 381.77 70.1 375.28"/>
          <path d="M246.04,195.17l-9.96,94.34-.04.34.18.29,11.48,18.9-4.57,57.63-27.89,8.07-74.2,6.52-70.44-6.45v-60.23l10.53-14.71.22-.31-.04-.38-10.56-102.99,50.09,13.41,21.98,7.45.16.06h.17l38.03-.52h.36l.27-.24,11.35-9.59,52.88-11.6M247.18,193.9l-54.48,11.95-11.54,9.74-38.03.52-22.01-7.46-51.53-13.79,10.71,104.43-10.71,14.98v61.47l71.44,6.54,74.39-6.54,28.65-8.29,4.65-58.64-11.65-19.18,10.11-95.72h0Z"/>
        </g>
        <g>
          <polygon class="cls-10" points="66.25 316.24 66.39 311.81 69.24 309.55 73.71 302.91 73.91 272.44 70.67 226.57 69.57 228.89 64.51 206.82 62.81 204.22 63.71 192.75 63.12 191.82 68.54 192.43 69.44 191.57 74.51 202 81.49 246.67 79.8 246.2 80.81 305.15 78.4 305.56 68.84 319.48 66.25 316.24"/>
          <path d="M69.29,192.4l4.74,9.75,6.85,43.83-.3-.08-1.29-.36.02,1.34,1,57.85-1.79.31-.42.07-.24.35-9.05,13.19-2.06-2.57.13-4.02,2.61-2.06.12-.1.09-.13,4.34-6.46.17-.25v-.3l.2-30.32v-.08l-3.11-43.92-.27-3.81-1.3,2.74-4.72-20.58-.04-.17-.1-.15-1.56-2.37.87-11.13.03-.33-.12-.19,4.15.46.46.05.34-.32.24-.23M69.59,190.74l-1.23,1.17-6.22-.7,1.05,1.67-.9,11.48,1.74,2.66,5.36,23.39.9-1.9,3.11,43.92-.19,30.32-4.34,6.46-2.97,2.35-.16,4.85,3.13,3.91,9.82-14.3,2.63-.45-1.01-58.71,1.8.5-7.11-45.51-5.4-11.11h-.01Z"/>
        </g>
        <g>
          <polygon class="cls-10" points="85.1 379.77 68.39 375.31 66.24 371.05 68.3 366.14 71.83 367.86 73.99 369.97 91.75 374.98 137.2 376.52 186.3 371.72 233.01 365.94 238.25 361.22 243.64 359.36 246.99 362.24 245.23 367.59 232.7 373.46 167.94 380.55 138.95 383.67 85.1 379.77"/>
          <path d="M243.54,359.93l2.88,2.47-1.59,4.82-12.26,5.74-64.67,7.09-28.95,3.11-53.71-3.9-16.49-4.39-1.95-3.85,1.77-4.21,2.98,1.45,2.01,1.97.18.18.25.07,17.58,4.95.12.03h.12l45.39,1.55h.14l49.06-4.8,46.53-5.76.31-.04.23-.21,5.05-4.54,5.03-1.73M243.75,358.8l-5.76,1.99-5.2,4.68-46.53,5.76-49.04,4.8-45.39-1.54-17.58-4.95-2.12-2.08-4.08-1.98-2.36,5.61,2.36,4.67,17.02,4.53,53.89,3.91,29.04-3.12,64.84-7.11,12.8-6,1.93-5.87-3.82-3.28h0v-.02Z"/>
        </g>
        <g>
          <polygon class="cls-10" points="140.88 217.67 115.63 207.78 113.98 204.39 125.46 204.64 127.25 201.06 157.98 208.68 190.89 205.42 194.33 203.07 198.69 204.85 196.46 211.87 194.21 213.09 179.38 217.63 176.31 216.13 156.59 217.67 140.88 217.67"/>
          <path d="M127.52,201.64l30.26,7.51.17.04.17-.02,32.7-3.24.25-.03.21-.14,3.1-2.12,3.69,1.5-2.03,6.39-1.98,1.07-14.64,4.5-2.77-1.35-.25-.12-.27.02-19.54,1.53h-15.61l-24.99-9.78-1.2-2.48,10.35.22h.63l.28-.55,1.47-2.94M126.98,200.47l-1.82,3.66-11.98-.26,2.08,4.3,25.53,9.99h15.84l19.58-1.53,3.13,1.53,15.11-4.64,2.43-1.31,2.43-7.66-5.04-2.05-3.55,2.43-32.7,3.24-31.04-7.7h0Z"/>
        </g>
        <g>
          <polygon class="cls-10" points="242.77 313.85 235.4 297.41 235.89 230.32 234.15 228.51 241.66 197.27 246.86 189.81 246.47 188.71 249.93 188.36 253.18 191.28 253.39 199.26 250.21 200.88 244 230 244.73 233.04 242.29 267.61 242.48 298.1 247.7 307.2 249.82 307.26 249.95 311.45 247.14 314.97 242.77 313.85"/>
          <path d="M249.76,188.88l2.93,2.63.2,7.45-2.68,1.36-.43.22-.1.47-6.14,28.78-.05.22.05.22.69,2.85-2.44,34.49v.08l.19,30.32v.26l.13.23,5.01,8.74.28.49.56.02,1.36.04.11,3.54-2.5,3.12-3.82-.98-7.23-16.12.48-66.78v-.41l-.28-.29-1.4-1.47,7.42-30.88,4.99-7.17.29-.42-.17-.48-.09-.26,2.61-.26M250.1,187.84l-4.31.44.51,1.46-5.1,7.32-7.59,31.6,1.78,1.86-.48,67,7.52,16.76,4.91,1.26,3.13-3.91-.16-4.85-2.31-.06-5.01-8.74-.19-30.32,2.45-34.65-.72-3,6.14-28.78,3.25-1.65-.23-8.52-3.58-3.21h-.01Z"/>
        </g>
      </g>
      <g>
        <polygon class="cls-1" points="192.5 235.6 130.28 235.6 136.77 195.2 178.32 194.4 192.5 235.6"/>
        <polygon class="cls-1" points="178.32 194.4 136.77 195.2 82.11 168.85 88.63 134.17 117.14 77.7 163.58 75.15 199.31 77.7 223.43 135.66 225.39 174.15 205.24 187.29 178.32 194.4"/>
        <polygon class="cls-1" points="159.16 194.77 136.77 195.2 107.79 188.31 82.11 168.85 88.63 134.17 117.14 77.7 163.58 75.15 153.75 171.87 159.16 194.77"/>
        <polygon class="cls-1" points="82.11 168.85 72.12 150.63 66.25 93.14 104.32 45.79 166.66 35.58 156.24 54.33 163.58 75.15 117.14 77.7 88.63 134.17 82.11 168.85"/>
        <polygon class="cls-1" points="225.39 174.15 239.68 154.73 245.55 97.24 227.2 42.34 168.15 33.72 156.24 54.33 163.58 75.15 199.31 77.7 223.43 135.66 225.39 174.15"/>
        <polygon class="cls-1" points="248.14 102.21 255.92 96.52 258.03 61.27 229.36 22.4 168.2 2.53 153.87 8.56 149.82 22.4 150.85 38.17 208.72 47.79 245.55 97.24 248.14 102.21"/>
        <polygon class="cls-1" points="62.9 100.21 52.37 92.61 55 59.27 83.68 20.4 144.84 .53 159.16 6.56 163.22 20.4 150.65 37.61 104.32 45.79 66.25 93.14 62.9 100.21"/>
      </g>
    </g>
  </g>
</svg>