<?xml version="1.0" encoding="UTF-8"?>
<svg id="_Слой_1" data-name="Слой 1" xmlns="http://www.w3.org/2000/svg" viewBox="0 0 209.28 263.05">
  <defs>
    <style>
      .cls-1 {
        fill: #009245;
      }

      .cls-1, .cls-2 {
        stroke: #006837;
        stroke-miterlimit: 10;
        stroke-width: 2px;
      }

      .cls-2 {
        fill: #22b573;
      }

      .cls-3 {
        fill: #42210b;
      }

      .cls-4 {
        fill: #754c24;
      }
    </style>
  </defs>
  <g>
    <path class="cls-4" d="M139.47,235.45c1.73,1.19,3.36,2.45,4.31,4.27,1.42,2.75.95,6.49,3.68,8.28.92.6,2.19.98,2.51,1.96.32.99-.65,2.02-1.77,2.28s-2.29-.02-3.39-.3c-2.49-.63-4.98-1.26-7.47-1.88-3.42-.86-6.96-1.78-9.68-3.83-2.87-2.15-4.57-5.65-8.49-6.03-4.71-.47-9.78,0-14.53,0-5.37,0-10.74,0-16.11,0-2.89,0-5.08-.2-7.84.7-3.66,1.19-7.31,2.45-11.13,3.17-5.02.94-10.5.88-14.97-1.36,1.67-.93,3.34-1.87,5.01-2.8,2.08-1.16,4.2-2.35,5.82-4,.71-.72,1.31-1.53,2-2.26,1.1-1.17,2.43-2.15,3.74-3.12,2.91-2.15,7.12-4.06,7.74-7.49s1.3-6.77,1.95-10.16c.74-3.87,1.48-7.74,2.22-11.61,0,0,44.88,0,44.88,0,1.19,6.2,2.37,12.4,3.56,18.6.73,3.82.53,9.26,3.48,12.24,1.28,1.29,2.92,2.3,4.47,3.37Z"/>
    <path class="cls-3" d="M139.52,235.37c2.07,1.37,4.14,3.08,4.89,5.55.82,2.24.83,5.07,2.84,6.62.98.81,2.51.95,3.04,2.36.25.79-.18,1.58-.7,2.04-1.6,1.44-4,.68-5.75.29-6.01-1.62-12.92-1.91-17.85-6.2-1.92-1.75-3.45-3.73-5.45-4.47-2.25-.72-4.69-.48-7.03-.54-9.9.45-20.05.11-29.79.24-1.18.11-2.24.37-3.43.77-8.23,2.72-17.78,5.47-26.02,1.29,0,0-1.16-.61-1.16-.61.57-.3,6.33-3.41,7.07-3.8,1.96-1.06,3.86-2.2,5.32-3.81,2.79-3.66,7.09-5.76,10.55-8.43,1.27-1.04,2.33-2.31,2.59-3.95,0,0,.33-1.65.33-1.65,0,0,1.22-6.63,1.22-6.63.83-4.42,1.63-8.85,2.37-13.28l.07-.41h.43c14.79-.29,30.14-.55,44.88-.25,0,0,.64.01.64.01l.1.6,3.1,18.49c1.05,7.79.2,11.39,7.73,15.77h0ZM139.41,235.53c-7.65-4.39-6.84-8.12-8.25-15.82,0,0-3.95-18.33-3.95-18.33l.74.61c-3.74.06-7.48.12-11.22.13-10.81.04-22.79-.15-33.66-.37,0,0,.5-.42.5-.42-1.38,6.34-2.73,13.43-4.01,19.83,0,0-.31,1.66-.31,1.66-.24,1.76-1.44,3.28-2.76,4.36-2.67,2.15-5.63,3.69-8.07,6.05-.8.74-1.46,1.61-2.21,2.49-1.53,1.79-3.52,3.04-5.46,4.18l-5.84,3.39s-.03-1.22-.03-1.22c4.34,2.05,9.42,2.08,14.16,1.18,2.39-.46,4.75-1.13,7.11-1.88,2.25-.68,5.01-1.86,7.37-2.07,7.21-.3,15.25-.1,22.5-.16,5.01.08,10.34-.82,15.26.55,2.56.99,4.11,3.27,5.95,5.01,3.52,3.33,8.71,4.15,13.27,5.53,0,0,3.6,1,3.6,1,1.7.42,3.52,1.23,5,.12.41-.33.67-.82.55-1.27-.38-1.09-1.87-1.37-2.71-2.16-1.03-.85-1.58-2.1-1.9-3.3-.34-1.22-.52-2.45-.89-3.62-.7-2.43-2.72-4.1-4.74-5.48h0Z"/>
  </g>
  <g>
    <path class="cls-4" d="M112.51,220.16c6.81,9.56-1.51,13.14.18,19.85.54,2.15-7.4,8.14-9.65,9.05-1.32.54-2.82.87-3.83,1.81-.68.63-.38,4.14-1.3,4.42l-8.05,5.57c-3.49,2.95-12.14.84-12.73-3.3-.08-.52-.17-3.05,0-3.55l9.56-11.54c4.79-4.67,4.79-9.94,7.13-24.07"/>
    <path class="cls-3" d="M112.59,220.1c2.18,2.92,3.63,6.71,2.42,10.34-.78,2.82-2.42,5.38-2.14,8.35,0,0,.12.63.12.63.5,1.53-.76,2.89-1.65,3.91-2.23,2.34-4.76,4.38-7.56,6.01-1.38.72-3.01.95-4.13,1.96-.45,1.11-.25,2.54-.71,3.73-.13.26-.23.66-.84.9l.18-.09-7.99,5.66c-1.08.94-3.21,1.56-4.76,1.56-3.46-.02-7.33-.97-9.09-4.38-.41-1.14-.39-2.34-.41-3.52.04-.59-.04-.77.15-1.47,0,0,.04-.14.04-.14l.13-.16c1.58-1.93,3.15-3.88,4.76-5.79,1.63-1.94,3.24-3.89,4.91-5.8,4.69-4.35,5.03-11.23,6.37-17.15.43-2.09.84-4.18,1.32-6.26,0,0,.2.03.2.03-.4,3.81-.93,8.98-1.48,12.71-.47,4.18-2.08,9.24-5.02,11.94-2.81,3.44-7.18,9.03-9.35,11.27.02-.09-.03.16-.03.3-.01.94-.11,2.22.12,3.11,1.31,3.53,8.33,4.75,11.19,2.51.05,0,8.11-5.52,8.17-5.53,0,0,.18-.09.18-.09-.16.08-.04.03,0-.11.53-1.35.1-2.92,1.1-4.14,1.28-1.15,3.01-1.37,4.44-2.06,3.24-1.95,6.97-4.39,8.94-7.66.2-.39.06-.71.01-1.12-.09-.41-.13-1.01-.11-1.42.14-4.56,4.04-8.42,2.64-13.1-.44-1.74-1.34-3.32-2.32-4.83,0,0,.16-.12.16-.12h0Z"/>
  </g>
  <g>
    <g>
      <path class="cls-2" d="M207.04,204.62s-76.63,8.26-93.76-10.35c-13.27-14.41,4-24.8,13.75-26.79,34.12-6.95,80.01,37.14,80.01,37.14Z"/>
      <path class="cls-2" d="M205.23,215.31s-74.81-3.4-91.95-22.02c-13.27-14.41,3.96-28.62,13.75-26.79,30.73,5.76,78.19,48.8,78.19,48.8Z"/>
      <path class="cls-1" d="M182.35,225.17s-54.28-11.96-71.42-30.57c-13.27-14.41,4.55-30.32,13.75-26.79,33.07,12.7,57.66,57.35,57.66,57.35Z"/>
      <path class="cls-1" d="M152.18,227.23s-26.1-8.73-41.25-32.62c-10.31-16.26,7.42-33.75,13.75-26.79,20.94,23.01,27.5,59.41,27.5,59.41Z"/>
      <path class="cls-1" d="M129.58,232.09s-26.4-12.44-30.84-37.48c-3.28-18.49,7.42-33.75,13.75-26.79,20.94,23.01,17.08,64.27,17.08,64.27Z"/>
    </g>
    <g>
      <path class="cls-2" d="M2.74,200.06s76.22,12.82,93.35-5.79c13.27-14.41-3.8-27.24-13.75-26.79-30.52,1.4-79.6,32.58-79.6,32.58Z"/>
      <path class="cls-1" d="M4.15,215.31s74.81-3.4,91.95-22.02c13.27-14.41-3.96-28.62-13.75-26.79-30.73,5.76-78.19,48.8-78.19,48.8Z"/>
      <path class="cls-1" d="M27.02,225.17s54.28-11.96,71.42-30.57c13.27-14.41-4.55-30.32-13.75-26.79-33.07,12.7-57.66,57.35-57.66,57.35Z"/>
      <path class="cls-1" d="M57.19,227.23s26.1-8.73,41.25-32.62c10.31-16.26-7.42-33.75-13.75-26.79-20.94,23.01-27.5,59.41-27.5,59.41Z"/>
      <path class="cls-1" d="M84.19,232.09s16.73-13.27,26.43-37.48c7.06-17.61-7.63-33.9-13.75-26.79-28.81,33.49-12.68,64.27-12.68,64.27Z"/>
    </g>
  </g>
  <g>
    <g>
      <path class="cls-2" d="M15.69,181.24s57.56-1.98,74.69-19.49c13.27-13.56-3.86-26.44-13.75-25.2-46.64,5.85-60.94,44.69-60.94,44.69Z"/>
      <path class="cls-1" d="M29.2,188.33s46.4-7.84,63.53-25.35c13.27-13.56-4.55-28.52-13.75-25.2-33.07,11.95-49.78,50.55-49.78,50.55Z"/>
      <path class="cls-1" d="M45.86,191.74s31.72-6.28,46.87-28.76c10.31-15.3-6.36-30.91-13.75-25.2-25.99,20.08-33.12,53.96-33.12,53.96Z"/>
      <path class="cls-1" d="M70.93,195.05s29.55-8.51,33.98-32.07c3.28-17.39-7.42-31.75-13.75-25.2-20.94,21.65-20.23,57.27-20.23,57.27Z"/>
    </g>
    <g>
      <path class="cls-2" d="M189.47,182.46s-64.77-2.29-81.9-19.8c-13.27-13.56,3.95-23.54,13.75-25.2,26.26-4.44,68.15,45,68.15,45Z"/>
      <path class="cls-2" d="M178.14,187.21s-53.44-7.95-70.57-25.46c-13.27-13.56,3.96-26.93,13.75-25.2,30.73,5.42,56.82,50.66,56.82,50.66Z"/>
      <path class="cls-1" d="M160.65,191.74s-38.29-11.25-55.42-28.76c-13.27-13.56,4.55-28.52,13.75-25.2,33.07,11.95,41.67,53.96,41.67,53.96Z"/>
      <path class="cls-1" d="M135.25,195.05s-14.89-9.59-30.03-32.07c-10.31-15.3,7.42-31.75,13.75-25.2,20.94,21.65,16.28,57.27,16.28,57.27Z"/>
      <path class="cls-1" d="M114.54,199.75s-22.54-28.52-23.31-44.03c-.88-17.89,27.35-18.16,25.17-9.35-6.73,27.23-1.87,53.38-1.87,53.38Z"/>
    </g>
  </g>
  <g>
    <g>
      <path class="cls-2" d="M186.22,154.58s-57.31-3.94-72.44-19.54c-11.72-12.08,3.49-20.98,12.15-22.45,23.2-3.95,60.3,41.99,60.3,41.99Z"/>
      <path class="cls-2" d="M180.33,132.64s-48.93,6.13-66.55,1.59c-16.3-4.2,3.61-20.24,12.15-22.45,26.25-6.78,54.41,20.86,54.41,20.86Z"/>
      <path class="cls-1" d="M174.79,160.94s-47.95-10.02-63.08-25.62c-11.72-12.08,4.02-25.41,12.15-22.45,29.21,10.64,50.93,48.07,50.93,48.07Z"/>
      <path class="cls-1" d="M148.14,162.67s-23.05-7.32-36.43-27.34c-9.11-13.63,6.55-28.29,12.15-22.45,18.49,19.29,24.29,49.79,24.29,49.79Z"/>
      <path class="cls-1" d="M118.46,166.1s-13.6-9.79-17.52-30.78c-2.89-15.5,6.55-28.29,12.15-22.45,18.49,19.29,5.37,53.23,5.37,53.23Z"/>
    </g>
    <g>
      <path class="cls-2" d="M22.86,138.77s31.64,13.92,75.73-3.73c16.63-6.65-3.49-20.98-12.15-22.45-23.2-3.95-63.59,26.18-63.59,26.18Z"/>
      <path class="cls-2" d="M17.38,152.68s39.81,3.22,81.21-18.45c14.91-7.81-17.17-29.71-23-23.14-18.4,20.73-58.21,41.59-58.21,41.59Z"/>
      <path class="cls-1" d="M37.59,160.94s47.95-10.02,63.08-25.62c11.72-12.08-4.02-25.41-12.15-22.45-29.21,10.64-50.93,48.07-50.93,48.07Z"/>
      <path class="cls-1" d="M64.24,162.67s23.05-7.32,36.43-27.34c9.11-13.63-6.55-28.29-12.15-22.45-18.49,19.29-24.29,49.79-24.29,49.79Z"/>
      <path class="cls-1" d="M86.55,161.08s22.96-6.5,24.88-25.75c1.56-15.64-6.74-28.42-12.15-22.45-25.45,28.07-12.74,48.2-12.74,48.2Z"/>
    </g>
  </g>
  <g>
    <g>
      <path class="cls-2" d="M172.52,119.64s-49.67-1.87-64.46-18.35c-11.45-12.76,17.79-30.67,23.34-24.08,24.45,29.02,41.12,42.43,41.12,42.43Z"/>
      <path class="cls-2" d="M160.87,126.32s-40.04-7.38-54.83-23.86c-11.45-12.76,3.93-26.85,11.87-23.72,28.54,11.24,42.96,47.58,42.96,47.58Z"/>
      <path class="cls-1" d="M146.49,129.52s-27.38-5.91-40.45-27.07c-8.9-14.4,5.49-29.09,11.87-23.72,22.43,18.9,28.58,50.79,28.58,50.79Z"/>
      <path class="cls-1" d="M124.85,132.64s-25.5-8.01-29.33-30.18c-2.83-16.37,6.4-29.89,11.87-23.72,18.07,20.38,17.46,53.9,17.46,53.9Z"/>
    </g>
    <g>
      <path class="cls-2" d="M37.59,95.04s47.64,18.01,62.42,1.53c11.45-12.76-9-29.6-15.34-23.78-22.63,20.76-47.08,22.25-47.08,22.25Z"/>
      <path class="cls-2" d="M32.33,125.26s46.12-7.48,60.9-23.96c11.45-12.76-3.42-25.34-11.87-23.72-26.52,5.1-49.03,47.68-49.03,47.68Z"/>
      <path class="cls-1" d="M47.43,129.52s33.04-10.59,47.83-27.07c11.45-12.76-3.93-26.85-11.87-23.72-28.54,11.24-35.96,50.79-35.96,50.79Z"/>
      <path class="cls-1" d="M65.23,127.43s16.95-3.82,30.02-24.98c8.9-14.4-16.25-31.88-17.19-23.69-3.15,27.59-12.83,48.67-12.83,48.67Z"/>
      <path class="cls-1" d="M97.4,137.07s12.64-30.64,7.09-47.24c-5.3-15.84-5.3-17.4-10.59-11.09-24.87,29.65,3.5,58.33,3.5,58.33Z"/>
    </g>
  </g>
  <g>
    <g>
      <path class="cls-2" d="M166,90.68s-42.5-1.83-53.71-14.2c-8.68-9.58,2.46-18.03,9-17.81,25.76.86,44.72,32.01,44.72,32.01Z"/>
      <path class="cls-2" d="M160.65,101.35s-34.53-11.3-45.74-23.68c-8.68-9.58,2.98-20.16,9-17.81,21.64,8.44,36.74,41.48,36.74,41.48Z"/>
      <path class="cls-1" d="M137.73,99.03s-17.07-5.81-26.98-21.69c-6.74-10.81,4.85-22.44,9-17.81,13.69,15.3,17.99,39.5,17.99,39.5Z"/>
      <path class="cls-1" d="M122.95,102.26s-17.27-8.27-20.17-24.92c-2.14-12.29,17.7-14.89,16.87-8.74-2.05,15.21,3.3,33.65,3.3,33.65Z"/>
    </g>
    <g>
      <path class="cls-2" d="M46.51,80.33s43.32,9.16,54.53-3.21c8.68-9.58-2.58-16.64-9-17.81-17.18-3.13-45.53,21.02-45.53,21.02Z"/>
      <path class="cls-2" d="M40.9,91.11s48.94-2.26,60.15-14.64c8.68-9.58-2.59-19.03-9-17.81-20.1,3.83-51.15,32.45-51.15,32.45Z"/>
      <path class="cls-1" d="M55.86,97.67s35.51-7.95,46.72-20.32c8.68-9.58-2.98-20.16-9-17.81-21.64,8.44-37.72,38.13-37.72,38.13Z"/>
      <path class="cls-1" d="M75.6,99.03s17.07-5.81,26.98-21.69c6.74-10.81-4.85-22.44-9-17.81-13.69,15.3-17.99,39.5-17.99,39.5Z"/>
      <path class="cls-1" d="M93.26,102.26s10.94-8.82,17.29-24.92c4.62-11.71-4.99-22.54-9-17.81-18.85,22.26-8.3,42.73-8.3,42.73Z"/>
    </g>
  </g>
  <g>
    <g>
      <path class="cls-2" d="M60.75,61.99s31.7,5.18,40.69-5.67c6.97-8.4-3.07-18.83-7.22-15.62-14.53,11.24-33.47,21.29-33.47,21.29Z"/>
      <path class="cls-1" d="M69.32,72.79s24.36-4.86,33.35-15.71c6.97-8.4-2.39-17.68-7.22-15.62-17.36,7.4-26.13,31.33-26.13,31.33Z"/>
      <path class="cls-1" d="M78.07,74.9s16.65-3.89,24.61-17.82c5.41-9.48-3.34-19.15-7.22-15.62-13.65,12.44-17.39,33.44-17.39,33.44Z"/>
      <path class="cls-1" d="M91.23,76.96s15.51-5.28,17.84-19.87c1.72-10.78-3.89-19.68-7.22-15.62-10.99,13.42-10.62,35.49-10.62,35.49Z"/>
    </g>
    <g>
      <path class="cls-2" d="M153.46,69.16s-34-1.42-43-12.27c-6.97-8.4,3.63-19.45,7.22-15.62,13.6,14.53,35.78,27.89,35.78,27.89Z"/>
      <path class="cls-2" d="M147.51,72.1s-28.05-4.93-37.05-15.78c-6.97-8.4,2.08-16.69,7.22-15.62,16.13,3.36,29.83,31.39,29.83,31.39Z"/>
      <path class="cls-1" d="M140.87,76.78s-20.1-6.97-29.1-17.82c-6.97-8.4,4.81-20.28,7.22-15.62,11.27,21.76,21.88,33.44,21.88,33.44Z"/>
      <path class="cls-1" d="M125,76.96s-7.81-5.95-15.77-19.87c-5.41-9.48,3.89-19.68,7.22-15.62,10.99,13.42,8.55,35.49,8.55,35.49Z"/>
      <path class="cls-1" d="M107.93,79.87s-7.69-20.17-4.31-31.1,3.22-11.45,6.44-7.31c15.13,19.52-2.13,38.41-2.13,38.41Z"/>
    </g>
  </g>
  <g>
    <path class="cls-1" d="M92.77,9.9s10.09-2.26,11.13,4.28c.77,4.83-1.74,8.82-3.23,7-4.92-6.01-7.89-11.27-7.89-11.27Z"/>
    <g>
      <path class="cls-2" d="M122.22,11.4s-9.87-2.71-16.56-1.62c-4.83.79.89,7.12,3.23,7,10.01-.52,13.32-5.38,13.32-5.38Z"/>
      <path class="cls-2" d="M115.91,3.95s-6.69-.41-10.25,5.83c-2.42,4.25,1.74,8.82,3.23,7,4.92-6.01,7.01-12.82,7.01-12.82Z"/>
      <path class="cls-2" d="M101.38,1.72s-1.06,9.61,1.64,13.97c2.57,4.16,2.69,4.6,3.62,2.44,4.36-10.17-5.25-16.41-5.25-16.41Z"/>
    </g>
  </g>
  <g>
    <g>
      <path class="cls-1" d="M101.56,22.75c3.05,3.68-.89,7.17-3.16,6.83"/>
      <path class="cls-2" d="M85.37,22.75s12.8-5.08,16.73-.33c3.05,3.68-1.05,7.73-3.16,6.83-7.59-3.24-13.57-6.5-13.57-6.5Z"/>
      <path class="cls-1" d="M91.34,14.62s7.28,1.7,10.76,7.79c2.37,4.15-1.46,8.38-3.16,6.83-5.97-5.44-7.6-14.63-7.6-14.63Z"/>
    </g>
    <g>
      <path class="cls-1" d="M105.51,22.5c-3.05,3.68.91,6.38,3.16,6.83"/>
      <path class="cls-2" d="M123.21,24.88s-13.76-6.88-17.7-2.13c-3.05,3.68,1.42,8.33,3.16,6.83,5.47-4.7,14.54-4.7,14.54-4.7Z"/>
      <path class="cls-2" d="M119.65,17.22s-10.74.44-14.68,5.19c-3.05,3.68,1.05,7.73,3.16,6.83,7.59-3.24,11.52-12.02,11.52-12.02Z"/>
      <path class="cls-2" d="M115.91,13.72s-7.46,2.6-10.94,8.69c-2.37,4.15,2.62,9.06,3.16,6.83,2.09-8.7,7.78-15.52,7.78-15.52Z"/>
      <path class="cls-1" d="M104.4,12.44s-3.36,8.82-1.89,13.6c1.41,4.56,1.41,5.01,2.82,3.2,6.62-8.54-.93-16.8-.93-16.8Z"/>
    </g>
  </g>
  <g>
    <g>
      <path class="cls-2" d="M141.09,44.6s-22.9.87-30.34-6.79c-5.76-5.93.81-13.65,4.52-12.23,17.08,6.54,25.82,19.02,25.82,19.02Z"/>
      <path class="cls-2" d="M138.33,52.03s-20.54-5.28-27.35-13.5c-5.28-6.37,3.59-15.34,5.47-11.83,6.76,12.56,21.88,25.34,21.88,25.34Z"/>
      <path class="cls-1" d="M129.62,52.03s-12.62-2.95-18.65-13.5c-4.1-7.18,2.53-14.51,5.47-11.83,10.34,9.43,13.17,25.34,13.17,25.34Z"/>
      <path class="cls-1" d="M119.65,53.59s-11.75-4-13.52-15.06c-1.3-8.17,2.02-14.43,5.47-11.83,10.51,7.9,8.05,26.89,8.05,26.89Z"/>
    </g>
    <g>
      <path class="cls-2" d="M73.31,37.75s24.95,8.85,31.76.63c5.28-6.37-1.73-10.48-5.47-11.83-10.49-3.8-26.29,11.2-26.29,11.2Z"/>
      <path class="cls-1" d="M75.6,50.02s25.58-1.12,29.48-12.07c2.77-7.79-1.58-12.64-5.47-11.83-12.22,2.54-24.01,23.9-24.01,23.9Z"/>
      <path class="cls-1" d="M90.12,54.82s9.86-5.74,15.89-16.29c4.1-7.18-2.95-14.91-5.47-11.83-8.33,10.17-10.42,28.13-10.42,28.13Z"/>
      <path class="cls-1" d="M106.99,55.8s5.83-15.29,3.27-23.57c-2.44-7.9-2.44-8.68-4.88-5.54-11.46,14.79,1.61,29.1,1.61,29.1Z"/>
    </g>
  </g>
</svg>