<?xml version="1.0" encoding="UTF-8"?>
<svg id="_Слой_1" data-name="Слой 1" xmlns="http://www.w3.org/2000/svg" viewBox="0 0 150.18 174.82">
  <defs>
    <style>
      .cls-1 {
        fill: #009245;
      }

      .cls-1, .cls-2 {
        stroke: #006837;
        stroke-miterlimit: 10;
        stroke-width: 2px;
      }

      .cls-2 {
        fill: #22b573;
      }

      .cls-3 {
        fill: #42210b;
      }

      .cls-4 {
        fill: #754c24;
      }
    </style>
  </defs>
  <g>
    <g>
      <path class="cls-4" d="M57.71,160.22c-.91.97-1.77,2-2.26,3.49-.75,2.25-.5,5.3-1.93,6.77-.48.49-1.15.8-1.32,1.6-.17.81.34,1.65.93,1.86s1.2-.01,1.78-.24c1.31-.51,2.62-1.03,3.92-1.54,1.8-.71,3.65-1.45,5.09-3.13,1.51-1.76,2.4-4.61,4.46-4.93,2.47-.38,5.14,0,7.63,0,2.82,0,5.64,0,8.46,0,1.52,0,2.4,2.76,3.85,3.5,1.92.97,11.18,3.54,11.18,3.54,0,0,2.64-.57,2.81-4.54-.88-.76-1.76-1.98-2.63-2.74-1.09-.95-2.21-1.92-3.05-3.27-.37-.59-.69-1.25-1.05-1.85-.58-.95-1.27-1.76-1.97-2.55-1.53-1.76-3.74-3.32-4.07-6.12-.32-2.77-.68-5.53-1.02-8.3-.39-3.16-.78-6.33-1.17-9.49,0,0-23.58,0-23.58,0-.62,5.07-1.25,10.13-1.87,15.2-.38,3.12-.28,7.57-1.83,10-.67,1.06-1.53,1.88-2.35,2.75Z"/>
      <path class="cls-3" d="M57.78,160.29c-2.21,2.02-2.61,4.84-2.92,7.66-.13.7-.29,1.42-.65,2.1-.3.63-1.02,1.1-1.41,1.6-.65.92.22,2.36,1.41,1.75,2.4-1.1,5.28-2.1,7.47-3.52,1.73-1.12,2.51-3.02,3.68-4.73.56-.94,1.99-2.08,3.23-2.1,2.48-.33,5.1,0,7.53-.01,2.2,0,5.77,0,7.94.02.06,0,.33,0,.4,0,.69-.01,1.38.38,1.75.72,1.06.89,1.55,2.31,2.63,2.96,3.52,1.44,7.26,2.4,10.91,3.49,0,0-.45-.01-.45-.01.18-.04.58-.24.83-.46.91-.77,1.25-2.01,1.34-3.19,0,0,.29.67.29.67-.68-.62-1.19-1.27-1.72-1.87-.41-.54-1.19-1.19-1.68-1.66-1.23-1.09-2.34-2.62-3.01-4.09-1.69-3.62-6.24-5.9-6.26-10.33-.62-5.52-1.32-11.48-2.19-16.95,0,0,.45.4.45.4,0,0-11.79.34-11.79.34-3.93.09-7.86.13-11.79.08l.87-.77c-.63,4.82-1.45,9.62-2.22,14.43-.69,3.52-.4,7.46-2.23,10.7-.66,1.05-1.56,1.9-2.39,2.78h0ZM57.64,160.16c.83-.89,1.7-1.75,2.33-2.77,1.75-3.26,1.14-7.1,1.58-10.68.44-5.1.83-10.21,1.43-15.29,4.19-.07,8.38-.03,12.57.07,0,0,11.79.34,11.79.34,0,0,.42.01.42.01.3,3.37.68,6.74,1.08,10.1,0,0,.63,4.85.63,4.85.24,1.36.28,3.48.83,4.69.97,2.12,3.2,3.6,4.67,5.46,1.57,1.84,2.41,4.18,4.4,5.65,1.38,1.03,2.52,2.59,3.79,3.64,0,0-.01.41-.01.41-.01,2.27-1.06,4.73-3.45,5.43,0,0-.2.06-.2.06l-.25-.07c-3.42-.96-6.85-1.9-10.21-3.08-1.61-.39-2.75-1.79-3.59-2.99-.38-.52-.86-.87-.94-.83l-8.37.02c-2.62.06-5.53-.56-7.99.05-.81.37-1.57,1.6-2.33,2.78-.76,1.25-1.9,2.51-3.2,3.27-2.65,1.5-5.28,2.08-8.08,3.11-.38.1-.82.18-1.29.07-1.39-.34-1.91-2.22-1.01-3.27.5-.59,1.11-.82,1.49-1.45,1.07-1.81.9-4.05,1.6-6.04.44-1.38,1.35-2.55,2.33-3.56h0Z"/>
    </g>
    <g>
      <path class="cls-4" d="M81.1,152.5c6.21,3.15,3.37,6.2,4.31,9.44.3,1.04-1.09,2.67-2.33,3.12,0,0-.86,2.46-2.09,5.01-.39.8-7.62,3.85-7.62,3.85-4.38.44-6.34-.4-6.68-2.4-.04-.25,0-2.37.1-2.61l1.58-7.33c3.96-3.7,1.24-4.61,2.6-10.07"/>
      <path class="cls-3" d="M81.14,152.41c3.86,1.77,4.72,3.79,4.42,7.91,0,.76.19,1.09.31,1.91,0,.87-.44,1.49-.88,2.04-.47.54-1.02,1-1.74,1.29l.32-.32c-.58,1.72-1.23,3.4-1.97,5.05-.05.14-.27.41-.35.47-2.37,1.66-5.1,2.67-7.68,3.87-2.74.37-7.15.6-7.84-2.95-.06-.53-.03-.99-.03-1.49,0-.35.03-.91.07-1.25.35-1.85,1.08-5.13,1.67-7.56,0,0,.08-.32.08-.32l.2-.18c.63-.56,1.23-1.15,1.65-1.78.95-1.38.45-3.29.77-4.93.16-.93.4-1.83.74-2.68l.19.05c-.37,2.35.35,4.49.26,6.85-.2,1.55-1.28,2.88-2.29,3.9,0,0,.28-.5.28-.5-.44,2.34-1.1,5.57-1.55,7.43-.09.6-.08,1.55-.11,2.16.38,2.29,3.84,1.86,5.64,1.84,1.37-.73,5.17-2.07,7.09-3.43.74-1.32,1.56-3.29,2.18-4.89,0,0,.09-.25.09-.25,0,0,.22-.08.22-.08.9-.32,2.03-1.36,2.12-2.32-.08-.45-.24-1.37-.2-1.91.49-3.99-.09-5.77-3.77-7.74,0,0,.09-.18.09-.18h0Z"/>
    </g>
  </g>
  <g>
    <path class="cls-2" d="M141.51,151.35s-33.48-13.29-46.66-59.28c-4-13.96-38.98,28.81-26.3,35.89,29.84,16.66,72.96,23.39,72.96,23.39Z"/>
    <path class="cls-2" d="M117.67,161.49s-28.65-21.83-28.93-69.67c-.08-14.52-28.66,16.17-20.99,28.5,18.35,29.49,49.92,41.17,49.92,41.17Z"/>
    <path class="cls-1" d="M8.2,151.35s31.84-13.1,46.66-59.28c4.44-13.83,38.98,28.81,26.3,35.89-29.84,16.66-72.96,23.39-72.96,23.39Z"/>
    <path class="cls-1" d="M32.03,161.49s11.13-28.11,26.53-52.06c7.86-12.22,31.06-1.44,23.39,10.89-18.35,29.49-49.92,41.17-49.92,41.17Z"/>
    <path class="cls-1" d="M79.98,163.7s1.09-13.76,8.3-59.41c2.27-14.35-29.8-14.72-29.05-.22,2.18,42.35,20.75,59.63,20.75,59.63Z"/>
  </g>
  <g>
    <path class="cls-2" d="M120.35,118.93s-23.35-14.63-33.86-51.29c-3.19-11.13-31.07,22.97-20.96,28.61,23.78,13.28,54.82,22.68,54.82,22.68Z"/>
    <path class="cls-2" d="M91.19,132.87s6.71-25.9-5.7-57.86c-4.19-10.79-31.09-3.32-26.6,7.36,10.56,25.11,32.3,50.5,32.3,50.5Z"/>
    <path class="cls-1" d="M25.92,118.93s23.48-14.12,33.98-50.78c3.19-11.13,31.29,18.47,20.74,25.69-22.47,15.39-54.72,25.09-54.72,25.09Z"/>
    <path class="cls-1" d="M50.75,127.18s6.04-17.75,10.15-51.66c1.39-11.49,31.09-3.32,26.6,7.36-10.56,25.11-36.75,44.3-36.75,44.3Z"/>
  </g>
  <g>
    <path class="cls-1" d="M35.05,85.41s17.11-5.89,26.11-37.3c2.73-9.54,26.63,19.68,17.96,24.52-20.38,11.38-44.07,12.79-44.07,12.79Z"/>
    <path class="cls-1" d="M42.26,95.53s22.88-14.91,23.07-47.59c.06-9.92,19.58,11.04,14.34,19.47-12.53,20.14-37.41,28.12-37.41,28.12Z"/>
    <path class="cls-2" d="M113.6,85.41s-16.12-5.89-25.12-37.3c-2.73-9.54-26.63,19.68-17.96,24.52,20.38,11.38,43.08,12.79,43.08,12.79Z"/>
    <path class="cls-2" d="M106.39,95.53s-8.49-20.66-22.08-47.59c-4.47-8.86-19.58,11.04-14.34,19.47,12.53,20.14,36.42,28.12,36.42,28.12Z"/>
    <path class="cls-2" d="M73.8,92.3s-3.23-4.67-8.15-35.85c-1.55-9.8,24-9.16,19.84-.15-8.4,18.23-11.69,36-11.69,36Z"/>
  </g>
  <g>
    <path class="cls-1" d="M44.58,66.36s14.36-10.44,21.2-34.31c2.08-7.25,20.24,14.96,13.65,18.63-15.49,8.65-34.85,15.68-34.85,15.68Z"/>
    <path class="cls-1" d="M62.72,74.53s-4.33-16.92,3.71-37.68c2.72-7.03,20.25-2.16,17.32,4.79-6.88,16.35-21.03,32.89-21.03,32.89Z"/>
    <path class="cls-2" d="M103.65,63.28s-8.22-12.22-20.55-30.9c-4.15-6.29-20.38,12.03-13.51,16.73,14.64,10.02,34.06,14.17,34.06,14.17Z"/>
    <path class="cls-2" d="M86.16,74.86s-3.71-14.46-3.71-37.68c0-7.54-20.25-2.16-17.32,4.79,6.88,16.35,21.03,32.89,21.03,32.89Z"/>
  </g>
  <g>
    <path class="cls-2" d="M50.72,21.07s8.49,3.45,18.84,11.15c3.3,2.45,7.34-10.58,3.19-11.32-9.77-1.73-22.02.17-22.02.17Z"/>
    <path class="cls-2" d="M50.75,6.02s13.42,4.72,19.34,22.66c1.8,5.45,8.81-9.56,4.42-13.26-10.48-8.85-23.76-9.4-23.76-9.4Z"/>
    <path class="cls-2" d="M99.27,21.64s-8.67-.03-16.63,9.78c-2.42,2.98-6.25-10.03-2.68-11.44,8.88-3.52,19.31,1.66,19.31,1.66Z"/>
    <path class="cls-2" d="M85.95,1.46s-6.36,1.94-15.7,17.63c-2.93,4.93,9.3,9.92,10.62,4.34,3.21-13.58,5.08-21.97,5.08-21.97Z"/>
  </g>
  <g>
    <path class="cls-1" d="M49.64,39.38s8.12-8.78,17.28-18.05c4.03-4.08,15.39,11.38,10.39,14.17-11.78,6.58-27.67,3.87-27.67,3.87Z"/>
    <path class="cls-1" d="M49.64,52.25s13.69-12.96,16.5-28.7c1.01-5.65,11.32,6.39,8.29,11.26-7.25,11.65-24.79,17.44-24.79,17.44Z"/>
    <path class="cls-2" d="M99.27,42.7s-9.03-6.15-16.55-20.66c-2.64-5.09-15.39,11.38-10.39,14.17,11.78,6.58,26.94,6.49,26.94,6.49Z"/>
    <path class="cls-2" d="M91.73,48.75s-1.49-12.2-11.42-27.51c-3.12-4.81-11.32,6.39-8.29,11.26,7.25,11.65,19.71,16.26,19.71,16.26Z"/>
    <path class="cls-2" d="M66.45,48.48s2.91-9.32,3.07-22.32c.07-5.74,13.86-5.3,11.47-.09-5.95,13.03-14.54,22.4-14.54,22.4Z"/>
  </g>
</svg>