<?xml version="1.0" encoding="UTF-8"?>
<svg id="_Слой_1" data-name="Слой 1" xmlns="http://www.w3.org/2000/svg" viewBox="0 0 120.59 165.33">
  <defs>
    <style>
      .cls-1 {
        fill: #009245;
      }

      .cls-1, .cls-2 {
        stroke: #006837;
        stroke-miterlimit: 10;
        stroke-width: 2px;
      }

      .cls-2 {
        fill: #22b573;
      }

      .cls-3 {
        fill: #42210b;
      }

      .cls-4 {
        fill: #754c24;
      }
    </style>
  </defs>
  <g>
    <path class="cls-4" d="M72.15,156.2c-1.71-.49-3.42-.85-5.54-.56-2.27.31-4.06,1.6-5.92,2.49-3.29,1.56-7.64,1.97-11.39,1.06,1.76-.51,2.58-1.92,3.17-3.19,2.86-6.14,4.49-12.36,5.76-18.74.82-4.13.58-8.43.72-12.6.5-14.54,1-29.07,1.51-43.61.26-7.45.51-14.9.77-22.35,0,0,7.91,0,7.91,0,.2,5.65.39,11.31.59,16.96.42,12.07.83,24.14,1.25,36.22.39,11.18.77,22.36,1.16,33.54.07,2-.41,3.85,1.19,5.59.43.47.86.94,1.42,1.33,2.74,1.9,7.61,1.4,10.45,3.23.09.06.17.12.21.19.05.13-.04.26-.1.38-.23.47.09,1,.59,1.35s1.17.55,1.82.74c-1.34-.4-4.31.03-5.87-.09-2.08-.17-4.15-.49-6.14-.95-1.27-.29-2.41-.68-3.56-1Z"/>
    <path class="cls-3" d="M72.12,156.3c-1.89-.55-3.87-.83-5.8-.46-1.93.35-3.59,1.47-5.36,2.37-3.94,1.94-8.57,2.15-12.77,1.01,1.33-.31,2.63-.87,3.34-2.13,3.44-6.57,5.11-14.07,6.3-21.33.51-4.16.14-8.47.29-12.79.15-9.27.34-22.93.48-32.17.11-4.41.73-27.31.86-32.16,0,0,.05-1.71.05-1.71,1.86.05,3.84-.07,5.68-.02,1.19-.03,4.53.06,5.67.04,0,0,.05,1.69.05,1.69l.74,27.47c.34,17.29.63,40.92.92,58.39.15,2.12-.61,4.65,1.07,6.33,2.85,3.53,8.06,2.23,11.69,4.52.18.09.41.34.34.59-.75,1.25,1.16,1.8,2.12,2.09,0,0-.13.42-.13.42-1.85-.42-3.92.03-5.86-.13-3.3-.25-6.52-1.04-9.67-2.03h0ZM72.18,156.11c3.76,1.1,7.65,2.11,11.6,1.93,1.31-.03,2.64-.2,3.97.1,0,0-.06.21-.06.21-1.08-.28-3.19-1.02-2.38-2.48-.37-.55-1.83-.96-2.52-1.18-2.19-.6-4.52-.7-6.7-1.53-2.13-.83-4.07-2.83-4.08-5.21.05-2.31-.08-4.57-.15-6.87-.62-17.51-2.27-64.3-2.91-82.38,0,0,.2.19.2.19h-7.91c.26,8.42-1.97,55.92-2.07,64.11-.23,4.28.05,8.58-.55,12.86-1.13,6.34-2.74,12.62-5.3,18.55-.84,1.92-1.72,4.28-3.98,4.88,0,0,0-.23,0-.23,1.91.46,3.9.58,5.85.4,1.95-.18,3.89-.67,5.65-1.53,1.75-.87,3.45-2,5.45-2.35,1.98-.36,4.01-.06,5.9.51h0Z"/>
  </g>
  <g>
    <path class="cls-4" d="M59.93,146.67c4.79,5.12,2.37,8.28,2.61,9.74.14.89.01,1.81.09,2.71s.43,1.87,1.23,2.29c.39.21.84.26,1.26.4,1.36.46,2.29,1.94,2.11,3.36,1.96.1,3.86-1.48,4.11-3.43.18-1.4-.39-2.78-.95-4.08-.48-1.11-.96-2.21-1.43-3.32-.22-.5-.44-1.02-.42-1.57.02-.77,1.22-1.56.74-2.16-1.65-2.1-.76-4.14,3.18-5.22"/>
    <path class="cls-3" d="M59.95,146.64c2.42,2.1,3.96,5.46,3.02,8.69-.09.46-.17.76-.1,1.24.11.96-.06,1.86.01,2.71.07.83.41,1.72,1.19,2.07.39.17.85.22,1.28.42,1.29.59,2.14,1.99,2,3.42,0,0-.14-.17-.14-.17,2.05.03,3.88-1.84,3.8-3.78-.08-2.04-1.34-3.91-2.04-5.81-.37-1.01-1.22-2.22-.65-3.32.19-.4.65-.84.69-1.19-.52-.78-1.16-2.03-.66-3.07.59-1.42,2.8-2.38,4.09-2.42-2.2.68-5.04,2.45-2.99,4.9.05.06.23.3.24.51.05.96-.88,1.29-.8,2.16.73,2.8,2.72,5.24,2.78,8.24-.03,2.43-2.38,4.32-4.65,4.06.26-1.32-.52-2.8-1.79-3.3-.39-.17-.85-.21-1.3-.38-.96-.35-1.43-1.37-1.57-2.29-.15-.94-.05-1.86-.15-2.7-.16-1.03.24-1.89.32-2.75.49-2.73-1.2-5.19-2.61-7.25h0Z"/>
  </g>
  <path class="cls-2" d="M114.12,141.96s-18.67-7.58-36.55-25.05c-5-4.88-30.54,12.17-20.6,15.16,23.37,7.04,57.15,9.88,57.15,9.88Z"/>
  <path class="cls-2" d="M95.45,146.24s-15.15-12.94-22.66-29.44c-2.61-5.72-22.45,6.83-16.44,12.04,14.37,12.46,39.1,17.39,39.1,17.39Z"/>
  <path class="cls-1" d="M9.69,141.96s24.36-7.19,36.55-25.05c3.82-5.6,30.54,12.17,20.6,15.16-23.37,7.04-57.15,9.88-57.15,9.88Z"/>
  <path class="cls-1" d="M28.36,146.24s20.94-9.35,22.66-29.44c.52-6.11,22.45,6.83,16.44,12.04-14.37,12.46-39.1,17.39-39.1,17.39Z"/>
  <path class="cls-1" d="M61.82,144.78s6.08-8.52,11.72-27.81c1.77-6.06-27.74-4.89-23.01.69,11.81,13.94,11.29,27.12,11.29,27.12Z"/>
  <g>
    <path class="cls-1" d="M25.68,112.11s17.48-5.99,27.71-22.36c3.06-4.9,23.15,10.87,15.62,13.54-17.72,6.28-43.33,8.82-43.33,8.82Z"/>
    <path class="cls-1" d="M36.78,124.01s13.54-19.22,20.23-34.35c2.22-5.01,14.2,4.47,12.47,10.75-4.28,15.53-32.7,23.6-32.7,23.6Z"/>
    <path class="cls-2" d="M101.93,110.68s-15.55-4.99-24.79-20.92c-2.9-5-23.15,10.87-15.62,13.54,17.72,6.28,40.41,7.38,40.41,7.38Z"/>
    <path class="cls-2" d="M98.48,123.24s-20.11-22.33-29.97-28.61c-3-1.91-8.24,12.73-5.7,16.12,10.82,14.47,35.67,12.48,35.67,12.48Z"/>
    <path class="cls-1" d="M61.24,114.83s-2.33-8.35-5.06-26.55c-.83-5.51,18.88-5.35,17.45.62-4.13,17.23-12.39,25.93-12.39,25.93Z"/>
  </g>
  <g>
    <path class="cls-2" d="M90.64,77.75s-10.42-6.53-22.17-21.76c-3.53-4.58-22.66,9.75-15.62,13.54,19.39,10.42,37.79,8.22,37.79,8.22Z"/>
    <path class="cls-2" d="M93.22,92.32s-19.67-9.64-19.83-27.68c-.05-5.48-16.09,5.34-12.47,10.75,10.42,15.52,32.3,16.93,32.3,16.93Z"/>
    <path class="cls-1" d="M32.91,86.19s11.1-5.52,20.35-21.46c2.9-5,23.15,10.87,15.62,13.54-17.72,6.28-35.96,7.92-35.96,7.92Z"/>
    <path class="cls-1" d="M39.83,94.42s10.65-13.86,17.18-26.28c2.55-4.85,17.02,6.1,12.47,10.75-10.9,11.12-29.65,15.53-29.65,15.53Z"/>
    <path class="cls-1" d="M62.37,89.61s9.67-5.88,11.59-24.82c.56-5.55-21.03-4.37-17.45.62,8.95,12.44,5.86,24.21,5.86,24.21Z"/>
  </g>
  <g>
    <path class="cls-2" d="M90.64,57.17s-5.37-4.39-14.69-14.91c-3.1-3.5-17.81,8.96-12.02,11.16,13.63,5.18,26.71,3.75,26.71,3.75Z"/>
    <path class="cls-2" d="M86.38,63.85s-13.09-6.79-13.22-21.67c-.04-4.52-14.21,12.87-10.01,15.94,11.33,8.3,23.23,5.72,23.23,5.72Z"/>
    <path class="cls-1" d="M40.51,60.17s10.05-4.77,17.16-17.91c2.23-4.12,17.81,8.96,12.02,11.16-13.63,5.18-29.18,6.75-29.18,6.75Z"/>
    <path class="cls-1" d="M46.13,66.93s14.21-9.87,14.33-24.75c.04-4.52,11.47,4.02,9.59,8.86-5.12,13.21-23.92,15.88-23.92,15.88Z"/>
    <path class="cls-2" d="M65.2,66.52s5.11-10.02,8.4-24.22c1.04-4.46-12.74-4.39-13.42.51-1.98,14.15,5.02,23.71,5.02,23.71Z"/>
  </g>
  <g>
    <path class="cls-1" d="M47.9,40.71s4.62-3.12,11.36-14.69c2.02-3.47,15.28,7.69,10.31,9.57-11.69,4.44-21.67,5.12-21.67,5.12Z"/>
    <path class="cls-2" d="M50.32,45.42s11.23-6.72,11.34-19.48c.03-3.87,10.41,3.72,8.23,7.6-4.84,8.6-19.56,11.87-19.56,11.87Z"/>
    <path class="cls-2" d="M86.76,39.04s-6.9-6.02-11.45-13.03c-2.18-3.37-15.28,7.69-10.31,9.57,11.69,4.44,21.75,3.46,21.75,3.46Z"/>
    <path class="cls-2" d="M85.27,45.42s-12.62-6.72-12.73-19.48c-.03-3.87-10.98,4.1-8.23,7.6,8.14,10.33,20.95,11.87,20.95,11.87Z"/>
    <path class="cls-2" d="M67.14,43.61s-3.04-5.38-5.86-17.56c-.89-3.83,13.88-3.09,11.51.44-5.91,8.8-5.65,17.12-5.65,17.12Z"/>
  </g>
  <g>
    <path class="cls-2" d="M80.71,22.04s-1.43-4.06-9.78-5.52c-2.55-.45-10.36,4.86-6.99,6.06,7.93,2.81,16.77-.54,16.77-.54Z"/>
    <path class="cls-2" d="M83.88,27.56s-10.83-4.06-14.57-11.08c-1.15-2.16-7.62,2.73-5.58,4.81,4.88,4.98,20.15,6.27,20.15,6.27Z"/>
    <path class="cls-2" d="M47.9,26.53s7.51-5.22,12.4-10.01c1.85-1.81,10.36,4.86,6.99,6.06-7.93,2.81-19.39,3.95-19.39,3.95Z"/>
    <path class="cls-2" d="M54.23,28.24s7.62-3.69,7.69-11.76c.02-2.45,7.62,2.73,5.58,4.81-4.88,4.98-13.27,6.95-13.27,6.95Z"/>
    <path class="cls-2" d="M66.08,4.69s-2.52,4.68-3.98,12.48c-.46,2.45,9.51,1.4,7.78-.73-4.33-5.32-3.8-11.75-3.8-11.75Z"/>
    <path class="cls-2" d="M61.8,28.24s5.84-3.99,7.76-11.69c.6-2.42-9.41-1.95-7.81.28,4.01,5.57.05,11.42.05,11.42Z"/>
  </g>
</svg>