<?xml version="1.0" encoding="UTF-8"?>
<svg id="_Слой_1" data-name="Слой 1" xmlns="http://www.w3.org/2000/svg" viewBox="0 0 126.69 156.79">
  <defs>
    <style>
      .cls-1 {
        fill: #009245;
      }

      .cls-1, .cls-2 {
        stroke: #006837;
        stroke-miterlimit: 10;
        stroke-width: 2px;
      }

      .cls-2 {
        fill: #22b573;
      }

      .cls-3 {
        fill: #42210b;
      }

      .cls-4 {
        fill: #754c24;
      }
    </style>
  </defs>
  <g>
    <path class="cls-4" d="M50.42,144.42c-.87.4-1.75.8-2.56,1.3-1.21.75-2.28,1.72-3.33,2.68-.57.52-1.14,1.05-1.71,1.57-.38.35-.87.72-1.35.55,1.03-.85,1.82-1.99,2.26-3.25.19-.54.32-1.11.64-1.58.54-.82,1.52-1.2,2.34-1.74,5.81-3.88,4.61-14.58,4.99-20.68,1.11-17.8,2.22-35.59,3.34-53.39.61-9.77,1.22-19.54,1.83-29.31,0,0,12,0,12,0,.13,2.05.26,4.11.38,6.16.33,5.28.66,10.56.99,15.84.45,7.2.9,14.39,1.35,21.59.49,7.8.97,15.59,1.46,23.39.44,7.09.88,14.17,1.32,21.26.18,2.87.36,5.73.53,8.6.16,2.5-.25,5.99,1.6,7.9.18.19.38.36.58.53.83.69,1.77,1.28,2.42,2.14,1.19,1.59,1.17,3.79.79,5.75-.08.43-.12.98.27,1.17.17.08.4.07.52.21.12.14.08.36,0,.53-.32.64-1.08.98-1.8.97s-1.4-.31-2.02-.66c-1.11-.63-2.11-1.44-2.95-2.4-1.04-1.19-1.87-2.64-3.22-3.48-1.31-.82-2.89-.03-4.31.3-.5.12-1.02.24-1.41.57-.43.35-.65.89-1,1.32-1.17,1.42-2.33,2.08-4.36,3.19.21-1.2.31-2.45.04-3.64-.41-1.82-1.42-3.05-3.32-2.73-2.47.42-4.76,1.86-6.16,3.95-.29.43-.54.89-.92,1.24-.76.71-2,.83-2.9.29-.53-.32-.95-.98-.72-1.56.11-.28.34-.48.57-.67.8-.67,1.61-1.34,2.25-2.16,1.33-1.71,1.4-3.9,1.53-5.97.16-2.57.32-5.13.48-7.7"/>
    <path class="cls-3" d="M50.44,144.47c-2.59,1.03-4.67,2.85-6.64,4.77-.75.61-1.52,1.84-2.64,1.34.97-.78,1.76-1.8,2.23-2.96.37-1.09.72-2.46,1.85-3.05,1.04-.63,2.01-1.22,2.75-2.12,3.77-4.67,3.09-11.22,3.29-16.89.09-4.16.56-9.99.76-14.19,1.22-21.97,2.93-48.75,4.32-70.86,0,0,.03-.46.03-.46,0,0,.46,0,.46,0,0,0,12,.03,12,.03,0,0,.43,0,.43,0,0,0,.03.43.03.43,1.15,19.88,4.92,79.72,5.9,98.6.07,2.14-.01,4.57,1.63,6.14,1.07,1.02,2.53,1.77,3.23,3.17.73,1.39.76,3.01.56,4.52.01.55-.52,1.54.14,1.75,1.28.26.2,1.73-.58,1.92-.78.31-1.64.14-2.34-.17-2.98-1.17-4.35-4.11-6.57-6.06-1.22-1.02-2.77-.34-4.13.02-.73.19-1.48.29-1.92.85-1.22,2.08-3.36,3.36-5.44,4.43,0,0,.06-.31.06-.31.4-2.14.44-5.74-2.24-6.24-2.46-.02-4.9,1.4-6.47,3.27-.55.62-.86,1.44-1.56,2.02-.7.55-1.67.69-2.5.38-.81-.27-1.61-1.29-1.01-2.11.6-.66,1.29-1.1,1.89-1.71,1.28-1.13,1.95-2.74,2.14-4.41.32-3.35.47-6.74.71-10.1.08,3.13-.36,6.81-.56,10.12-.18,1.69-.88,3.36-2.17,4.51-.66.87-2.57,1.5-1.85,2.78.66,1.06,2.3,1.12,3.22.37.62-.51.95-1.35,1.51-1.99,1.08-1.33,2.53-2.35,4.14-2.92,4.6-1.97,5.78,2.46,5.04,6.09,0,0-.22-.16-.22-.16,2.01-1.05,3.88-2.25,5.04-4.23.53-.67,1.41-.79,2.09-.97,1.39-.4,3.16-1.08,4.44.02,2.29,1.96,3.59,4.84,6.52,5.97.98.5,2.66.42,2.91-.81,0-.06-.05-.08-.27-.13-.51-.07-.71-.68-.65-1.12.31-1.79.52-3.71-.36-5.37-1.06-1.98-3.78-2.69-4.42-5-.5-1.48-.52-3.03-.55-4.52-.07-2.97-.35-5.97-.52-8.95l-1.15-17.92s-4.62-71.68-4.62-71.68l.46.43s-12,.03-12,.03c0,0,.48-.45.48-.45,0,0-1.76,28.34-1.76,28.34-1.07,18.53-2.6,38.11-3.66,56.66-.27,6.65.53,15.81-6.44,19.35-1.12.6-1.33,1.74-1.75,2.84-.48,1.11-1.23,2.1-2.16,2.87l-.05-.25c.36.13.77-.12,1.1-.41,2.34-2.03,4.89-4.78,7.83-5.51h0Z"/>
  </g>
  <g>
    <path class="cls-2" d="M120.43,137.12s-20.14-8.19-41.61-25.05c-5.9-4.63-34.76,12.17-23.45,15.16,26.61,7.04,65.06,9.88,65.06,9.88Z"/>
    <path class="cls-2" d="M98.24,141.99s-10.53-17.79-24.86-30.02c-4.67-3.98-26.29,7.97-18.72,12.04,20.09,10.81,43.58,17.98,43.58,17.98Z"/>
    <path class="cls-2" d="M82.07,141.99s-8.19-10.74-8.85-26.9c-.31-7.49-21.93-6.14-16.34,4.14,10.54,19.39,25.2,22.76,25.2,22.76Z"/>
    <path class="cls-1" d="M3.85,136.94s17.2-11.04,39.3-24.86c6.01-3.76,34.76,12.17,23.45,15.16-26.61,7.04-62.75,9.69-62.75,9.69Z"/>
    <path class="cls-1" d="M22.8,141.41s22.84-9.73,25.8-29.44c.91-6.07,25.56,6.83,18.72,12.04-16.36,12.46-44.51,17.39-44.51,17.39Z"/>
    <path class="cls-1" d="M46.35,141.41s-2.31-7.53,6.78-28.71c2.42-5.64,23.28-1.84,18.03,4.96-12.57,16.28-24.8,23.75-24.8,23.75Z"/>
    <path class="cls-1" d="M61.59,141.99s8.65-10.97,12.64-29.86c1.32-6.25-26.79-2.37-25.09.68,10.62,19.03,12.44,29.18,12.44,29.18Z"/>
  </g>
  <g>
    <path class="cls-1" d="M14.22,121.9s12.44-16.6,36.39-26.76c5.83-2.47,29.2,9.72,19.81,12.81-22.11,7.26-56.2,13.95-56.2,13.95Z"/>
    <path class="cls-1" d="M34.4,121.84s11.81-12.14,21-25.36c2.96-4.26,22.21,6.73,15.81,10.17-16.97,9.13-36.81,15.19-36.81,15.19Z"/>
    <path class="cls-1" d="M53.08,121.9s-4.11-11.52,2.26-24.21c2.84-5.66,18.52-5.18,13.8,3.5-8.9,16.38-16.07,20.71-16.07,20.71Z"/>
    <path class="cls-2" d="M108.52,115.81s-13.21-7.87-27.26-20.67c-4.43-4.03-29.36,10.28-19.81,12.81,22.47,5.94,47.07,7.86,47.07,7.86Z"/>
    <path class="cls-2" d="M102.21,124.2s-16.51-17.81-24.81-27.17c-3.44-3.88-21.45,5.59-15.81,10.17,15.64,12.71,40.62,17,40.62,17Z"/>
    <path class="cls-2" d="M76.14,120.41s-2.77-8.44-3.83-24.74c-.34-5.17-19.67-1.56-15.23,4.19,10.62,13.75,19.06,20.55,19.06,20.55Z"/>
    <path class="cls-1" d="M65.16,120.41s-7.3-9.26-10.68-25.22c-1.12-5.28,22.63-2,21.19.57-8.97,16.08-10.51,24.64-10.51,24.64Z"/>
  </g>
  <g>
    <path class="cls-1" d="M21.19,94.69s14.07-5.29,30.21-22.14c4.44-4.63,25.34,10.49,17.63,15.16-17.9,10.86-47.84,6.98-47.84,6.98Z"/>
    <path class="cls-1" d="M34.4,101.44s15.44-10.92,21.27-27.31c1.9-5.36,19.77,7.97,14.07,12.04-15.1,10.81-35.34,15.27-35.34,15.27Z"/>
    <path class="cls-2" d="M105.29,96.78s-15.96-7.07-27.27-24.24c-3.51-5.33-26.14,12.17-17.63,15.16,20,7.04,44.9,9.07,44.9,9.07Z"/>
    <path class="cls-1" d="M53.03,102.99s.73-11.76,2.59-27.43c.88-7.41,14.46-7.19,12.29,4.14-3.72,19.4-14.87,23.29-14.87,23.29Z"/>
    <path class="cls-2" d="M93.52,101.87s-17.17-9.73-19.39-29.44c-.68-6.07-19.22,6.83-14.07,12.04,12.3,12.46,33.47,17.39,33.47,17.39Z"/>
    <path class="cls-2" d="M76.14,102.99s-3.52-11.89-6.63-30.52c-1.01-6.04-16.47-2.71-13.55,4.96,6.68,17.58,20.18,25.56,20.18,25.56Z"/>
  </g>
  <g>
    <path class="cls-2" d="M97.6,74.62s-3.37-5.3-21.28-22.93c-4.78-4.7-28.55,12.17-19.26,15.16,21.85,7.04,40.53,7.76,40.53,7.76Z"/>
    <path class="cls-2" d="M92.27,81.6s-18.37-10.39-20.42-30.02c-.63-6.09-20.99,6.83-15.37,12.04,13.44,12.46,35.79,17.98,35.79,17.98Z"/>
    <path class="cls-1" d="M25.5,76.13s7.88-8.19,21.54-24.44c4.23-5.03,28.55,12.17,19.26,15.16-21.85,7.04-40.79,9.28-40.79,9.28Z"/>
    <path class="cls-1" d="M31.63,82.87s17.45-11.57,19.88-31.28c.75-6.07,20.99,6.83,15.37,12.04-13.44,12.46-35.25,19.24-35.25,19.24Z"/>
    <path class="cls-2" d="M60.4,79.56s8.12-8.71,12.16-27.81c1.3-6.15-25.93-4.89-21.51.69,11.04,13.94,9.36,27.12,9.36,27.12Z"/>
  </g>
  <g>
    <path class="cls-1" d="M34.4,56.84s2.13-9.97,17.08-22.76c3.98-3.41,19.72,10.6,13.3,13.21-15.09,6.13-30.38,9.55-30.38,9.55Z"/>
    <path class="cls-1" d="M41.99,62.64s11.17-11.55,12.58-28.65c.44-5.3,14.5,5.95,10.62,10.49-9.28,10.85-23.19,18.16-23.19,18.16Z"/>
    <path class="cls-2" d="M95.31,55.9s-15.06-6.86-23.6-21.82c-2.65-4.65-19.72,10.6-13.3,13.21,15.09,6.13,36.9,8.61,36.9,8.61Z"/>
    <path class="cls-2" d="M83.25,59.64s-12.95-8.47-14.63-25.64c-.52-5.29-13.76,5.41-10.62,10.49,7.86,12.72,25.25,15.15,25.25,15.15Z"/>
    <path class="cls-1" d="M61.65,58.36s-3.92-7.42-7.57-24.22c-1.15-5.28,17.91-4.26,14.86.6-7.63,12.14-7.29,23.62-7.29,23.62Z"/>
  </g>
  <g>
    <path class="cls-2" d="M84.41,34.69s1.29-3.4-12.93-11.79c-3.54-2.09-19.03,6.67-12.84,8.3,14.57,3.85,25.77,3.48,25.77,3.48Z"/>
    <path class="cls-2" d="M82.07,39.95s-12.25-5.69-13.61-16.44c-.42-3.33-14,3.74-10.25,6.59,8.96,6.82,23.86,9.84,23.86,9.84Z"/>
    <path class="cls-1" d="M37.93,37.38s3.53-7.18,13.98-13.82c3.28-2.08,19.03,6.67,12.84,8.3-14.57,3.85-26.82,5.51-26.82,5.51Z"/>
    <path class="cls-1" d="M43.41,39.63s9.86-5.33,11.48-16.12c.5-3.32,14,3.74,10.25,6.59-8.96,6.82-21.73,9.52-21.73,9.52Z"/>
    <path class="cls-1" d="M61.62,38.82s3.79-4.66,7.31-15.23c1.11-3.32-17.29-2.68-14.34.38,7.36,7.63,7.04,14.85,7.04,14.85Z"/>
  </g>
  <g>
    <path class="cls-1" d="M77.24,17.42s-5.79,1.24-12.03,1.93c-1.71.19-5.43-5.78-2.74-5.81,6.04-.06,14.77,3.88,14.77,3.88Z"/>
    <path class="cls-1" d="M70.25,11.72s-5.14,2.39-5.72,6.9c-.18,1.4-4.74-.84-4.3-2.77,1.19-5.29,10.02-4.13,10.02-4.13Z"/>
    <path class="cls-1" d="M50.35,18.42s3.68,1.59,9.75.82c1.62-.21,5.93-6.04,3.3-5.51-6.2,1.25-13.05,4.69-13.05,4.69Z"/>
    <path class="cls-1" d="M52.91,11.85s3.54,3.48,5.93,6.77c.83,1.14,5.29-1.06,4.3-2.77-2.94-5.1-10.23-4-10.23-4Z"/>
    <path class="cls-1" d="M61.42,5.74s2.3,5.64,4.09,11.63c.56,1.88-9.71,1.83-8.01.03,4.25-4.49,3.92-11.66,3.92-11.66Z"/>
  </g>
  <g>
    <path class="cls-1" d="M79.54,24.91s-4.94-1.03-12.03-6.59c-1.95-1.53-11.48,4.02-7.75,5.01,8.79,2.32,19.77,1.58,19.77,1.58Z"/>
    <path class="cls-1" d="M72.16,29.4s-5.32-4.75-6.44-11.11c-.35-2-8.26,2.04-6.18,3.98,4.64,4.33,12.62,7.13,12.62,7.13Z"/>
    <path class="cls-1" d="M41.99,26.59s8.77-2.6,13.74-8.27c1.54-1.76,7.14,5.01,3.41,6-8.79,2.32-17.15,2.27-17.15,2.27Z"/>
    <path class="cls-1" d="M51.14,29.4s5.42-4.6,6.39-11.11c.3-2,11.26-.12,9,1.6-5.4,4.12-15.39,9.51-15.39,9.51Z"/>
  </g>
</svg>