<?xml version="1.0" encoding="UTF-8"?>
<svg id="_Слой_1" data-name="Слой 1" xmlns="http://www.w3.org/2000/svg" viewBox="0 0 714.9 722.35">
  <defs>
    <style>
      .cls-1, .cls-2 {
        fill: #c69c6d;
      }

      .cls-3, .cls-4 {
        fill: #f6e281;
      }

      .cls-5 {
        fill: #603813;
      }

      .cls-2, .cls-4, .cls-6 {
        stroke-miterlimit: 10;
        stroke-width: 3px;
      }

      .cls-2, .cls-6 {
        stroke: #603813;
      }

      .cls-7, .cls-6 {
        fill: #a67c52;
      }

      .cls-4 {
        stroke: #000;
      }
    </style>
  </defs>
  <rect class="cls-2" x="315.28" y="462.43" width="84.34" height="385.74" transform="translate(-297.85 1012.75) rotate(-90)"/>
  <rect class="cls-2" x="315.28" y="209.42" width="84.34" height="385.74" transform="translate(-44.84 759.74) rotate(-90)"/>
  <rect class="cls-2" x="315.28" y="293.76" width="84.34" height="385.74" transform="translate(-129.18 844.08) rotate(-90)"/>
  <rect class="cls-2" x="315.28" y="378.1" width="84.34" height="385.74" transform="translate(-213.52 928.41) rotate(-90)"/>
  <g>
    <g>
      <path class="cls-7" d="M127.17,720.85c-23.71,0-48.91-4.94-48.91-14.09v-376.19h97.82v376.19c0,9.15-25.2,14.09-48.91,14.09Z"/>
      <path class="cls-5" d="M174.58,332.07v374.69c0,6.95-21.23,12.59-47.41,12.59s-47.41-5.64-47.41-12.59v-374.69h94.82M177.58,329.07h-100.82v377.69c0,10.71,26.13,15.59,50.41,15.59s50.41-4.88,50.41-15.59v-377.69h0Z"/>
    </g>
    <g>
      <path class="cls-1" d="M127.17,344.65c-23.71,0-48.91-4.94-48.91-14.09s25.2-14.09,48.91-14.09,48.91,4.94,48.91,14.09-25.2,14.09-48.91,14.09Z"/>
      <path class="cls-5" d="M127.17,317.97c26.18,0,47.41,5.64,47.41,12.59s-21.23,12.59-47.41,12.59-47.41-5.64-47.41-12.59,21.23-12.59,47.41-12.59M127.17,314.97c-24.28,0-50.41,4.88-50.41,15.59s26.13,15.59,50.41,15.59,50.41-4.88,50.41-15.59-26.13-15.59-50.41-15.59h0Z"/>
    </g>
  </g>
  <g>
    <g>
      <path class="cls-7" d="M588.95,720.85c-23.71,0-48.91-4.94-48.91-14.09v-376.19h97.82v376.19c0,9.15-25.2,14.09-48.91,14.09Z"/>
      <path class="cls-5" d="M636.35,332.07v374.69c0,6.95-21.23,12.59-47.41,12.59s-47.41-5.64-47.41-12.59v-374.69h94.82M639.35,329.07h-100.82v377.69c0,10.71,26.13,15.59,50.41,15.59s50.41-4.88,50.41-15.59v-377.69h0Z"/>
    </g>
    <g>
      <path class="cls-1" d="M588.95,344.65c-23.71,0-48.91-4.94-48.91-14.09s25.2-14.09,48.91-14.09,48.91,4.94,48.91,14.09-25.2,14.09-48.91,14.09Z"/>
      <path class="cls-5" d="M588.95,317.97c26.18,0,47.41,5.64,47.41,12.59s-21.23,12.59-47.41,12.59-47.41-5.64-47.41-12.59,21.23-12.59,47.41-12.59M588.95,314.97c-24.28,0-50.41,4.88-50.41,15.59s26.13,15.59,50.41,15.59,50.41-4.88,50.41-15.59-26.13-15.59-50.41-15.59h0Z"/>
    </g>
  </g>
  <rect class="cls-6" x="295.66" y="482.26" width="123.58" height="212.38"/>
  <path class="cls-4" d="M713.4,258.32c0-38.45-24.87-71.03-59.37-82.72-8.8-2.98-18.2-4.67-28.01-4.67-6.99,0-13.75.91-20.26,2.47-1.16.28-2.35.35-3.53.17-67.7-10.43-125.59-50.56-159.93-106.69-.42-.69-.74-1.44-.96-2.21-3.16-10.97-8.38-21.04-15.27-29.78C410.06,14.58,385.31,1.5,357.45,1.5s-54.65,14.2-70.54,35.96c-5.44,7.44-9.78,15.73-12.67,24.69-.2.63-.47,1.24-.8,1.8-34.01,57.48-92.44,98.78-161.05,109.53-1.17.18-2.37.12-3.52-.16-6.42-1.52-13.09-2.4-19.97-2.4-9.87,0-19.32,1.71-28.16,4.73C26.3,187.38,1.5,219.92,1.5,258.32c0,19.42,6.35,37.35,17.07,51.85,1.16,1.58,1.84,3.46,1.84,5.42v54.44c0,4.97,4.03,9,9,9h658.63c4.97,0,9-4.03,9-9v-58.05c0-1.82.58-3.57,1.59-5.08,9.32-13.89,14.77-30.6,14.77-48.58Z"/>
  <g>
    <path class="cls-3" d="M626.01,509.62c-18.69,0-36.52-5.99-51.56-17.32-10.76-8.1-19.58-18.76-25.5-30.82l-.1-.21-.16-.17c-50.29-51.98-118.21-80.61-191.24-80.61s-140.95,28.63-191.24,80.61l-.16.17-.1.21c-5.92,12.06-14.74,22.72-25.5,30.82-15.04,11.33-32.87,17.32-51.56,17.32-47.36,0-85.89-38.53-85.89-85.89,0-36.73,23.39-69.38,58.21-81.24,9.04-3.08,18.36-4.65,27.68-4.65,6.95,0,14.13.94,21.34,2.78l.29.08.3-.04c69.03-10.26,128.95-50.86,164.41-111.39l.09-.15.05-.17c2.74-8.9,7.03-17.37,12.74-25.19,16.16-22.13,42.08-35.35,69.33-35.35s51,11.96,67.44,32.81c7.13,9.04,12.28,19.28,15.33,30.42l.06.2.11.18c35.75,59.14,95.31,98.76,163.41,108.71l.3.04.29-.08c7.29-1.9,14.57-2.86,21.63-2.86,9.27,0,18.53,1.54,27.53,4.59,34.91,11.82,58.36,44.49,58.36,81.3,0,47.36-38.53,85.89-85.89,85.89Z"/>
    <path d="M357.45,169.92c25.96,0,50.11,11.75,66.26,32.24,7,8.88,12.07,18.94,15.06,29.89l.11.4.22.36c35.98,59.52,95.93,99.4,164.48,109.41l.6.09.59-.15c7.17-1.86,14.32-2.81,21.25-2.81,9.11,0,18.21,1.52,27.05,4.51,34.3,11.61,57.34,43.71,57.34,79.88,0,46.53-37.86,84.39-84.39,84.39-18.36,0-35.88-5.88-50.66-17.02-10.57-7.96-19.23-18.44-25.05-30.28l-.21-.42-.33-.34c-50.58-52.28-118.87-81.07-192.31-81.07s-141.74,28.79-192.31,81.07l-.33.34-.21.42c-5.82,11.85-14.48,22.32-25.05,30.29-14.78,11.13-32.3,17.02-50.66,17.02-46.53,0-84.39-37.86-84.39-84.39,0-36.09,22.98-68.17,57.19-79.82,8.89-3.03,18.04-4.56,27.19-4.56,6.83,0,13.88.92,20.97,2.74l.59.15.6-.09c69.48-10.33,129.8-51.19,165.48-112.11l.18-.3.1-.33c2.7-8.74,6.91-17.06,12.52-24.75,7.69-10.53,17.83-19.26,29.32-25.25,12.06-6.29,25.12-9.48,38.8-9.48M357.45,166.92c-29.01,0-54.65,14.2-70.54,35.96-5.63,7.7-10.09,16.31-12.97,25.64-34.22,58.42-93.62,100.3-163.34,110.66-6.96-1.78-14.21-2.83-21.72-2.83-9.87,0-19.32,1.71-28.16,4.73C26.3,352.8,1.5,385.34,1.5,423.74c0,48.26,39.12,87.39,87.39,87.39,19.71,0,37.84-6.61,52.46-17.62,10.94-8.24,19.85-18.96,25.94-31.36,47.72-49.33,115.24-80.15,190.16-80.15s142.43,30.82,190.16,80.15c6.09,12.4,15,23.12,25.94,31.36,14.62,11.01,32.75,17.62,52.46,17.62,48.26,0,87.39-39.12,87.39-87.39,0-38.45-24.87-71.03-59.38-82.72-8.8-2.98-18.2-4.67-28.01-4.67-7.62,0-14.96,1.07-22,2.91-68.88-10.06-127.79-50.83-162.34-108-3.12-11.42-8.47-21.91-15.6-30.95-16-20.3-40.76-33.38-68.61-33.38h0Z"/>
  </g>
</svg>