<?xml version="1.0" encoding="UTF-8"?>
<svg id="_Слой_1" data-name="Слой 1" xmlns="http://www.w3.org/2000/svg" viewBox="0 0 623.81 479.37">
  <defs>
    <style>
      .cls-1, .cls-2 {
        fill: #c69c6d;
      }

      .cls-3 {
        fill: #603813;
      }

      .cls-2 {
        stroke: #603813;
        stroke-miterlimit: 10;
        stroke-width: 3px;
      }

      .cls-4 {
        fill: #a67c52;
      }
    </style>
  </defs>
  <rect class="cls-2" x="51.8" y="101.39" width="510.53" height="55.74"/>
  <polygon class="cls-2" points="558.41 101.39 47.87 101.39 86.88 50.39 523.19 50.39 558.41 101.39"/>
  <polygon class="cls-2" points="524.64 50.39 86.88 50.39 120.32 1.5 494.44 1.5 524.64 50.39"/>
  <g>
    <g>
      <path class="cls-4" d="M84.85,306.93c-18.3,0-33.43-2.87-37.66-7.15-.93-.94-1.39-1.96-1.38-3.04l3.15-262.03,79-.17-3.15,262.07c-.09,7.51-23.73,10.28-39.6,10.32h-.36Z"/>
      <path class="cls-3" d="M126.44,36.04l-3.13,260.55c-.06,4.83-17.12,8.79-38.11,8.83-.12,0-.24,0-.36,0-20.82,0-37.6-3.87-37.54-8.67l3.13-260.55,76-.16M129.48,33.04h-3.04s-76,.17-76,.17h-2.96s-.04,2.96-.04,2.96l-3.13,260.55c-.01,1.03.29,2.58,1.81,4.11,5.54,5.61,24.33,7.6,38.73,7.6h.36c4.19,0,40.96-.42,41.1-11.8l3.13-260.55.04-3.04h0Z"/>
    </g>
    <g>
      <path class="cls-1" d="M87.99,45.33c-18.3,0-33.44-2.87-37.67-7.15-.93-.94-1.39-1.96-1.38-3.04.09-7.51,23.73-10.28,39.6-10.32h.36c18.3,0,33.44,2.87,37.67,7.15.93.94,1.39,1.96,1.38,3.04-.09,7.51-23.73,10.28-39.6,10.32h-.36Z"/>
      <path class="cls-3" d="M88.91,26.32c20.82,0,37.6,3.87,37.54,8.67-.06,4.83-17.12,8.79-38.11,8.83-.12,0-.24,0-.36,0-20.82,0-37.6-3.87-37.54-8.67.06-4.83,17.12-8.79,38.11-8.83.12,0,.24,0,.36,0M88.92,23.32v3-3h-.36c-4.19,0-40.96.42-41.1,11.8-.01,1.03.29,2.58,1.81,4.11,5.54,5.61,24.33,7.6,38.73,7.6h.36c4.19,0,40.96-.42,41.1-11.8.01-1.03-.29-2.58-1.81-4.11-5.54-5.61-24.33-7.6-38.73-7.6h0Z"/>
    </g>
  </g>
  <g>
    <g>
      <path class="cls-4" d="M519.32,311.79c-18.3,0-33.44-2.87-37.66-7.15-.92-.94-1.39-1.96-1.38-3.04l3.15-262.03,79-.17-3.15,262.07c-.09,7.51-23.73,10.28-39.6,10.32h-.36Z"/>
      <path class="cls-3" d="M560.92,40.91l-3.13,260.55c-.06,4.83-17.12,8.79-38.11,8.83-.12,0-.24,0-.36,0-20.82,0-37.6-3.87-37.54-8.67l3.13-260.55,76-.16M563.95,37.9h-3.04s-76,.17-76,.17h-2.96s-.04,2.96-.04,2.96l-3.13,260.55c-.01,1.03.29,2.58,1.81,4.11,5.54,5.61,24.33,7.6,38.73,7.6h.36c4.19,0,40.96-.42,41.1-11.8l3.13-260.55.04-3.04h0Z"/>
    </g>
    <g>
      <path class="cls-1" d="M522.47,50.19c-18.3,0-33.44-2.87-37.67-7.15-.93-.94-1.39-1.96-1.38-3.04.09-7.51,23.73-10.28,39.6-10.32h.36c18.3,0,33.44,2.87,37.67,7.15.93.94,1.39,1.96,1.38,3.04-.09,7.51-23.73,10.28-39.6,10.32h-.36Z"/>
      <path class="cls-3" d="M523.39,31.18c20.82,0,37.6,3.87,37.54,8.67-.06,4.83-17.12,8.79-38.11,8.83-.12,0-.24,0-.36,0-20.82,0-37.6-3.87-37.54-8.67.06-4.83,17.12-8.79,38.11-8.83.12,0,.24,0,.36,0M523.39,28.18v3-3s-.36,0-.36,0c-4.19,0-40.96.42-41.1,11.8-.01,1.03.29,2.58,1.81,4.11,5.54,5.61,24.33,7.6,38.73,7.6h.36c4.19,0,40.96-.42,41.1-11.8.01-1.03-.29-2.58-1.81-4.11-5.54-5.61-24.33-7.6-38.73-7.6h0Z"/>
    </g>
  </g>
  <rect class="cls-2" x="47.87" y="234.2" width="510.53" height="70.09"/>
  <path class="cls-2" d="M557.32,157.81c1.31.89,2.04,1.83,2.03,2.82-.06,4.83-17.12,8.79-38.11,8.83-20.99.04-37.96-3.84-37.9-8.67.01-1.05-4.7-2.55-7.43-2.98l-345-.68c-2.78,1.08-7.86,3.29-7.88,4.77-.06,4.83-17.12,8.79-38.11,8.83-8.88.02-17.02-.67-23.47-1.83v65.3h510.53v-76.39h-14.66Z"/>
  <rect class="cls-2" x="86.88" y="304.29" width="437.76" height="41.43"/>
  <g>
    <g>
      <path class="cls-4" d="M569.49,477.87c-22.49,0-41.05-3.5-46.21-8.72-1.07-1.08-1.61-2.26-1.59-3.5l3.88-322.76,96.72-.2-3.88,322.8c-.1,8.06-24.47,12.33-48.49,12.38h-.43Z"/>
      <path class="cls-3" d="M620.77,144.2l-3.86,321.28c-.07,5.96-21.11,10.84-46.99,10.89-.15,0-.29,0-.44,0-25.68,0-46.36-4.77-46.29-10.7l3.86-321.28,93.72-.2M623.81,141.2h-3.04s-93.72.2-93.72.2h-2.96s-.04,2.96-.04,2.96l-3.86,321.28c-.01,1.14.33,2.85,2.03,4.57,6.25,6.33,28.24,9.16,47.26,9.16h.45c12.74-.03,24.76-1.2,33.84-3.31,10.8-2.5,16.08-5.96,16.14-10.55l3.86-321.28.04-3.04h0Z"/>
    </g>
    <g>
      <path class="cls-1" d="M573.36,155.3c-22.48,0-41.05-3.5-46.2-8.72-1.07-1.09-1.61-2.26-1.59-3.5.1-8.06,24.47-12.32,48.49-12.38h.44c22.48,0,41.05,3.5,46.2,8.71,1.07,1.09,1.61,2.26,1.59,3.5-.1,8.06-24.46,12.32-48.49,12.38h-.44Z"/>
      <path class="cls-3" d="M574.5,132.21c25.68,0,46.36,4.77,46.29,10.7-.07,5.96-21.11,10.84-46.99,10.89-.15,0-.29,0-.44,0-25.68,0-46.36-4.77-46.29-10.7.07-5.96,21.11-10.84,46.99-10.89.15,0,.29,0,.44,0M574.5,129.21v3-3s-.45,0-.45,0c-12.74.03-24.76,1.2-33.84,3.31-10.8,2.5-16.08,5.96-16.14,10.55-.01,1.14.33,2.85,2.03,4.57,6.25,6.33,28.24,9.16,47.26,9.16h.44c12.74-.03,24.76-1.2,33.84-3.31,10.8-2.5,16.08-5.96,16.14-10.55.01-1.14-.33-2.85-2.03-4.57-6.25-6.33-28.24-9.16-47.26-9.16h0Z"/>
    </g>
  </g>
  <g>
    <g>
      <path class="cls-4" d="M49.3,477.87c-22.49,0-41.05-3.5-46.21-8.72-1.07-1.08-1.61-2.26-1.59-3.5l3.88-322.76,96.72-.2-3.88,322.8c-.1,8.06-24.46,12.33-48.49,12.38h-.43Z"/>
      <path class="cls-3" d="M100.58,144.2l-3.86,321.28c-.07,5.96-21.11,10.84-46.99,10.89-.15,0-.29,0-.44,0-25.68,0-46.36-4.77-46.29-10.7l3.86-321.28,93.72-.2M103.62,141.2h-3.04s-93.72.2-93.72.2h-2.96s-.04,2.96-.04,2.96L0,465.64c-.01,1.14.33,2.85,2.03,4.57,6.25,6.33,28.24,9.16,47.26,9.16h.45c12.74-.03,24.76-1.2,33.84-3.31,10.8-2.5,16.08-5.96,16.14-10.55l3.86-321.28.04-3.04h0Z"/>
    </g>
    <g>
      <path class="cls-1" d="M53.17,155.3c-22.48,0-41.05-3.5-46.2-8.72-1.07-1.09-1.61-2.26-1.59-3.5.1-8.06,24.46-12.32,48.49-12.38h.44c22.48,0,41.05,3.5,46.2,8.71,1.07,1.09,1.61,2.26,1.59,3.5-.1,8.06-24.46,12.33-48.49,12.38h-.44Z"/>
      <path class="cls-3" d="M54.3,132.21c25.68,0,46.36,4.77,46.29,10.7-.07,5.96-21.11,10.84-46.99,10.89-.15,0-.29,0-.44,0-25.68,0-46.36-4.77-46.29-10.7.07-5.96,21.11-10.84,46.99-10.89.15,0,.29,0,.44,0M54.31,129.21v3-3s-.45,0-.45,0c-12.74.03-24.76,1.2-33.84,3.31-10.8,2.5-16.08,5.96-16.14,10.55-.01,1.14.33,2.85,2.03,4.57,6.25,6.33,28.24,9.16,47.26,9.16h.44c12.74-.03,24.76-1.2,33.84-3.31,10.8-2.5,16.08-5.96,16.14-10.55.01-1.14-.33-2.85-2.03-4.57-6.25-6.33-28.24-9.16-47.26-9.16h0Z"/>
    </g>
  </g>
</svg>