<?xml version="1.0" encoding="UTF-8"?>
<svg id="_Слой_1" data-name="Слой 1" xmlns="http://www.w3.org/2000/svg" viewBox="0 0 307.73 299.19">
  <defs>
    <style>
      .cls-1 {
        stroke: #006837;
        stroke-width: 2px;
      }

      .cls-1, .cls-2 {
        fill: #39b54a;
      }

      .cls-1, .cls-3, .cls-4, .cls-5, .cls-6, .cls-7, .cls-8 {
        stroke-miterlimit: 10;
      }

      .cls-3 {
        fill: none;
      }

      .cls-3, .cls-4, .cls-5, .cls-6, .cls-7, .cls-8 {
        stroke: #42210b;
      }

      .cls-9 {
        fill: #6fc8a6;
      }

      .cls-4, .cls-5, .cls-6, .cls-7, .cls-8 {
        stroke-width: 3px;
      }

      .cls-4, .cls-10 {
        fill: #603813;
      }

      .cls-5 {
        fill: #fbb03b;
      }

      .cls-6 {
        fill: #736357;
      }

      .cls-11 {
        fill: #006837;
      }

      .cls-7, .cls-12 {
        fill: #754c24;
      }

      .cls-13 {
        fill: #42210b;
      }

      .cls-8 {
        fill: #8c6239;
      }
    </style>
  </defs>
  <g>
    <ellipse class="cls-5" cx="154.22" cy="242.65" rx="149.32" ry="55.04"/>
    <rect class="cls-8" x="6.18" y="215.06" width="296.14" height="27.58"/>
    <rect class="cls-8" x="6.15" y="187.48" width="296.14" height="27.58"/>
    <rect class="cls-8" x="6.18" y="159.9" width="296.14" height="27.58"/>
    <rect class="cls-8" x="7.44" y="133.45" width="296.14" height="26.33"/>
    <rect class="cls-7" x="7.44" y="133.45" width="296.14" height="19.32"/>
    <rect class="cls-8" x="129.42" y="161.03" width="49.6" height="81.62"/>
    <rect class="cls-8" x="42.72" y="104.73" width="225.57" height="27.58"/>
    <rect class="cls-7" x="169.4" y="182.69" width="92.68" height="27.58" transform="translate(19.26 412.21) rotate(-90)"/>
    <rect class="cls-7" x="44.99" y="182.69" width="92.68" height="27.58" transform="translate(-105.15 287.8) rotate(-90)"/>
    <g>
      <polygon class="cls-12" points="155.72 109.33 155.72 18.3 303.33 148.29 303.33 239.33 155.72 109.33"/>
      <path class="cls-13" d="M157.22,21.62l144.61,127.35v87.04l-144.61-127.35V21.62M154.22,14.98v95.03l150.61,132.63v-95.03L154.22,14.98h0Z"/>
    </g>
    <g>
      <polygon class="cls-2" points="155.72 94.36 155.72 3.32 303.33 133.31 303.33 224.35 155.72 94.36"/>
      <path class="cls-11" d="M157.22,6.64l144.61,127.35v87.04l-144.61-127.35V6.64M154.22,0v95.03l150.61,132.63v-95.03L154.22,0h0Z"/>
    </g>
    <g>
      <polygon class="cls-12" points="5.11 148.29 152.72 18.3 152.72 109.33 5.11 239.33 5.11 148.29"/>
      <path class="cls-13" d="M151.22,21.62v87.04L6.61,236.01v-87.04L151.22,21.62M154.22,14.98L3.61,147.61v95.03L154.22,110.01V14.98h0Z"/>
    </g>
    <g>
      <polygon class="cls-2" points="5.11 133.31 152.72 3.32 152.72 94.36 5.11 224.35 5.11 133.31"/>
      <path class="cls-11" d="M151.22,6.64v87.04L6.61,221.03v-87.04L151.22,6.64M154.22,0L3.61,132.63v95.03L154.22,95.03V0h0Z"/>
    </g>
    <g>
      <polygon class="cls-9" points="37.77 136.8 82.75 97.19 82.75 123.46 37.77 163.07 37.77 136.8"/>
      <path class="cls-11" d="M81.25,100.51v22.28l-41.98,36.97v-22.28l41.98-36.97M84.25,93.87l-47.98,42.25v30.27l47.98-42.25v-30.27h0Z"/>
    </g>
    <g>
      <path class="cls-2" d="M35.19,137.02l2.85-2.51v31.34l-2.85,2.51v-31.34ZM85.34,92.86l2.85-2.51v31.34l-2.85,2.51v-31.34Z"/>
      <path class="cls-13" d="M89.69,87.02l-56.01,49.32v35.34l56.01-49.32v-35.34h0ZM39.54,162.83v-27.95l44.3-39.01v27.95l-44.3,39.01h0Z"/>
    </g>
    <g>
      <path class="cls-2" d="M32.09,137.02l2.85-2.51v31.34l-2.85,2.51v-31.34ZM82.24,92.86l2.86-2.51v31.34l-2.86,2.51v-31.34Z"/>
      <path class="cls-10" d="M86.59,87.02l-56.01,49.32v35.34l56.01-49.32v-35.34h0ZM36.44,162.83v-27.95l44.3-39.01v27.95l-44.3,39.01h0Z"/>
    </g>
    <g>
      <polygon class="cls-6" points="221.06 83.13 221.06 41.4 182.83 41.4 182.83 49.46 221.06 83.13"/>
      <rect class="cls-6" x="176.96" y="31.56" width="49.97" height="12.58"/>
      <rect class="cls-6" x="176.96" y="12.96" width="49.97" height="18.6"/>
      <rect class="cls-4" x="185.1" y="17.63" width="33.68" height="9.26"/>
    </g>
    <ellipse class="cls-1" cx="176.96" cy="31.56" rx="2.19" ry="4.2" transform="translate(-1.5 10.07) rotate(-3.25)"/>
    <ellipse class="cls-1" cx="176.27" cy="14.98" rx="4.2" ry="2.19" transform="translate(78.26 162.25) rotate(-61.21)"/>
    <ellipse class="cls-1" cx="175.82" cy="37.85" rx="2.19" ry="4.2" transform="translate(-1.86 10.02) rotate(-3.25)"/>
    <ellipse class="cls-1" cx="178.01" cy="45.6" rx="2.19" ry="4.2" transform="translate(-2.3 10.16) rotate(-3.25)"/>
    <ellipse class="cls-1" cx="221.06" cy="80.49" rx="4.2" ry="2.19" transform="translate(71.79 262.32) rotate(-70.62)"/>
    <ellipse class="cls-1" cx="223.13" cy="87.81" rx="2.19" ry="4.2" transform="translate(-14.54 56) rotate(-13.86)"/>
    <ellipse class="cls-1" cx="220.38" cy="71.7" rx="2.19" ry="4.2" transform="translate(-3.71 12.6) rotate(-3.25)"/>
    <ellipse class="cls-1" cx="220.38" cy="62.8" rx="2.19" ry="4.2" transform="translate(-3.2 12.58) rotate(-3.25)"/>
    <ellipse class="cls-1" cx="215.37" cy="68.29" rx="2.19" ry="4.2" transform="translate(-3.52 12.31) rotate(-3.25)"/>
    <ellipse class="cls-1" cx="219.92" cy="54.74" rx="2.19" ry="4.2" transform="translate(-2.75 12.55) rotate(-3.25)"/>
    <ellipse class="cls-1" cx="212.03" cy="72.83" rx="2.19" ry="4.2" transform="translate(-12.16 72.85) rotate(-18.96)"/>
    <ellipse class="cls-1" cx="207.65" cy="70.03" rx="2.19" ry="4.2" transform="translate(-10.69 88.8) rotate(-23.55)"/>
    <ellipse class="cls-1" cx="201.94" cy="66.33" rx="2.19" ry="4.2" transform="translate(-7.32 103.63) rotate(-28.29)"/>
    <ellipse class="cls-1" cx="180.48" cy="37.85" rx="4.2" ry="2.87" transform="translate(67.58 183.66) rotate(-64.09)"/>
    <ellipse class="cls-1" cx="182.83" cy="31.56" rx="2.19" ry="4.2" transform="translate(126.98 208.49) rotate(-82.27)"/>
    <ellipse class="cls-1" cx="109.5" cy="160.63" rx="2.19" ry="4.2"/>
    <ellipse class="cls-1" cx="107.31" cy="154.34" rx="2.19" ry="4.2"/>
    <ellipse class="cls-1" cx="111.69" cy="167.85" rx="2.19" ry="4.2"/>
    <ellipse class="cls-1" cx="4.9" cy="227.05" rx="2.19" ry="4.2"/>
    <ellipse class="cls-1" cx="8.38" cy="223.47" rx="2.19" ry="4.2"/>
    <ellipse class="cls-1" cx="11.45" cy="227.05" rx="2.19" ry="4.2"/>
    <ellipse class="cls-1" cx="14.72" cy="222.05" rx="2.19" ry="4.2"/>
    <ellipse class="cls-1" cx="37.42" cy="198.81" rx="2.19" ry="4.2"/>
    <ellipse class="cls-1" cx="39.61" cy="206.12" rx="2.19" ry="4.2"/>
    <ellipse class="cls-1" cx="40.84" cy="193.81" rx="2.19" ry="4.2"/>
    <ellipse class="cls-1" cx="38.65" cy="214.34" rx="2.19" ry="4.2"/>
    <ellipse class="cls-1" cx="39.61" cy="221.82" rx="2.19" ry="4.2"/>
    <ellipse class="cls-1" cx="111.69" cy="176.16" rx="2.19" ry="4.2"/>
    <ellipse class="cls-1" cx="8.38" cy="231.87" rx="2.19" ry="4.2"/>
    <ellipse class="cls-1" cx="8.38" cy="240.27" rx="2.19" ry="4.2"/>
    <ellipse class="cls-1" cx="102.92" cy="148.42" rx="2.19" ry="4.2"/>
    <ellipse class="cls-1" cx="107.31" cy="144.38" rx="2.19" ry="4.2"/>
    <ellipse class="cls-1" cx="117.01" cy="145.94" rx="2.19" ry="4.2"/>
    <ellipse class="cls-1" cx="117.01" cy="137.03" rx="2.19" ry="4.2"/>
    <ellipse class="cls-1" cx="112.62" cy="133.55" rx="2.19" ry="4.2"/>
    <ellipse class="cls-1" cx="119.2" cy="129.35" rx="2.19" ry="4.2"/>
    <ellipse class="cls-1" cx="114.81" cy="128.12" rx="2.19" ry="4.2"/>
    <ellipse class="cls-1" cx="117.01" cy="154.34" rx="2.19" ry="4.2"/>
    <ellipse class="cls-1" cx="114.81" cy="160.63" rx="2.19" ry="4.2"/>
    <ellipse class="cls-1" cx="157.63" cy="97.85" rx="2.19" ry="4.2" transform="translate(-5.29 9.09) rotate(-3.25)"/>
    <ellipse class="cls-1" cx="160.18" cy="104.01" rx="2.19" ry="4.2" transform="translate(-5.63 9.24) rotate(-3.25)"/>
    <ellipse class="cls-1" cx="162.38" cy="111.66" rx="4.2" ry="2.19" transform="translate(3.16 227.79) rotate(-70.62)"/>
    <ellipse class="cls-1" cx="172.69" cy="132.32" rx="2.19" ry="4.2" transform="translate(-7.22 9.99) rotate(-3.25)"/>
    <ellipse class="cls-1" cx="154.87" cy="104.31" rx="2.19" ry="4.2" transform="translate(-5.66 8.94) rotate(-3.25)"/>
    <ellipse class="cls-1" cx="150.49" cy="104.56" rx="2.19" ry="4.2" transform="translate(-5.68 8.69) rotate(-3.25)"/>
    <ellipse class="cls-1" cx="148.29" cy="111.66" rx="2.19" ry="4.2" transform="translate(-6.09 8.58) rotate(-3.25)"/>
    <ellipse class="cls-1" cx="152.32" cy="98.15" rx="2.19" ry="4.2" transform="translate(-5.32 8.79) rotate(-3.25)"/>
    <ellipse class="cls-1" cx="170.5" cy="116.98" rx="2.19" ry="4.2"/>
    <ellipse class="cls-1" cx="168.31" cy="110.69" rx="2.19" ry="4.2"/>
    <ellipse class="cls-1" cx="173.63" cy="110.69" rx="2.19" ry="4.2"/>
    <ellipse class="cls-1" cx="173.63" cy="124.17" rx="2.19" ry="4.2"/>
    <ellipse class="cls-1" cx="205.45" cy="137.75" rx="2.19" ry="4.2"/>
    <ellipse class="cls-1" cx="207.65" cy="145.94" rx="2.19" ry="4.2"/>
    <ellipse class="cls-1" cx="212.03" cy="144.38" rx="2.19" ry="4.2"/>
    <ellipse class="cls-1" cx="211.52" cy="138.47" rx="2.1" ry="4.94" transform="translate(-26.04 224.96) rotate(-53.22)"/>
    <ellipse class="cls-1" cx="181.75" cy="117.89" rx="1.96" ry="3.69" transform="translate(-21.5 192.86) rotate(-53.22)"/>
    <ellipse class="cls-1" cx="268.29" cy="192.62" rx="1.96" ry="3.69" transform="translate(-46.63 292.16) rotate(-53.22)"/>
    <ellipse class="cls-1" cx="249.13" cy="141.74" rx="1.96" ry="3.69" transform="translate(-13.57 256.4) rotate(-53.22)"/>
    <ellipse class="cls-1" cx="256.25" cy="143.11" rx="1.96" ry="3.69" transform="translate(-11.81 262.65) rotate(-53.22)"/>
    <ellipse class="cls-1" cx="282.22" cy="191.33" rx="1.96" ry="3.69" transform="translate(-40 302.8) rotate(-53.22)"/>
    <ellipse class="cls-1" cx="302.02" cy="146.61" rx="1.96" ry="3.69" transform="translate(3.75 300.71) rotate(-53.22)"/>
    <ellipse class="cls-1" cx="301.65" cy="140.95" rx="1.96" ry="3.69" transform="translate(8.14 298.14) rotate(-53.22)"/>
    <ellipse class="cls-1" cx="296.72" cy="140.18" rx="1.96" ry="3.69" transform="translate(6.78 293.89) rotate(-53.22)"/>
    <ellipse class="cls-1" cx="303.55" cy="132.83" rx="1.96" ry="3.69" transform="translate(15.4 296.41) rotate(-53.22)"/>
    <ellipse class="cls-1" cx="266.85" cy="102.2" rx="1.96" ry="3.69" transform="translate(25.21 254.73) rotate(-53.22)"/>
    <ellipse class="cls-1" cx="264.81" cy="95.88" rx="1.96" ry="3.69" transform="translate(29.46 250.55) rotate(-53.22)"/>
    <ellipse class="cls-1" cx="262.5" cy="98.95" rx="1.96" ry="3.69" transform="translate(26.07 249.94) rotate(-53.22)"/>
    <ellipse class="cls-1" cx="258.62" cy="93.7" rx="1.96" ry="3.69" transform="translate(28.72 244.72) rotate(-53.22)"/>
    <ellipse class="cls-1" cx="281.49" cy="186.14" rx="1.96" ry="3.69" transform="translate(-36.14 300.13) rotate(-53.22)"/>
    <ellipse class="cls-1" cx="251.39" cy="137.03" rx="1.96" ry="3.69" transform="translate(-8.89 256.32) rotate(-53.22)"/>
    <ellipse class="cls-1" cx="201.94" cy="108.29" rx="1.96" ry="3.69" transform="translate(-5.7 205.19) rotate(-53.22)"/>
    <ellipse class="cls-1" cx="206.84" cy="106.49" rx="1.96" ry="3.69" transform="translate(-2.3 208.38) rotate(-53.22)"/>
    <ellipse class="cls-1" cx="157.63" cy="61.8" rx="1.96" ry="3.69" transform="translate(13.75 151.04) rotate(-53.22)"/>
    <ellipse class="cls-1" cx="156.52" cy="66.42" rx="1.96" ry="3.69" transform="translate(9.6 152.01) rotate(-53.22)"/>
    <ellipse class="cls-1" cx="270.03" cy="198.01" rx="1.96" ry="3.69" transform="translate(-50.25 295.72) rotate(-53.22)"/>
    <ellipse class="cls-1" cx="249.13" cy="174.97" rx="2.1" ry="4.94" transform="translate(-40.18 269.73) rotate(-53.22)"/>
    <ellipse class="cls-1" cx="243.92" cy="167.85" rx="2.1" ry="4.94" transform="translate(-36.57 262.7) rotate(-53.22)"/>
    <ellipse class="cls-1" cx="203.26" cy="152.62" rx="2.19" ry="4.2"/>
    <ellipse class="cls-1" cx="201.07" cy="159.78" rx="2.19" ry="4.2"/>
    <ellipse class="cls-1" cx="207.65" cy="154.34" rx="2.19" ry="4.2"/>
    <ellipse class="cls-1" cx="212.03" cy="160.63" rx="2.19" ry="4.2"/>
    <ellipse class="cls-1" cx="214.22" cy="167.85" rx="2.19" ry="4.2"/>
    <ellipse class="cls-1" cx="217.93" cy="173.69" rx="2.19" ry="4.2" transform="translate(-60.69 167.79) rotate(-37.34)"/>
    <ellipse class="cls-1" cx="239.53" cy="177.89" rx="2.19" ry="4.2"/>
    <ellipse class="cls-1" cx="235.63" cy="180.5" rx="4.2" ry="2.19" transform="translate(-29.68 313.59) rotate(-64.09)"/>
    <ellipse class="cls-1" cx="230.92" cy="182.09" rx="4.2" ry="2.19" transform="translate(-24.8 327.3) rotate(-67.85)"/>
    <ellipse class="cls-1" cx="226.54" cy="182.09" rx="2.19" ry="4.2" transform="translate(-32.91 51.08) rotate(-12)"/>
    <ellipse class="cls-1" cx="229.53" cy="188.89" rx="2.19" ry="4.2" transform="translate(-34.26 51.85) rotate(-12)"/>
    <ellipse class="cls-1" cx="222.57" cy="179.08" rx="2.19" ry="4.2"/>
    <ellipse class="cls-1" cx="243.92" cy="173.69" rx="2.19" ry="4.2"/>
    <ellipse class="cls-1" cx="243.92" cy="181.94" rx="2.19" ry="4.2"/>
    <ellipse class="cls-1" cx="239.53" cy="169.49" rx="2.19" ry="4.2"/>
    <ellipse class="cls-1" cx="175.82" cy="116.98" rx="2.19" ry="4.2"/>
    <ellipse class="cls-1" cx="302.02" cy="219.73" rx="4.2" ry="2.19" transform="translate(55.83 500.6) rotate(-84.8)"/>
    <ellipse class="cls-1" cx="295.56" cy="232.05" rx="4.2" ry="2.19" transform="translate(37.69 505.37) rotate(-84.8)"/>
    <ellipse class="cls-1" cx="237.34" cy="267.74" rx="2.19" ry="4.2" transform="translate(-107.18 364.26) rotate(-64.09)"/>
    <ellipse class="cls-1" cx="273.42" cy="251.19" rx="2.19" ry="4.2" transform="translate(-71.98 387.4) rotate(-64.09)"/>
    <ellipse class="cls-1" cx="214.22" cy="251.19" rx="2.19" ry="4.2" transform="translate(-105.32 334.14) rotate(-64.09)"/>
    <ellipse class="cls-1" cx="102.92" cy="271.87" rx="2.19" ry="4.2" transform="translate(-186.59 245.67) rotate(-64.09)"/>
    <ellipse class="cls-1" cx="99.03" cy="265.05" rx="2.19" ry="4.2" transform="translate(-182.65 238.33) rotate(-64.09)"/>
    <ellipse class="cls-1" cx="152.32" cy="263.5" rx="4.2" ry="2.19" transform="translate(-99.81 93.03) rotate(-25.91)"/>
    <ellipse class="cls-1" cx="27.42" cy="177" rx="4.2" ry="2.19" transform="translate(-74.58 29.76) rotate(-25.91)"/>
    <ellipse class="cls-1" cx="4.9" cy="207.57" rx="4.2" ry="2.19" transform="translate(-90.19 23) rotate(-25.91)"/>
    <ellipse class="cls-1" cx="30.49" cy="171.82" rx="4.2" ry="2.19" transform="translate(-72 30.59) rotate(-25.91)"/>
    <ellipse class="cls-1" cx="28.88" cy="137.03" rx="4.2" ry="2.19" transform="translate(-56.96 26.39) rotate(-25.91)"/>
    <ellipse class="cls-1" cx="40.84" cy="124.17" rx="4.2" ry="2.19" transform="translate(-50.14 30.32) rotate(-25.91)"/>
    <ellipse class="cls-1" cx="33.69" cy="123.92" rx="4.2" ry="2.19" transform="translate(-50.75 27.17) rotate(-25.91)"/>
    <ellipse class="cls-1" cx="40.84" cy="118.53" rx="4.2" ry="2.19" transform="translate(-47.68 29.75) rotate(-25.91)"/>
    <ellipse class="cls-1" cx="38.67" cy="167.85" rx="4.2" ry="2.19" transform="translate(-69.45 33.76) rotate(-25.91)"/>
    <ellipse class="cls-1" cx="43.03" cy="170.13" rx="4.2" ry="2.19" transform="translate(-70 35.89) rotate(-25.91)"/>
    <ellipse class="cls-1" cx="87.74" cy="121.22" rx="4.2" ry="2.19" transform="translate(-44.14 50.51) rotate(-25.91)"/>
    <ellipse class="cls-1" cx="87.74" cy="88.75" rx="4.2" ry="2.19" transform="translate(-29.96 47.25) rotate(-25.91)"/>
    <ellipse class="cls-1" cx="102.92" cy="56.25" rx="4.2" ry="2.19" transform="translate(-14.23 50.62) rotate(-25.91)"/>
    <ellipse class="cls-1" cx="102.69" cy="62.26" rx="4.2" ry="2.19" transform="translate(-16.88 51.12) rotate(-25.91)"/>
    <ellipse class="cls-1" cx="149.8" cy="14.98" rx="4.2" ry="2.19" transform="translate(8.51 66.95) rotate(-25.91)"/>
    <ellipse class="cls-1" cx="146.69" cy="19.81" rx="4.2" ry="2.19" transform="translate(6.08 66.08) rotate(-25.91)"/>
    <ellipse class="cls-1" cx="150.49" cy="22.26" rx="4.2" ry="2.19" transform="translate(5.4 67.98) rotate(-25.91)"/>
    <ellipse class="cls-1" cx="78.92" cy="90.14" rx="4.2" ry="2.19" transform="translate(-31.45 43.54) rotate(-25.91)"/>
    <ellipse class="cls-1" cx="89.26" cy="115.01" rx="4.2" ry="2.19" transform="translate(-41.28 50.56) rotate(-25.91)"/>
    <ellipse class="cls-1" cx="91.32" cy="102.2" rx="4.2" ry="2.19" transform="translate(-35.48 50.17) rotate(-25.91)"/>
    <ellipse class="cls-1" cx="149.48" cy="63.74" rx="4.2" ry="2.19" transform="translate(-12.83 71.71) rotate(-25.91)"/>
    <ellipse class="cls-1" cx="150.49" cy="68.78" rx="4.2" ry="2.19" transform="translate(-14.93 72.66) rotate(-25.91)"/>
    <ellipse class="cls-1" cx="150.49" cy="58.27" rx="4.2" ry="2.19" transform="translate(-10.33 71.6) rotate(-25.91)"/>
    <ellipse class="cls-1" cx="144.27" cy="68.29" rx="4.2" ry="2.19" transform="translate(-15.34 69.89) rotate(-25.91)"/>
    <ellipse class="cls-1" cx="89.69" cy="92.78" rx="4.2" ry="2.19" transform="translate(-31.52 48.51) rotate(-25.91)"/>
    <ellipse class="cls-1" cx="94.43" cy="96.01" rx="4.2" ry="2.19" transform="translate(-32.46 50.9) rotate(-25.91)"/>
    <ellipse class="cls-1" cx="139.25" cy="22.26" rx="4.2" ry="2.19" transform="translate(4.27 63.07) rotate(-25.91)"/>
    <ellipse class="cls-1" cx="138.02" cy="28.32" rx="4.2" ry="2.19" transform="translate(1.5 63.14) rotate(-25.91)"/>
    <ellipse class="cls-1" cx="94.43" cy="116.08" rx="4.2" ry="2.19" transform="translate(-41.22 52.92) rotate(-25.91)"/>
    <ellipse class="cls-1" cx="84.64" cy="126.86" rx="4.2" ry="2.19" transform="translate(-46.92 49.72) rotate(-25.91)"/>
    <ellipse class="cls-1" cx="45.7" cy="162.83" rx="4.2" ry="2.19" transform="translate(-66.55 36.33) rotate(-25.91)"/>
    <ellipse class="cls-1" cx="29.13" cy="144.22" rx="4.2" ry="2.19" transform="translate(-60.08 27.22) rotate(-25.91)"/>
    <ellipse class="cls-1" cx="7.44" cy="137.03" rx="4.2" ry="2.19" transform="translate(-59.12 17.02) rotate(-25.91)"/>
    <ellipse class="cls-1" cx="6.18" cy="143.56" rx="4.2" ry="2.19" transform="translate(-62.1 17.13) rotate(-25.91)"/>
    <ellipse class="cls-1" cx="229.53" cy="280.05" rx="4.2" ry="2.19" transform="translate(-99.28 128.42) rotate(-25.91)"/>
    <ellipse class="cls-1" cx="55.82" cy="268.83" rx="4.2" ry="2.19" transform="translate(-111.84 51.4) rotate(-25.91)"/>
    <ellipse class="cls-1" cx="36.46" cy="246.78" rx="2.19" ry="4.2" transform="translate(-201.46 171.76) rotate(-64.09)"/>
    <ellipse class="cls-1" cx="44.34" cy="245.74" rx="2.19" ry="4.2" transform="translate(-196.08 178.27) rotate(-64.09)"/>
    <ellipse class="cls-1" cx="93.24" cy="268.83" rx="2.19" ry="4.2" transform="translate(-189.31 235.25) rotate(-64.09)"/>
    <ellipse class="cls-1" cx="298.33" cy="225.72" rx="4.2" ry="2.19" transform="translate(46.52 502.38) rotate(-84.8)"/>
    <ellipse class="cls-1" cx="293.97" cy="225.32" rx="4.2" ry="2.19" transform="translate(42.94 497.67) rotate(-84.8)"/>
    <ellipse class="cls-1" cx="296.72" cy="219.25" rx="4.2" ry="2.19" transform="translate(51.49 494.89) rotate(-84.8)"/>
  </g>
  <path class="cls-13" d="M142.25,161.76c-1.17,4.81-1.47,9.55.11,14.29.6,2.15,1.4,5.11,1.72,7.29.83,4.94.74,10.03.47,15-.19,4.76-.86,17.35-1.13,22.26,0,0-.2,0-.2,0-.11-8.59.18-21.21-.08-29.67-.25-4.9-1.53-9.56-2.72-14.38-.56-2.46-.95-5.1-.59-7.64.32-2.56,1.17-4.95,2.22-7.21,0,0,.19.06.19.06h0Z"/>
  <path class="cls-13" d="M136.65,242.17c.42-1.24.66-2.07-.68-2.61-1.41-.83-1.97-2.53-1.54-3.85-.1,1.39.86,2.64,1.96,2.94,2.1.31,2.46,2.21,2.23,3.94,0,0-1.96-.42-1.96-.42h0Z"/>
  <polygon class="cls-13" points="148.14 241.99 151.62 236.83 149.96 242.82 148.14 241.99 148.14 241.99"/>
  <path class="cls-13" d="M160.54,240.92c6.17-.89,8.5-2.75,8.52-9.16.04-1.69-.15-3.4-.81-5,.89,1.48,1.35,3.22,1.56,4.96,1.1,7.24-1.95,10.16-8.54,12.11,0,0-.73-2.91-.73-2.91h0Z"/>
  <path class="cls-3" d="M87.4,241.75v-.23"/>
  <path class="cls-13" d="M87.66,241.07c1.22-3.03,1.08-6.45.46-9.63-.68-3.12-2.06-6.88.41-9.61-1,1.34-1.43,3.06-1.19,4.68.69,3.23,1.99,6.43,1.99,9.84.06,1.7-.17,3.44-.73,5.08l-.94-.35h0Z"/>
  <path class="cls-3" d="M94.79,204.71c.74-4.86,1.48-9.8.86-14.67-.23-1.82-.65-3.63-.7-5.47s.3-3.77,1.44-5.21"/>
  <path class="cls-13" d="M120.11,139.18c4.23.15,8.37-.81,12.58-.33,0,0,.01.1.01.1-2.02.78-4.15.91-6.28.79-2.11-.03-4.22-.19-6.31-.47,0,0,0-.1,0-.1h0Z"/>
  <path class="cls-13" d="M224.41,241.75c1.02-3.41,1.03-7.14,1.16-10.71.08-3.62-.13-7.41-2.15-10.54,1.13,1.45,1.9,3.19,2.35,5,.46,1.81.67,3.67.8,5.52.2,3.75.54,7.47-.23,11.23,0,0-1.94-.49-1.94-.49h0Z"/>
  <path class="cls-13" d="M210.09,210.83c-1.73-3.52.59-7.2,1.76-10.48,1.39-5.88-.96-11.74-1.78-17.57,0,0,.1-.03.1-.03,1.46,3.31,2.6,6.83,2.79,10.47.27,3.64-.79,7.25-1.69,10.72-.7,2.27-1.52,4.46-1.09,6.85,0,0-.09.03-.09.03h0Z"/>
  <path class="cls-13" d="M213.3,223.67c.54,3.25.55,6.82-.58,9.95-.51,1.02-1.16,1.98-2.15,2.7l-.18-.09c0-2.33.68-4.17,1.5-6.24.61-2.05,1.03-4.15,1.21-6.3,0,0,.2-.01.2-.01h0Z"/>
  <path class="cls-13" d="M249.8,236.12c3.15-.38,6.24-.15,9.36.13,5.21-.17,10.34-1.1,15.58-.77-4.8,1.7-10.44,1.13-15.58,1.1-3.05.22-6.55.54-9.36-.45h0Z"/>
  <path class="cls-13" d="M45.74,222.8c1.27,1.27,2.22,2.88,2.77,4.6.82,3.26,2.5,3.82,5.56,4.37,2.62.6,5.17,1.39,7.66,2.43,0,0-.02.1-.02.1-2.68-.29-5.3-.83-7.88-1.57-1.7-.53-3.81-.91-4.83-2.6-.51-.82-.73-1.72-.97-2.58-.41-1.71-1.2-3.33-2.36-4.68,0,0,.07-.07.07-.07h0Z"/>
</svg>