<?xml version="1.0" encoding="UTF-8"?>
<svg id="_Слой_1" data-name="Слой 1" xmlns="http://www.w3.org/2000/svg" viewBox="0 0 154.14 225.49">
  <defs>
    <style>
      .cls-1 {
        fill: #939357;
      }

      .cls-2 {
        fill: gray;
      }

      .cls-2, .cls-3, .cls-4, .cls-5, .cls-6 {
        stroke-miterlimit: 10;
      }

      .cls-2, .cls-3, .cls-6 {
        stroke: #000;
      }

      .cls-3, .cls-7 {
        fill: #534772;
      }

      .cls-4 {
        fill: #f6e281;
        stroke: #68631d;
      }

      .cls-5 {
        fill: #f15a24;
        stroke: #5e4b24;
        stroke-width: 2px;
      }

      .cls-6 {
        fill: #f7dbb7;
      }

      .cls-8 {
        fill: #42210b;
      }

      .cls-9 {
        fill: #ac4b24;
      }

      .cls-10 {
        fill: #d9d39f;
      }
    </style>
  </defs>
  <g>
    <path d="M62.05,140.7c-1.21-5.14.28-10.8,1.03-15.92.81-5.48,1.63-10.96,2.46-16.44,1.66-10.96,3.36-21.91,5.06-32.86.97-6.25,1.94-12.49,2.91-18.74.29-1.89-2.6-2.7-2.89-.8-3.48,22.43-7.01,44.84-10.32,67.3-.87,5.9-2.54,12.32-1.14,18.25.44,1.88,3.34,1.08,2.89-.8h0Z"/>
    <path d="M42.88,131.85c6.23,4.38,12.46,8.77,18.69,13.15,5.7,4.01,12.06,7.73,16.74,12.98,1.29,1.44,3.4-.68,2.12-2.12-4.73-5.31-11.17-9.1-16.94-13.16-6.37-4.48-12.73-8.96-19.1-13.43-1.58-1.11-3.08,1.49-1.51,2.59h0Z"/>
    <path class="cls-8" d="M43.42,130.34c-1.18,20.61-3.19,41.19-6.76,61.52-1.01,5.75-2.15,11.48-3.42,17.19-.42,1.88,2.47,2.68,2.89.8,4.52-20.34,7.31-41.02,9.04-61.77.49-5.91.9-11.82,1.24-17.73.11-1.93-2.89-1.92-3,0h0Z"/>
    <path class="cls-8" d="M72.37,150.47c.42,9.41-3.86,18.05-7.27,26.57-3.76,9.38-5.66,19.28-7.85,29.11-1.3,5.82-2.6,11.64-3.9,17.46-.42,1.88,2.47,2.68,2.89.8,2.33-10.42,4.56-20.87,7-31.27,1.12-4.79,2.48-9.49,4.27-14.08s3.69-8.77,5.25-13.27c1.7-4.93,2.85-10.08,2.62-15.33-.09-1.92-3.09-1.93-3,0h0Z"/>
    <path d="M73.62,58.54c6.66,3.73,13.61,6.91,20.77,9.55,1.81.67,2.6-2.23.8-2.89-6.92-2.55-13.62-5.64-20.06-9.24-1.69-.94-3.2,1.65-1.51,2.59h0Z"/>
    <path d="M54.63,47.02c6.15,2.06,11.82,5.43,16.59,9.83,1.42,1.31,3.54-.81,2.12-2.12-5.16-4.76-11.26-8.37-17.92-10.6-1.83-.62-2.62,2.28-.8,2.89h0Z"/>
    <path class="cls-8" d="M52.03,51.91c-6.15-7.85-16.66-10.28-24.82-15.35-3.62-2.25-6.74-5.25-10.28-7.63-1.55-1.05-3.22-1.92-4.74-3-3.32-2.36-6.59-5.77-9.63-8.75-1.38-1.35-3.5.77-2.12,2.12,3.02,2.96,6.04,6.02,9.4,8.6,1.45,1.11,3.04,1.99,4.58,2.97,3.28,2.09,6.15,4.7,9.3,6.97,4.02,2.89,8.63,4.85,13.07,7,4.81,2.34,9.75,4.9,13.11,9.19,1.19,1.52,3.3-.62,2.12-2.12h0Z"/>
    <polygon class="cls-6" points="79.38 156.92 43.64 130.56 56.1 37.56 96.58 60.59 79.38 156.92"/>
    <path class="cls-2" d="M116.73,67.15c-1.84-.39-4.09,3.8-5.03,9.36-.94,5.56-.22,10.39,1.62,10.78,1.84.39,4.09-3.8,5.03-9.36.94-5.56.22-10.39-1.62-10.78Z"/>
    <path class="cls-8" d="M113.69,71.46c13.04.36,25.97-1.93,39-1.56,1.93.05,1.93-2.95,0-3-13.04-.36-25.97,1.93-39,1.56-1.93-.05-1.93,2.95,0,3h0Z"/>
    <path d="M53,97.03c1.05-3.84,2.31-7.65,2.24-11.67-.08-4.29-.71-8.54-.91-12.82s.33-8.72,1.08-13.01,1.42-8.29,2.94-12.16c.75-1.91,1.73-3.72,3.66-4.63,1.79-.84,3.86-.96,5.81-1.08s1.93-3.12,0-3c-3.57.22-7.57.65-10.02,3.6-2.69,3.23-3.61,7.93-4.42,11.94-.9,4.44-1.72,8.93-2,13.45s.39,9.21.69,13.83c.15,2.41.36,4.9-.06,7.29-.44,2.52-1.22,4.98-1.9,7.45-.51,1.86,2.38,2.66,2.89.8h0Z"/>
    <path class="cls-7" d="M52.28,96.83c1.03-3.77,2.28-7.52,2.21-11.47-.08-4.29-.71-8.54-.91-12.82s.34-8.85,1.11-13.21c.72-4.08,1.42-8.29,2.94-12.16.82-2.09,1.9-4.07,4.01-5.08,1.91-.91,4.11-1.05,6.18-1.19.96-.06.97-1.56,0-1.5-3.37.21-7.18.59-9.49,3.38-2.59,3.13-3.44,7.75-4.23,11.61-.88,4.38-1.7,8.79-1.97,13.25s.39,9.21.69,13.83c.16,2.49.34,5.02-.09,7.49s-1.22,4.98-1.9,7.45c-.26.93,1.19,1.33,1.45.4h0Z"/>
    <path class="cls-6" d="M31.87,37.56c-1.71-.72-4.66,2.43-6.6,7.03-1.94,4.6-2.12,8.91-.42,9.63l26.68,14.28,3.98-24.04-23.64-6.9Z"/>
    <path class="cls-3" d="M65.78,138.03l-23.83-4.38-14.42,63.82c-.31,1.7,5.93,4.28,13.94,5.75,8.01,1.47,14.76,1.29,15.08-.41l9.23-64.77Z"/>
    <path class="cls-3" d="M87.15,147.9l-23.87-4.16-13.82,63.95c-.3,1.71,5.97,4.22,13.99,5.62s14.77,1.15,15.07-.56l8.62-64.86Z"/>
    <g>
      <path d="M78.08,102.56c1.23-4.32,3.66-8.16,3.15-12.81-.33-3.01-.18-6.04.02-9.06.23-3.41.21-6.85.73-10.24.46-2.96,1.62-5.73,2.76-8.48.64-1.55,1.02-2.18,2.33-3.13,1.55-1.12,3.37-1.77,4.68.03,1.13,1.54,3.73.05,2.59-1.51-1.24-1.7-2.92-2.87-5.11-2.62-1.9.21-3.55,1.3-4.96,2.53-1.17,1.03-1.73,2.22-2.32,3.65-.33.8-.64,1.61-.95,2.42-.12.31-.24.63-.36.94-.05.12-.34.86-.24.6-1.59,3.8-1.8,8.03-1.98,12.11-.15,3.43-.45,6.86-.41,10.3.03,2.22.54,4.27-.02,6.48-.7,2.75-2.05,5.28-2.82,8.01-.53,1.86,2.36,2.65,2.89.8h0Z"/>
      <path class="cls-7" d="M77.36,102.36c.64-2.25,1.66-4.37,2.4-6.59s.94-4.12.68-6.34c-.34-3.01-.12-6.06.08-9.07.24-3.61.21-7.25.86-10.83.53-2.93,1.78-5.9,3-8.61.64-1.42,1.63-2.38,2.95-3.21,2.06-1.3,3.95-1.11,5.33,1.02.52.81,1.82.06,1.3-.76-.96-1.47-2.3-2.69-4.16-2.66-1.67.03-3.18.96-4.44,1.98-1.17.95-1.85,1.86-2.44,3.24-.63,1.45-1.14,2.94-1.74,4.4-1.49,3.68-1.8,7.62-1.98,11.56-.16,3.48-.43,6.96-.43,10.44,0,2.24.56,4.38.06,6.61-.65,2.9-2.11,5.55-2.92,8.41-.26.93,1.18,1.33,1.45.4h0Z"/>
    </g>
    <path class="cls-3" d="M78.68,99.15l-2.05-.21c-2.26,2.97-5.4,3.61-11.17,2.71-5.78-.9-11.64-4.41-12.68-5.75l-2.2-.35c-.7.86-3.83,3-4.55,3.7l-5.91,42.52,46.88,7.28,3.88-42.84c-1.65.44-9.79-1.57-12.19-7.06Z"/>
    <path class="cls-6" d="M90.46,57.59c-2.21-.48-5.27,5.1-6.47,12.13-1.2,7.03.69,13.93,2.9,14.41l26.43,3.15c-1.84-.39-2.56-5.22-1.62-10.78.93-5.52,3.16-9.68,4.98-9.37,0,0,0,0,0,0l-26.23-9.54Z"/>
  </g>
  <g>
    <g>
      <g>
        <ellipse class="cls-5" cx="67.46" cy="41.39" rx="26.64" ry="21.45" transform="translate(-9.8 24.21) rotate(-18.99)"/>
        <path class="cls-5" d="M42.27,50.06c-7.47-21.71,17.03-30.15,18.21-28.95.3.3-19.97,7.04-12.8,27.72,6.97,20.08,26.67,12.32,26.76,12.85.28,1.66-24.7,10.1-32.17-11.61Z"/>
        <path class="cls-5" d="M92.72,32.67c-7.47-21.71-33.61-12.47-32.17-11.61.73.44,19.54-6.47,26.75,14.2,7.61,21.82-12.87,25.55-12.79,26.37.19,1.95,25.68-7.24,18.21-28.95Z"/>
        <path class="cls-5" d="M63.82,42.67c6.96,17.89,12.41,16.85,10.7,18.98s-13.27,2.5-19.62-15.93c-6.35-18.44,3.06-24.46,5.66-24.63s-5.54-1.05,3.26,21.59Z"/>
        <path class="cls-5" d="M71.8,39.9c7.49,21.73,1.69,20.11,4.01,21.31.84.43,12-6.19,5.66-24.63-6.35-18.44-17.16-16.78-19.62-15.93-2.46.85,3.7,1.11,9.95,19.26Z"/>
      </g>
      <path class="cls-9" d="M48.25,59.72c-.52-1.14-.47-2.53-.36-3.78,0,0,.95.69.95.69,1.11.79,2.16,1.66,3.18,2.57,0,0-1.49.86-1.49.86-.5-1.88,1.3-2.94,2.18-4.32.25.92.45,2.07.88,2.87.3.54.77.96,1.34,1.12l-.46.39c-.32-1.02,0-2.29-.42-3.19,0,0-.56-1.28-.56-1.28l1.59.35c.79.13,1.72.72,2.18,1.35.43.52.65.64,1.21.93,0,0-1.51,1.08-1.51,1.08-.14-1.25.25-2.53.22-3.67,0,0-.09-1.66-.09-1.66,1.24.66,2.72,1.44,3.41,2.71.24.39.43.91.53,1.23.09.29.4.53.68.37,0,0,.17.11.17.11-.29.56-1.14.38-1.46-.06-.75-1-1.6-1.66-2.73-2.02,0,0,1.23-.93,1.23-.93.27,1.32.03,2.51.18,3.73,0,0,.21,1.86.21,1.86-1.22-.56-3.03-1.2-3.63-2.5-.31-.55-.59-.73-1.11-1.05,0,0,1.03-.94,1.03-.94.12.7-.04,1.4-.2,1.93-.27.73-.28,1.42-.13,2.14-1.65-.48-2.47-2.06-3.31-3.38,0,0,1.03.02,1.03.02-.24.9-.86,1.55-.67,2.39,0,0,.4,2.8.4,2.8l-1.89-1.93c-.97-.95-1.92-1.94-2.79-2.99,0,0,1.02-.33,1.02-.33-.28.77-.45,1.6-.58,2.49l-.2.03h0Z"/>
    </g>
    <g>
      <path d="M62.13,25.71c1.93,0,1.93-3,0-3s-1.93,3,0,3h0Z"/>
      <ellipse class="cls-4" cx="63.65" cy="31.89" rx="45.06" ry="17.37" transform="translate(-7.26 25.51) rotate(-21.47)"/>
      <g>
        <path class="cls-4" d="M42.28,17.97l4.71,17.5c1.21,2.51,11.7-.02,19.72-3.88s16.55-10.47,15.34-12.98l-10.73-14.61-29.03,13.96Z"/>
        <ellipse class="cls-4" cx="56.79" cy="10.99" rx="16.11" ry="5.05" transform="translate(.85 25.7) rotate(-25.68)"/>
      </g>
      <path class="cls-1" d="M78.19,18.94c-1.57-1.16-2.16-2.86-3.33-4.3-2.06-2.81-4.56-5.71-4.95-9.33-.24-1.54.09-3.74.14-5.31.03,1.57-.2,3.75.11,5.27.57,3.56,3.12,6.2,5.3,8.92,1.11,1.23,1.93,3.01,3.28,3.92,0,0-.55.84-.55.84h0Z"/>
      <path class="cls-1" d="M63.07,3.07c-.68-1.01-1.09-.82-2.17-.73-.46.01-.94-.02-1.39.07-1.47.26-2.24,1.54-3.45,2.28-.5.27-.91.3-1.09.56-.23.26-.28.76-.34,1.22h-.07c-.17-.43-.33-.94-.1-1.51.21-.53.81-.71,1.21-.96.7-.41,1.44-1.17,2.42-1.43l1.38-.4c.97-.29,1.79-.79,2.89-.45.6.27.75.86.8,1.31l-.07.03h0Z"/>
      <path class="cls-1" d="M53.47,35.48c-3.31-2.51-2.9-6.9-3.8-10.44-.9-2.74-1.55-5.67-3.64-7.8,2.91,1.9,4.02,5.59,4.91,8.77.48,3.39.27,6.68,2.53,9.47h0Z"/>
      <path class="cls-1" d="M80.24,37.27c1.31-2.75,3.65-4.85,5.01-7.54.88-1.79.95-3.79,1.08-5.77.12-1.98.43-4.01-.03-5.92-.06-.96-.42-1.89-.99-2.75.86.57,1.55,1.48,1.96,2.5.64,3.11.03,6.2-.2,9.32-.65,4.13-3.65,7.62-6.82,10.17h0Z"/>
      <path class="cls-1" d="M91.31,33.96c1.27-.21,2.6-.41,3.83-.63,1.2-.22,1.7-1.8,3-2.23,1.72-.83,3.99-1.09,4.62-3.11.18-.61.2-1.3.5-1.88-.27.6-.24,1.27-.38,1.91-.68,2.83-4.43,2.62-5.89,4.71-1.11,1.84-3.7,1.6-5.5,2.2,0,0-.19-.98-.19-.98h0Z"/>
      <g>
        <path class="cls-10" d="M49.68,15.11c.12.22.46.07.71.05l.81-.13c4.05-.97,11.33-1.62,11.19-7.11-.03-.23-.1-.56-.18-.65-.54-.21-1.52-.11-2.16,0-1.99.54-4.36,1.22-5.8,2.68.53-1,1.61-1.57,2.58-2.03.99-.46,2-.93,3.12-1.16.82-.12,1.93-.37,2.64.18.68,1.35.04,3.01-.84,4.08-3.04,3-7.59,4.19-11.77,4.31-.13,0-.34-.04-.36-.22h.05Z"/>
        <path class="cls-10" d="M70.64,16.64c.15,1.79-.33,3.55-.78,5.25-.23.85-.53,1.83-1.37,2.45-.85.59-1.72.61-2.47,1.08,0,0-.05-.05-.05-.05.52-.81,1.52-1.09,2.06-1.61,1.57-1.71,2.29-4.81,2.54-7.11,0,0,.07,0,.07,0h0Z"/>
        <path class="cls-10" d="M55.62,49.67c3.08-.61,6.21-.16,9.31-.67,3.13-.27,6.06-1.42,9.2-1.59-2.66,1.79-5.98,2.07-9.08,2.56-3.12.26-6.41.82-9.43-.3h0Z"/>
        <path class="cls-10" d="M35.96,35.08c.54,2.91.13,7.06,2.98,8.74,1.09.36,2.62.32,3.84.32.53.08,1.91-.18,2.08.01-2,.41-4.15.83-6.16.3-3.19-1.39-3.07-6.6-2.74-9.38h0Z"/>
        <path class="cls-10" d="M96.62,21.39c-.23-4.51-2.78-8.06-7.25-9.18-.55-.28-1.13-.5-1.73-.72.64-.07,1.28-.05,1.93,0,4.12.99,8.74,5.38,7.05,9.9h0Z"/>
      </g>
      <path class="cls-1" d="M35.02,32.16c.4-3.82,1.98-9.48,5.94-10.74-3.29,2.66-4.07,7.39-5.94,10.74h0Z"/>
      <path class="cls-1" d="M25.23,41.54c-2.73,7.57-.51,10.02,6.68,12.25.8.14,1.2-.61,1.51-1.27,0,0,.1.03.1.03.03.91-.54,2.03-1.61,2.03-2.53-.23-5.24-1.42-6.74-3.58-.89-1.49-1.61-3.05-1.83-4.79-.09-1.75.6-3.53,1.81-4.73l.08.05h0Z"/>
    </g>
  </g>
</svg>