<?xml version="1.0" encoding="UTF-8"?>
<svg id="_Слой_1" data-name="Слой 1" xmlns="http://www.w3.org/2000/svg" viewBox="0 0 350.7 293.34">
  <defs>
    <style>
      .cls-1 {
        fill: #c69c6d;
      }

      .cls-2 {
        fill: #603813;
      }

      .cls-3 {
        fill: #a67c52;
      }

      .cls-4 {
        fill: #fbb03b;
      }
    </style>
  </defs>
  <g>
    <path class="cls-4" d="M56.85,292.84c-28.06,0-50.9-19.92-50.94-44.41L38.63,106.02v-.06c0-24.52,18.33-44.47,40.87-44.47h186.16c22.54,0,40.87,19.95,40.87,44.47v.06l32.72,142.4c-.04,24.49-22.87,44.41-50.94,44.41H56.85Z"/>
    <path d="M265.67,62c22.26,0,40.37,19.72,40.37,43.97v.11l.03.11,32.7,142.29c-.07,24.19-22.67,43.86-50.44,43.86H56.85c-27.77,0-50.37-19.66-50.44-43.86L39.11,106.19l.03-.11v-.11c0-24.24,18.11-43.97,40.37-43.97h186.16M265.67,61H79.5c-22.85,0-41.37,20.13-41.37,44.97L5.41,248.37c0,24.84,23.03,44.97,51.44,44.97h231.47c28.41,0,51.44-20.13,51.44-44.97l-32.72-142.4c0-24.84-18.52-44.97-41.37-44.97h0Z"/>
  </g>
  <g>
    <g>
      <path class="cls-3" d="M82.97,79.45c-2.63,0-4.51-1.11-4.8-2.83l-11.35-67.81,11.87-2.11,11.36,67.84c.36,2.14-1.87,4.14-5.3,4.75-.6.11-1.2.16-1.78.16h0Z"/>
      <path class="cls-2" d="M77.47,8.44l11.11,66.35c.21,1.23-1.62,2.58-4.09,3.02-.52.09-1.04.14-1.52.14-1.78,0-3.15-.6-3.32-1.57l-11.11-66.35,8.92-1.59M79.93,4.96l-2.98.53-8.92,1.59-2.92.52.49,2.93,11.11,66.35c.41,2.48,2.88,4.08,6.28,4.08.67,0,1.36-.06,2.04-.18,4.28-.76,7.02-3.48,6.52-6.47L80.43,7.95l-.5-2.99h0Z"/>
    </g>
    <g>
      <path class="cls-1" d="M71.82,12.84c-2.63,0-4.51-1.11-4.8-2.83-.36-2.14,1.87-4.14,5.3-4.75.6-.11,1.2-.16,1.78-.16,2.63,0,4.51,1.11,4.8,2.83.36,2.14-1.87,4.14-5.3,4.75-.6.11-1.2.16-1.78.16Z"/>
      <path class="cls-2" d="M74.11,6.6c1.78,0,3.15.6,3.32,1.57.21,1.23-1.62,2.58-4.09,3.02-.52.09-1.04.14-1.52.14-1.78,0-3.15-.6-3.32-1.57-.21-1.23,1.62-2.58,4.09-3.02.52-.09,1.04-.14,1.52-.14M74.11,3.6h0c-.67,0-1.36.06-2.04.18-4.28.76-7.02,3.48-6.52,6.47.41,2.48,2.88,4.08,6.28,4.08.67,0,1.36-.06,2.04-.18,4.28-.76,7.02-3.48,6.52-6.47-.41-2.48-2.88-4.08-6.28-4.08h0Z"/>
    </g>
  </g>
  <g>
    <path class="cls-3" d="M47.31,78.72l23.28-52.17c.21-.47.91-1.56,2.9-1.56,1.12,0,2.44.34,3.73.96,3.04,1.47,4.6,3.74,3.8,5.53l-23.32,52.25-10.39-5.02Z"/>
    <path class="cls-2" d="M73.49,26.5c.85,0,1.96.27,3.07.81,2.12,1.02,3.5,2.62,3.08,3.56l-22.69,50.84-7.69-3.71,22.69-50.84c.2-.45.77-.67,1.53-.67M73.49,23.5c-2.87,0-3.94,1.71-4.27,2.44l-22.69,50.84-1.19,2.66,2.62,1.27,7.69,3.71,2.78,1.34,1.26-2.82,22.69-50.84c1.15-2.57-.71-5.65-4.52-7.49-1.49-.72-3.04-1.11-4.38-1.11h0Z"/>
  </g>
  <g>
    <path class="cls-3" d="M51.36,108.79l23.28-52.17c.21-.47.91-1.56,2.9-1.56,1.12,0,2.44.34,3.73.96,3.03,1.46,4.6,3.74,3.8,5.52l-23.32,52.25-10.39-5.01Z"/>
    <path class="cls-2" d="M77.54,56.57c.85,0,1.96.27,3.07.81,2.12,1.02,3.5,2.62,3.08,3.56l-22.69,50.84-7.69-3.71,22.69-50.84c.2-.45.77-.67,1.53-.67M77.54,53.57c-2.87,0-3.94,1.71-4.27,2.44l-22.69,50.84-1.19,2.66,2.62,1.27,7.69,3.71,2.78,1.34,1.26-2.82,22.69-50.84c1.15-2.57-.71-5.65-4.52-7.49-1.49-.72-3.04-1.11-4.38-1.11h0Z"/>
  </g>
  <g>
    <g>
      <path class="cls-3" d="M60.08,142.02c-2.72,0-4.68-1.21-5-3.08l-12.73-75.88,11.91-2.12,12.73,75.91c.38,2.26-1.89,4.42-5.28,5.02-.55.1-1.11.15-1.65.15h0Z"/>
      <path class="cls-2" d="M53.04,62.68l12.48,74.42c.23,1.38-1.59,2.86-4.06,3.3-.48.08-.94.12-1.38.12-1.86,0-3.33-.71-3.52-1.83l-12.48-74.42,8.96-1.6M55.5,59.19l-2.98.53-8.96,1.6-2.92.52.49,2.93,12.48,74.42c.43,2.59,3.04,4.33,6.47,4.33.63,0,1.27-.06,1.91-.17,4.22-.75,7.01-3.65,6.49-6.75l-12.48-74.42-.5-2.99h0Z"/>
    </g>
    <g>
      <path class="cls-1" d="M47.55,67.3c-2.72,0-4.68-1.21-4.99-3.08-.38-2.26,1.89-4.42,5.28-5.02.55-.1,1.11-.15,1.65-.15,2.72,0,4.68,1.21,5,3.08.38,2.26-1.89,4.42-5.28,5.02-.55.1-1.11.15-1.65.15Z"/>
      <path class="cls-2" d="M49.47,60.55c1.86,0,3.33.71,3.52,1.83.23,1.38-1.59,2.86-4.06,3.3-.48.08-.94.12-1.38.12-1.86,0-3.33-.71-3.52-1.83-.23-1.38,1.59-2.86,4.06-3.3.48-.08.94-.12,1.38-.12M49.47,57.55h0c-.63,0-1.27.06-1.91.17-4.22.75-7.01,3.65-6.49,6.75.43,2.59,3.04,4.33,6.47,4.33.63,0,1.27-.06,1.91-.17,4.22-.75,7.01-3.65,6.49-6.75-.43-2.59-3.04-4.33-6.47-4.33h0Z"/>
    </g>
  </g>
  <g>
    <path class="cls-3" d="M27.1,143.33l20.24-58.82c.43-1.24,1.69-1.95,3.48-1.95.98,0,2.06.21,3.13.62,3.1,1.17,4.88,3.42,4.22,5.33l-20.27,58.91-10.79-4.08Z"/>
    <path class="cls-2" d="M50.82,84.06c.77,0,1.67.17,2.6.52,2.2.83,3.7,2.37,3.33,3.44l-19.77,57.44-7.98-3.02,19.77-57.44c.21-.62,1-.94,2.06-.94M50.82,81.06c-2.43,0-4.26,1.11-4.9,2.96l-19.77,57.44-.95,2.75,2.72,1.03,7.98,3.02,2.89,1.09,1.01-2.92,19.77-57.44c.95-2.76-1.15-5.73-5.1-7.22-1.24-.47-2.5-.71-3.66-.71h0Z"/>
  </g>
  <g>
    <path class="cls-3" d="M33.03,171.08l19.67-53.63c.19-.53.89-1.76,3.19-1.76,1.04,0,2.21.25,3.38.72,3.13,1.25,4.84,3.42,4.17,5.25l-19.7,53.72-10.71-4.3Z"/>
    <path class="cls-2" d="M55.89,117.19c.81,0,1.8.2,2.82.61,2.19.88,3.67,2.38,3.32,3.34l-19.17,52.26-7.92-3.18,19.17-52.26c.19-.52.86-.78,1.78-.78M55.89,114.19c-2.25,0-3.97,1.03-4.6,2.75l-19.17,52.26-1,2.73,2.7,1.08,7.92,3.18,2.87,1.15,1.06-2.9,19.17-52.26c.97-2.64-1.09-5.59-5.02-7.16-1.35-.54-2.71-.83-3.94-.83h0Z"/>
  </g>
  <g>
    <g>
      <path class="cls-3" d="M40.27,204.97c-2.72,0-4.68-1.21-5-3.08l-12.73-75.88,11.91-2.12,12.73,75.91c.38,2.26-1.89,4.42-5.28,5.02-.55.1-1.11.15-1.65.15Z"/>
      <path class="cls-2" d="M33.23,125.63l12.48,74.42c.23,1.38-1.59,2.86-4.06,3.3-.48.08-.94.12-1.38.12-1.86,0-3.33-.71-3.52-1.83l-12.48-74.42,8.96-1.6M35.69,122.14l-2.98.53-8.96,1.6-2.92.52.49,2.93,12.48,74.42c.43,2.59,3.04,4.33,6.47,4.33.63,0,1.27-.06,1.91-.17,4.22-.75,7.01-3.65,6.49-6.75l-12.48-74.42-.5-2.99h0Z"/>
    </g>
    <g>
      <path class="cls-1" d="M27.73,130.25c-2.72,0-4.68-1.21-5-3.08-.38-2.26,1.89-4.42,5.28-5.02.55-.1,1.11-.15,1.65-.15,2.72,0,4.68,1.21,5,3.08.38,2.26-1.89,4.42-5.28,5.02-.55.1-1.11.15-1.65.15Z"/>
      <path class="cls-2" d="M29.66,123.5c1.86,0,3.33.71,3.52,1.83.23,1.38-1.59,2.86-4.06,3.3-.48.08-.94.12-1.38.12-1.86,0-3.33-.71-3.52-1.83-.23-1.38,1.59-2.86,4.06-3.3.48-.08.94-.12,1.38-.12M29.66,120.5h0c-.63,0-1.27.06-1.91.17-4.22.75-7.01,3.65-6.49,6.75.43,2.59,3.04,4.33,6.47,4.33.63,0,1.27-.06,1.91-.17,4.22-.75,7.01-3.65,6.49-6.75-.43-2.59-3.04-4.33-6.47-4.33h0Z"/>
    </g>
  </g>
  <g>
    <path class="cls-3" d="M8.47,218.45l20.24-58.82c.43-1.24,1.69-1.95,3.48-1.95.98,0,2.06.21,3.13.62,3.1,1.17,4.88,3.42,4.22,5.33l-20.27,58.91-10.79-4.08Z"/>
    <path class="cls-2" d="M32.19,159.18c.77,0,1.67.17,2.6.52,2.2.83,3.69,2.37,3.33,3.44l-19.77,57.44-7.98-3.02,19.77-57.44c.21-.62,1-.94,2.06-.94M32.19,156.18c-2.43,0-4.26,1.11-4.9,2.96l-19.77,57.44-.95,2.75,2.72,1.03,7.98,3.02,2.89,1.09,1.01-2.92,19.77-57.44c.95-2.76-1.15-5.73-5.1-7.22-1.24-.47-2.5-.71-3.66-.71h0Z"/>
  </g>
  <g>
    <g>
      <path class="cls-3" d="M19.45,268.72c-2.72,0-4.68-1.21-5-3.08L1.73,189.76l11.91-2.12,12.73,75.91c.38,2.26-1.89,4.42-5.28,5.02-.55.1-1.11.15-1.65.15h0Z"/>
      <path class="cls-2" d="M12.41,189.38l12.48,74.42c.23,1.38-1.59,2.86-4.06,3.3-.48.08-.94.12-1.38.12-1.86,0-3.33-.71-3.52-1.83L3.45,190.98l8.96-1.6M14.87,185.9l-2.98.53-8.96,1.6-2.92.52.49,2.93,12.48,74.42c.43,2.59,3.04,4.33,6.47,4.33.63,0,1.27-.06,1.91-.17,4.22-.75,7.01-3.65,6.49-6.75l-12.48-74.42-.5-2.99h0Z"/>
    </g>
    <g>
      <path class="cls-1" d="M6.92,194c-2.72,0-4.68-1.21-5-3.08-.38-2.26,1.89-4.42,5.28-5.02.55-.1,1.1-.15,1.64-.15,2.72,0,4.68,1.21,5,3.08.38,2.26-1.89,4.42-5.28,5.02-.55.1-1.11.15-1.65.15Z"/>
      <path class="cls-2" d="M8.84,187.25c1.86,0,3.33.71,3.52,1.83.23,1.38-1.59,2.86-4.06,3.3-.48.08-.94.12-1.38.12-1.86,0-3.33-.71-3.52-1.83-.23-1.38,1.59-2.86,4.06-3.3.48-.08.94-.12,1.38-.12M8.84,184.25h0c-.63,0-1.27.06-1.91.17-4.22.75-7.01,3.65-6.49,6.75.43,2.59,3.04,4.33,6.47,4.33.63,0,1.27-.06,1.91-.17,4.22-.75,7.01-3.65,6.49-6.75-.43-2.59-3.04-4.33-6.47-4.33h0Z"/>
    </g>
  </g>
  <g>
    <g>
      <path class="cls-3" d="M267.72,75.85c-.58,0-1.18-.05-1.78-.16-3.43-.61-5.66-2.61-5.3-4.75l11.36-67.84,11.87,2.11-11.35,67.81c-.29,1.72-2.17,2.83-4.8,2.83Z"/>
      <path class="cls-2" d="M273.23,4.84l8.92,1.59-11.11,66.35c-.16.97-1.54,1.57-3.32,1.57-.48,0-.99-.04-1.52-.14-2.46-.44-4.29-1.79-4.09-3.02l11.11-66.35M270.77,1.36l-.5,2.99-11.11,66.35c-.5,2.99,2.24,5.71,6.52,6.47.69.12,1.37.18,2.04.18,3.4,0,5.86-1.6,6.28-4.08l11.11-66.35.49-2.93-2.92-.52-8.92-1.59-2.98-.53h0Z"/>
    </g>
    <g>
      <path class="cls-1" d="M278.88,9.23c-.58,0-1.18-.05-1.78-.16-3.43-.61-5.66-2.61-5.3-4.75.29-1.72,2.17-2.83,4.8-2.83.58,0,1.18.05,1.78.16,3.43.61,5.66,2.61,5.3,4.75-.29,1.72-2.17,2.83-4.8,2.83h0Z"/>
      <path class="cls-2" d="M276.59,3c.48,0,.99.04,1.52.14,2.46.44,4.29,1.79,4.09,3.02-.16.97-1.54,1.57-3.32,1.57-.48,0-.99-.04-1.52-.14-2.46-.44-4.29-1.79-4.09-3.02.16-.97,1.54-1.57,3.32-1.57M276.59,0c-3.4,0-5.86,1.6-6.28,4.08-.5,2.99,2.24,5.71,6.52,6.47.69.12,1.37.18,2.04.18,3.4,0,5.86-1.6,6.28-4.08.5-2.99-2.24-5.71-6.52-6.47-.69-.12-1.37-.18-2.04-.18h0Z"/>
    </g>
  </g>
  <g>
    <path class="cls-3" d="M125.92,273.79c-2.77,0-4.94-2.86-5.05-6.65-.11-3.85,1.99-6.99,4.78-7.17l106.82-6.62.41,13.81-106.73,6.61c-.08,0-.16,0-.24,0Z"/>
    <path class="cls-2" d="M231.02,254.95l.32,10.81-105.28,6.52s-.1,0-.15,0c-1.89,0-3.47-2.28-3.55-5.19-.09-2.99,1.42-5.5,3.38-5.63l105.28-6.52M233.92,251.76l-3.09.19-105.28,6.52c-3.61.22-6.33,4.05-6.19,8.71.14,4.62,2.95,8.1,6.55,8.1.11,0,.22,0,.33-.01l105.28-6.52,2.9-.18-.09-2.9-.32-10.81-.09-3.1h0Z"/>
  </g>
  <g>
    <path class="cls-3" d="M136.81,239.57c-1.14,0-2.23-.48-3.08-1.36-1.1-1.14-1.7-2.84-1.64-4.66.11-3.32,2.32-5.92,5.02-5.92l102.03-.07-.4,11.93-101.92.07h0Z"/>
    <path class="cls-2" d="M237.59,229.07l-.3,8.93-100.47.06h0c-1.86,0-3.31-2-3.22-4.46.08-2.47,1.66-4.47,3.53-4.47l100.47-.06M240.69,226.07h-3.1s-100.47.07-100.47.07c-3.52,0-6.38,3.24-6.52,7.37-.07,2.22.68,4.32,2.06,5.75,1.13,1.17,2.61,1.81,4.16,1.81l100.48-.06h2.9s.1-2.9.1-2.9l.3-8.93.1-3.1h0Z"/>
  </g>
  <g>
    <path class="cls-3" d="M269.68,27.88c-.8-1.79.76-4.06,3.8-5.53,1.29-.62,2.61-.96,3.73-.96,1.99,0,2.69,1.09,2.9,1.55l23.28,52.17-10.39,5.01-23.32-52.25Z"/>
    <path class="cls-2" d="M277.2,22.89c.77,0,1.33.22,1.53.67l22.69,50.84-7.69,3.71-22.69-50.84c-.42-.94.96-2.54,3.08-3.56,1.12-.54,2.22-.81,3.07-.81M277.2,19.89h0c-1.34,0-2.89.39-4.38,1.11-3.81,1.84-5.66,4.92-4.52,7.49l22.69,50.84,1.26,2.82,2.78-1.34,7.69-3.71,2.62-1.27-1.19-2.66-22.69-50.84c-.33-.73-1.4-2.44-4.27-2.44h0Z"/>
  </g>
  <g>
    <path class="cls-3" d="M265.63,55.49c-.8-1.79.76-4.06,3.8-5.53,1.29-.62,2.61-.96,3.73-.96,1.99,0,2.69,1.09,2.9,1.56l23.28,52.17-10.39,5.01-23.32-52.25Z"/>
    <path class="cls-2" d="M273.15,50.5c.77,0,1.33.22,1.53.67l22.69,50.84-7.69,3.71-22.69-50.84c-.42-.94.96-2.54,3.08-3.56,1.12-.54,2.22-.81,3.07-.81M273.15,47.5h0c-1.34,0-2.89.39-4.38,1.11-3.81,1.84-5.66,4.92-4.52,7.49l22.69,50.84,1.26,2.82,2.78-1.34,7.69-3.71,2.62-1.27-1.19-2.66-22.69-50.84c-.33-.73-1.4-2.44-4.27-2.44h0Z"/>
  </g>
  <g>
    <g>
      <path class="cls-3" d="M290.62,138.41c-.54,0-1.09-.05-1.65-.15-3.39-.6-5.66-2.76-5.28-5.02l12.73-75.91,11.91,2.12-12.73,75.88c-.31,1.87-2.27,3.08-5,3.08Z"/>
      <path class="cls-2" d="M297.66,59.07l8.96,1.6-12.48,74.42c-.19,1.12-1.65,1.83-3.52,1.83-.44,0-.91-.04-1.38-.12-2.47-.44-4.29-1.92-4.06-3.3l12.48-74.42M295.2,55.59l-.5,2.99-12.48,74.42c-.52,3.1,2.27,6,6.49,6.75.64.11,1.28.17,1.91.17,3.44,0,6.04-1.74,6.47-4.33l12.48-74.42.49-2.93-2.92-.52-8.96-1.6-2.98-.53h0Z"/>
    </g>
    <g>
      <path class="cls-1" d="M303.15,63.69c-.54,0-1.09-.05-1.65-.15-3.39-.6-5.66-2.76-5.28-5.02.31-1.87,2.27-3.08,5-3.08.54,0,1.09.05,1.65.15,3.39.6,5.66,2.76,5.28,5.02-.32,1.87-2.28,3.08-5,3.08h0Z"/>
      <path class="cls-2" d="M301.22,56.94c.44,0,.91.04,1.38.12,2.47.44,4.29,1.92,4.06,3.3-.19,1.12-1.65,1.83-3.52,1.83-.44,0-.91-.04-1.38-.12-2.47-.44-4.29-1.92-4.06-3.3.19-1.12,1.65-1.83,3.52-1.83M301.22,53.94c-3.44,0-6.04,1.74-6.47,4.33-.52,3.1,2.27,6,6.49,6.75.64.11,1.28.17,1.91.17,3.44,0,6.04-1.74,6.47-4.33.52-3.1-2.27-6-6.49-6.75-.64-.11-1.28-.17-1.91-.17h0Z"/>
    </g>
  </g>
  <g>
    <path class="cls-3" d="M292.31,96.27c-.66-1.92,1.11-4.16,4.22-5.33,1.07-.4,2.15-.62,3.13-.62,1.78,0,3.05.71,3.48,1.95l20.24,58.82-10.79,4.08-20.27-58.9Z"/>
    <path class="cls-2" d="M299.65,91.82c1.06,0,1.85.32,2.06.94l19.77,57.44-7.98,3.02-19.77-57.44c-.37-1.07,1.12-2.61,3.33-3.44.93-.35,1.83-.52,2.6-.52M299.65,88.82c-1.16,0-2.42.25-3.66.71-3.95,1.49-6.05,4.46-5.1,7.22l19.77,57.44,1.01,2.92,2.89-1.09,7.98-3.02,2.72-1.03-.95-2.75-19.77-57.44c-.64-1.86-2.47-2.96-4.9-2.96h0Z"/>
  </g>
  <g>
    <g>
      <path class="cls-3" d="M310.43,201.36c-.54,0-1.09-.05-1.65-.15-3.39-.6-5.66-2.76-5.28-5.02l12.73-75.91,11.91,2.12-12.73,75.88c-.31,1.87-2.27,3.08-5,3.08Z"/>
      <path class="cls-2" d="M317.47,122.02l8.96,1.6-12.48,74.42c-.19,1.12-1.65,1.83-3.52,1.83-.44,0-.91-.04-1.38-.12-2.47-.44-4.29-1.92-4.06-3.3l12.48-74.42M315.01,118.54l-.5,2.99-12.48,74.42c-.52,3.1,2.27,6,6.49,6.75.64.11,1.28.17,1.91.17,3.44,0,6.04-1.74,6.47-4.33l12.48-74.42.49-2.93-2.92-.52-8.96-1.6-2.98-.53h0Z"/>
    </g>
    <g>
      <path class="cls-1" d="M322.96,126.65c-.54,0-1.09-.05-1.64-.15-3.39-.6-5.66-2.76-5.28-5.02.31-1.87,2.27-3.08,4.99-3.08.54,0,1.09.05,1.65.15,3.39.6,5.66,2.76,5.28,5.02-.32,1.87-2.28,3.08-5,3.08h0Z"/>
      <path class="cls-2" d="M321.03,119.9c.44,0,.91.04,1.38.12,2.47.44,4.29,1.92,4.06,3.3-.19,1.12-1.65,1.83-3.52,1.83-.44,0-.91-.04-1.38-.12-2.47-.44-4.29-1.92-4.06-3.3.19-1.12,1.65-1.83,3.52-1.83M321.03,116.9c-3.44,0-6.04,1.74-6.47,4.33-.52,3.1,2.27,6,6.49,6.75.64.11,1.28.17,1.91.17,3.44,0,6.04-1.74,6.47-4.33.52-3.1-2.27-6-6.49-6.75-.64-.11-1.28-.17-1.91-.17h0Z"/>
    </g>
  </g>
  <g>
    <path class="cls-3" d="M313.35,148.66c-.66-1.92,1.11-4.16,4.22-5.33,1.07-.4,2.15-.62,3.13-.62,1.78,0,3.05.71,3.48,1.95l20.24,58.82-10.79,4.08-20.27-58.91Z"/>
    <path class="cls-2" d="M320.69,144.21c1.06,0,1.85.32,2.06.94l19.77,57.44-7.98,3.02-19.77-57.44c-.37-1.07,1.12-2.61,3.33-3.44.93-.35,1.83-.52,2.6-.52M320.69,141.21h0c-1.16,0-2.42.25-3.66.71-3.95,1.49-6.05,4.46-5.1,7.22l19.77,57.44,1.01,2.92,2.89-1.09,7.98-3.02,2.72-1.03-.95-2.75-19.77-57.44c-.64-1.86-2.47-2.96-4.9-2.96h0Z"/>
  </g>
  <g>
    <path class="cls-3" d="M308.08,181.82c-.67-1.84,1.04-4,4.17-5.25,1.17-.47,2.34-.72,3.38-.72,2.3,0,3,1.23,3.19,1.76l19.67,53.63-10.71,4.29-19.7-53.71Z"/>
    <path class="cls-2" d="M315.63,177.34c.92,0,1.59.26,1.78.78l19.17,52.26-7.92,3.18-19.17-52.26c-.36-.97,1.13-2.47,3.32-3.34,1.02-.41,2.02-.61,2.82-.61M315.63,174.34h0c-1.23,0-2.59.29-3.94.83-3.92,1.57-5.99,4.52-5.02,7.16l19.17,52.26,1.06,2.9,2.87-1.15,7.92-3.18,2.7-1.08-1-2.73-19.17-52.26c-.63-1.72-2.35-2.75-4.6-2.75h0Z"/>
  </g>
  <g>
    <g>
      <path class="cls-3" d="M331.25,265.12c-.54,0-1.09-.05-1.64-.15-3.39-.6-5.66-2.76-5.28-5.02l12.73-75.91,11.91,2.12-12.73,75.88c-.32,1.87-2.28,3.08-5,3.08Z"/>
      <path class="cls-2" d="M338.29,185.78l8.96,1.6-12.48,74.42c-.19,1.12-1.65,1.83-3.52,1.83-.44,0-.91-.04-1.38-.12-2.47-.44-4.29-1.92-4.06-3.3l12.48-74.42M335.83,182.29l-.5,2.99-12.48,74.42c-.52,3.1,2.27,6,6.49,6.75.64.11,1.28.17,1.91.17,3.44,0,6.04-1.74,6.47-4.33l12.48-74.42.49-2.93-2.92-.52-8.96-1.6-2.98-.53h0Z"/>
    </g>
    <g>
      <path class="cls-1" d="M343.78,190.4c-.54,0-1.09-.05-1.64-.15-3.39-.6-5.66-2.76-5.28-5.02.31-1.87,2.27-3.08,5-3.08.54,0,1.09.05,1.64.15,3.39.6,5.66,2.76,5.28,5.02-.31,1.87-2.27,3.08-5,3.08h0Z"/>
      <path class="cls-2" d="M341.85,183.65c.44,0,.91.04,1.38.12,2.47.44,4.29,1.92,4.06,3.3-.19,1.12-1.65,1.83-3.52,1.83-.44,0-.91-.04-1.38-.12-2.47-.44-4.29-1.92-4.06-3.3.19-1.12,1.65-1.83,3.52-1.83M341.85,180.65c-3.44,0-6.04,1.74-6.47,4.33-.52,3.1,2.27,6,6.49,6.75.64.11,1.28.17,1.91.17,3.44,0,6.04-1.74,6.47-4.33.52-3.1-2.27-6-6.49-6.75-.64-.11-1.28-.17-1.91-.17h0Z"/>
    </g>
  </g>
  <g>
    <path class="cls-3" d="M16.93,229.47c-1.15-.1-2.2-.69-2.97-1.65-1-1.24-1.44-2.98-1.21-4.78.39-3.11,2.62-5.45,5.2-5.45.12,0,.25,0,.38.02l102.53,9.32-1.49,11.85-102.43-9.31Z"/>
    <path class="cls-2" d="M17.94,219.1c.08,0,.16,0,.24.01l100.98,9.18-1.11,8.87-100.98-9.18c-1.87-.17-3.14-2.29-2.84-4.74.29-2.34,1.93-4.14,3.71-4.14M17.94,216.1c-3.33,0-6.2,2.91-6.69,6.76-.28,2.2.28,4.35,1.53,5.9,1.03,1.28,2.45,2.06,4.01,2.2l100.98,9.18,2.89.26.36-2.88,1.11-8.87.39-3.08-3.09-.28-100.98-9.18c-.17-.02-.34-.02-.51-.02h0Z"/>
  </g>
  <g>
    <path class="cls-3" d="M24.65,256.34c-1.1-.06-2.14-.59-2.91-1.49-1.04-1.21-1.53-2.95-1.36-4.78.29-3.15,2.5-5.62,5.04-5.62.08,0,.15,0,.23,0l99.09,5.77-1.1,11.89-98.99-5.77Z"/>
    <path class="cls-2" d="M25.42,245.94s.1,0,.14,0l97.54,5.68-.82,8.9-97.54-5.68c-1.81-.11-3.09-2.18-2.87-4.64.22-2.39,1.79-4.26,3.54-4.26M25.42,242.94c-3.36,0-6.16,3-6.53,6.99-.21,2.24.42,4.39,1.72,5.9,1.04,1.21,2.45,1.92,3.96,2.01l97.54,5.68,2.9.17.27-2.89.82-8.9.28-3.09-3.1-.18-97.54-5.68c-.11,0-.21,0-.32,0h0Z"/>
  </g>
  <g>
    <path class="cls-3" d="M240.13,228.87l95.69-18.46c.23-.04.47-.07.71-.07,2.38,0,4.47,2.25,4.97,5.36.54,3.42-1.05,6.49-3.62,6.99l-95.79,18.47-1.96-12.29Z"/>
    <path class="cls-2" d="M336.53,211.85c1.6,0,3.11,1.73,3.49,4.09.41,2.58-.68,4.94-2.42,5.28l-94.26,18.18-1.48-9.33,94.26-18.18c.14-.03.28-.04.42-.04M336.53,208.85c-.33,0-.66.03-.99.09l-94.26,18.18-2.85.55.46,2.87,1.48,9.33.49,3.06,3.04-.59,94.26-18.18c3.37-.65,5.49-4.47,4.82-8.69-.61-3.84-3.32-6.62-6.45-6.62h0Z"/>
  </g>
  <g>
    <path class="cls-3" d="M241.1,257.19l91.02-17.5c.23-.04.47-.07.71-.07,2.29,0,4.28,2.06,4.73,4.9.5,3.14-1.06,5.98-3.55,6.46l-91.12,17.52-1.78-11.3Z"/>
    <path class="cls-2" d="M332.83,241.12c1.51,0,2.91,1.53,3.24,3.63.36,2.3-.69,4.43-2.35,4.75l-89.59,17.23-1.31-8.34,89.59-17.23c.14-.03.28-.04.42-.04M332.83,238.12c-.33,0-.66.03-.99.09l-89.59,17.23-2.85.55.45,2.87,1.31,8.34.48,3.06,3.05-.59,89.59-17.23c3.29-.63,5.37-4.22,4.75-8.16-.56-3.57-3.17-6.16-6.21-6.16h0Z"/>
  </g>
  <g>
    <g>
      <path class="cls-3" d="M237.6,286.52c-3.46,0-5.97-1.51-6.11-3.66l-4.99-76.51,12.98-.71,4.98,76.48c.05.8-.24,1.58-.83,2.26-1.07,1.21-3.09,2.01-5.41,2.13-.21.01-.42.02-.63.02Z"/>
      <path class="cls-2" d="M238.09,207.21l4.89,75c.09,1.39-2.07,2.64-4.83,2.79-.18.01-.37.02-.55.02-2.51,0-4.52-.96-4.61-2.26l-4.89-75,9.99-.55M240.89,204.06l-2.97.16-9.99.55-3.03.17.2,3.02,4.89,75c.19,2.98,3.32,5.06,7.6,5.06.23,0,.47,0,.71-.02,2.75-.15,5.1-1.11,6.45-2.64.86-.97,1.29-2.16,1.21-3.35l-4.89-75-.19-2.96h0Z"/>
    </g>
    <g>
      <path class="cls-1" d="M232.7,211.22c-3.46,0-5.97-1.51-6.11-3.66-.05-.8.24-1.58.83-2.26,1.07-1.21,3.09-2.01,5.41-2.13.21-.01.42-.02.63-.02,3.46,0,5.97,1.51,6.11,3.66.05.8-.24,1.58-.83,2.25-1.07,1.21-3.09,2.01-5.41,2.13-.21.01-.42.02-.63.02Z"/>
      <path class="cls-2" d="M233.46,204.65c2.51,0,4.52.96,4.61,2.26.09,1.39-2.07,2.64-4.83,2.79-.19.01-.37.02-.55.02-2.51,0-4.52-.96-4.61-2.26-.09-1.39,2.07-2.64,4.83-2.79.19-.01.37-.02.55-.02M233.46,201.65c-.23,0-.47,0-.71.02-2.75.15-5.1,1.11-6.45,2.64-.86.97-1.29,2.16-1.21,3.35.19,2.98,3.32,5.07,7.6,5.07.23,0,.47,0,.71-.02,2.75-.15,5.1-1.11,6.45-2.64.86-.97,1.29-2.16,1.21-3.35-.19-2.98-3.32-5.07-7.6-5.07h0Z"/>
    </g>
  </g>
  <g>
    <g>
      <path class="cls-3" d="M127.83,286.05c-3.49-.01-7.26-1.25-7.28-3.94l-.46-73.59,14.54.06.46,73.56c0,.51-.15,1.27-.87,2-1.19,1.2-3.55,1.91-6.32,1.91h-.06Z"/>
      <path class="cls-2" d="M121.6,210.03l11.54.05.45,72.08c0,1.33-2.54,2.4-5.7,2.4-.02,0-.04,0-.06,0-3.19-.01-5.78-1.11-5.78-2.45l-.45-72.08M118.58,207.01l.02,3.03.45,72.08c.02,3.22,3.55,5.41,8.77,5.43h.07c1.52,0,5.28-.23,7.39-2.35.85-.86,1.32-1.95,1.31-3.07l-.45-72.08-.02-2.97h-2.97s-11.54-.06-11.54-.06h-3.03Z"/>
    </g>
    <g>
      <path class="cls-1" d="M127.37,213.68c-3.49-.01-7.26-1.25-7.28-3.94,0-.51.15-1.27.87-2,1.19-1.2,3.55-1.91,6.32-1.91,3.56.01,7.32,1.25,7.34,3.94,0,.51-.15,1.27-.87,2-1.19,1.2-3.55,1.91-6.32,1.91h-.06Z"/>
      <path class="cls-2" d="M127.29,207.34s.04,0,.06,0c3.19.01,5.78,1.11,5.78,2.45,0,1.33-2.54,2.4-5.7,2.4-.02,0-.04,0-.06,0-3.19-.01-5.78-1.11-5.78-2.45,0-1.33,2.54-2.4,5.7-2.4M127.29,204.34c-1.52,0-5.28.23-7.39,2.35-.85.86-1.32,1.95-1.31,3.07.02,3.22,3.55,5.41,8.77,5.43h.07c1.52,0,5.28-.23,7.39-2.35.85-.86,1.32-1.95,1.31-3.07-.02-3.22-3.55-5.41-8.77-5.43h-.07Z"/>
    </g>
  </g>
</svg>