<?xml version="1.0" encoding="UTF-8"?>
<svg id="_Слой_1" data-name="Слой 1" xmlns="http://www.w3.org/2000/svg" viewBox="0 0 225.02 184.45">
  <defs>
    <style>
      .cls-1, .cls-2 {
        fill: #c69c6d;
      }

      .cls-3 {
        fill: #603813;
      }

      .cls-2, .cls-4 {
        stroke: #603813;
        stroke-miterlimit: 10;
        stroke-width: 3px;
      }

      .cls-4, .cls-5 {
        fill: #8c6239;
      }

      .cls-6 {
        fill: #754c24;
      }
    </style>
  </defs>
  <g>
    <rect class="cls-2" x="98.04" y="93.45" width="28.89" height="132.13" transform="translate(-47.03 271.99) rotate(-90)"/>
    <rect class="cls-2" x="98.04" y="6.78" width="28.89" height="132.13" transform="translate(39.63 185.33) rotate(-90)"/>
    <rect class="cls-2" x="98.04" y="35.67" width="28.89" height="132.13" transform="translate(10.75 214.22) rotate(-90)"/>
    <rect class="cls-2" x="98.04" y="64.56" width="28.89" height="132.13" transform="translate(-18.14 243.11) rotate(-90)"/>
    <g>
      <path class="cls-5" d="M191.78,182.95c-6.59,0-17.74-1.22-17.74-5.81v-100.92h35.48v100.92c0,4.59-11.15,5.81-17.74,5.81Z"/>
      <path class="cls-3" d="M208.02,77.72v99.42c0,2.38-7.27,4.31-16.24,4.31s-16.24-1.93-16.24-4.31v-99.42h32.48M211.02,74.72h-38.48v102.42c0,6.78,14.73,7.31,19.24,7.31s19.24-.53,19.24-7.31v-102.42h0Z"/>
    </g>
    <g>
      <path class="cls-5" d="M33.6,182.95c-6.59,0-17.74-1.22-17.74-5.81v-100.92h35.48v100.92c0,4.59-11.15,5.81-17.74,5.81Z"/>
      <path class="cls-3" d="M49.84,77.72v99.42c0,2.38-7.27,4.31-16.24,4.31s-16.24-1.93-16.24-4.31v-99.42h32.48M52.84,74.72H14.36v102.42c0,6.78,14.73,7.31,19.24,7.31s19.24-.53,19.24-7.31v-102.42h0Z"/>
    </g>
    <rect class="cls-4" x="91.32" y="100.24" width="42.33" height="72.75"/>
  </g>
  <path class="cls-3" d="M117.71,171.93c.43-6.01-.59-11.62-.65-17.62.12-5.99,1.15-11.99,1.46-17.94.59-8.88-.8-17.65-.14-26.55.23-3,.62-6.03,1.54-8.91l.3.04c.11,8.96,1.74,17.7,1.32,26.68.13,6.05-2.42,11.81-2.91,17.73-.16,5.96,1.82,11.7,1.3,17.75-.13,3.02-.64,6.13-1.94,8.89l-.29-.08h0Z"/>
  <path class="cls-3" d="M105.56,101.78c-2.94,11.6-4.2,23.58-3.77,35.51.48,8.88,1.73,17.78,3.09,26.57.39,2.99.74,6.15-.04,9.16l-.3-.04c-.07-4.51-1.74-8.71-2.84-13.05-1.13-4.43-1.95-8.93-2.19-13.5-.48-9.08-.02-18.22,1.39-27.19,1.02-5.96,2.43-11.84,4.37-17.54l.29.09h0Z"/>
  <g>
    <polygon class="cls-6" points="113.48 56.64 113.48 50.16 224.02 127.41 224.02 133.88 113.48 56.64"/>
    <path class="cls-3" d="M114.48,52.08l108.54,75.85v4.04L114.48,56.12v-4.04M112.48,48.24v8.92l112.54,78.65v-8.92L112.48,48.24h0Z"/>
  </g>
  <g>
    <polygon class="cls-6" points="113.48 17.26 113.48 10.78 224.02 88.03 224.02 94.51 113.48 17.26"/>
    <path class="cls-3" d="M114.48,12.7l108.54,75.85v4.04L114.48,16.74v-4.04M112.48,8.86v8.92l112.54,78.65v-8.92L112.48,8.86h0Z"/>
  </g>
  <g>
    <polygon class="cls-1" points="113.48 40.86 113.48 15.73 215.49 87.02 215.49 112.15 113.48 40.86"/>
    <path class="cls-3" d="M114.48,17.65l100.01,69.89v22.69L114.48,40.34v-22.69M112.48,13.81v27.57l104.01,72.68v-26.56h1.45L112.48,13.81h0Z"/>
  </g>
  <g>
    <rect class="cls-6" x="217.49" y="88.51" width="6.53" height="28.74"/>
    <path class="cls-3" d="M223.02,89.51v26.74h-4.53v-26.74h4.53M225.02,87.51h-8.53v30.74h8.53v-30.74h0Z"/>
  </g>
  <path class="cls-3" d="M39.71,101.64c-2.38,3.99-.48,9.85-.59,14.59-.02,3.58-1.15,6.96-2.02,10.35-1.3,5-1.94,10.15-1.92,15.33-.4-5.18-.12-10.45.82-15.57,1.15-5.11,1.8-9.93.54-15.09-.64-3.58-1.22-7.51.53-11.03,0,0,2.64,1.42,2.64,1.42h0Z"/>
  <path class="cls-3" d="M202.7,180.23c2.47-4.68.33-10.07.34-15.07-.06-3.51.99-6.89,1.77-10.26,1.18-5.04,1.7-10.23,1.56-15.41.27,5.18-.13,10.41-1.19,15.49-.69,3.36-1.65,6.72-1.51,10.16.15,5.15,2.42,10.62-.09,15.56,0,0-.88-.47-.88-.47h0Z"/>
  <g>
    <polygon class="cls-6" points="113.48 8.4 113.48 1.92 224.02 79.17 224.02 85.64 113.48 8.4"/>
    <path class="cls-3" d="M114.48,3.84l108.54,75.85v4.04L114.48,7.87V3.84M112.48,0v8.92l112.54,78.65v-8.92L112.48,0h0Z"/>
  </g>
  <g>
    <polygon class="cls-6" points="1 127.41 111.54 50.16 111.54 56.64 1 133.88 1 127.41"/>
    <path class="cls-3" d="M110.54,52.08v4.04L2,131.97v-4.04L110.54,52.08M112.54,48.24L0,126.89v8.92L112.54,57.16v-8.92h0Z"/>
  </g>
  <g>
    <polygon class="cls-6" points="1 88.03 111.54 10.78 111.54 17.26 1 94.51 1 88.03"/>
    <path class="cls-3" d="M110.54,12.7v4.04L2,92.59v-4.04L110.54,12.7M112.54,8.86L0,87.51v8.92L112.54,17.78v-8.92h0Z"/>
  </g>
  <g>
    <polygon class="cls-1" points="9.53 87.02 111.54 15.73 111.54 40.86 9.53 112.15 9.53 87.02"/>
    <path class="cls-3" d="M110.54,17.65v22.69L10.53,110.23v-22.69L110.54,17.65M112.54,13.81L7.08,87.51h1.45v26.56L112.54,41.38V13.81h0Z"/>
  </g>
  <g>
    <rect class="cls-6" x="1" y="88.51" width="6.53" height="28.74"/>
    <path class="cls-3" d="M6.53,89.51v26.74H2v-26.74h4.53M8.53,87.51H0v30.74h8.53v-30.74h0Z"/>
  </g>
  <g>
    <rect class="cls-6" x="109.78" y="15.31" width="5.53" height="27.74"/>
    <path class="cls-3" d="M113.81,16.81v24.74h-2.53v-24.74h2.53M116.81,13.81h-8.53v30.74h8.53V13.81h0Z"/>
  </g>
  <g>
    <polygon class="cls-6" points="1 118.64 111.54 41.39 111.54 47.87 1 125.11 1 118.64"/>
    <path class="cls-3" d="M110.54,43.31v4.04L2,123.19v-4.04L110.54,43.31M112.54,39.47L0,118.12v8.92L112.54,48.39v-8.92h0Z"/>
  </g>
  <g>
    <polygon class="cls-6" points="113.48 47.87 113.48 41.39 224.02 118.64 224.02 125.11 113.48 47.87"/>
    <path class="cls-3" d="M114.48,43.31l108.54,75.85v4.04L114.48,47.34v-4.04M112.48,39.47v8.92l112.54,78.65v-8.92L112.48,39.47h0Z"/>
  </g>
  <g>
    <polygon class="cls-6" points="1 79.17 111.54 1.92 111.54 8.4 1 85.64 1 79.17"/>
    <path class="cls-3" d="M110.54,3.84v4.04L2,83.73v-4.04L110.54,3.84M112.54,0L0,78.65v8.92L112.54,8.92V0h0Z"/>
  </g>
  <path class="cls-3" d="M181.45,147.96c.09-10.4,3.21-20.77,8.45-29.72-2.63,9.84-5.69,19.92-8.45,29.72h0Z"/>
</svg>