<?xml version="1.0" encoding="UTF-8"?>
<svg id="_Слой_1" data-name="Слой 1" xmlns="http://www.w3.org/2000/svg" viewBox="0 0 145.36 100.1">
  <defs>
    <style>
      .cls-1 {
        fill: #0071bc;
      }

      .cls-2, .cls-3 {
        fill: #c69c6d;
      }

      .cls-4 {
        fill: #603813;
      }

      .cls-3 {
        stroke: #603813;
        stroke-miterlimit: 10;
        stroke-width: 3px;
      }

      .cls-5 {
        fill: #a67c52;
      }
    </style>
  </defs>
  <g>
    <path class="cls-1" d="M27.6,74.93c-1.73.24-3.25,1.15-4.92,1.61-2.35.76-5.03,1.1-6.86,2.71-.81.82-1.58,1.94-2.24,2.92-.13.23-.47.67-.53.93-.41,1.32.05,3.09.57,4.43.3.71.56,1.35,1.23,1.8,2.81,1.7,6.62,1.45,9.88,1.72,3.42.52,6.84.77,10.26.39,1.43-.19,3.34-.48,4.29-1.5.23-.3.59-.74,1-1.06,1.22-.77,1.86-1.41,2.94-2.41.62-.57,1.2-1.15,1.41-1.65.57-1.71-1.08-3.22-2.13-4.49-1.04-1.23-2.59-1.86-4-2.68-3.22-1.88-7.11-3.24-10.9-2.71h0ZM27.56,74.73c4.33-.59,8.93-.08,12.91,1.85,1.67.62,3.28,1.9,4.43,3.32.59.64,1.26,1.47,1.62,2.48,1,2.38-.22,4.22-2,5.56-.86.74-2.13,1.82-3.21,2.33-.29.19-.5.4-.85.75-.83.82-1.8,1.1-2.7,1.31-2.64.52-5.33.32-7.95.06-3.46-.5-6.81-.97-10.33-.95-2.1-.18-4.9-.17-6.46-2.09-1.32-2.01-2.33-4.33-1.66-6.83.75-1.72,1.98-3.19,3.4-4.43,3.03-2.24,6.94-1.44,10.23-2.79.17-.07.44-.2.67-.17.61-.08,1.26-.32,1.89-.39h0Z"/>
    <path class="cls-1" d="M26.81,69.97c-1.21.27-2.93.6-4.03,1.01-1.27.62-2.62,1.03-3.97,1.39-3.97,1.11-8.31,1.48-11.82,3.73-2.15,1.61-3.74,4.04-5.23,6.29-.79,1.09-1.04,2.38-.86,3.7.47,2.53,1.63,5.34,3.7,6.99,4.82,2.82,10.8,2.39,16.22,2.82,5.55.45,11.08,1.58,16.68,1.3,3.39-.16,7.02-.29,9.93-2.11.59-.39.94-.91,1.45-1.42,1.03-1.07,2.41-1.66,2.92-2.76.49-1.16.61-2.79,1.25-3.97.83-1.51.55-3.13.08-4.69-.1-.2-.05-.15-.21-.38-.36-.96-.1-1.93-.23-2.8-.15-1.24-1-2.26-2.07-3.04-4.55-3.06-10.11-4.65-15.48-5.68-2.73-.46-5.56-.79-8.32-.4h0ZM26.79,69.87c6.71-.91,21.4,1.77,26.01,6.93.97,1.17.95,2.91.97,4.28.03.4,0,.19.18.51.5,1.17.69,2.32.67,3.61-.1,1.53-1.06,2.63-1.37,4.05-.16.61-.27,1.4-.64,2.1-.7,1.37-2.15,1.93-3.16,2.92-4.26,5.35-18.29,3.23-24.5,2.41-6.18-1.38-18.09.69-22.27-4.61-2.02-2.8-3.9-6.94-1.67-10.14,1.55-2.39,3.2-4.72,5.55-6.44,3.69-2.22,8.11-2.41,12.17-3.39,2.74-.61,5.26-1.87,8.06-2.22h0Z"/>
  </g>
  <g>
    <path class="cls-1" d="M118.52,76.92c-1.73.25-3.27,1.07-4.96,1.46-3.31.79-7.01,1.21-8.79,4.51-.43.68-.96,1.38-1.23,2.14-.45,1.9.44,4.09,1.48,5.68,1.31,1.46,3.52,1.46,5.5,1.64,5.08-.1,10.29,1.15,15.37.79,1.38-.11,3.26-.31,4.21-1.21.24-.27.64-.71,1.08-1,1.23-.65,2.05-1.36,3.1-2.21.92-.78,1.84-1.39,1.85-2.56-.05-1.19-.63-2.2-1.44-3.15-1.05-1.41-2.23-2.45-3.82-3.2-3.69-2.19-8.03-3.45-12.36-2.87h0ZM118.52,76.92c6.12-.83,15.6,1.82,18.47,7.73,1.01,2.12-.12,3.91-1.67,5.24-.79.82-2.03,1.92-3.04,2.53-.26.22-.44.44-.77.81-1.6,1.54-3.52,1.66-5.47,1.89-5.33.4-10.35-.94-15.65-1.14-2.11-.31-4.93-.56-6.37-2.57-1.12-1.99-1.94-4.35-1.26-6.64.33-.83.97-1.54,1.5-2.25,2.09-3.18,5.87-3.55,9.27-4.21,1.7-.38,3.25-1.16,4.98-1.38h0Z"/>
    <path class="cls-1" d="M117.73,72c-2.81.4-5.3,1.68-8.02,2.35-4.01,1.06-8.38,1.35-11.95,3.61-2.21,1.67-3.8,4.07-5.28,6.39-1.67,2.35-.73,5.38.56,7.69.67,1.15,1.35,2.39,2.51,3.12,1.12.73,2.45,1.14,3.78,1.46,4.08.89,8.27.87,12.44,1.09,5.55.44,11.06,1.59,16.66,1.36,3.62-.19,7.78-.07,10.61-2.55,1-1.36,3.04-2.19,3.71-3.49.5-1.16.67-2.76,1.34-3.93.71-1.24.73-2.49.43-3.86-.12-.52-.14-.95-.46-1.4-.3-.9-.03-1.84-.16-2.71-.14-1.35-1.07-2.46-2.18-3.26-4.62-3.11-10.21-4.57-15.65-5.52-2.75-.42-5.57-.76-8.34-.35h0ZM117.73,72c5.51-1.11,25.68,2.6,26.59,9.07.14.85-.02,1.73.19,2.5.94,1.58,1.18,4.2.26,5.83-.68,1.33-.63,2.62-1.26,4.02-.68,1.37-2.12,1.96-3.11,2.97-.92,1.12-2.16,2.06-3.55,2.48-6.86,2.05-14.08,1.12-21.03.18-6.82-1.26-14.39.23-20.65-3.36-1.23-.8-1.95-2.13-2.64-3.39-.97-1.87-1.74-4.06-1.28-6.2.15-.71.49-1.39.89-1.96,1.56-2.32,3.21-4.68,5.5-6.34,3.63-2.21,8-2.49,12.04-3.52,2.72-.65,5.24-1.91,8.04-2.27h0Z"/>
  </g>
  <g>
    <rect class="cls-3" x="27.7" y="19.21" width="90.51" height="9.88"/>
    <polygon class="cls-3" points="117.51 19.21 27 19.21 33.91 10.17 111.26 10.17 117.51 19.21"/>
    <polygon class="cls-3" points="111.52 10.17 33.91 10.17 39.84 1.5 106.17 1.5 111.52 10.17"/>
    <g>
      <g>
        <path class="cls-5" d="M33.56,56.88c-1.39,0-6.06-.12-7.56-1.63-.39-.4-.61-.9-.6-1.42l.57-47.67,16.47-.03-.57,47.71c-.03,2.5-4.5,3.04-8.25,3.05h-.07Z"/>
        <path class="cls-4" d="M40.93,7.62l-.55,46.19c-.01.86-3.03,1.56-6.76,1.57-.02,0-.04,0-.06,0-3.69,0-6.67-.69-6.66-1.54l.55-46.19,13.47-.03M43.96,4.62h-3.04s-13.47.03-13.47.03h-2.96s-.04,2.96-.04,2.96l-.55,46.19c-.01.92.36,1.81,1.03,2.49,1.7,1.72,5.63,2.08,8.62,2.08h.07c6.43-.01,9.71-1.54,9.75-4.53l.55-46.19.04-3.04h0Z"/>
      </g>
      <g>
        <path class="cls-2" d="M34.11,10.5c-1.39,0-6.06-.12-7.56-1.63-.39-.4-.61-.9-.6-1.42.03-2.5,4.5-3.04,8.25-3.05,1.46,0,6.12.12,7.62,1.63.39.4.61.9.6,1.42-.03,2.5-4.5,3.04-8.25,3.05h-.07Z"/>
        <path class="cls-4" d="M34.28,5.9c3.69,0,6.67.69,6.66,1.54-.01.86-3.03,1.56-6.76,1.57-.02,0-.04,0-.06,0-3.69,0-6.67-.69-6.66-1.54.01-.86,3.03-1.56,6.76-1.57.02,0,.04,0,.06,0M34.28,2.9h-.07c-6.43.01-9.71,1.54-9.75,4.53-.01.92.36,1.81,1.03,2.49,1.7,1.72,5.63,2.08,8.62,2.08h.07c6.43-.01,9.71-1.54,9.75-4.53.01-.92-.36-1.81-1.03-2.49-1.7-1.72-5.63-2.08-8.62-2.08h0Z"/>
      </g>
    </g>
    <g>
      <g>
        <path class="cls-5" d="M110.58,57.74c-1.39,0-6.06-.12-7.56-1.63-.39-.4-.61-.9-.6-1.42l.57-47.67,16.47-.03-.57,47.71c-.03,2.51-4.5,3.04-8.25,3.05h-.07Z"/>
        <path class="cls-4" d="M117.95,8.49l-.55,46.19c-.01.86-3.03,1.56-6.76,1.57-.02,0-.04,0-.06,0-3.69,0-6.67-.69-6.66-1.54l.55-46.19,13.47-.03M120.99,5.48h-3.04s-13.47.03-13.47.03h-2.96s-.04,2.96-.04,2.96l-.55,46.19c-.01.92.36,1.81,1.03,2.49,1.7,1.72,5.63,2.08,8.62,2.08h.07c6.43-.01,9.71-1.54,9.75-4.53l.55-46.19.04-3.04h0Z"/>
      </g>
      <g>
        <path class="cls-2" d="M111.14,11.37c-1.39,0-6.06-.12-7.56-1.63-.39-.4-.61-.9-.6-1.42.03-2.51,4.5-3.04,8.25-3.05,1.46,0,6.12.12,7.62,1.63.39.4.61.9.6,1.42-.03,2.51-4.5,3.04-8.25,3.05h-.07Z"/>
        <path class="cls-4" d="M111.3,6.76c3.69,0,6.67.69,6.66,1.54-.01.86-3.03,1.56-6.76,1.57-.02,0-.04,0-.06,0-3.69,0-6.67-.69-6.66-1.54.01-.86,3.03-1.56,6.76-1.57.02,0,.04,0,.06,0M111.3,3.76h-.07c-6.43.01-9.71,1.54-9.75,4.53-.01.92.36,1.81,1.03,2.49,1.7,1.72,5.63,2.08,8.62,2.08h.07c6.43-.01,9.71-1.54,9.75-4.53.01-.92-.36-1.81-1.03-2.49-1.7-1.72-5.63-2.08-8.62-2.08h0Z"/>
      </g>
    </g>
    <rect class="cls-3" x="27" y="42.75" width="90.51" height="12.43"/>
    <path class="cls-3" d="M117.31,29.21c.23.16.36.32.36.5-.01.86-3.03,1.56-6.76,1.57-3.72,0-6.73-.68-6.72-1.54,0-.19-.83-.45-1.32-.53l-61.16-.12c-.49.19-1.39.58-1.4.85-.01.86-3.03,1.56-6.76,1.57-1.57,0-3.02-.12-4.16-.32v11.58h90.51v-13.54h-2.6Z"/>
    <rect class="cls-3" x="33.91" y="55.18" width="77.61" height="7.35"/>
    <g>
      <g>
        <path class="cls-5" d="M119.47,87.19c-1.68,0-7.32-.14-9.07-1.91-.54-.54-.64-1.12-.64-1.5l.7-58.44,19.62-.04-.7,58.48c-.04,2.95-6.17,3.41-9.83,3.41h-.08Z"/>
        <path class="cls-4" d="M128.56,26.8l-.68,56.96c-.01,1.06-3.74,1.92-8.33,1.93-.03,0-.05,0-.08,0-4.55,0-8.22-.85-8.21-1.9l.68-56.96,16.61-.04M131.6,23.79h-3.04s-16.61.04-16.61.04h-2.96s-.04,2.96-.04,2.96l-.68,56.96c-.01.95.37,1.86,1.07,2.57,2.03,2.05,7.22,2.36,10.13,2.36h.08c7.47-.02,11.28-1.66,11.32-4.9l.68-56.96.04-3.04h0Z"/>
      </g>
      <g>
        <path class="cls-2" d="M120.16,30c-1.68,0-7.32-.14-9.07-1.91-.54-.54-.64-1.12-.64-1.5.04-2.95,6.17-3.41,9.83-3.41,1.76,0,7.4.14,9.15,1.91.54.54.64,1.12.64,1.5-.04,2.95-6.17,3.41-9.83,3.41h-.08Z"/>
        <path class="cls-4" d="M120.36,24.67c4.55,0,8.22.85,8.21,1.9-.01,1.06-3.74,1.92-8.33,1.93-.03,0-.05,0-.08,0-4.55,0-8.22-.85-8.21-1.9.01-1.06,3.74-1.92,8.33-1.93.03,0,.05,0,.08,0M120.36,21.67h-.08c-7.48.02-11.29,1.66-11.32,4.9-.01.95.37,1.86,1.07,2.57,2.03,2.05,7.22,2.36,10.13,2.36h.08c7.48-.02,11.29-1.66,11.32-4.9.01-.95-.37-1.86-1.07-2.57-2.03-2.05-7.22-2.36-10.13-2.36h0Z"/>
      </g>
    </g>
    <g>
      <g>
        <path class="cls-5" d="M27.25,87.19c-1.68,0-7.31-.14-9.07-1.91-.54-.54-.64-1.12-.64-1.5l.7-58.44,19.61-.04-.7,58.48c-.04,2.95-6.17,3.41-9.83,3.41h-.08Z"/>
        <path class="cls-4" d="M36.34,26.8l-.68,56.96c-.01,1.06-3.74,1.92-8.33,1.93-.03,0-.05,0-.08,0-4.55,0-8.22-.85-8.21-1.9l.68-56.96,16.61-.04M39.38,23.79h-3.04s-16.61.04-16.61.04h-2.96s-.04,2.96-.04,2.96l-.68,56.96c-.01.95.37,1.86,1.07,2.57,2.03,2.05,7.22,2.36,10.13,2.36h.08c7.47-.02,11.28-1.66,11.32-4.9l.68-56.96.04-3.04h0Z"/>
      </g>
      <g>
        <path class="cls-2" d="M27.94,30c-1.68,0-7.32-.14-9.07-1.91-.54-.54-.64-1.12-.64-1.5.04-2.95,6.17-3.41,9.83-3.41,1.76,0,7.4.14,9.15,1.91.54.54.64,1.12.64,1.5-.04,2.95-6.17,3.41-9.83,3.41h-.08Z"/>
        <path class="cls-4" d="M28.14,24.67c4.55,0,8.22.85,8.21,1.9-.01,1.06-3.74,1.92-8.33,1.93-.03,0-.05,0-.08,0-4.55,0-8.22-.85-8.21-1.9.01-1.06,3.74-1.92,8.33-1.93.03,0,.05,0,.08,0M28.14,21.67h-.08c-7.48.02-11.29,1.66-11.32,4.9-.01.95.37,1.86,1.07,2.57,2.03,2.05,7.22,2.36,10.13,2.36h.08c7.48-.02,11.29-1.66,11.32-4.9.01-.95-.37-1.86-1.07-2.57-2.03-2.05-7.22-2.36-10.13-2.36h0Z"/>
      </g>
    </g>
  </g>
</svg>