<?xml version="1.0" encoding="UTF-8"?>
<svg id="_Слой_1" data-name="Слой 1" xmlns="http://www.w3.org/2000/svg" viewBox="0 0 218.34 211.97">
  <defs>
    <style>
      .cls-1 {
        fill: none;
      }

      .cls-1, .cls-2, .cls-3, .cls-4, .cls-5, .cls-6, .cls-7, .cls-8, .cls-9 {
        stroke-miterlimit: 10;
      }

      .cls-1, .cls-4, .cls-5, .cls-6, .cls-7, .cls-9 {
        stroke: #42210b;
      }

      .cls-2 {
        fill: #999;
      }

      .cls-2, .cls-3, .cls-5, .cls-8 {
        stroke-width: 2px;
      }

      .cls-2, .cls-3, .cls-8 {
        stroke: #333;
      }

      .cls-3, .cls-9, .cls-10 {
        fill: #8c6239;
      }

      .cls-4, .cls-5 {
        fill: #c69c6d;
      }

      .cls-4, .cls-6, .cls-7, .cls-9 {
        stroke-width: 3px;
      }

      .cls-7 {
        fill: #736357;
      }

      .cls-8 {
        fill: #4d4d4d;
      }

      .cls-11 {
        fill: #42210b;
      }
    </style>
  </defs>
  <path class="cls-7" d="M23.5,135.34v47.42h.99c6.29,15.69,41.81,27.71,84.68,27.71s78.39-12.02,84.68-27.71h.99v-47.42H23.5Z"/>
  <ellipse class="cls-7" cx="109.17" cy="135.34" rx="85.67" ry="32.7"/>
  <ellipse class="cls-6" cx="109.17" cy="135.34" rx="64.36" ry="24.56"/>
  <g>
    <rect class="cls-10" x="178.6" y="41.03" width="12.74" height="93.32"/>
    <path class="cls-11" d="M190.34,42.02v91.32h-10.74V42.02h10.74M192.34,40.02h-14.74v95.32h14.74V40.02h0Z"/>
  </g>
  <g>
    <polygon class="cls-10" points="172.8 125.01 172.8 34.31 176.6 40.91 176.6 131.61 172.8 125.01"/>
    <path class="cls-11" d="M173.8,38.04l1.81,3.13v86.7l-1.81-3.13V38.04M171.8,30.58v94.7l5.81,10.06V40.64l-5.81-10.06h0Z"/>
  </g>
  <g>
    <rect class="cls-10" x="26.64" y="41.03" width="12.74" height="93.32"/>
    <path class="cls-11" d="M38.38,42.02v91.32h-10.74V42.02h10.74M40.38,40.02h-14.74v95.32h14.74V40.02h0Z"/>
  </g>
  <g>
    <polygon class="cls-10" points="41.38 40.91 45.19 34.31 45.19 125.01 41.38 131.61 41.38 40.91"/>
    <path class="cls-11" d="M44.19,38.04v86.7l-1.81,3.13V41.18l1.81-3.13M46.19,30.58l-5.81,10.06v94.7l5.81-10.06V30.58h0Z"/>
  </g>
  <path class="cls-9" d="M169.81,74.66H46.02c-.25-.06-.49-.11-.75-.11-2.7,0-4.89,3.76-4.89,8.4s2.19,8.4,4.89,8.4v.11h124.53c2.7,0,4.89-3.76,4.89-8.4s-2.19-8.4-4.89-8.4Z"/>
  <g>
    <polygon class="cls-4" points="108.16 11.08 108.16 51.96 1.5 96.06 1.5 55.17 108.16 11.08"/>
    <polygon class="cls-4" points="108.16 2.25 108.16 43.13 1.5 87.22 1.5 46.34 108.16 2.25"/>
    <polygon class="cls-4" points="216.84 55.17 216.84 96.06 110.54 51.96 110.54 11.08 216.84 55.17"/>
    <polygon class="cls-4" points="216.84 46.34 216.84 87.22 110.54 43.13 110.54 2.25 216.84 46.34"/>
  </g>
  <path class="cls-5" d="M98.55,82.97c-1.69,7.09-4.42,12.84-6.11,12.84s-1.69-5.75,0-12.84c1.69-7.09,4.42-12.84,6.11-12.84s1.69,5.75,0,12.84Z"/>
  <path class="cls-5" d="M102.87,82.97c-1.69,7.09-4.42,12.84-6.11,12.84s-1.69-5.75,0-12.84c1.69-7.09,4.42-12.84,6.11-12.84s1.69,5.75,0,12.84Z"/>
  <path class="cls-5" d="M107.19,82.97c-1.69,7.09-4.42,12.84-6.11,12.84s-1.69-5.75,0-12.84c1.69-7.09,4.42-12.84,6.11-12.84s1.69,5.75,0,12.84Z"/>
  <path class="cls-5" d="M111.52,82.97c-1.69,7.09-4.42,12.84-6.11,12.84s-1.69-5.75,0-12.84c1.69-7.09,4.42-12.84,6.11-12.84s1.69,5.75,0,12.84Z"/>
  <path class="cls-5" d="M115.84,82.97c-1.69,7.09-4.42,12.84-6.11,12.84s-1.69-5.75,0-12.84c1.69-7.09,4.42-12.84,6.11-12.84s1.69,5.75,0,12.84Z"/>
  <path class="cls-5" d="M102.77,137.57c-4.28-4.75-7.01-9.75-6.1-11.17s5.12,1.28,9.39,6.02c4.28,4.75,7.01,9.75,6.1,11.17s-5.12-1.28-9.39-6.02Z"/>
  <path class="cls-5" d="M120.11,121.36v-38.78c0-7.21-1.33-12.86-2.99-12.62-1.66.24-3.01,6.28-3.02,13.49,0,2.65.18,5.09.49,7.1v30.21c-1.01,2.46-2.01,5.68-2.78,9.21-1.69,7.71-1.69,13.97,0,13.97s4.42-6.25,6.11-13.97l2.19-8.61Z"/>
  <g>
    <g>
      <path class="cls-2" d="M79.11,140.84l4.71,23.11c0,1.66,4.42,3.01,9.88,3.01s9.88-1.35,9.88-3.01l4.71-23.11h-29.18Z"/>
      <ellipse class="cls-8" cx="93.7" cy="140.21" rx="14.59" ry="3.65"/>
    </g>
    <path class="cls-3" d="M80.02,140.07c-.04-.23-.07-.46-.07-.69,0-4.04,6.14-7.32,13.71-7.32s13.71,3.28,13.71,7.32c0,.23-.03.46-.07.69h1.8c.04-.23.07-.46.07-.69,0-4.57-6.94-8.28-15.51-8.28s-15.51,3.71-15.51,8.28c0,.23.03.46.07.69h1.8Z"/>
  </g>
  <path class="cls-5" d="M98.31,130.78c-.63,2.71-2.25,5.26-3.62,5.71s-1.97-1.38-1.34-4.09,2.25-5.26,3.62-5.71,1.97,1.38,1.34,4.09Z"/>
  <path class="cls-11" d="M42.29,198.81c.55-7.12,1.36-14.25,3.07-21.18.72-2.47,3.33-3.51,3.95-5.88-.24,1.17-.98,2.18-1.75,3.07-2.59,2.65-2.09,6.57-2.61,9.95-.46,4.69-.68,9.4-.66,14.1,0,0-2-.06-2-.06h0Z"/>
  <path class="cls-11" d="M43.17,192.07c-1.55-3.82-1.9-8.25-.64-12.16-.58,3.75.42,7.94,2.36,11.14,0,0-1.72,1.02-1.72,1.02h0Z"/>
  <path class="cls-11" d="M44.44,190.11c.25.3,1,.27,1.63-.17,1.4-.96,1.61-3.2,2.55-4.65.49-.84,1.09-1.59,1.7-2.32-.47.82-.92,1.66-1.24,2.53-.71,1.81-.5,4.1-2.04,5.58-.9.89-2.35,1.41-3.61.74,0,0,1.02-1.72,1.02-1.72h0Z"/>
  <path class="cls-11" d="M173.27,150.56c3.9-.46,7.82-.82,11.74-1.06.25,1.34.59,2.68,1,4,.95,3.06.69,6.48-.57,9.44,0,0-.3,0-.3,0-.44-1.03-.7-2.04-.95-3.04-.78-2.85-1.09-6.05-1.27-9.01,0,0,1.15,1,1.15,1-3.61-.25-7.21-.6-10.8-1.03,0,0,0-.3,0-.3h0Z"/>
  <path class="cls-11" d="M185.7,160.71c-.02,1.68.59,3.36,1.11,5.08,1.01,2.67.74,5.4-.41,8-.85,2.53-1.05,5.26-.61,7.9-.38-1.75-.47-3.56-.27-5.36.15-1.78.84-3.51,1.24-5.22.77-3.66-1.93-6.72-2.06-10.4,0,0,1-.01,1-.01h0Z"/>
  <path class="cls-1" d="M66.87,118c-.34-.98-.91-1.87-1.65-2.6-.2-.19-.41-.38-.67-.48-.3-.12-.63-.11-.95-.14-.92-.09-1.77-.47-2.61-.85-1.82-.83-3.82-1.84-4.48-3.73"/>
  <path class="cls-1" d="M59.66,58.38l1.04,8.05c.05.4-.16,1-.52.82"/>
  <path class="cls-1" d="M152.62,59.48l-6.32,5.09c-.31.25-.94.39-.97-.01"/>
  <path class="cls-11" d="M.93,53.93c1.1.21,2.27.22,3.44,0-1.06.53-2.24.88-3.48.99l.04-1h0Z"/>
  <path class="cls-11" d="M1.89,68.34c.47.15,1.11-.32,1.44-.73.75-.99,1.93-1.48,2.93-2.12,1.65-.94,3.29-1.88,5.01-2.67-2.45,1.36-4.92,2.85-7.11,4.58-.45.56-.92,1.92-2.37,1.93l.1-1h0Z"/>
  <path class="cls-11" d="M40.49,46.34c-.46-.18-1.13.25-1.49.63-.82.94-2.02,1.35-3.06,1.92-1.7.82-3.41,1.66-5.18,2.33,2.53-1.2,5.1-2.52,7.4-4.1.48-.53,1.05-1.85,2.49-1.77l-.16.99h0Z"/>
  <path class="cls-11" d="M113.14,36.48c-.15.3.55.74.9.83,1.26.29,2.27,1.08,3.3,1.71,1.58,1.05,3.17,2.09,4.65,3.28-2.38-1.42-4.94-2.83-7.5-3.85-.55-.08-2.23.39-3.21-1.19l1.84-.78h0Z"/>
  <polygon class="cls-11" points="1.61 79.6 7.07 77.13 2.1 80.47 1.61 79.6 1.61 79.6"/>
  <path class="cls-11" d="M43.14,42.53c2.09-1.69,5.54-3.55,7.84-5,7.88-4.88,17.4-7.99,26.7-6.15,0,0,.13.03.13.03,0,0,0,.14,0,.14-.22,7.54-10.84,9.96-16.77,11.35-4.35.84-8.8,1.51-13.19,2.14-2.63.36-5.32,1.99-8.03,1.21.74-1.54,2.02-2.68,3.3-3.72h0ZM43.21,42.61c-1.23,1.01-2.45,2.15-3.08,3.62l-.07-.17c2.66.44,5.09-1.3,7.65-1.82,4.34-.87,8.83-1.54,13.14-2.36,5.49-1.2,16.36-3.36,16.62-10.31,0,0,.14.17.14.17-3-.67-6.14-.68-9.16-.16-3.04.5-5.96,1.48-8.81,2.61-5.59,2.47-11.43,4.88-16.43,8.44h0Z"/>
  <path class="cls-11" d="M56.1,38.44c.87-.69,2.26-1.53,3.18-2.18,3.21-2.33,7.36-3.2,11.26-2.48-.06,4.65-7.87,5.28-11.33,5.84-.64.06-1.51.15-2.14.31-.76.14-1.59.43-2.43.11.34-.67.9-1.16,1.45-1.6h0ZM56.17,38.52c-.5.42-1,.9-1.23,1.5,0,0-.07-.17-.07-.17.65.1,1.35-.25,2.01-.52,2.02-.84,4.38-1.01,6.49-1.44,2.25-.51,6.58-1.15,6.82-3.95,0,0,.14.17.14.17-2.48-.65-5.02.19-7.3,1.15-2.03.94-5.1,1.93-6.87,3.26h0Z"/>
  <path class="cls-11" d="M88.95,20.07c3.14-1.86,6.48-3.47,10.08-4.3,1.77-.44,3.64-.7,5.38-.99,1.69-.52,3.26-1.53,5.16-1.94,1.89-.14,3.69,1.12,5.24,2.06,2.99,2.21,6,4.02,9.26,5.8,1.49.97,3.27,2.12,4.29,3.43-1.4-1.17-2.93-2.17-4.52-3.05-1.58-.89-3.28-1.55-4.89-2.5-2.97-1.64-5.41-4.22-8.72-5.12-1.95-.02-3.69,1.29-5.69,1.8-1.87.27-3.63.48-5.42.87-3.57.64-7.03,2.43-10.16,3.92h0Z"/>
  <path class="cls-11" d="M88.95,33.99c4.62-2.94,10.03-4.71,15.44-5.36,1.89-.51,3.8-2.06,6-1.97,3.44.77,6.1,3.37,8.97,5.19,1.51.99,3.21,1.73,4.74,2.73,1.57.97,3.03,2.12,4.31,3.43l-.07.07c-1.43-1.14-2.95-2.13-4.55-2.99-1.59-.87-3.28-1.53-4.91-2.47-2.99-1.62-5.39-4.2-8.69-5.11-1.95-.01-3.71,1.31-5.64,1.78-1.89.26-3.63.46-5.43.85-3.7.64-6.98,2.43-10.18,3.85h0Z"/>
  <path class="cls-11" d="M31.62,62.05c4.61-.56,9.12-1.9,13.21-4.07,3.96-2.25,8.17-5.69,13.12-5,0,0,.02.2.02.2-4.55,1.52-7.95,4.51-12.45,6.24-4.38,1.88-9.14,2.88-13.89,2.83,0,0-.01-.2-.01-.2h0Z"/>
  <path class="cls-11" d="M204.47,48.38c-7.19-4.44-17.24,1.15-23.69-5.12-.78-.75-1.48-1.95-2.7-1.71,0,0-.04-.09-.04-.09.55-.33,1.28-.11,1.79.2,3.08,2.78,6.89,3.86,11.03,4.04,4.44.28,10.07-.23,13.61,2.68h0Z"/>
  <path class="cls-11" d="M40.9,83.6c4.18,2.03,9.86-.36,14.58-.66,3.57-.29,7.04.55,10.49,1.13,5.09.86,10.28,1.06,15.44.6-5.13.84-10.4,1.01-15.59.51-5.19-.71-10.05-.95-15.08.75-3.51.95-7.37,1.86-11.03.41,0,0,1.19-2.75,1.19-2.75h0Z"/>
</svg>