<?xml version="1.0" encoding="UTF-8"?>
<svg id="_Слой_1" data-name="Слой 1" xmlns="http://www.w3.org/2000/svg" viewBox="0 0 395.43 241.61">
  <defs>
    <style>
      .cls-1 {
        fill: #29abe2;
      }

      .cls-2 {
        fill: #1b1464;
        stroke: #1b142a;
      }

      .cls-2, .cls-3, .cls-4, .cls-5, .cls-6, .cls-7, .cls-8, .cls-9, .cls-10, .cls-11, .cls-12, .cls-13, .cls-14, .cls-15, .cls-16, .cls-17, .cls-18, .cls-19 {
        stroke-miterlimit: 10;
      }

      .cls-2, .cls-8, .cls-17, .cls-18 {
        stroke-width: .75px;
      }

      .cls-20 {
        fill: #0071bc;
      }

      .cls-3, .cls-21, .cls-10 {
        fill: #4d4d4d;
      }

      .cls-3, .cls-6, .cls-10, .cls-14 {
        stroke: #333;
      }

      .cls-22 {
        opacity: .3;
      }

      .cls-4, .cls-5, .cls-23 {
        fill: #736357;
      }

      .cls-4, .cls-15 {
        stroke: #42210b;
      }

      .cls-5, .cls-7, .cls-11, .cls-12, .cls-13, .cls-16, .cls-18, .cls-19 {
        stroke: #603813;
      }

      .cls-6 {
        fill: #614841;
      }

      .cls-7, .cls-11 {
        fill: #c69c6d;
      }

      .cls-24 {
        fill: #23214a;
      }

      .cls-8 {
        stroke: #534741;
      }

      .cls-8, .cls-9, .cls-17, .cls-18 {
        fill: none;
      }

      .cls-9, .cls-17 {
        stroke: #372f3c;
      }

      .cls-25, .cls-14 {
        fill: #666;
      }

      .cls-10, .cls-11, .cls-12, .cls-13, .cls-15, .cls-16 {
        stroke-width: 2px;
      }

      .cls-26 {
        fill: #603813;
      }

      .cls-12, .cls-15 {
        fill: #534741;
      }

      .cls-27 {
        fill: #333;
      }

      .cls-13 {
        fill: #8c6239;
      }

      .cls-28, .cls-19 {
        fill: #42210b;
      }

      .cls-16 {
        fill: #998675;
      }

      .cls-29 {
        fill: #372f3c;
      }

      .cls-30 {
        fill: #e6e6e6;
      }

      .cls-31 {
        fill: #754c24;
      }
    </style>
  </defs>
  <rect class="cls-10" x="3.61" y="200.66" width="339.55" height="26.37"/>
  <polygon class="cls-10" points="343.16 200.66 3.61 200.66 12.88 162.62 333.88 162.62 343.16 200.66"/>
  <g>
    <g>
      <rect class="cls-21" x="189.86" y="200.16" width="43.33" height="40.94"/>
      <path class="cls-27" d="M232.69,200.66v39.94h-42.33v-39.94h42.33M233.69,199.66h-44.33v41.94h44.33v-41.94h0Z"/>
    </g>
    <rect class="cls-25" x="190.36" y="200.47" width="42.33" height="5.43"/>
    <rect class="cls-25" x="190.36" y="213.85" width="42.33" height="5.43"/>
    <rect class="cls-25" x="190.36" y="227.23" width="42.33" height="5.43"/>
  </g>
  <rect class="cls-7" x="166.93" y="55.8" width="157.23" height="61.96"/>
  <g>
    <rect class="cls-31" x="14.7" y="83.33" width="9.99" height="86.79"/>
    <path class="cls-26" d="M23.69,84.33v84.79h-7.99v-84.79h7.99M25.69,82.33h-11.99v88.79h11.99v-88.79h0Z"/>
  </g>
  <g>
    <polygon class="cls-31" points="26.19 82.83 26.56 82.83 26.56 164.2 26.19 166.04 26.19 82.83"/>
    <polygon class="cls-26" points="27.06 82.33 25.69 82.33 25.69 171.12 27.06 164.2 27.06 82.33 27.06 82.33"/>
  </g>
  <g>
    <g>
      <rect class="cls-16" x="30.04" y="153.19" width="29.43" height="24.86"/>
      <rect class="cls-16" x="30.04" y="146.56" width="29.43" height="6.58"/>
    </g>
    <g>
      <path class="cls-16" d="M44.76,126.69c-8.13,0-14.72,8.89-14.72,19.87h29.43c0-10.97-6.59-19.87-14.72-19.87Z"/>
      <path class="cls-12" d="M44.59,137.19c-3.72,0-6.74,4.07-6.74,9.1h13.48c0-5.02-3.02-9.1-6.74-9.1Z"/>
    </g>
  </g>
  <g>
    <polygon class="cls-31" points="5.73 199.23 5.73 122.2 15.73 113.61 15.73 199.23 5.73 199.23"/>
    <path class="cls-26" d="M14.73,115.79v82.43h-7.99v-75.57l7.99-6.87M16.73,111.44l-11.99,10.3v78.48h11.99v-88.79h0Z"/>
  </g>
  <g>
    <polygon class="cls-31" points="17.23 111.44 17.59 109.59 17.59 193.3 17.23 195.15 17.23 111.44"/>
    <polygon class="cls-26" points="18.09 104.52 16.73 111.44 16.73 200.23 18.09 193.3 18.09 104.52 18.09 104.52"/>
  </g>
  <g>
    <path class="cls-13" d="M61.66,154.47c0-1.14-5.56-2.06-12.42-2.06s-12.42.92-12.42,2.06l-1.1,17.45,1.1,17.45c0,1.14,5.56,2.06,12.42,2.06s12.42-.92,12.42-2.06l1.1-17.45-1.1-17.45Z"/>
    <ellipse class="cls-19" cx="49.25" cy="154.46" rx="12.42" ry="3.25"/>
    <ellipse class="cls-2" cx="49.23" cy="157.13" rx="12.42" ry="3.25"/>
    <path class="cls-5" d="M60.91,186.84c-2.13,1.17-6.79,2.6-11.67,2.6s-9.54-1.42-11.67-2.6c-.86.48-.75,1.62-.75,2.19,0,1.97,5.56,3.56,12.42,3.56s12.42-1.6,12.42-3.56c0-.57.11-1.72-.75-2.19Z"/>
    <path class="cls-5" d="M60.9,155.44c-2.13,1.17-6.79,2.6-11.67,2.6s-9.54-1.42-11.67-2.6c-.86.48-.75,1.62-.75,2.19,0,1.97,5.56,3.56,12.42,3.56s12.42-1.6,12.42-3.56c0-.57.11-1.72-.75-2.19Z"/>
    <path class="cls-5" d="M61.91,169.6c-2.31,1.17-7.38,2.6-12.68,2.6s-10.36-1.42-12.68-2.6c-.94.48-.82,1.62-.82,2.19,0,1.97,6.04,3.56,13.49,3.56s13.49-1.6,13.49-3.56c0-.57.12-1.72-.82-2.19Z"/>
    <path class="cls-18" d="M40.16,160.21c-.17,1.51-.34,3.03-.52,4.54-.04.35-.08.7-.12,1.06-.16,1.44-.33,2.88-.49,4.31"/>
    <path class="cls-18" d="M39.1,174.32c.35,2.58.57,5.17.67,7.77.08,2.11.38,3.76.38,5.84"/>
    <path class="cls-18" d="M45.24,188.95c.41-2.57.65-5.2.31-7.78-.24-1.78-.61-3.89-.4-5.67"/>
    <path class="cls-18" d="M45.65,171.77c.06-.27.36-4.64.35-4.92-.06-1.82-.03-3.65.09-5.46"/>
    <path class="cls-18" d="M52.48,161.39c.14,3.28.14,7.26.13,10.54"/>
    <path class="cls-18" d="M52.66,175.25c.08,3.69-.1,7.39-.29,11.08-.04.83-.36,2.17-.51,2.98"/>
    <path class="cls-18" d="M57.38,188.24c.27-1.21.46-2.75.71-3.97.63-3.04.59-6.61.22-9.84"/>
    <path class="cls-18" d="M57.5,160.48l.35,2.57c.2,1.47.4,2.95.52,4.43.09,1.15.12,2.32-.22,3.42"/>
  </g>
  <g>
    <path class="cls-13" d="M86.93,159.45l1.52,23.3c0,1.52,7.7,2.75,17.2,2.75s17.2-1.23,17.2-2.75l1.52-23.3h-37.45Z"/>
    <ellipse class="cls-11" cx="105.65" cy="159.45" rx="18.72" ry="3.25"/>
    <path class="cls-26" d="M91.96,161.43c-.54,1.4-1,3.03-.97,4.56-.19-1.6.08-3.19.51-4.76,0,0,.46.2.46.2h0Z"/>
    <path class="cls-26" d="M114.55,161.65c.86,1.53.92,3.26.73,4.94-.14,1.67-.44,3.36-1.21,4.85l-.09-.04c.49-1.56.54-3.21.5-4.83-.07-1.01-.38-4.2.07-4.93h0Z"/>
    <path class="cls-26" d="M109,157.2c-.55-.33-1.68-.09-2.23.84-.1-1.07.64-2.4,2.13-2.83l.1,2h0Z"/>
    <path class="cls-26" d="M107.3,158.01c2.34-.05,4.57.34,6.9.44.29.08.64.19.86.52.77,1.54-2.67,1.87-3.61,1.82-2.85-.1-5.76.1-8.61.13-1.15-.01-2.28.11-3.48-.08-1.38-.21-2.58-.88-3.74-1.54l.52-.12c1.44-.29,3.11-.64,4.5-.54-1.49.23-2.96.55-4.4.95l.05-.39c1.54.79,3.1,1.31,4.83,1.22,0,0,1.72.02,1.72.02,2.3.02,4.59.16,6.89.16,1.65-.04,3.48.06,4.87-.88.71-1.1-1.54-.87-2.18-.98-1.69-.19-3.53-.48-5.12-.74h0Z"/>
    <rect class="cls-4" x="96.28" y="158.48" width="12.94" height="2.54"/>
    <rect class="cls-4" x="96.28" y="153.37" width="12.94" height="5.1"/>
    <rect class="cls-4" x="99.04" y="149.57" width="7.41" height="7.61"/>
    <rect class="cls-4" x="96.28" y="143.76" width="25.04" height="4.43"/>
    <rect class="cls-4" x="93.75" y="148.21" width="2.54" height="5.19"/>
    <rect class="cls-4" x="93.75" y="144.57" width="2.54" height="3.64"/>
    <g>
      <polygon class="cls-23" points="83.92 146.15 83.92 145.81 93.37 144.99 93.37 147.75 83.92 146.15"/>
      <path class="cls-28" d="M93,145.4v1.91l-7.45-1.26,7.45-.65M93.75,144.58l-10.2.89v1l10.2,1.73v-3.62h0Z"/>
    </g>
    <polygon class="cls-4" points="109.22 148.21 109.22 148.18 96.28 148.18 96.28 154.49 109.22 154.49 121.32 150.79 121.32 148.18 109.22 148.21"/>
    <g>
      <polygon class="cls-23" points="83.92 147.1 83.92 146.35 93.37 148.47 93.37 152.71 83.92 147.1"/>
      <path class="cls-28" d="M84.29,146.81l8.7,1.96v3.28l-8.7-5.17v-.07M83.54,145.88v1.43l10.2,6.06v-5.2l-10.2-2.29h0Z"/>
    </g>
    <path class="cls-26" d="M99.64,185.44c-1.13-.47-.65-1.87-.87-2.81-.26-2.59-.84-5.49-.4-8.07-.26,2.6.52,5.44.95,8,.17.53.08,1.93.51,2.15,0,0-.19.73-.19.73h0Z"/>
  </g>
  <g>
    <polygon class="cls-31" points="1 128.73 147.44 127.73 147.44 133.6 1 134.59 1 128.73"/>
    <path class="cls-26" d="M146.44,128.74v3.86l-144.44.98v-3.86l144.44-.98M148.44,126.73L0,127.74v7.86l148.44-1.01v-7.86h0Z"/>
  </g>
  <g>
    <polygon class="cls-31" points="8.83 85.98 134.6 85.22 134.6 89.23 8.83 89.99 8.83 85.98"/>
    <path class="cls-26" d="M133.6,86.22v2.01l-123.76.75v-2.01l123.76-.75M135.6,84.21l-127.76.77v6.01l127.76-.77v-6.01h0Z"/>
  </g>
  <g>
    <polygon class="cls-31" points="9.54 81.42 134.6 80.66 134.6 83.22 9.05 83.98 9.54 81.42"/>
    <path class="cls-26" d="M133.6,81.67v.56l-123.34.75.11-.56,123.23-.75M135.6,79.65l-126.89.77-.88,4.56,127.76-.77v-4.56h0Z"/>
  </g>
  <g>
    <polygon class="cls-20" points="11.03 87.88 132.51 85.71 132.51 127.1 2.36 127.87 11.03 87.88"/>
    <path class="cls-24" d="M132.13,86.09v40.64l-129.31.76,8.51-39.24,120.8-2.16M132.88,85.32l-122.15,2.18L1.89,128.25l130.99-.77v-42.15h0Z"/>
  </g>
  <g>
    <g>
      <path class="cls-24" d="M125.42,85.84c.06.65.13,1.33-.12,1.99-.28.66-.66,1.13-.73,1.77-.21,1.28-.43,2.58-.7,3.86l-.2-.29c1.02.17,2.1-.33,3.19-.64,1.13-.37,2.3-.24,3.42-.29l6.79-.09c.11.13-6.79.34-6.78.38-1.13.08-2.27-.01-3.31.37-1.05.31-2.11.91-3.39.76l-.25-.03.05-.26c.36-1.6.45-3.32,1.15-4.82.63-.8.86-1.68.84-2.7,0,0,.05,0,.05,0h0Z"/>
      <path class="cls-24" d="M123.83,101.14c-.05.75-.74,1.25-1.16,1.8-.9,1.11-1.13,2.51-1.34,3.91,0,0-.41,2.11-.41,2.11l-.2-.29c1.07.18,2.19-.37,3.34-.68,1.19-.34,2.4-.19,3.57-.24l7.09-.03c.11.13-7.09.27-7.09.31-1.18.07-2.38-.03-3.47.32-1.1.31-2.2.96-3.53.8l-.25-.03c.03-.18.4-2.13.44-2.37.23-1.42.59-2.94,1.63-4.01.39-.43,1.23-1,1.33-1.61,0,0,.05,0,.05,0h0Z"/>
      <path class="cls-24" d="M121.53,116.5c-.05.75-.74,1.25-1.16,1.8-.9,1.11-1.13,2.51-1.34,3.91,0,0-.41,2.11-.41,2.11l-.2-.29c1.07.18,2.19-.37,3.34-.68,1.19-.34,2.4-.19,3.57-.24l7.09-.03c.11.13-7.09.27-7.09.31-1.18.07-2.38-.03-3.47.32-1.1.31-2.2.96-3.53.8l-.25-.03c.03-.18.4-2.13.44-2.37.23-1.42.59-2.94,1.63-4.01.39-.43,1.23-1,1.33-1.61,0,0,.05,0,.05,0h0Z"/>
      <path class="cls-24" d="M125.6,93.57c.07.65.13,1.33-.11,1.99-.27.66-.66,1.13-.73,1.77-.2,1.28-.45,2.58-.72,3.86l-.2-.28c.92.16,1.9-.23,2.86-.53.97-.35,2.05-.39,3.06-.37,0,0,6.1.05,6.1.05.18.13-6.16.2-6.1.23-1.03,0-2.01.07-2.95.44-1,.34-2.11.85-3.3.62,0,0,.04-.25.04-.25.35-1.6.43-3.32,1.14-4.83.63-.8.86-1.67.85-2.7,0,0,.05,0,.05,0h0Z"/>
      <path class="cls-24" d="M123.35,108.55c.07.65.13,1.33-.11,1.99-.27.66-.66,1.13-.73,1.77-.2,1.28-.45,2.58-.72,3.86l-.2-.28c.92.16,1.9-.23,2.86-.53.97-.35,2.05-.39,3.06-.37,0,0,6.1.05,6.1.05.18.13-6.16.2-6.1.23-1.03,0-2.01.07-2.95.44-1,.34-2.11.85-3.3.62,0,0,.04-.25.04-.25.35-1.6.43-3.32,1.14-4.83.63-.8.86-1.67.85-2.7,0,0,.05,0,.05,0h0Z"/>
    </g>
    <g>
      <path class="cls-24" d="M112.5,86.01c.06.65.13,1.33-.12,1.99-.28.66-.66,1.13-.73,1.77-.21,1.28-.43,2.58-.7,3.86l-.2-.29c1.02.17,2.1-.33,3.19-.64,1.13-.37,2.3-.24,3.42-.29l6.79-.09c.11.13-6.79.34-6.78.38-1.13.08-2.27-.01-3.31.37-1.05.31-2.11.91-3.39.76l-.25-.03.05-.26c.36-1.6.45-3.32,1.15-4.82.63-.8.86-1.68.84-2.7,0,0,.05,0,.05,0h0Z"/>
      <path class="cls-24" d="M110.92,101.31c-.05.75-.74,1.25-1.16,1.8-.38.51-.75,1.21-.96,1.82-.27,1.36-.5,2.82-.8,4.2,0,0-.2-.29-.2-.29,1.04.18,2.12-.34,3.23-.65,3.43-.86,6.83.65,10.26.71-3.24.23-6.87-1.31-10.15-.35-1.06.31-2.13.92-3.41.77l-.24-.03c.28-1.52.51-2.98.9-4.49.28-.71.67-1.33,1.16-1.89.39-.43,1.23-1,1.33-1.61,0,0,.05,0,.05,0h0Z"/>
      <path class="cls-24" d="M108.61,116.66c-.05.75-.74,1.25-1.16,1.81-.38.51-.75,1.21-.96,1.82-.27,1.36-.5,2.82-.81,4.2,0,0-.2-.28-.2-.28.99.17,2.03-.29,3.08-.6,3.23-.91,6.67.5,9.79.7-3.22.07-6.53-1.35-9.68-.34-1.07.34-2.23.93-3.51.69.44-2.01.45-4.22,1.69-5.94.21-.35.86-.89,1.14-1.18.24-.25.52-.51.55-.86h.05Z"/>
      <path class="cls-24" d="M112.69,93.74c.06.65.13,1.33-.12,1.99-.28.66-.66,1.13-.73,1.77-.21,1.28-.44,2.58-.71,3.86l-.2-.29c.99.17,2.03-.29,3.08-.6,3.23-.91,6.67.5,9.79.7-3.22.07-6.53-1.35-9.68-.34-1.02.31-2.05.87-3.27.72l-.25-.03.05-.26c.36-1.6.45-3.32,1.15-4.83.63-.8.86-1.67.84-2.7,0,0,.05,0,.05,0h0Z"/>
      <path class="cls-24" d="M110.44,108.72c.06.65.13,1.33-.12,1.99-.28.66-.66,1.13-.73,1.77-.21,1.28-.44,2.58-.71,3.86l-.2-.29c.99.17,2.03-.29,3.08-.6,3.23-.91,6.67.5,9.79.7-3.22.07-6.53-1.35-9.68-.34-1.02.31-2.05.87-3.27.72l-.25-.03.05-.26c.36-1.6.45-3.32,1.15-4.83.63-.8.86-1.67.84-2.7,0,0,.05,0,.05,0h0Z"/>
    </g>
    <g>
      <path class="cls-24" d="M99.4,86.2c.06.65.13,1.33-.12,1.99-.28.66-.66,1.13-.73,1.77-.21,1.28-.43,2.58-.7,3.86l-.2-.29c1.02.17,2.1-.33,3.19-.64,1.13-.37,2.3-.24,3.42-.29l6.79-.09c.11.13-6.79.34-6.78.38-1.13.08-2.27-.01-3.31.37-1.05.31-2.11.91-3.39.76l-.25-.03.05-.26c.36-1.6.45-3.32,1.15-4.82.63-.8.86-1.68.84-2.7,0,0,.05,0,.05,0h0Z"/>
      <path class="cls-24" d="M97.81,101.5c-.05.75-.74,1.25-1.16,1.8-.38.51-.75,1.21-.96,1.82-.27,1.36-.5,2.82-.8,4.2,0,0-.2-.29-.2-.29,1.04.18,2.12-.34,3.23-.65,3.43-.86,6.83.65,10.26.71-3.24.23-6.87-1.31-10.15-.35-1.06.31-2.13.92-3.41.77l-.24-.03c.28-1.52.51-2.98.9-4.49.28-.71.67-1.33,1.16-1.89.39-.43,1.23-1,1.33-1.61,0,0,.05,0,.05,0h0Z"/>
      <path class="cls-24" d="M95.51,116.85c-.05.75-.74,1.25-1.16,1.81-.38.51-.75,1.21-.96,1.82-.27,1.36-.5,2.82-.81,4.2,0,0-.2-.28-.2-.28.99.17,2.03-.29,3.08-.6,3.23-.91,6.67.5,9.79.7-3.22.07-6.53-1.35-9.68-.34-1.07.34-2.23.93-3.51.69.44-2.01.45-4.22,1.69-5.94.21-.35.86-.89,1.14-1.18.24-.25.52-.51.55-.86h.05Z"/>
      <path class="cls-24" d="M99.58,93.93c.06.65.13,1.33-.12,1.99-.28.66-.66,1.13-.73,1.77-.21,1.28-.44,2.58-.71,3.86l-.2-.29c.99.17,2.03-.29,3.08-.6,3.23-.91,6.67.5,9.79.7-3.22.07-6.53-1.35-9.68-.34-1.02.31-2.05.87-3.27.72l-.25-.03.05-.26c.36-1.6.45-3.32,1.15-4.83.63-.8.86-1.67.84-2.7,0,0,.05,0,.05,0h0Z"/>
      <path class="cls-24" d="M97.33,108.91c.06.65.13,1.33-.12,1.99-.28.66-.66,1.13-.73,1.77-.21,1.28-.44,2.58-.71,3.86l-.2-.29c.99.17,2.03-.29,3.08-.6,3.23-.91,6.67.5,9.79.7-3.22.07-6.53-1.35-9.68-.34-1.02.31-2.05.87-3.27.72l-.25-.03.05-.26c.36-1.6.45-3.32,1.15-4.83.63-.8.86-1.67.84-2.7,0,0,.05,0,.05,0h0Z"/>
    </g>
    <g>
      <path class="cls-24" d="M86.48,86.37c.06.65.13,1.33-.12,1.99-.28.66-.66,1.13-.73,1.77-.21,1.28-.43,2.58-.7,3.86l-.2-.29c1.02.17,2.1-.33,3.19-.64,1.13-.37,2.3-.24,3.42-.29l6.79-.09c.11.13-6.79.34-6.78.38-1.13.08-2.27-.01-3.31.37-1.05.31-2.11.91-3.39.76l-.25-.03.05-.26c.36-1.6.45-3.32,1.15-4.82.63-.8.86-1.68.84-2.7,0,0,.05,0,.05,0h0Z"/>
      <path class="cls-24" d="M84.9,101.67c-.05.75-.74,1.25-1.16,1.8-.38.51-.75,1.21-.96,1.82-.27,1.36-.5,2.82-.8,4.2,0,0-.2-.29-.2-.29,1.04.18,2.12-.34,3.23-.65,3.43-.86,6.83.65,10.26.71-3.24.23-6.87-1.31-10.15-.35-1.06.31-2.13.92-3.41.77l-.24-.03c.28-1.52.51-2.98.9-4.49.28-.71.67-1.33,1.16-1.89.39-.43,1.23-1,1.33-1.61,0,0,.05,0,.05,0h0Z"/>
      <path class="cls-24" d="M82.59,117.02c-.05.75-.74,1.25-1.16,1.81-.38.51-.75,1.21-.96,1.82-.27,1.36-.5,2.82-.81,4.2,0,0-.2-.28-.2-.28.99.17,2.03-.29,3.08-.6,3.23-.91,6.67.5,9.79.7-3.22.07-6.53-1.35-9.68-.34-1.07.34-2.23.93-3.51.69.44-2.01.45-4.22,1.69-5.94.21-.35.86-.89,1.14-1.18.24-.25.52-.51.55-.86h.05Z"/>
      <path class="cls-24" d="M86.67,94.09c.06.65.13,1.33-.12,1.99-.28.66-.66,1.13-.73,1.77-.21,1.28-.44,2.58-.71,3.86l-.2-.29c.99.17,2.03-.29,3.08-.6,3.23-.91,6.67.5,9.79.7-3.22.07-6.53-1.35-9.68-.34-1.02.31-2.05.87-3.27.72l-.25-.03.05-.26c.36-1.6.45-3.32,1.15-4.83.63-.8.86-1.67.84-2.7,0,0,.05,0,.05,0h0Z"/>
      <path class="cls-24" d="M84.42,109.08c.06.65.13,1.33-.12,1.99-.28.66-.66,1.13-.73,1.77-.21,1.28-.44,2.58-.71,3.86l-.2-.29c.99.17,2.03-.29,3.08-.6,3.23-.91,6.67.5,9.79.7-3.22.07-6.53-1.35-9.68-.34-1.02.31-2.05.87-3.27.72l-.25-.03.05-.26c.36-1.6.45-3.32,1.15-4.83.63-.8.86-1.67.84-2.7,0,0,.05,0,.05,0h0Z"/>
    </g>
    <g>
      <path class="cls-24" d="M73.32,86.56c.06.65.13,1.33-.12,1.99-.28.66-.66,1.13-.73,1.77-.21,1.28-.43,2.58-.7,3.86l-.2-.29c1.02.17,2.1-.33,3.19-.64,1.13-.37,2.3-.24,3.42-.29l6.79-.09c.11.13-6.79.34-6.78.38-1.13.08-2.27-.01-3.31.37-1.05.31-2.11.91-3.39.76l-.25-.03.05-.26c.36-1.6.45-3.32,1.15-4.82.63-.8.86-1.68.84-2.7,0,0,.05,0,.05,0h0Z"/>
      <path class="cls-24" d="M71.74,101.86c-.05.75-.74,1.25-1.16,1.8-.38.51-.75,1.21-.96,1.82-.27,1.36-.5,2.82-.8,4.2,0,0-.2-.29-.2-.29,1.04.18,2.12-.34,3.23-.65,3.43-.86,6.83.65,10.26.71-3.24.23-6.87-1.31-10.15-.35-1.06.31-2.13.92-3.41.77l-.24-.03c.28-1.52.51-2.98.9-4.49.28-.71.67-1.33,1.16-1.89.39-.43,1.23-1,1.33-1.61,0,0,.05,0,.05,0h0Z"/>
      <path class="cls-24" d="M69.43,117.21c-.05.75-.74,1.25-1.16,1.81-.38.51-.75,1.21-.96,1.82-.27,1.36-.5,2.82-.81,4.2,0,0-.2-.28-.2-.28.99.17,2.03-.29,3.08-.6,3.23-.91,6.67.5,9.79.7-3.22.07-6.53-1.35-9.68-.34-1.07.34-2.23.93-3.51.69.44-2.01.45-4.22,1.69-5.94.21-.35.86-.89,1.14-1.18.24-.25.52-.51.55-.86h.05Z"/>
      <path class="cls-24" d="M73.51,94.28c.06.65.13,1.33-.12,1.99-.28.66-.66,1.13-.73,1.77-.21,1.28-.44,2.58-.71,3.86l-.2-.29c.99.17,2.03-.29,3.08-.6,3.23-.91,6.67.5,9.79.7-3.22.07-6.53-1.35-9.68-.34-1.02.31-2.05.87-3.27.72l-.25-.03.05-.26c.36-1.6.45-3.32,1.15-4.83.63-.8.86-1.67.84-2.7,0,0,.05,0,.05,0h0Z"/>
      <path class="cls-24" d="M71.26,109.27c.06.65.13,1.33-.12,1.99-.28.66-.66,1.13-.73,1.77-.21,1.28-.44,2.58-.71,3.86l-.2-.29c.99.17,2.03-.29,3.08-.6,3.23-.91,6.67.5,9.79.7-3.22.07-6.53-1.35-9.68-.34-1.02.31-2.05.87-3.27.72l-.25-.03.05-.26c.36-1.6.45-3.32,1.15-4.83.63-.8.86-1.67.84-2.7,0,0,.05,0,.05,0h0Z"/>
    </g>
    <g>
      <path class="cls-24" d="M60.14,86.75c.06.65.13,1.33-.12,1.99-.28.66-.66,1.13-.73,1.77-.21,1.28-.43,2.58-.7,3.86l-.2-.29c1.02.17,2.1-.33,3.19-.64,1.13-.37,2.3-.24,3.42-.29l6.79-.09c.11.13-6.79.34-6.78.38-1.13.08-2.27-.01-3.31.37-1.05.31-2.11.91-3.39.76l-.25-.03.05-.26c.36-1.6.45-3.32,1.15-4.82.63-.8.86-1.68.84-2.7,0,0,.05,0,.05,0h0Z"/>
      <path class="cls-24" d="M58.56,102.05c-.05.75-.74,1.25-1.16,1.8-.38.51-.75,1.21-.96,1.82-.27,1.36-.5,2.82-.8,4.2,0,0-.2-.29-.2-.29,1.04.18,2.12-.34,3.23-.65,3.43-.86,6.83.65,10.26.71-3.24.23-6.87-1.31-10.15-.35-1.06.31-2.13.92-3.41.77l-.24-.03c.28-1.52.51-2.98.9-4.49.28-.71.67-1.33,1.16-1.89.39-.43,1.23-1,1.33-1.61,0,0,.05,0,.05,0h0Z"/>
      <path class="cls-24" d="M56.25,117.4c-.05.75-.74,1.25-1.16,1.81-.38.51-.75,1.21-.96,1.82-.27,1.36-.5,2.82-.81,4.2,0,0-.2-.28-.2-.28.99.17,2.03-.29,3.08-.6,3.23-.91,6.67.5,9.79.7-3.22.07-6.53-1.35-9.68-.34-1.07.34-2.23.93-3.51.69.44-2.01.45-4.22,1.69-5.94.21-.35.86-.89,1.14-1.18.24-.25.52-.51.55-.86h.05Z"/>
      <path class="cls-24" d="M60.33,94.48c.06.65.13,1.33-.12,1.99-.28.66-.66,1.13-.73,1.77-.21,1.28-.44,2.58-.71,3.86l-.2-.29c.99.17,2.03-.29,3.08-.6,3.23-.91,6.67.5,9.79.7-3.22.07-6.53-1.35-9.68-.34-1.02.31-2.05.87-3.27.72l-.25-.03.05-.26c.36-1.6.45-3.32,1.15-4.83.63-.8.86-1.67.84-2.7,0,0,.05,0,.05,0h0Z"/>
      <path class="cls-24" d="M58.08,109.46c.06.65.13,1.33-.12,1.99-.28.66-.66,1.13-.73,1.77-.21,1.28-.44,2.58-.71,3.86l-.2-.29c.99.17,2.03-.29,3.08-.6,3.23-.91,6.67.5,9.79.7-3.22.07-6.53-1.35-9.68-.34-1.02.31-2.05.87-3.27.72l-.25-.03.05-.26c.36-1.6.45-3.32,1.15-4.83.63-.8.86-1.67.84-2.7,0,0,.05,0,.05,0h0Z"/>
    </g>
    <g>
      <path class="cls-24" d="M47.22,86.93c.06.65.13,1.33-.12,1.99-.28.66-.66,1.13-.73,1.77-.21,1.28-.43,2.58-.7,3.86l-.2-.29c1.02.17,2.1-.33,3.19-.64,1.13-.37,2.3-.24,3.42-.29l6.79-.09c.11.13-6.79.34-6.78.38-1.13.08-2.27-.01-3.31.37-1.05.31-2.11.91-3.39.76l-.25-.03.05-.26c.36-1.6.45-3.32,1.15-4.82.63-.8.86-1.68.84-2.7,0,0,.05,0,.05,0h0Z"/>
      <path class="cls-24" d="M45.64,102.24c-.05.75-.74,1.25-1.16,1.8-.38.51-.75,1.21-.96,1.82-.27,1.36-.5,2.82-.8,4.2,0,0-.2-.29-.2-.29,1.04.18,2.12-.34,3.23-.65,3.43-.86,6.83.65,10.26.71-3.24.23-6.87-1.31-10.15-.35-1.06.31-2.13.92-3.41.77l-.24-.03c.28-1.52.51-2.98.9-4.49.28-.71.67-1.33,1.16-1.89.39-.43,1.23-1,1.33-1.61,0,0,.05,0,.05,0h0Z"/>
      <path class="cls-24" d="M43.33,117.59c-.05.75-.74,1.25-1.16,1.81-.38.51-.75,1.21-.96,1.82-.27,1.36-.5,2.82-.81,4.2,0,0-.2-.28-.2-.28.99.17,2.03-.29,3.08-.6,3.23-.91,6.67.5,9.79.7-3.22.07-6.53-1.35-9.68-.34-1.07.34-2.23.93-3.51.69.44-2.01.45-4.22,1.69-5.94.21-.35.86-.89,1.14-1.18.24-.25.52-.51.55-.86h.05Z"/>
      <path class="cls-24" d="M47.41,94.66c.06.65.13,1.33-.12,1.99-.28.66-.66,1.13-.73,1.77-.21,1.28-.44,2.58-.71,3.86l-.2-.29c.99.17,2.03-.29,3.08-.6,3.23-.91,6.67.5,9.79.7-3.22.07-6.53-1.35-9.68-.34-1.02.31-2.05.87-3.27.72l-.25-.03.05-.26c.36-1.6.45-3.32,1.15-4.83.63-.8.86-1.67.84-2.7,0,0,.05,0,.05,0h0Z"/>
      <path class="cls-24" d="M45.16,109.65c.06.65.13,1.33-.12,1.99-.28.66-.66,1.13-.73,1.77-.21,1.28-.44,2.58-.71,3.86l-.2-.29c.99.17,2.03-.29,3.08-.6,3.23-.91,6.67.5,9.79.7-3.22.07-6.53-1.35-9.68-.34-1.02.31-2.05.87-3.27.72l-.25-.03.05-.26c.36-1.6.45-3.32,1.15-4.83.63-.8.86-1.67.84-2.7,0,0,.05,0,.05,0h0Z"/>
    </g>
    <g>
      <path class="cls-24" d="M34.64,87.1c.06.65.13,1.33-.12,1.99-.28.66-.66,1.13-.73,1.77-.21,1.28-.43,2.58-.7,3.86l-.2-.29c1.02.17,2.1-.33,3.19-.64,1.13-.37,2.3-.24,3.42-.29l6.79-.09c.11.13-6.79.34-6.78.38-1.13.08-2.27-.01-3.31.37-1.05.31-2.11.91-3.39.76l-.25-.03.05-.26c.36-1.6.45-3.32,1.15-4.82.63-.8.86-1.68.84-2.7,0,0,.05,0,.05,0h0Z"/>
      <path class="cls-24" d="M33.06,102.4c-.05.75-.74,1.25-1.16,1.8-.38.51-.75,1.21-.96,1.82-.27,1.36-.5,2.82-.8,4.2,0,0-.2-.29-.2-.29,1.04.18,2.12-.34,3.23-.65,3.43-.86,6.83.65,10.26.71-3.24.23-6.87-1.31-10.15-.35-1.06.31-2.13.92-3.41.77l-.24-.03c.28-1.52.51-2.98.9-4.49.28-.71.67-1.33,1.16-1.89.39-.43,1.23-1,1.33-1.61,0,0,.05,0,.05,0h0Z"/>
      <path class="cls-24" d="M30.75,117.75c-.05.75-.74,1.25-1.16,1.81-.38.51-.75,1.21-.96,1.82-.27,1.36-.5,2.82-.81,4.2,0,0-.2-.28-.2-.28.99.17,2.03-.29,3.08-.6,3.23-.91,6.67.5,9.79.7-3.22.07-6.53-1.35-9.68-.34-1.07.34-2.23.93-3.51.69.44-2.01.45-4.22,1.69-5.94.21-.35.86-.89,1.14-1.18.24-.25.52-.51.55-.86h.05Z"/>
      <path class="cls-24" d="M34.83,94.83c.06.65.13,1.33-.12,1.99-.28.66-.66,1.13-.73,1.77-.21,1.28-.44,2.58-.71,3.86l-.2-.29c.99.17,2.03-.29,3.08-.6,3.23-.91,6.67.5,9.79.7-3.22.07-6.53-1.35-9.68-.34-1.02.31-2.05.87-3.27.72l-.25-.03.05-.26c.36-1.6.45-3.32,1.15-4.83.63-.8.86-1.67.84-2.7,0,0,.05,0,.05,0h0Z"/>
      <path class="cls-24" d="M32.58,109.81c.06.65.13,1.33-.12,1.99-.28.66-.66,1.13-.73,1.77-.21,1.28-.44,2.58-.71,3.86l-.2-.29c.99.17,2.03-.29,3.08-.6,3.23-.91,6.67.5,9.79.7-3.22.07-6.53-1.35-9.68-.34-1.02.31-2.05.87-3.27.72l-.25-.03.05-.26c.36-1.6.45-3.32,1.15-4.83.63-.8.86-1.67.84-2.7,0,0,.05,0,.05,0h0Z"/>
    </g>
    <g>
      <path class="cls-20" d="M22.14,87.26c.02.67-12.4-.65-12.7,0-.16.34-.87,2.87-1.03,3.21-.15.33-.22.69-.29,1.04-.22,1.18-.45,2.36-.67,3.54,1.27.21,2.64-.61,3.98-.87.56-.11,1.11-.11,1.66-.12,2.14-.02,5.66-.22,7.8-.24"/>
      <path class="cls-24" d="M22.16,87.26c-.06.15-.2.14-.3.17-1.62.23-3.27.11-4.9.09-1.56,0-5.88-.37-7.36-.1.08-.11,0,.04-.03.13l-.8,2.47c-.3.69-.54,1.74-.67,2.49,0,0-.51,2.56-.51,2.56l-.14-.2c1.06.17,2.13-.35,3.22-.66,1.11-.37,2.29-.25,3.4-.3,0,.02,6.89-.2,6.79-.08,0,0-6.79.29-6.79.29-1.13.08-2.27-.02-3.33.36-1.1.33-2.25.94-3.53.71,0,0,.03-.18.03-.18.31-1.49.55-3.7,1.09-5.11,0,0,.75-2.5.75-2.5.04-.15.13-.37.28-.42.79-.24,1.58-.13,2.38-.14,2.52.06,5.28.31,7.81.47.71,0,1.93.21,2.58-.05h0Z"/>
    </g>
    <g>
      <path class="cls-24" d="M20.58,102.56c-.05.75-.74,1.25-1.16,1.8-.38.51-.75,1.21-.96,1.82-.27,1.36-.5,2.82-.8,4.2,0,0-.2-.29-.2-.29,1.04.18,2.12-.34,3.23-.65,3.43-.86,6.83.65,10.26.71-3.24.23-6.87-1.31-10.15-.35-1.06.31-2.13.92-3.41.77l-.24-.03c.28-1.52.51-2.98.9-4.49.28-.71.67-1.33,1.16-1.89.39-.43,1.23-1,1.33-1.61,0,0,.05,0,.05,0h0Z"/>
      <path class="cls-24" d="M18.28,117.91c-.05.75-.74,1.25-1.16,1.81-.38.51-.75,1.21-.96,1.82-.27,1.36-.5,2.82-.81,4.2,0,0-.2-.28-.2-.28.99.17,2.03-.29,3.08-.6,3.23-.91,6.67.5,9.79.7-3.22.07-6.53-1.35-9.68-.34-1.07.34-2.23.93-3.51.69.44-2.01.45-4.22,1.69-5.94.21-.35.86-.89,1.14-1.18.24-.25.52-.51.55-.86h.05Z"/>
      <path class="cls-24" d="M22.35,94.99c.06.65.13,1.33-.12,1.99-.28.66-.66,1.13-.73,1.77-.21,1.28-.44,2.58-.71,3.86l-.2-.29c.99.17,2.03-.29,3.08-.6,3.23-.91,6.67.5,9.79.7-3.22.07-6.53-1.35-9.68-.34-1.02.31-2.05.87-3.27.72l-.25-.03.05-.26c.36-1.6.45-3.32,1.15-4.83.63-.8.86-1.67.84-2.7,0,0,.05,0,.05,0h0Z"/>
      <path class="cls-24" d="M20.1,109.97c.06.65.13,1.33-.12,1.99-.28.66-.66,1.13-.73,1.77-.21,1.28-.44,2.58-.71,3.86l-.2-.29c.99.17,2.03-.29,3.08-.6,3.23-.91,6.67.5,9.79.7-3.22.07-6.53-1.35-9.68-.34-1.02.31-2.05.87-3.27.72l-.25-.03.05-.26c.36-1.6.45-3.32,1.15-4.83.63-.8.86-1.67.84-2.7,0,0,.05,0,.05,0h0Z"/>
      <path class="cls-24" d="M22.16,87.26c.06.65.13,1.33-.12,1.99-.28.66-.66,1.13-.73,1.77-.21,1.28-.43,2.58-.7,3.86l-.2-.29c1.02.17,2.1-.33,3.19-.64,1.13-.37,2.3-.24,3.42-.29l6.79-.09c.11.13-6.79.34-6.78.38-1.13.08-2.27-.01-3.31.37-1.05.31-2.11.91-3.39.76l-.25-.03.05-.26c.36-1.6.45-3.32,1.15-4.82.63-.8.86-1.68.84-2.7,0,0,.05,0,.05,0h0Z"/>
    </g>
    <g>
      <path class="cls-20" d="M7.64,102.77c.02.67-1.32,1.58-1.62,2.23-.16.34-.39.64-.55.98-.15.33-.22.69-.29,1.04-.22,1.18-.45,2.36-.67,3.54,1.27.21,2.64-.61,3.98-.87.56-.11,1.11-.11,1.66-.12,2.14-.02,5.74.86,7.88.84"/>
      <path class="cls-24" d="M7.66,102.77c-.05.75-.74,1.25-1.16,1.8-.38.51-.75,1.21-.96,1.82-.27,1.36-.5,2.82-.8,4.2,0,0-.2-.29-.2-.29,1.04.18,2.12-.34,3.23-.65,3.43-.86,6.83.65,10.26.71-3.24.23-6.87-1.31-10.15-.35-1.06.31-2.13.92-3.41.77l-.24-.03c.28-1.52.51-2.98.9-4.49.28-.71.67-1.33,1.16-1.89.39-.43,1.23-1,1.33-1.61,0,0,.05,0,.05,0h0Z"/>
    </g>
    <g>
      <path class="cls-20" d="M4.51,118.12c.02.67-.5,1.58-.8,2.23-.16.34-.39.64-.55.98-.15.33-.22.69-.29,1.04-.22,1.18-.45,2.36-.67,3.54,1.27.21,2.64-.61,3.98-.87.56-.11,1.11-.11,1.66-.12,2.14-.02,5.13.85,7.27.82"/>
      <path class="cls-24" d="M4.53,118.12c.03,1.41-.99,2.52-1.34,3.81-.2,1.19-.5,2.85-.75,4.01,0,0-.2-.29-.2-.29.99.17,2.03-.29,3.08-.6,3.27-.96,6.54.58,9.79.65-3.09.23-6.56-1.35-9.68-.29-1.02.31-2.05.87-3.27.72l-.24-.03.05-.26c.38-1.65.41-3.49,1.24-5.01.56-.83,1.07-1.84,1.33-2.72h0Z"/>
    </g>
    <path class="cls-24" d="M9.43,95.19c.06.65.13,1.33-.12,1.99-.28.66-.66,1.13-.73,1.77-.21,1.28-.44,2.58-.71,3.86l-.2-.29c.99.17,2.03-.29,3.08-.6,3.23-.91,6.67.5,9.79.7-3.22.07-6.53-1.35-9.68-.34-1.02.31-2.05.87-3.27.72l-.25-.03.05-.26c.36-1.6.45-3.32,1.15-4.83.63-.8.86-1.67.84-2.7,0,0,.05,0,.05,0h0Z"/>
    <path class="cls-24" d="M5.72,110.49c.1.61-.03,1.33-.27,1.88-.09.43-.06.99-.25,1.42-.25,1.25-.51,2.91-.83,4.17,0,0-.21-.3-.21-.3,1.07.12,2.28-.25,3.42-.53,3.53-1.3,7.16.27,10.7.43-2.86.19-5.95-1.08-8.88-.51-1.78.36-3.45,1.25-5.33,1.12,0,0-.25-.03-.25-.03l.04-.27c.37-1.89.85-3.7,1.31-5.57.3-.61.49-1.13.48-1.81,0,0,.05,0,.05,0h0Z"/>
  </g>
  <g>
    <polygon class="cls-31" points="2.1 125.03 147.44 124.27 147.44 126.83 1.34 127.59 2.1 125.03"/>
    <path class="cls-26" d="M146.44,125.28v.56l-143.76.75.16-.56,143.6-.75M148.44,123.27l-147.09.77-1.35,4.56,148.44-.77v-4.56h0Z"/>
  </g>
  <rect class="cls-16" x="36.96" y="68.02" width="18.45" height="26.27"/>
  <rect class="cls-16" x="33.69" y="69.32" width="24.75" height="6.51"/>
  <rect class="cls-16" x="33.69" y="59.02" width="24.75" height="10.3"/>
  <g>
    <rect class="cls-26" x="320.39" y="137.17" width="75.04" height="7.36"/>
    <path class="cls-26" d="M381.33,153.3h-23.8c-3.44,0-6.23,4.01-6.23,8.96v11.73c0,4.7,2.51,8.54,5.71,8.92,0,.01,0,.02,0,.04,0,2.84,5.56,5.13,12.43,5.13s12.43-2.3,12.43-5.13c0-.01,0-.02,0-.04,3.2-.38,5.71-4.23,5.71-8.92v-11.73c0-4.95-2.79-8.96-6.23-8.96Z"/>
    <path class="cls-31" d="M379.27,157.62h-19.67c-2.84,0-5.15,3-5.15,6.7v8.77c0,3.51,2.08,6.39,4.72,6.67,0,0,0,.02,0,.03,0,2.12,4.6,3.84,10.27,3.84s10.27-1.72,10.27-3.84c0,0,0-.02,0-.03,2.64-.29,4.72-3.16,4.72-6.67v-8.77c0-3.7-2.31-6.7-5.15-6.7Z"/>
    <rect class="cls-6" x="372.52" y="163.68" width="1.77" height="18.73" transform="translate(-8.53 326.35) rotate(-46.73)"/>
    <rect class="cls-6" x="359.03" y="158.87" width="1.77" height="2.96" transform="translate(-3.53 312.54) rotate(-46.73)"/>
    <polygon class="cls-14" points="361.6 160.72 360.39 162.01 356.65 165.99 362.24 171.25 365.98 167.27 367.19 165.99 370.94 162.01 365.34 156.75 361.6 160.72"/>
    <rect class="cls-3" x="358.23" y="144.52" width="1.68" height="8.78"/>
    <rect class="cls-3" x="379.99" y="144.52" width="1.68" height="8.78"/>
  </g>
  <rect class="cls-15" x="38.12" y="61.66" width="16.12" height="5.02"/>
  <g>
    <rect class="cls-25" x="154.91" y="117.61" width="180.92" height="82.55"/>
    <path class="cls-27" d="M335.32,118.11v81.55h-179.91v-81.55h179.91M336.32,117.11h-181.91v83.55h181.91v-83.55h0Z"/>
  </g>
  <g>
    <path class="cls-29" d="M210.99,145.64c-.62-2.13-1.16-4.52-1.63-6.69-.33-2.22-1.06-3.74-3.46-4.03-4.49-.74-8.97.23-13.61-.69-2.98-.74-5.97-.78-9-1.28,3.04-.35,6.19-.7,9.23-.27,4.43.43,9.2-.59,13.76.38,3.06.6,4.34,2.73,4.37,5.69.16,2.22.34,4.66.34,6.88h0Z"/>
    <path class="cls-29" d="M208.38,134.44c3.11.04,6.48.15,9.59.27,1.07,0,2.11.1,3.09-.13,1-.21,1.73-1.05,2.4-1.88,1.28-1.64,2.22-3.5,2.24-5.6.01-1.02-.13-2.08-.21-3.16l.1-.02c1.67,3.62,1.04,6.35-1.88,9-.72.76-1.36,1.74-2.46,2.18-2.12.79-4.32.58-6.51.57-2.16-.15-4.3-.48-6.37-1.12l.02-.1h0Z"/>
    <path class="cls-29" d="M194.11,133.16c-1.12.35-1.02-1.35-1-2.02.08-2.45.55-4.73.42-7.22,1.24,2.22.83,4.94.35,7.31-.05.62-.71,1.77.22,1.93h0Z"/>
    <path class="cls-29" d="M173.16,132.81c-1.19.73-2.31.85-3.63.55-1.95-.21-4.98-.76-6.86-.71-.53.02-1.03.09-1.49.22-.55-.15-1.13-.22-1.85-.16.21-.68.7-1.27,1.28-1.76.67-.2,1.34-.28,1.99-.3,2.23-.04,5,.5,7.18.73,1.35.03,2.41.43,3.38,1.44h0Z"/>
    <path class="cls-29" d="M221.94,135.37c2.89-1.08,6.01-1.25,9.05-.95,3.03.36,6.05,1.2,8.63,2.89-1.55-.07-3.02-.25-4.49-.41-4.13-.51-9.09-.9-13.2-1.53h0Z"/>
    <path class="cls-29" d="M194.24,145.65c-2.14.14-4.38.18-6.49.27-2.17.17-4.34-.25-6.52-.16-2.94.11-5.78,1.11-8.74,1.19-4.45.31-8.87-.45-13.07-1.92,0,0,.03-.2.03-.2,2.97-.27,5.88-.14,8.75-.04,2.57.19,6.07.33,8.62.47,4.46.48,8.68-1.72,13.15-.97,1.48.19,2.96.52,4.32,1.16l-.04.2h0Z"/>
    <path class="cls-29" d="M193.67,158.33c-2.78.88-5.67,1.38-8.6,1.12-2.95-.2-5.72-1.08-8.51-1.38-5.57-.65-11.57.27-17.15-.59,1.43-.23,2.86-.38,4.3-.57l4.31-.07c2.87-.05,5.76-.09,8.66.23,2.92.32,5.68,1.19,8.47,1.38,2.84.13,5.67-.18,8.53-.12h0Z"/>
    <path class="cls-29" d="M159.71,170.52c4.39-.98,8.95-.93,13.39-.47,7.46.16,15.03.67,22.03,3.48,0,0-.03.1-.03.1-5.21-.85-12.43-2.11-17.58-2.86-5.86-.97-12.09.36-17.82-.24h0Z"/>
    <path class="cls-29" d="M193.42,185.44c-1.29.06-3.07.17-4.36.37-1.2-.06-2.99,0-4.21.11-5.76.55-11.36,2.33-17.2,2.83,0,0-2.24.12-2.24.12-2.31.19-4.51-.65-6.49-1.75,1.29-.02,3.07-.11,4.36-.29,7.26.38,14.17-2.23,21.39-2.91,1.3-.11,3.18-.17,4.5-.13,1.49.39,2.92.92,4.25,1.65h0Z"/>
    <path class="cls-29" d="M227.73,187.86c2.24-.14,4.49-.26,6.73-.35,1.95-.1,5.04-.32,6.73.45-2.23.54-4.47.52-6.73.35-2.24-.09-4.49-.21-6.73-.35v-.1h0Z"/>
    <path class="cls-29" d="M228.42,176c2.2-.74,4.35-1.47,6.61-2.05,1.13-.28,2.31-.7,3.55-.55,1.22.13,2.5.55,3.4,1.47l-.07.19c-2.4.27-4.25.43-6.61.47-2.02.22-4.85.54-6.84.67,0,0-.04-.2-.04-.2h0Z"/>
    <path class="cls-29" d="M226.77,159.62c2.6-.3,4.62-.45,7.18-.62,2.44-.31,5.09-.74,7.54-.1l-.03.2c-4.93-.28-10.25,4.37-14.75.71,0,0,.06-.19.06-.19h0Z"/>
    <path class="cls-29" d="M226.73,146.54c3.26.09,6.37.82,9.04,2.76,1.7.91,3.67.56,5.43.7-2.51,1.06-5.35.76-7.35-1.17-1.99-1.49-4.83-1.71-7.12-2.28h0Z"/>
    <path class="cls-17" d="M165.61,187.29c.82-2.2,1.66-4.48,1.5-6.83-.11-1.63-.71-3.19-1-4.8s-.21-3.42.84-4.68"/>
    <path class="cls-29" d="M165.71,146.56c.18-2.6.77-5.05.24-7.58-.45-2.4-1.3-5.93.88-7.87,0,0,.08.06.08.06-1.54,2.31-.44,5.15.02,7.64.45,2.54-.17,5.62-1.23,7.75h0Z"/>
    <polygon class="cls-29" points="248.46 136.4 269.58 138.17 248.41 137.4 248.46 136.4 248.46 136.4"/>
    <path class="cls-29" d="M269.89,137.55c2.36-1.07,3.52-3.52,3.46-6.03,0,0,.17-7.48.17-7.48l1,.06-.67,7.46c-.09,2.53-1.5,5.09-3.96,5.99h0Z"/>
    <path class="cls-29" d="M302.26,123.86c.39,3.04.98,6,1.78,8.9.26,1.59,1.63,2.24,3.01,2.73,1.42.57,2.95.33,4.48.24,4.53-.52,9.15-.01,13.63-.68,1.51-.32,3.21-.28,4.62.35l-.03.1c-1.51-.3-2.98-.14-4.42.31-1.45.46-3.11.62-4.63.61-3.05.04-6.1,0-9.16-.14-2.35,0-4.67-.2-6.8-1.31-.76-.39-1.25-1.23-1.5-1.96-.91-2.86-1.57-6.35-.99-9.15h0Z"/>
    <path class="cls-9" d="M329.91,149.93c-1.37-.42-2.76-.84-4.19-.93-2.8-.18-5.67.89-8.38.14"/>
    <path class="cls-29" d="M318.42,160.21c.02.25.41.18.64.18,4.29.07,9.5-.05,11.59-4.55,0,0,.09.04.09.04-1.62,4.72-7.84,6.6-12.22,4.77-.16-.09-.35-.34-.18-.5,0,0,.08.06.08.06h0Z"/>
    <path class="cls-29" d="M317.19,171.4c1.19.44,2.38.86,3.57,1.35,1.25.47,2.2,1.43,3.28,1.92,2.37,1.29,4.25.6,4.86-2.08.66-2.4.92-4.84,1.02-7.2.04-1.74-.13-3.61-.77-5.23-.23-.53-.56-1-1.12-1.25l.03-.2c1.48-.03,2.4,1.54,2.92,2.7,1.73,3.72.84,8.07-.55,11.66-1.03,3.34-3.95,4.42-6.88,2.47-1.17-.7-1.96-1.69-3.06-2.24l-3.38-1.72.08-.18h0Z"/>
    <path class="cls-29" d="M270.54,171.67c-3.06-.49-7.4-1.73-10.43-1.74-1.73.05-3.36.76-5.16,1.1-1.81.35-3.65.22-5.41.1l.09-1c1.76.2,3.49.4,5.19.16,1.7-.24,3.42-.89,5.27-.86,3.15.16,7.34,1.59,10.43,2.24h0Z"/>
    <path class="cls-9" d="M249.31,154.16c4.89.66,9.84.84,14.76.56"/>
    <path class="cls-9" d="M274.15,185.21c-3.61,1.9-13.63.28-18.99-.9-.79-.17-1.6-.36-2.25-.83-.74-.54-1.19-1.39-1.75-2.12s-1.37-1.4-2.29-1.32"/>
    <path class="cls-9" d="M250.39,188.17c-.17-1.17-.2-2.66.85-3.21.53-.28,1.16-.2,1.75-.12,5.43.74,10.86,1.49,16.28,2.23.56.08,1.15.16,1.62.47.41.26.7.67.97,1.07,1.74,2.56,3.07,5.39,3.95,8.36.2.69.25,1.39.36,2.1"/>
    <path class="cls-9" d="M307.13,199.69c-.09-1.71-1.01-3.25-1.9-4.72-1.34-2.21-2.69-4.42-4.03-6.63-.46-.76-1.29-2.88-1.93-3.48"/>
    <path class="cls-29" d="M271.99,189.29c-1.12-.68-1.39-2.52-.04-3.18,1.05-.64,1.98-.35,2.89.38,0,0,.02.2.02.2-.4.5-.82.74-1.2.93-.42.21-.83.3-1.15.19,0-.02,0-.03.02-.07.11-.26-.2.16-.25.29-.15.3-.23.7-.14,1.14l-.16.12h0Z"/>
    <path class="cls-29" d="M305.16,185.79c8.22-.33,16.96,4.28,24.77.18,0,0,.46.89.46.89-8.17,3.96-16.84-1.03-25.23-1.06h0Z"/>
    <path class="cls-9" d="M326.04,175.9c1.6,1.17,3.43,3.28,3.92,5.2"/>
  </g>
  <g>
    <rect class="cls-31" x="195.31" y="145.88" width="32.44" height="53.28"/>
    <path class="cls-26" d="M226.25,147.38v50.28h-29.44v-50.28h29.44M229.25,144.38h-35.44v56.28h35.44v-56.28h0Z"/>
  </g>
  <g>
    <g>
      <rect class="cls-1" x="277.43" y="136.79" width="26.48" height="33.8"/>
      <path class="cls-26" d="M302.41,138.29v30.8h-23.48v-30.8h23.48M305.41,135.29h-29.48v36.8h29.48v-36.8h0Z"/>
    </g>
    <g>
      <path class="cls-1" d="M278.56,138.17v30.99h24.22v-30.99h-24.22ZM279.65,139.46h22.05v28.42h-22.05v-28.42Z"/>
      <path class="cls-20" d="M302.78,138.17h-24.22v30.99h24.22v-30.99h0ZM279.65,167.88v-28.42h22.05v28.42h-22.05Z"/>
    </g>
    <g class="cls-22">
      <polygon class="cls-30" points="278.56 166.18 278.56 163.78 295.79 138.16 297.02 138.18 278.56 166.18"/>
    </g>
    <g class="cls-22">
      <polygon class="cls-30" points="281.94 169.17 278.56 169.17 299.74 138.17 302.78 138.17 281.94 169.17"/>
    </g>
    <g class="cls-22">
      <polygon class="cls-30" points="285.46 169.19 283.66 169.19 302.93 140.41 302.78 142.67 285.46 169.19"/>
    </g>
    <g>
      <rect class="cls-31" x="261.07" y="136.29" width="13.86" height="34.8"/>
      <path class="cls-26" d="M273.93,137.29v32.8h-11.86v-32.8h11.86M275.93,135.29h-15.86v36.8h15.86v-36.8h0Z"/>
    </g>
    <g>
      <rect class="cls-31" x="306.41" y="136.27" width="13.86" height="34.8"/>
      <path class="cls-26" d="M319.27,137.27v32.8h-11.86v-32.8h11.86M321.27,135.27h-15.86v36.8h15.86v-36.8h0Z"/>
    </g>
    <g>
      <rect class="cls-31" x="289.54" y="154.28" width="2.26" height="17.96"/>
      <polygon class="cls-26" points="293.3 152.78 288.04 152.78 288.04 173.74 293.3 173.74 293.3 152.78 293.3 152.78"/>
    </g>
    <g>
      <rect class="cls-31" x="278.96" y="151.42" width="24.95" height="2.74"/>
      <polygon class="cls-26" points="305.41 149.92 277.46 149.92 277.46 155.66 305.41 155.66 305.41 149.92 305.41 149.92"/>
    </g>
    <g>
      <rect class="cls-31" x="261.52" y="151.7" width="12.87" height="2.46"/>
      <polygon class="cls-26" points="274.38 151.7 261.52 151.7 261.52 154.16 274.38 154.16 274.38 151.7 274.38 151.7"/>
    </g>
    <g>
      <rect class="cls-21" x="274.8" y="172.06" width="31.74" height="15.75"/>
      <path class="cls-27" d="M305.54,173.06v13.75h-29.74v-13.75h29.74M307.54,171.06h-33.74v17.75h33.74v-17.75h0Z"/>
    </g>
    <g>
      <rect class="cls-25" x="274.8" y="172.06" width="31.74" height="6.45"/>
      <path class="cls-27" d="M305.54,173.06v4.45h-29.74v-4.45h29.74M307.54,171.06h-33.74v8.45h33.74v-8.45h0Z"/>
    </g>
    <g>
      <rect class="cls-31" x="306.88" y="151.7" width="12.43" height="2.16"/>
      <polygon class="cls-26" points="319.31 151.7 306.88 151.7 306.88 153.86 319.31 153.86 319.31 151.7 319.31 151.7"/>
    </g>
  </g>
  <g>
    <rect class="cls-31" x="331.2" y="113.37" width="8.99" height="85.79"/>
    <path class="cls-26" d="M338.69,114.87v82.79h-5.99v-82.79h5.99M341.69,111.87h-11.99v88.79h11.99v-88.79h0Z"/>
  </g>
  <g>
    <rect class="cls-31" x="149.94" y="113.37" width="8.99" height="85.79"/>
    <path class="cls-26" d="M157.43,114.87v82.79h-5.99v-82.79h5.99M160.43,111.87h-11.99v88.79h11.99v-88.79h0Z"/>
  </g>
  <g>
    <rect class="cls-31" x="173.87" y="113.85" width="8.99" height="85.31"/>
    <path class="cls-26" d="M181.36,115.35v82.32h-5.99v-82.32h5.99M184.36,112.35h-11.99v88.32h11.99v-88.32h0Z"/>
  </g>
  <g>
    <rect class="cls-31" x="240.4" y="113.65" width="8.99" height="85.32"/>
    <path class="cls-26" d="M247.89,115.15v82.32h-5.99v-82.32h5.99M250.89,112.15h-11.99v88.32h11.99v-88.32h0Z"/>
  </g>
  <g>
    <rect class="cls-31" x="150.9" y="113.37" width="189.29" height="8.99"/>
    <path class="cls-26" d="M338.69,114.87v5.99h-186.29v-5.99h186.29M341.69,111.87h-192.29v11.99h192.29v-11.99h0Z"/>
  </g>
  <g>
    <polygon class="cls-31" points="246.36 56.64 246.36 50.16 356.91 127.41 356.91 133.88 246.36 56.64"/>
    <path class="cls-26" d="M247.36,52.08l108.54,75.85v4.04l-108.54-75.85v-4.04M245.36,48.24v8.92l112.54,78.65v-8.92l-112.54-78.65h0Z"/>
  </g>
  <g>
    <polygon class="cls-31" points="246.36 17.26 246.36 10.78 356.91 88.03 356.91 94.51 246.36 17.26"/>
    <path class="cls-26" d="M247.36,12.7l108.54,75.85v4.04L247.36,16.74v-4.04M245.36,8.86v8.92l112.54,78.65v-8.92L245.36,8.86h0Z"/>
  </g>
  <g>
    <polygon class="cls-20" points="245.86 41.12 245.86 14.77 349.23 87.01 348.87 87.01 348.87 113.11 245.86 41.12"/>
    <path class="cls-24" d="M246.36,15.73l102.01,71.29v25.13l-102.01-71.29V15.73M245.36,13.81v27.57l104.01,72.68v-26.56h1.45L245.36,13.81h0Z"/>
  </g>
  <g>
    <rect class="cls-31" x="350.37" y="88.51" width="6.53" height="28.74"/>
    <path class="cls-26" d="M355.91,89.51v26.74h-4.53v-26.74h4.53M357.91,87.51h-8.53v30.74h8.53v-30.74h0Z"/>
  </g>
  <g>
    <polygon class="cls-31" points="246.36 8.4 246.36 1.92 356.91 79.17 356.91 85.64 246.36 8.4"/>
    <path class="cls-26" d="M247.36,3.84l108.54,75.85v4.04L247.36,7.87V3.84M245.36,0v8.92l112.54,78.65v-8.92L245.36,0h0Z"/>
  </g>
  <g>
    <polygon class="cls-31" points="133.88 127.41 244.43 50.16 244.43 56.64 133.88 133.88 133.88 127.41"/>
    <path class="cls-26" d="M243.43,52.08v4.04l-108.54,75.85v-4.04l108.54-75.85M245.43,48.24l-112.54,78.65v8.92l112.54-78.65v-8.92h0Z"/>
  </g>
  <g>
    <polygon class="cls-31" points="133.88 88.03 244.43 10.78 244.43 17.26 133.88 94.51 133.88 88.03"/>
    <path class="cls-26" d="M243.43,12.7v4.04l-108.54,75.85v-4.04L243.43,12.7M245.43,8.86l-112.54,78.65v8.92L245.43,17.78v-8.92h0Z"/>
  </g>
  <g>
    <rect class="cls-31" x="133.88" y="88.51" width="6.53" height="28.74"/>
    <path class="cls-26" d="M139.42,89.51v26.74h-4.53v-26.74h4.53M141.42,87.51h-8.53v30.74h8.53v-30.74h0Z"/>
  </g>
  <g>
    <polygon class="cls-20" points="141.79 87.13 141.16 87.13 245.05 14.53 245.05 41.19 141.79 113.35 141.79 87.13"/>
    <path class="cls-24" d="M244.68,15.25v25.74l-102.51,71.64v-25.74L244.68,15.25M245.43,13.81l-105.46,73.69h1.45v26.56l104.01-72.68V13.81h0Z"/>
  </g>
  <g>
    <g>
      <path class="cls-24" d="M230.51,25.35c.48.85-.07,1.68-.13,2.51,0,.84.02,1.71,0,2.56l-.38-.23c.86-.51,1.6-1.3,2.4-2.02,1.66-1.43,6.08-4.21,7.92-5.51.16.05-5.16,3.82-5.13,3.85-2.13,1.29-3.29,3.21-5.32,4.34,0,0,.01-.45.01-.45.01-.74.09-1.82.13-2.57.05-.48.28-.84.43-1.25.15-.38.14-.8.04-1.22h.05Z"/>
      <path class="cls-24" d="M231.31,34.51c0,.77-.63,1.41-.83,2.13,0,0-.23.73-.23.73-.18.79-.04,2.17-.1,3.02,0,0-.38-.23-.38-.23.91-.51,1.67-1.36,2.51-2.1,1.76-1.47,6.35-4.35,8.28-5.7,0,0,.03.04.03.04-1.87,1.41-6.34,4.47-8.03,5.96-.8.76-1.5,1.65-2.54,2.26l-.4.24c.01-.3.06-1.68.07-2.01.01-.82.07-1.49.47-2.3.3-.73.91-1.36,1.15-2.04h0Z"/>
      <path class="cls-24" d="M231.56,44.07c0,.77-.63,1.41-.83,2.13,0,0-.23.73-.23.73-.18.79-.04,2.17-.1,3.02,0,0-.38-.23-.38-.23.91-.51,1.67-1.36,2.51-2.1,1.76-1.47,6.35-4.35,8.28-5.7,0,0,.03.04.03.04-1.87,1.41-6.34,4.47-8.03,5.96-.8.76-1.5,1.65-2.54,2.26l-.4.24c.01-.3.06-1.68.07-2.01.01-.82.07-1.49.47-2.3.3-.73.91-1.36,1.15-2.04h0Z"/>
      <path class="cls-24" d="M231.68,29.46c.48.82-.05,1.7-.13,2.51,0,.83.02,1.71,0,2.56l-.38-.23c1.55-.98,2.84-2.6,4.47-3.55-.01.05,4.88-3.3,4.84-3.12,0,0-4.66,3.37-4.66,3.37-1.81,1.12-2.9,2.94-4.79,3.97.02-1.02.07-2.01.14-3.03.04-.48.28-.84.43-1.25.15-.38.15-.8.04-1.22h.05Z"/>
      <path class="cls-24" d="M231.92,38.79c.48.82-.05,1.7-.13,2.51,0,.83.02,1.71,0,2.56l-.38-.23c1.55-.98,2.84-2.6,4.47-3.55-.01.05,4.88-3.3,4.84-3.12,0,0-4.66,3.37-4.66,3.37-1.81,1.12-2.9,2.94-4.79,3.97.02-1.02.07-2.01.14-3.03.04-.48.28-.84.43-1.25.15-.38.15-.8.04-1.22h.05Z"/>
    </g>
    <g>
      <path class="cls-24" d="M220.57,32.22c.48.85-.07,1.68-.13,2.51,0,.84.02,1.71,0,2.56l-.38-.23c.86-.51,1.6-1.3,2.4-2.02,1.66-1.43,6.08-4.21,7.91-5.51,0,0,.03.04.03.04-1.78,1.38-6.05,4.31-7.65,5.78-.84.84-1.68,1.82-2.84,2.37,0,0,.01-.45.01-.45.01-.74.09-1.82.13-2.57.05-.48.28-.84.43-1.25.15-.38.14-.8.04-1.22h.05Z"/>
      <path class="cls-24" d="M221.37,41.38c0,.77-.63,1.42-.82,2.13,0,0-.23.73-.23.73-.17.79-.04,2.17-.1,3.02,0,0-.38-.23-.38-.23,1.31-.74,2.33-2.15,3.65-2.98,2.15-1.52,4.71-2.7,6.9-3.96-2.16,1.53-4.6,2.62-6.69,4.24-1.36.92-2.17,2.28-3.61,3.15,0,0-.4.23-.4.23v-.47c.09-.96-.03-2.18.24-3.12.17-.43.41-1.07.68-1.43.25-.44.65-.84.72-1.31h.05Z"/>
      <path class="cls-24" d="M221.62,50.94c0,.77-.63,1.42-.82,2.13,0,0-.23.73-.23.73-.18.93-.02,2.04-.11,3.02,0,0-.38-.23-.38-.23,1.26-.7,2.23-2.04,3.48-2.85,2.03-1.49,4.51-2.58,6.6-3.77-2.07,1.47-4.42,2.46-6.39,4.05-1.38.98-2.25,2.45-3.83,3.25.05-1.21-.06-2.37.23-3.57.17-.43.41-1.08.68-1.43.25-.44.66-.84.72-1.31h.05Z"/>
      <path class="cls-24" d="M221.74,36.33c.48.82-.06,1.7-.13,2.51,0,.84.02,1.71,0,2.56l-.38-.23c1.25-.72,2.23-2.04,3.47-2.86,2.03-1.49,4.51-2.58,6.6-3.77-2.06,1.47-4.41,2.46-6.38,4.05-1.28.89-2.05,2.21-3.45,3.02,0,0-.39.22-.39.22v-.45c.09-1.26-.05-2.68.57-3.82.15-.38.14-.8.04-1.22h.05Z"/>
      <path class="cls-24" d="M221.98,45.66c.48.82-.06,1.7-.13,2.51,0,.84.02,1.71,0,2.56l-.38-.23c1.25-.72,2.23-2.04,3.47-2.86,2.03-1.49,4.51-2.58,6.6-3.77-2.06,1.47-4.41,2.46-6.38,4.05-1.28.89-2.05,2.21-3.45,3.02,0,0-.39.22-.39.22v-.45c.09-1.26-.05-2.68.57-3.82.15-.38.14-.8.04-1.22h.05Z"/>
    </g>
    <g>
      <path class="cls-24" d="M210.49,39.2c.48.85-.07,1.68-.13,2.51,0,.84.02,1.71,0,2.56l-.38-.23c.86-.51,1.6-1.3,2.4-2.02,1.66-1.43,6.08-4.21,7.92-5.51,0,0,.03.04.03.04l-5.16,3.81c-2.13,1.29-3.29,3.21-5.32,4.34,0,0,.01-.45.01-.45.01-.74.09-1.82.13-2.57.05-.48.28-.84.43-1.25.15-.38.14-.8.04-1.22h.05Z"/>
      <path class="cls-24" d="M211.29,48.36c0,.77-.63,1.42-.82,2.13,0,0-.23.73-.23.73-.17.79-.04,2.17-.1,3.02,0,0-.38-.23-.38-.23,1.31-.74,2.33-2.15,3.65-2.98,2.15-1.52,4.71-2.7,6.9-3.96-2.16,1.53-4.6,2.62-6.69,4.24-1.36.92-2.17,2.28-3.61,3.15,0,0-.4.23-.4.23v-.47c.09-.96-.03-2.18.24-3.12.17-.43.41-1.07.68-1.43.25-.44.65-.84.72-1.31h.05Z"/>
      <path class="cls-24" d="M211.53,57.93c0,.77-.63,1.42-.82,2.13,0,0-.23.73-.23.73-.18.93-.02,2.04-.11,3.02,0,0-.38-.23-.38-.23,1.26-.7,2.23-2.04,3.48-2.85,2.03-1.49,4.51-2.58,6.6-3.77-2.07,1.47-4.42,2.46-6.39,4.05-1.38.98-2.25,2.45-3.83,3.25.05-1.21-.06-2.37.23-3.57.17-.43.41-1.08.68-1.43.25-.44.66-.84.72-1.31h.05Z"/>
      <path class="cls-24" d="M211.65,43.31c.48.82-.06,1.7-.13,2.51,0,.84.02,1.71,0,2.56l-.38-.23c1.25-.72,2.23-2.04,3.47-2.86,2.03-1.49,4.51-2.58,6.6-3.77-2.06,1.47-4.41,2.46-6.38,4.05-1.28.89-2.05,2.21-3.45,3.02,0,0-.39.22-.39.22v-.45c.09-1.26-.05-2.68.57-3.82.15-.38.14-.8.04-1.22h.05Z"/>
      <path class="cls-24" d="M211.89,52.65c.48.82-.06,1.7-.13,2.51,0,.84.02,1.71,0,2.56l-.38-.23c1.25-.72,2.23-2.04,3.47-2.86,2.03-1.49,4.51-2.58,6.6-3.77-2.06,1.47-4.41,2.46-6.38,4.05-1.28.89-2.05,2.21-3.45,3.02,0,0-.39.22-.39.22v-.45c.09-1.26-.05-2.68.57-3.82.15-.38.14-.8.04-1.22h.05Z"/>
    </g>
    <g>
      <path class="cls-24" d="M200.55,46.07c.48.85-.07,1.68-.13,2.51,0,.84.02,1.71,0,2.56l-.38-.23c.86-.51,1.6-1.3,2.4-2.02,1.66-1.43,6.08-4.21,7.92-5.51,0,0,.03.04.03.04-1.78,1.38-6.05,4.31-7.65,5.78-.84.84-1.68,1.82-2.84,2.37,0,0,.01-.45.01-.45.01-.74.09-1.82.13-2.57.05-.48.28-.84.43-1.25.15-.38.14-.8.04-1.22h.05Z"/>
      <path class="cls-24" d="M201.35,55.23c0,.77-.63,1.42-.82,2.13,0,0-.23.73-.23.73-.17.79-.04,2.17-.1,3.02,0,0-.38-.23-.38-.23,1.31-.74,2.33-2.15,3.65-2.98,2.15-1.52,4.71-2.7,6.9-3.96-2.16,1.53-4.6,2.62-6.69,4.24-1.36.92-2.17,2.28-3.61,3.15,0,0-.4.23-.4.23v-.47c.09-.96-.03-2.18.24-3.12.17-.43.41-1.08.68-1.43.25-.44.65-.84.72-1.31h.05Z"/>
      <path class="cls-24" d="M201.59,64.8c0,.77-.63,1.42-.82,2.13,0,0-.23.73-.23.73-.18.93-.02,2.04-.11,3.02,0,0-.38-.23-.38-.23,1.26-.7,2.23-2.04,3.48-2.85,2.03-1.49,4.51-2.58,6.6-3.77-2.07,1.47-4.42,2.46-6.39,4.05-1.38.98-2.25,2.45-3.83,3.25.05-1.21-.06-2.37.23-3.57.17-.43.41-1.08.68-1.43.25-.44.66-.84.72-1.31h.05Z"/>
      <path class="cls-24" d="M201.71,50.18c.48.82-.06,1.7-.13,2.51,0,.84.02,1.71,0,2.56l-.38-.23c1.25-.72,2.23-2.04,3.47-2.86,2.03-1.49,4.51-2.58,6.6-3.77-2.06,1.47-4.41,2.46-6.38,4.05-1.28.89-2.05,2.21-3.45,3.02,0,0-.39.22-.39.22v-.45c.09-1.26-.05-2.68.57-3.82.15-.38.14-.8.04-1.22h.05Z"/>
      <path class="cls-24" d="M201.95,59.52c.48.82-.06,1.7-.13,2.51,0,.84.02,1.71,0,2.56l-.38-.23c1.25-.72,2.23-2.04,3.47-2.86,2.03-1.49,4.51-2.58,6.6-3.77-2.06,1.47-4.41,2.46-6.38,4.05-1.28.89-2.05,2.21-3.45,3.02,0,0-.39.22-.39.22v-.45c.09-1.26-.05-2.68.57-3.82.15-.38.14-.8.04-1.22h.05Z"/>
    </g>
    <g>
      <path class="cls-24" d="M190.42,53.09c.48.85-.07,1.68-.13,2.51,0,.84.02,1.71,0,2.56l-.38-.23c.86-.51,1.6-1.3,2.4-2.02,1.66-1.43,6.08-4.21,7.91-5.51,0,0,.03.04.03.04-.99.74-5.56,4.08-6.44,4.76-1.47,1-2.37,2.57-4.05,3.39.01-.57.03-1.16.07-1.73,0,0,.07-1.29.07-1.29.05-.48.28-.84.43-1.25.15-.38.14-.8.04-1.22h.05Z"/>
      <path class="cls-24" d="M191.22,62.24c0,.77-.63,1.42-.82,2.13,0,0-.23.73-.23.73-.17.79-.04,2.17-.1,3.02,0,0-.38-.23-.38-.23,1.31-.74,2.33-2.15,3.65-2.98,2.15-1.52,4.71-2.7,6.9-3.96-2.16,1.53-4.6,2.62-6.69,4.24-1.36.92-2.17,2.28-3.61,3.15,0,0-.4.23-.4.23v-.47c.09-.96-.03-2.18.24-3.12.17-.43.41-1.08.68-1.43.25-.44.65-.84.72-1.31h.05Z"/>
      <path class="cls-24" d="M191.47,71.81c0,.77-.63,1.42-.82,2.13,0,0-.23.73-.23.73-.18.93-.02,2.04-.11,3.02,0,0-.38-.23-.38-.23,1.26-.7,2.23-2.04,3.48-2.85,2.03-1.49,4.51-2.58,6.6-3.77-2.07,1.47-4.42,2.46-6.39,4.05-1.38.98-2.25,2.45-3.83,3.25.05-1.21-.06-2.37.23-3.57.17-.43.41-1.08.68-1.43.25-.44.66-.84.72-1.31h.05Z"/>
      <path class="cls-24" d="M191.59,57.19c.48.82-.06,1.7-.13,2.51,0,.84.02,1.71,0,2.56l-.38-.23c1.25-.72,2.23-2.04,3.47-2.86,2.03-1.49,4.51-2.58,6.6-3.77-2.06,1.47-4.41,2.46-6.38,4.05-1.28.89-2.05,2.21-3.45,3.02,0,0-.39.22-.39.22v-.45c.09-1.26-.05-2.68.57-3.82.15-.38.14-.8.04-1.22h.05Z"/>
      <path class="cls-24" d="M191.83,66.53c.48.82-.06,1.7-.13,2.51,0,.84.02,1.71,0,2.56l-.38-.23c1.25-.72,2.23-2.04,3.47-2.86,2.03-1.49,4.51-2.58,6.6-3.77-2.06,1.47-4.41,2.46-6.38,4.05-1.28.89-2.05,2.21-3.45,3.02,0,0-.39.22-.39.22v-.45c.09-1.26-.05-2.68.57-3.82.15-.38.14-.8.04-1.22h.05Z"/>
    </g>
    <g>
      <path class="cls-24" d="M180.28,60.11c.48.85-.07,1.68-.13,2.51,0,.84.02,1.71,0,2.56l-.38-.23c.86-.51,1.6-1.3,2.4-2.02,1.66-1.43,6.08-4.21,7.91-5.51.16.05-5.16,3.82-5.13,3.85-2.13,1.29-3.29,3.21-5.32,4.34,0,0,.01-.45.01-.45.01-.74.09-1.82.13-2.57.05-.48.28-.84.43-1.25.15-.38.14-.8.04-1.22h.05Z"/>
      <path class="cls-24" d="M181.07,69.27c0,.77-.63,1.42-.82,2.13,0,0-.23.73-.23.73-.17.79-.04,2.17-.1,3.02,0,0-.38-.23-.38-.23,1.31-.74,2.33-2.15,3.65-2.98,2.15-1.52,4.71-2.7,6.9-3.96-2.16,1.53-4.6,2.62-6.69,4.24-1.36.92-2.17,2.28-3.61,3.15,0,0-.4.23-.4.23v-.47c.09-.96-.03-2.18.24-3.12.17-.43.41-1.08.68-1.43.25-.44.65-.84.72-1.31h.05Z"/>
      <path class="cls-24" d="M181.32,78.83c0,.77-.63,1.42-.82,2.13,0,0-.23.73-.23.73-.18.93-.02,2.04-.11,3.02,0,0-.38-.23-.38-.23,1.26-.7,2.23-2.04,3.48-2.85,2.03-1.49,4.51-2.58,6.6-3.77-2.07,1.47-4.42,2.46-6.39,4.05-1.38.98-2.25,2.45-3.83,3.25.05-1.21-.06-2.37.23-3.57.17-.43.41-1.08.68-1.43.25-.44.66-.84.72-1.31h.05Z"/>
      <path class="cls-24" d="M181.44,64.22c.48.82-.06,1.7-.13,2.51,0,.84.02,1.71,0,2.56l-.38-.23c1.25-.72,2.23-2.04,3.47-2.86,2.03-1.49,4.51-2.58,6.6-3.77-2.06,1.47-4.41,2.46-6.38,4.05-1.28.89-2.05,2.21-3.45,3.02,0,0-.39.22-.39.22v-.45c.09-1.26-.05-2.68.57-3.82.15-.38.14-.8.04-1.22h.05Z"/>
      <path class="cls-24" d="M181.68,73.55c.48.82-.06,1.7-.13,2.51,0,.84.02,1.71,0,2.56l-.38-.23c1.25-.72,2.23-2.04,3.47-2.86,2.03-1.49,4.51-2.58,6.6-3.77-2.06,1.47-4.41,2.46-6.38,4.05-1.28.89-2.05,2.21-3.45,3.02,0,0-.39.22-.39.22v-.45c.09-1.26-.05-2.68.57-3.82.15-.38.14-.8.04-1.22h.05Z"/>
    </g>
    <g>
      <path class="cls-24" d="M170.34,66.99c.48.85-.07,1.68-.13,2.51,0,.84.02,1.71,0,2.56l-.38-.23c.86-.51,1.6-1.3,2.4-2.02,1.66-1.43,6.08-4.21,7.91-5.51.16.05-5.16,3.82-5.13,3.85-2.13,1.29-3.29,3.21-5.32,4.34,0,0,.01-.45.01-.45.01-.74.09-1.82.13-2.57.05-.48.28-.84.43-1.25.15-.38.14-.8.04-1.22h.05Z"/>
      <path class="cls-24" d="M171.14,76.15c0,.77-.63,1.42-.82,2.13,0,0-.23.73-.23.73-.17.79-.04,2.17-.1,3.02,0,0-.38-.23-.38-.23,1.31-.74,2.33-2.15,3.65-2.98,2.15-1.52,4.71-2.7,6.9-3.96-2.16,1.53-4.6,2.62-6.69,4.24-1.36.92-2.17,2.28-3.61,3.15,0,0-.4.23-.4.23v-.47c.09-.96-.03-2.18.24-3.12.17-.43.41-1.08.68-1.43.25-.44.65-.84.72-1.31h.05Z"/>
      <path class="cls-24" d="M171.38,85.71c0,.77-.63,1.42-.82,2.13,0,0-.23.73-.23.73-.18.93-.02,2.04-.11,3.02,0,0-.38-.23-.38-.23,1.26-.7,2.23-2.04,3.48-2.85,2.03-1.49,4.51-2.58,6.6-3.77-2.07,1.47-4.42,2.46-6.39,4.05-1.38.98-2.25,2.45-3.83,3.25.05-1.21-.06-2.37.23-3.57.17-.43.41-1.08.68-1.43.25-.44.66-.84.72-1.31h.05Z"/>
      <path class="cls-24" d="M171.5,71.1c.48.82-.06,1.7-.13,2.51,0,.84.02,1.71,0,2.56l-.38-.23c1.25-.72,2.23-2.04,3.47-2.86,2.03-1.49,4.51-2.58,6.6-3.77-2.06,1.47-4.41,2.46-6.38,4.05-1.28.89-2.05,2.21-3.45,3.02,0,0-.39.22-.39.22v-.45c.09-1.26-.05-2.68.57-3.82.15-.38.14-.8.04-1.22h.05Z"/>
      <path class="cls-24" d="M171.74,80.43c.48.82-.06,1.7-.13,2.51,0,.84.02,1.71,0,2.56l-.38-.23c1.25-.72,2.23-2.04,3.47-2.86,2.03-1.49,4.51-2.58,6.6-3.77-2.06,1.47-4.41,2.46-6.38,4.05-1.28.89-2.05,2.21-3.45,3.02,0,0-.39.22-.39.22v-.45c.09-1.26-.05-2.68.57-3.82.15-.38.14-.8.04-1.22h.05Z"/>
    </g>
    <g>
      <path class="cls-24" d="M160.65,73.68c.48.85-.07,1.68-.13,2.51,0,.84.02,1.71,0,2.56l-.38-.23c.86-.51,1.6-1.3,2.4-2.02,1.66-1.43,6.08-4.21,7.91-5.51,0,0,.03.04.03.04-1.78,1.38-6.05,4.31-7.65,5.78-.84.84-1.68,1.82-2.84,2.37,0,0,.01-.45.01-.45.01-.74.09-1.82.13-2.57.05-.48.28-.84.43-1.25.15-.38.14-.8.04-1.22h.05Z"/>
      <path class="cls-24" d="M161.45,82.84c0,.77-.63,1.42-.82,2.13,0,0-.23.73-.23.73-.17.79-.04,2.17-.1,3.02,0,0-.38-.23-.38-.23,1.31-.74,2.33-2.15,3.65-2.98,2.15-1.52,4.71-2.7,6.9-3.96-2.16,1.53-4.6,2.62-6.69,4.24-1.36.92-2.17,2.28-3.61,3.15,0,0-.4.23-.4.23v-.47c.09-.96-.03-2.18.24-3.12.17-.43.41-1.07.68-1.43.25-.44.65-.84.72-1.31h.05Z"/>
      <path class="cls-24" d="M161.7,92.41c0,.77-.63,1.42-.82,2.13,0,0-.23.73-.23.73-.18.93-.02,2.04-.11,3.02,0,0-.38-.23-.38-.23,1.26-.7,2.23-2.04,3.48-2.85,2.03-1.49,4.51-2.58,6.6-3.77-2.07,1.47-4.42,2.46-6.39,4.05-1.38.98-2.25,2.45-3.83,3.25.05-1.21-.06-2.37.23-3.57.17-.43.41-1.08.68-1.43.25-.44.66-.84.72-1.31h.05Z"/>
      <path class="cls-24" d="M161.82,77.79c.48.82-.06,1.7-.13,2.51,0,.84.02,1.71,0,2.56l-.38-.23c1.25-.72,2.23-2.04,3.47-2.86,2.03-1.49,4.51-2.58,6.6-3.77-2.06,1.47-4.41,2.46-6.38,4.05-1.28.89-2.05,2.21-3.45,3.02,0,0-.39.22-.39.22v-.45c.09-1.26-.05-2.68.57-3.82.15-.38.14-.8.04-1.22h.05Z"/>
      <path class="cls-24" d="M162.06,87.13c.48.82-.06,1.7-.13,2.51,0,.84.02,1.71,0,2.56l-.38-.23c1.25-.72,2.23-2.04,3.47-2.86,2.03-1.49,4.51-2.58,6.6-3.77-2.06,1.47-4.41,2.46-6.38,4.05-1.28.89-2.05,2.21-3.45,3.02,0,0-.39.22-.39.22v-.45c.09-1.26-.05-2.68.57-3.82.15-.38.14-.8.04-1.22h.05Z"/>
    </g>
    <g>
      <path class="cls-20" d="M151.02,80.33c.11.35-9.65,6.16-9.8,6.67-.08.27-.29,2.02-.37,2.28-.07.26-.08.49-.08.71-.02.76-.04,1.52-.05,2.28,1.01-.55,1.96-1.72,2.95-2.56.42-.35.84-.65,1.27-.94,1.65-1.14,4.34-3.09,5.98-4.22"/>
      <path class="cls-24" d="M151.05,80.32c-.45.61-1.09.93-1.67,1.39-1.71,1.2-3.61,2.47-5.36,3.59-.84.56-1.83,1.15-2.57,1.78.01-.07-.03.1-.04.16-.09.48-.22,1.37-.31,1.85-.1.4-.14.64-.14,1.03l-.07,2.15-.26-.16c1.72-1.15,3.14-2.91,4.99-3.96.01.03,5.33-3.75,5.31-3.59-.99.73-5.59,4.04-6.47,4.72-1.44.97-2.36,2.46-3.93,3.3.05-.92-.06-2.68.15-3.56.06-.36.17-1.25.22-1.59.06-.24,0-.36.15-.62,3.05-2.51,6.79-4.22,9.99-6.49h0Z"/>
    </g>
    <g>
      <path class="cls-24" d="M151.85,89.48c0,.77-.63,1.42-.82,2.13,0,0-.23.73-.23.73-.17.79-.04,2.17-.1,3.02,0,0-.38-.23-.38-.23,1.31-.74,2.33-2.15,3.65-2.98,2.15-1.52,4.71-2.7,6.9-3.96-2.16,1.53-4.6,2.62-6.69,4.24-1.36.92-2.17,2.28-3.61,3.15,0,0-.4.23-.4.23v-.47c.09-.96-.03-2.18.24-3.12.17-.43.41-1.07.68-1.43.25-.44.65-.84.72-1.31h.05Z"/>
      <path class="cls-24" d="M152.09,99.04c0,.77-.63,1.42-.82,2.13,0,0-.23.73-.23.73-.18.93-.02,2.04-.11,3.02,0,0-.38-.23-.38-.23,1.26-.7,2.23-2.04,3.48-2.85,2.03-1.49,4.51-2.58,6.6-3.77-2.07,1.47-4.42,2.46-6.39,4.05-1.38.98-2.25,2.45-3.83,3.25.05-1.21-.06-2.37.23-3.57.17-.43.41-1.08.68-1.43.25-.44.66-.84.72-1.31h.05Z"/>
      <path class="cls-24" d="M152.21,84.43c.48.82-.06,1.7-.13,2.51,0,.84.02,1.71,0,2.56l-.38-.23c1.25-.72,2.23-2.04,3.47-2.86,2.03-1.49,4.51-2.58,6.6-3.77-2.06,1.47-4.41,2.46-6.38,4.05-1.28.89-2.05,2.21-3.45,3.02,0,0-.39.22-.39.22v-.45c.09-1.26-.05-2.68.57-3.82.15-.38.14-.8.04-1.22h.05Z"/>
      <path class="cls-24" d="M152.46,93.76c.48.82-.06,1.7-.13,2.51,0,.84.02,1.71,0,2.56l-.38-.23c1.25-.72,2.23-2.04,3.47-2.86,2.03-1.49,4.51-2.58,6.6-3.77-2.06,1.47-4.41,2.46-6.38,4.05-1.28.89-2.05,2.21-3.45,3.02,0,0-.39.22-.39.22v-.45c.09-1.26-.05-2.68.57-3.82.15-.38.14-.8.04-1.22h.05Z"/>
      <path class="cls-24" d="M151.05,80.32c.48.85-.07,1.68-.13,2.51,0,.84.02,1.71,0,2.56l-.38-.23c.86-.51,1.6-1.3,2.4-2.02,1.66-1.43,6.08-4.21,7.91-5.51,0,0,.03.04.03.04-.99.74-5.56,4.08-6.44,4.76-1.47,1-2.37,2.57-4.05,3.39.01-.57.03-1.16.07-1.73,0,0,.07-1.29.07-1.29.05-.48.28-.84.43-1.25.15-.38.14-.8.04-1.22h.05Z"/>
    </g>
    <g>
      <path class="cls-20" d="M141.88,96.38c.11.35-.81,1.55-.96,2.07-.08.27-.22.55-.29.82-.07.26-.08.49-.08.71-.02.76-.04,1.52-.05,2.28,1.01-.55,1.96-1.72,2.95-2.56.42-.35.84-.65,1.27-.94,1.65-1.14,4.54-2.54,6.19-3.68"/>
      <path class="cls-24" d="M141.91,96.37c0,.77-.63,1.42-.82,2.13,0,0-.23.73-.23.73-.17.79-.04,2.17-.1,3.02,0,0-.38-.23-.38-.23,1.31-.74,2.33-2.15,3.65-2.98,2.15-1.52,4.71-2.7,6.9-3.96-2.16,1.53-4.6,2.62-6.69,4.24-1.36.92-2.17,2.28-3.61,3.15,0,0-.4.23-.4.23v-.47c.09-.96-.03-2.18.24-3.12.17-.43.41-1.07.68-1.43.25-.44.65-.84.72-1.31h.05Z"/>
    </g>
    <g>
      <path class="cls-20" d="M141.5,106.38c.11.35-.18,1.12-.32,1.63-.08.27-.22.55-.29.82-.07.26-.08.49-.08.71-.02.76-.04,1.52-.05,2.28,1.01-.55,1.96-1.72,2.95-2.56.42-.35.84-.65,1.27-.94,1.65-1.14,4.07-2.23,5.72-3.37"/>
      <path class="cls-24" d="M141.52,106.37c.16.92-.33,1.84-.49,2.71-.04.75,0,1.96-.03,2.75,0,0-.38-.23-.38-.23,1.25-.71,2.23-2.04,3.48-2.85,2.03-1.49,4.51-2.58,6.6-3.77-2.06,1.47-4.42,2.46-6.38,4.05-1.38.99-2.26,2.47-3.85,3.26.05-1.03.04-2.24.17-3.27.28-.9.76-1.79.88-2.65h0Z"/>
    </g>
    <path class="cls-24" d="M142.28,91.32c.48.82-.06,1.7-.13,2.51,0,.84.02,1.71,0,2.56l-.38-.23c1.25-.72,2.23-2.04,3.47-2.86,2.03-1.49,4.51-2.58,6.6-3.77-2.06,1.47-4.41,2.46-6.38,4.05-1.28.89-2.05,2.21-3.45,3.02,0,0-.39.22-.39.22v-.45c.09-1.26-.05-2.68.57-3.82.15-.38.14-.8.04-1.22h.05Z"/>
    <path class="cls-24" d="M141.43,101.59c.19.37.12.86.05,1.22.03.81-.01,1.62-.01,2.43-.01.41-.01.81-.04,1.22l-.37-.23c1.77-1.16,3.36-2.97,5.17-4.14,1.88-1.18,4.01-2.21,5.85-3.23-2.28,1.6-4.86,2.69-6.97,4.51-1.38,1.21-2.53,2.64-4.21,3.54.07-1.38.21-2.76.34-4.13.14-.42.26-.77.14-1.18h.05Z"/>
  </g>
  <g>
    <g>
      <path class="cls-24" d="M259.73,25.35c-.32.93.33,1.58.47,2.46.05.93.13,2.1.14,3.02,0,0-.39-.22-.39-.22-1.85-1.24-3.04-2.97-4.94-4.12.03-.03-5.3-3.8-5.13-3.85,1.86,1.32,6.24,4.06,7.92,5.51.8.72,1.54,1.51,2.4,2.02l-.38.23c-.02-.85,0-1.72,0-2.56-.07-.83-.61-1.66-.13-2.51,0,0,.05.01.05.01h0Z"/>
      <path class="cls-24" d="M258.93,34.51c.15.74.84,1.29,1.1,2.03.4.8.46,1.48.47,2.3.01.33.06,1.7.07,2.01,0,0-.4-.24-.4-.24-1.04-.61-1.74-1.5-2.54-2.26-1.67-1.47-6.19-4.57-8.03-5.96-.02-.17,5.57,3.71,5.58,3.68,1.9,1.07,3.48,2.88,5.23,4.08,0,0-.38.23-.38.23-.06-.86.08-2.23-.1-3.02-.14-.43-.28-1-.52-1.41-.21-.47-.56-.92-.54-1.46,0,0,.05.01.05.01h0Z"/>
      <path class="cls-24" d="M258.68,44.07c.15.74.84,1.29,1.1,2.03.4.8.46,1.48.47,2.3.01.33.06,1.7.07,2.01l-.4-.24c-1.04-.61-1.74-1.5-2.54-2.26-1.67-1.47-6.19-4.57-8.03-5.96-.02-.17,5.57,3.71,5.58,3.68,1.9,1.07,3.48,2.88,5.23,4.08,0,0-.38.23-.38.23-.06-.86.08-2.23-.1-3.02-.14-.43-.28-1-.52-1.41-.21-.47-.56-.92-.54-1.46,0,0,.05.01.05.01h0Z"/>
      <path class="cls-24" d="M258.56,29.46c-.31.94.34,1.58.47,2.46.07,1.03.12,2.02.14,3.03-1.89-1.03-2.98-2.85-4.79-3.97,0,0-4.66-3.37-4.66-3.37-.04-.18,4.84,3.16,4.84,3.12,1.63.95,2.91,2.56,4.47,3.55,0,0-.38.23-.38.23-.08-1.29.19-2.53-.29-3.76-.11-.26,0-1.25.2-1.29h0Z"/>
      <path class="cls-24" d="M258.32,38.79c-.31.94.34,1.58.47,2.46.07,1.03.12,2.02.14,3.03-1.89-1.03-2.98-2.85-4.79-3.97,0,0-4.66-3.37-4.66-3.37-.04-.18,4.84,3.16,4.84,3.12,1.63.95,2.91,2.56,4.47,3.55,0,0-.38.23-.38.23-.08-1.29.19-2.53-.29-3.76-.11-.26,0-1.25.2-1.29h0Z"/>
    </g>
    <g>
      <path class="cls-24" d="M269.66,32.22c-.32.93.33,1.58.47,2.46.05.93.13,2.1.14,3.02,0,0-.39-.22-.39-.22-1.85-1.24-3.04-2.97-4.94-4.12.03-.03-5.3-3.8-5.13-3.85,1.03.71,5.72,3.84,6.63,4.51,1.33.84,2.38,2.23,3.68,3.01,0,0-.38.23-.38.23-.02-.85,0-1.72,0-2.56-.07-.83-.61-1.66-.13-2.51,0,0,.05.01.05.01h0Z"/>
      <path class="cls-24" d="M268.87,41.38c.15.74.84,1.29,1.1,2.02,0,0,.29.72.29.72.27.93.16,2.17.23,3.12,0,0,.01.47.01.47l-.4-.23c-1.45-.87-2.26-2.24-3.61-3.15-2.09-1.62-4.53-2.7-6.69-4.24,2.19,1.26,4.75,2.44,6.9,3.96,1.32.83,2.34,2.23,3.65,2.98,0,0-.38.23-.38.23-.06-.86.07-2.23-.1-3.02-.14-.43-.28-1-.52-1.41-.21-.47-.56-.92-.53-1.46,0,0,.05.01.05.01h0Z"/>
      <path class="cls-24" d="M268.62,50.94c.15.74.84,1.28,1.11,2.02,0,0,.29.72.29.72.29,1.2.17,2.36.23,3.57-1.57-.8-2.45-2.27-3.83-3.25-1.97-1.59-4.32-2.58-6.39-4.05,2.09,1.19,4.57,2.28,6.6,3.77,1.24.81,2.22,2.15,3.48,2.85,0,0-.38.23-.38.23-.08-.98.08-2.09-.11-3.02-.14-.43-.28-1-.52-1.4-.21-.47-.56-.92-.53-1.46,0,0,.05.01.05.01h0Z"/>
      <path class="cls-24" d="M268.5,36.33c-.32.93.34,1.58.47,2.46.06.87.11,1.71.13,2.57v.45s-.38-.22-.38-.22c-1.4-.81-2.17-2.13-3.45-3.02-1.97-1.59-4.32-2.58-6.38-4.05,2.09,1.19,4.57,2.28,6.6,3.77,1.24.81,2.23,2.14,3.47,2.86l-.38.23c-.02-.85,0-1.72,0-2.56-.07-.82-.61-1.67-.13-2.51,0,0,.05.01.05.01h0Z"/>
      <path class="cls-24" d="M268.26,45.66c-.32.93.34,1.58.47,2.46.06.87.11,1.71.13,2.57v.45s-.38-.22-.38-.22c-1.4-.81-2.17-2.13-3.45-3.02-1.97-1.59-4.32-2.58-6.38-4.05,2.09,1.19,4.57,2.28,6.6,3.77,1.24.81,2.23,2.14,3.47,2.86l-.38.23c-.02-.85,0-1.72,0-2.56-.07-.82-.61-1.67-.13-2.51,0,0,.05.01.05.01h0Z"/>
    </g>
    <g>
      <path class="cls-24" d="M279.75,39.2c-.32.93.33,1.58.47,2.46.05.93.13,2.1.14,3.02,0,0-.39-.22-.39-.22-1.85-1.24-3.04-2.97-4.94-4.12.03-.03-5.3-3.8-5.13-3.85,1.87,1.32,6.24,4.06,7.92,5.51.8.72,1.54,1.51,2.4,2.02l-.38.23c-.02-.85,0-1.72,0-2.56-.07-.83-.61-1.66-.13-2.51,0,0,.05.01.05.01h0Z"/>
      <path class="cls-24" d="M278.95,48.36c.15.74.84,1.29,1.1,2.02,0,0,.29.72.29.72.27.93.16,2.17.23,3.12,0,0,.01.47.01.47l-.4-.23c-1.45-.87-2.26-2.24-3.61-3.15-2.09-1.62-4.53-2.7-6.69-4.24,2.19,1.25,4.75,2.44,6.9,3.96,1.32.83,2.34,2.23,3.65,2.98,0,0-.38.23-.38.23-.06-.86.07-2.23-.1-3.02-.14-.43-.28-1-.52-1.41-.21-.47-.56-.92-.53-1.46,0,0,.05.01.05.01h0Z"/>
      <path class="cls-24" d="M278.71,57.93c.15.74.84,1.28,1.11,2.02,0,0,.29.72.29.72.29,1.2.17,2.36.23,3.57-1.57-.8-2.45-2.27-3.83-3.25-1.97-1.59-4.32-2.58-6.39-4.05,2.09,1.19,4.57,2.28,6.6,3.77,1.24.81,2.22,2.15,3.48,2.85l-.38.23c-.08-.98.08-2.09-.11-3.02-.14-.43-.28-1-.52-1.4-.21-.47-.56-.92-.53-1.46,0,0,.05.01.05.01h0Z"/>
      <path class="cls-24" d="M278.59,43.31c-.32.93.34,1.58.47,2.46.06.87.11,1.71.13,2.57v.45s-.38-.22-.38-.22c-1.4-.81-2.17-2.13-3.45-3.02-1.97-1.59-4.32-2.58-6.38-4.05,2.09,1.19,4.57,2.28,6.6,3.77,1.24.81,2.23,2.14,3.47,2.86l-.38.23c-.02-.85,0-1.72,0-2.56-.07-.82-.61-1.67-.13-2.51,0,0,.05.01.05.01h0Z"/>
      <path class="cls-24" d="M278.34,52.65c-.32.93.34,1.58.47,2.46.06.87.11,1.71.13,2.57v.45s-.38-.22-.38-.22c-1.4-.81-2.17-2.13-3.45-3.02-1.97-1.59-4.32-2.58-6.38-4.05,2.09,1.19,4.57,2.28,6.6,3.77,1.24.81,2.23,2.14,3.47,2.86l-.38.23c-.02-.85,0-1.72,0-2.56-.07-.82-.61-1.67-.13-2.51,0,0,.05.01.05.01h0Z"/>
    </g>
    <g>
      <path class="cls-24" d="M289.69,46.07c-.32.93.33,1.58.47,2.46.05.93.13,2.1.14,3.02,0,0-.39-.22-.39-.22-1.85-1.24-3.04-2.97-4.94-4.12.03-.03-5.3-3.8-5.13-3.85,1.03.71,5.72,3.84,6.63,4.51,1.33.84,2.38,2.23,3.68,3.01,0,0-.38.23-.38.23-.02-.85,0-1.72,0-2.56-.07-.83-.61-1.66-.13-2.51,0,0,.05.01.05.01h0Z"/>
      <path class="cls-24" d="M288.89,55.23c.15.74.84,1.29,1.1,2.02,0,0,.29.72.29.72.27.93.16,2.17.23,3.12,0,0,.01.47.01.47l-.4-.23c-1.45-.87-2.26-2.24-3.61-3.15-2.09-1.62-4.53-2.7-6.69-4.24,2.19,1.26,4.75,2.44,6.9,3.96,1.32.83,2.34,2.23,3.65,2.98,0,0-.38.23-.38.23-.06-.86.07-2.23-.1-3.02-.14-.43-.28-1-.52-1.41-.21-.47-.56-.92-.53-1.46,0,0,.05.01.05.01h0Z"/>
      <path class="cls-24" d="M288.64,64.8c.15.74.84,1.28,1.11,2.02,0,0,.29.72.29.72.29,1.2.17,2.36.23,3.57-1.57-.8-2.45-2.27-3.83-3.25-1.97-1.59-4.32-2.58-6.39-4.05,2.09,1.19,4.57,2.28,6.6,3.77,1.24.81,2.22,2.15,3.48,2.85l-.38.23c-.08-.98.08-2.09-.11-3.02-.14-.43-.28-1-.52-1.4-.21-.47-.56-.92-.53-1.46,0,0,.05.01.05.01h0Z"/>
      <path class="cls-24" d="M288.53,50.18c-.32.93.34,1.58.47,2.46.06.87.11,1.71.13,2.57v.45s-.38-.22-.38-.22c-1.4-.81-2.17-2.13-3.45-3.02-1.97-1.59-4.32-2.58-6.38-4.05,2.09,1.19,4.57,2.28,6.6,3.77,1.24.81,2.23,2.14,3.47,2.86l-.38.23c-.02-.85,0-1.72,0-2.56-.07-.82-.61-1.67-.13-2.51,0,0,.05.01.05.01h0Z"/>
      <path class="cls-24" d="M288.28,59.51c-.32.93.34,1.58.47,2.46.06.87.11,1.71.13,2.57v.45s-.38-.22-.38-.22c-1.4-.81-2.17-2.13-3.45-3.02-1.97-1.59-4.32-2.58-6.38-4.05,2.09,1.19,4.57,2.28,6.6,3.77,1.24.81,2.23,2.14,3.47,2.86,0,0-.38.23-.38.23-.02-.85,0-1.72,0-2.56-.07-.82-.61-1.67-.13-2.51,0,0,.05.01.05.01h0Z"/>
    </g>
    <g>
      <path class="cls-24" d="M299.82,53.09c-.32.93.33,1.58.47,2.46.05.93.13,2.1.14,3.02,0,0-.39-.22-.39-.22-1.85-1.24-3.04-2.97-4.94-4.12.03-.03-5.3-3.8-5.13-3.85,1.03.71,5.72,3.84,6.63,4.51,1.33.84,2.38,2.23,3.68,3.01,0,0-.38.23-.38.23-.02-.85,0-1.72,0-2.56-.07-.83-.61-1.66-.13-2.51,0,0,.05.01.05.01h0Z"/>
      <path class="cls-24" d="M299.02,62.24c.15.74.84,1.29,1.1,2.02,0,0,.29.72.29.72.27.93.16,2.17.23,3.12,0,0,.01.47.01.47l-.4-.23c-1.45-.87-2.26-2.24-3.61-3.15-2.09-1.62-4.53-2.7-6.69-4.24,2.19,1.26,4.75,2.44,6.9,3.96,1.32.83,2.34,2.23,3.65,2.98,0,0-.38.23-.38.23-.06-.86.07-2.23-.1-3.02-.14-.43-.28-1-.52-1.41-.21-.47-.56-.92-.53-1.46,0,0,.05.01.05.01h0Z"/>
      <path class="cls-24" d="M298.77,71.81c.15.74.84,1.28,1.11,2.02,0,0,.29.72.29.72.29,1.2.17,2.36.23,3.57-1.57-.8-2.45-2.27-3.83-3.25-1.97-1.59-4.32-2.58-6.39-4.05,2.09,1.19,4.57,2.28,6.6,3.77,1.24.81,2.22,2.15,3.48,2.85l-.38.23c-.08-.98.08-2.09-.11-3.02-.14-.43-.28-1-.52-1.4-.21-.47-.56-.92-.53-1.46,0,0,.05.01.05.01h0Z"/>
      <path class="cls-24" d="M298.65,57.19c-.32.93.34,1.58.47,2.46.06.87.11,1.71.13,2.57v.45s-.38-.22-.38-.22c-1.4-.81-2.17-2.13-3.45-3.02-1.97-1.59-4.32-2.58-6.38-4.05,2.09,1.19,4.57,2.28,6.6,3.77,1.24.81,2.23,2.14,3.47,2.86,0,0-.38.23-.38.23-.02-.85,0-1.72,0-2.56-.07-.82-.61-1.67-.13-2.51,0,0,.05.01.05.01h0Z"/>
      <path class="cls-24" d="M298.41,66.53c-.32.93.34,1.58.47,2.46.06.87.11,1.71.13,2.57v.45s-.38-.22-.38-.22c-1.4-.81-2.17-2.13-3.45-3.02-1.97-1.59-4.32-2.58-6.38-4.05,2.09,1.19,4.57,2.28,6.6,3.77,1.24.81,2.23,2.14,3.47,2.86l-.38.23c-.02-.85,0-1.72,0-2.56-.07-.82-.61-1.67-.13-2.51,0,0,.05.01.05.01h0Z"/>
    </g>
    <g>
      <path class="cls-24" d="M309.96,60.11c-.32.93.33,1.58.47,2.46.05.93.13,2.1.14,3.02,0,0-.39-.22-.39-.22-1.85-1.24-3.04-2.97-4.94-4.12.03-.03-5.3-3.8-5.13-3.85,1.03.71,5.72,3.84,6.63,4.51,1.33.84,2.38,2.23,3.68,3.01,0,0-.38.23-.38.23-.02-.85,0-1.72,0-2.56-.07-.83-.61-1.66-.13-2.51,0,0,.05.01.05.01h0Z"/>
      <path class="cls-24" d="M309.16,69.27c.15.74.84,1.29,1.1,2.02,0,0,.29.72.29.72.27.93.16,2.17.23,3.12,0,0,.01.47.01.47l-.4-.23c-1.45-.87-2.26-2.24-3.61-3.15-2.09-1.62-4.53-2.7-6.69-4.24,2.19,1.26,4.75,2.44,6.9,3.96,1.32.83,2.34,2.23,3.65,2.98,0,0-.38.23-.38.23-.06-.86.07-2.23-.1-3.02-.14-.43-.28-1-.52-1.41-.21-.47-.56-.92-.53-1.46,0,0,.05.01.05.01h0Z"/>
      <path class="cls-24" d="M308.92,78.83c.15.74.84,1.28,1.11,2.02,0,0,.29.72.29.72.29,1.2.17,2.36.23,3.57-1.57-.8-2.45-2.27-3.83-3.25-1.97-1.59-4.32-2.58-6.39-4.05,2.09,1.19,4.57,2.28,6.6,3.77,1.24.81,2.22,2.15,3.48,2.85,0,0-.38.23-.38.23-.08-.98.08-2.09-.11-3.02-.14-.43-.28-1-.52-1.4-.21-.47-.56-.92-.53-1.46,0,0,.05.01.05.01h0Z"/>
      <path class="cls-24" d="M308.8,64.22c-.32.93.34,1.58.47,2.46.06.87.11,1.71.13,2.57v.45s-.38-.22-.38-.22c-1.4-.81-2.17-2.13-3.45-3.02-1.97-1.59-4.32-2.58-6.38-4.05,2.09,1.19,4.57,2.28,6.6,3.77,1.24.81,2.23,2.14,3.47,2.86l-.38.23c-.02-.85,0-1.72,0-2.56-.07-.82-.61-1.67-.13-2.51,0,0,.05.01.05.01h0Z"/>
      <path class="cls-24" d="M308.56,73.55c-.32.93.34,1.58.47,2.46.06.87.11,1.71.13,2.57v.45s-.38-.22-.38-.22c-1.4-.81-2.17-2.13-3.45-3.02-1.97-1.59-4.32-2.58-6.38-4.05,2.09,1.19,4.57,2.28,6.6,3.77,1.24.81,2.23,2.14,3.47,2.86,0,0-.38.23-.38.23-.02-.85,0-1.72,0-2.56-.07-.82-.61-1.67-.13-2.51,0,0,.05.01.05.01h0Z"/>
    </g>
    <g>
      <path class="cls-24" d="M319.9,66.99c-.32.93.33,1.58.47,2.46.05.93.13,2.1.14,3.02,0,0-.39-.22-.39-.22-1.85-1.24-3.04-2.97-4.94-4.12.03-.03-5.3-3.8-5.13-3.85,1.03.71,5.72,3.84,6.63,4.51,1.33.84,2.38,2.23,3.68,3.01,0,0-.38.23-.38.23-.02-.85,0-1.72,0-2.56-.07-.83-.61-1.66-.13-2.51,0,0,.05.01.05.01h0Z"/>
      <path class="cls-24" d="M319.1,76.15c.15.74.84,1.29,1.1,2.02,0,0,.29.72.29.72.27.93.16,2.17.23,3.12,0,0,.01.47.01.47l-.4-.23c-1.45-.87-2.26-2.24-3.61-3.15-2.09-1.62-4.53-2.7-6.69-4.24,2.19,1.26,4.75,2.44,6.9,3.96,1.32.83,2.34,2.23,3.65,2.98,0,0-.38.23-.38.23-.06-.86.07-2.23-.1-3.02-.14-.43-.28-1-.52-1.41-.21-.47-.56-.92-.53-1.46,0,0,.05.01.05.01h0Z"/>
      <path class="cls-24" d="M318.85,85.71c.15.74.84,1.28,1.11,2.02,0,0,.29.72.29.72.29,1.2.17,2.36.23,3.57-1.57-.8-2.45-2.27-3.83-3.25-1.97-1.59-4.32-2.58-6.39-4.05,2.09,1.19,4.57,2.28,6.6,3.77,1.24.81,2.22,2.15,3.48,2.85l-.38.23c-.08-.98.08-2.09-.11-3.02-.14-.43-.28-1-.52-1.4-.21-.47-.56-.92-.53-1.46,0,0,.05.01.05.01h0Z"/>
      <path class="cls-24" d="M318.74,71.1c-.32.93.34,1.58.47,2.46.06.87.11,1.71.13,2.57v.45s-.38-.22-.38-.22c-1.4-.81-2.17-2.13-3.45-3.02-1.97-1.59-4.32-2.58-6.38-4.05,2.09,1.19,4.57,2.28,6.6,3.77,1.24.81,2.23,2.14,3.47,2.86,0,0-.38.23-.38.23-.02-.85,0-1.72,0-2.56-.07-.82-.61-1.67-.13-2.51,0,0,.05.01.05.01h0Z"/>
      <path class="cls-24" d="M318.49,80.43c-.32.93.34,1.58.47,2.46.06.87.11,1.71.13,2.57v.45s-.38-.22-.38-.22c-1.4-.81-2.17-2.13-3.45-3.02-1.97-1.59-4.32-2.58-6.38-4.05,2.09,1.19,4.57,2.28,6.6,3.77,1.24.81,2.23,2.14,3.47,2.86l-.38.23c-.02-.85,0-1.72,0-2.56-.07-.82-.61-1.67-.13-2.51,0,0,.05.01.05.01h0Z"/>
    </g>
    <g>
      <path class="cls-24" d="M329.59,73.68c-.32.93.33,1.58.47,2.46.05.93.13,2.1.14,3.02,0,0-.39-.22-.39-.22-1.85-1.24-3.04-2.97-4.94-4.12.03-.03-5.3-3.8-5.13-3.85,1.03.71,5.72,3.84,6.63,4.51,1.33.84,2.38,2.23,3.68,3.01,0,0-.38.23-.38.23-.02-.85,0-1.72,0-2.56-.07-.83-.61-1.66-.13-2.51,0,0,.05.01.05.01h0Z"/>
      <path class="cls-24" d="M328.79,82.84c.15.74.84,1.29,1.1,2.02,0,0,.29.72.29.72.27.93.16,2.17.23,3.12,0,0,.01.47.01.47l-.4-.23c-1.45-.87-2.26-2.24-3.61-3.15-2.09-1.62-4.53-2.7-6.69-4.24,2.19,1.26,4.75,2.44,6.9,3.96,1.32.83,2.34,2.23,3.65,2.98,0,0-.38.23-.38.23-.06-.86.07-2.23-.1-3.02-.14-.43-.28-1-.52-1.41-.21-.47-.56-.92-.53-1.46,0,0,.05.01.05.01h0Z"/>
      <path class="cls-24" d="M328.54,92.41c.15.74.84,1.28,1.11,2.02,0,0,.29.72.29.72.29,1.2.17,2.36.23,3.57-1.57-.8-2.45-2.27-3.83-3.25-1.97-1.59-4.32-2.58-6.39-4.05,2.09,1.19,4.57,2.28,6.6,3.77,1.24.81,2.22,2.15,3.48,2.85,0,0-.38.23-.38.23-.08-.98.08-2.09-.11-3.02-.14-.43-.28-1-.52-1.4-.21-.47-.56-.92-.53-1.46,0,0,.05.01.05.01h0Z"/>
      <path class="cls-24" d="M328.42,77.79c-.32.93.34,1.58.47,2.46.06.87.11,1.71.13,2.57v.45s-.38-.22-.38-.22c-1.4-.81-2.17-2.13-3.45-3.02-1.97-1.59-4.32-2.58-6.38-4.05,2.09,1.19,4.57,2.28,6.6,3.77,1.24.81,2.23,2.14,3.47,2.86l-.38.23c-.02-.85,0-1.72,0-2.56-.07-.82-.61-1.67-.13-2.51,0,0,.05.01.05.01h0Z"/>
      <path class="cls-24" d="M328.18,87.12c-.32.93.34,1.58.47,2.46.06.87.11,1.71.13,2.57v.45s-.38-.22-.38-.22c-1.4-.81-2.17-2.13-3.45-3.02-1.97-1.59-4.32-2.58-6.38-4.05,2.09,1.19,4.57,2.28,6.6,3.77,1.24.81,2.23,2.14,3.47,2.86l-.38.23c-.02-.85,0-1.72,0-2.56-.07-.82-.61-1.67-.13-2.51,0,0,.05.01.05.01h0Z"/>
    </g>
    <g>
      <path class="cls-20" d="M339.17,80.31c-.11.35,9.65,6.16,9.8,6.67.08.27.29,2.02.37,2.28.07.26.08.49.08.71.02.76.04,1.52.05,2.28-1.01-.55-1.96-1.72-2.95-2.56-.42-.35-.84-.65-1.27-.94-1.65-1.14-4.34-3.09-5.98-4.22"/>
      <path class="cls-24" d="M339.19,80.32c2.24,1.63,4.94,2.99,7.25,4.55.94.65,1.84,1.11,2.69,1.92.13.22.08.24.11.35.11.73.22,1.67.36,2.4.05.62.03,2.4.05,3.02-1.57-.84-2.49-2.34-3.93-3.3-.86-.66-5.51-4.01-6.47-4.72-.02-.17,5.3,3.62,5.31,3.59,1.85,1.05,3.27,2.81,4.99,3.96,0,0-.26.16-.26.16l-.07-2.15c0-.39-.04-.63-.14-1.03-.09-.49-.22-1.37-.31-1.85,0-.06-.05-.23-.04-.16-1.93-1.49-4.15-2.74-6.16-4.15-.6-.42-2.07-1.42-2.63-1.87-.2-.14-.95-.76-.75-.73h0Z"/>
    </g>
    <g>
      <path class="cls-24" d="M338.39,89.48c.15.74.84,1.29,1.1,2.02,0,0,.29.72.29.72.27.93.16,2.17.23,3.12,0,0,.01.47.01.47l-.4-.23c-1.45-.87-2.26-2.24-3.61-3.15-2.09-1.62-4.53-2.7-6.69-4.24,2.19,1.26,4.75,2.44,6.9,3.96,1.32.83,2.34,2.23,3.65,2.98,0,0-.38.23-.38.23-.06-.86.07-2.23-.1-3.02-.14-.43-.28-1-.52-1.41-.21-.47-.56-.92-.53-1.46,0,0,.05.01.05.01h0Z"/>
      <path class="cls-24" d="M338.14,99.04c.15.74.84,1.28,1.11,2.02,0,0,.29.72.29.72.29,1.2.17,2.36.23,3.57-1.57-.8-2.45-2.27-3.83-3.25-1.97-1.59-4.32-2.58-6.39-4.05,2.09,1.19,4.57,2.28,6.6,3.77,1.24.81,2.22,2.15,3.48,2.85,0,0-.38.23-.38.23-.08-.98.08-2.09-.11-3.02-.14-.43-.28-1-.52-1.4-.21-.47-.56-.92-.53-1.46,0,0,.05.01.05.01h0Z"/>
      <path class="cls-24" d="M338.02,84.43c-.32.93.34,1.58.47,2.46.06.87.11,1.71.13,2.57v.45s-.38-.22-.38-.22c-1.4-.81-2.17-2.13-3.45-3.02-1.97-1.59-4.32-2.58-6.38-4.05,2.09,1.19,4.57,2.28,6.6,3.77,1.24.81,2.23,2.14,3.47,2.86,0,0-.38.23-.38.23-.02-.85,0-1.72,0-2.56-.07-.82-.61-1.67-.13-2.51,0,0,.05.01.05.01h0Z"/>
      <path class="cls-24" d="M337.78,93.76c-.32.93.34,1.58.47,2.46.06.87.11,1.71.13,2.57v.45s-.38-.22-.38-.22c-1.4-.81-2.17-2.13-3.45-3.02-1.97-1.59-4.32-2.58-6.38-4.05,2.09,1.19,4.57,2.28,6.6,3.77,1.24.81,2.23,2.14,3.47,2.86,0,0-.38.23-.38.23-.02-.85,0-1.72,0-2.56-.07-.82-.61-1.67-.13-2.51,0,0,.05.01.05.01h0Z"/>
      <path class="cls-24" d="M339.19,80.32c-.32.93.33,1.58.47,2.46.05.93.13,2.1.14,3.02,0,0-.39-.22-.39-.22-1.85-1.24-3.04-2.97-4.94-4.12.03-.03-5.3-3.8-5.13-3.85,1.03.71,5.72,3.84,6.63,4.51,1.33.84,2.38,2.23,3.68,3.01,0,0-.38.23-.38.23-.02-.85,0-1.72,0-2.56-.07-.83-.61-1.66-.13-2.51,0,0,.05.01.05.01h0Z"/>
    </g>
    <g>
      <path class="cls-20" d="M348.31,96.36c-.11.35.81,1.55.96,2.07.08.27.22.55.29.82.07.26.08.49.08.71.02.76.04,1.52.05,2.28-1.01-.55-1.96-1.72-2.95-2.56-.42-.35-.84-.65-1.27-.94-1.65-1.14-4.54-2.54-6.19-3.68"/>
      <path class="cls-24" d="M348.33,96.37c.15.74.84,1.29,1.1,2.02,0,0,.29.72.29.72.27.93.16,2.17.23,3.12,0,0,.01.47.01.47l-.4-.23c-1.45-.87-2.26-2.24-3.61-3.15-2.09-1.62-4.53-2.7-6.69-4.24,2.19,1.26,4.75,2.44,6.9,3.96,1.32.83,2.34,2.23,3.65,2.98,0,0-.38.23-.38.23-.06-.86.07-2.23-.1-3.02-.14-.43-.28-1-.52-1.41-.21-.47-.56-.92-.53-1.46,0,0,.05.01.05.01h0Z"/>
    </g>
    <g>
      <path class="cls-20" d="M348.69,106.36c-.11.35.18,1.12.32,1.63.08.27.22.55.29.82.07.26.08.49.08.71.02.76.04,1.52.05,2.28-1.01-.55-1.96-1.72-2.95-2.56-.42-.35-.84-.65-1.27-.94-1.65-1.14-4.07-2.23-5.72-3.37"/>
      <path class="cls-24" d="M348.72,106.37c.01.93.6,1.72.84,2.63.08.51.07.94.1,1.41.01.33.06,1.55.07,1.85-1.59-.79-2.47-2.27-3.85-3.26-1.91-1.61-4.48-2.57-6.35-4.09,2.12,1.37,4.54,2.26,6.57,3.81,1.24.81,2.22,2.14,3.48,2.85l-.38.23c-.03-.79.02-1.99-.03-2.75-.17-.87-.65-1.78-.49-2.71,0,0,.05.01.05.01h0Z"/>
    </g>
    <path class="cls-24" d="M347.96,91.32c-.32.93.34,1.58.47,2.46.06.87.11,1.71.13,2.57v.45s-.38-.22-.38-.22c-1.4-.81-2.17-2.13-3.45-3.02-1.97-1.59-4.32-2.58-6.38-4.05,2.09,1.19,4.57,2.28,6.6,3.77,1.24.81,2.23,2.14,3.47,2.86l-.38.23c-.02-.85,0-1.72,0-2.56-.07-.82-.61-1.67-.13-2.51,0,0,.05.01.05.01h0Z"/>
    <path class="cls-24" d="M348.81,101.59c-.18.58.24,1.2.17,1.8.2,1.13.21,2.36.31,3.51,0,0-.4-.23-.4-.23-1.95-1.22-3.23-3.05-5.11-4.32-1.74-1.29-4.01-2.2-5.64-3.54,2.34,1.48,5,2.49,7.18,4.26,1.2,1.01,2.53,2.32,3.81,3.15,0,0-.37.23-.37.23-.03-.81-.06-1.64-.03-2.44-.03-.34-.05-.85-.01-1.21-.06-.21-.16-1.15.1-1.21h0Z"/>
  </g>
  <g>
    <rect class="cls-31" x="242.66" y="15.31" width="5.53" height="27.74"/>
    <path class="cls-26" d="M246.69,16.81v24.74h-2.53v-24.74h2.53M249.69,13.81h-8.53v30.74h8.53V13.81h0Z"/>
  </g>
  <g>
    <polygon class="cls-31" points="133.88 118.64 244.43 41.39 244.43 47.87 133.88 125.11 133.88 118.64"/>
    <path class="cls-26" d="M243.43,43.31v4.04l-108.54,75.85v-4.04l108.54-75.85M245.43,39.47l-112.54,78.65v8.92l112.54-78.65v-8.92h0Z"/>
  </g>
  <g>
    <polygon class="cls-31" points="133.88 79.17 244.43 1.92 244.43 8.4 133.88 85.64 133.88 79.17"/>
    <path class="cls-26" d="M243.43,3.84v4.04l-108.54,75.85v-4.04L243.43,3.84M245.43,0l-112.54,78.65v8.92L245.43,8.92V0h0Z"/>
  </g>
  <g>
    <polygon class="cls-31" points="246.36 47.87 246.36 41.39 356.91 118.64 356.91 125.11 246.36 47.87"/>
    <path class="cls-26" d="M247.36,43.31l108.54,75.85v4.04l-108.54-75.85v-4.04M245.36,39.47v8.92l112.54,78.65v-8.92l-112.54-78.65h0Z"/>
  </g>
  <path class="cls-26" d="M204.42,198.61c.77-.85.75-2.04.66-3.13l-.37-3.35c-.77-7.28-.9-14.61-1.76-21.9-.14-3.85-.07-8,.07-11.84.04-1.12.07-2.27.24-3.4.14-1.16.6-2.22.4-3.25-.18-1.06-.5-2.18-.74-3.26l-.75-3.3.07-.02c.69,2.16,1.42,4.25,2,6.49.25,1.16-.17,2.31-.27,3.43-.3,5.59-.52,11.23-.45,16.82.19,6.75,1.41,13.44,1.76,20.18-.03,2.15.88,4.85-.82,6.58,0,0-.05-.05-.05-.05h0Z"/>
  <path class="cls-18" d="M211.42,198.25c.83-2.8-.02-5.77-.46-8.65-.46-3.04-.46-6.12-.46-9.19,0-11.36,0-22.72.01-34.08"/>
  <path class="cls-18" d="M217.42,146.11l1.22,41.29c.07,2.26.13,4.53-.09,6.78-.14,1.43-.4,2.85-.8,4.22"/>
  <g>
    <rect class="cls-23" x="194.49" y="182.94" width="34.38" height="5.11"/>
    <path class="cls-26" d="M228.5,183.32v4.36h-33.63v-4.36h33.63M229.25,182.57h-35.13v5.86h35.13v-5.86h0Z"/>
  </g>
  <g>
    <rect class="cls-23" x="194.49" y="157.7" width="34.38" height="5.11"/>
    <path class="cls-26" d="M228.5,158.07v4.36h-33.63v-4.36h33.63M229.25,157.32h-35.13v5.86h35.13v-5.86h0Z"/>
  </g>
  <ellipse class="cls-8" cx="222.87" cy="177.19" rx="2.18" ry="1.94"/>
</svg>