<?xml version="1.0" encoding="UTF-8"?>
<svg id="_Слой_1" data-name="Слой 1" xmlns="http://www.w3.org/2000/svg" xmlns:xlink="http://www.w3.org/1999/xlink" viewBox="0 0 1053.52 532.27">
  <defs>
    <style>
      .cls-1 {
        fill: #0071bc;
      }

      .cls-2 {
        fill: #8cc63f;
      }

      .cls-3 {
        fill: url(#_Безымянный_градиент_79);
      }

      .cls-4 {
        fill: #42210b;
        stroke: #000;
      }

      .cls-4, .cls-5 {
        stroke-miterlimit: 10;
      }

      .cls-5 {
        fill: #39b54a;
        stroke: #006837;
      }

      .cls-6 {
        fill: #006837;
      }

      .cls-7 {
        fill: #fbb03b;
      }
    </style>
    <radialGradient id="_Безымянный_градиент_79" data-name="Безымянный градиент 79" cx="547.22" cy="222.47" fx="547.22" fy="222.47" r="234.36" gradientTransform="translate(0 155.73) scale(1 .3)" gradientUnits="userSpaceOnUse">
      <stop offset="0" stop-color="#31a9cd"/>
      <stop offset=".3" stop-color="#2daccd"/>
      <stop offset=".57" stop-color="#22b6ce"/>
      <stop offset=".84" stop-color="#0fc7cf"/>
      <stop offset="1" stop-color="#00d6d1"/>
    </radialGradient>
  </defs>
  <ellipse class="cls-7" cx="565.07" cy="174.14" rx="418.21" ry="174.14"/>
  <path class="cls-2" d="M849.26,231.36c162.53-40.87,301.36,114.23,115.33,219.17C540.75,689.62-45.66,334.61,2.82,268.92,204.62-4.52,186.44,159.95,397.08,142.5c212.86-17.63,415.73,98.02,452.18,88.85Z"/>
  <ellipse class="cls-3" cx="547.22" cy="222.47" rx="313.52" ry="107.48"/>
  <g>
    <path class="cls-1" d="M282.57,197.79c-1.37.19-2.57.93-3.89,1.32-2.52.76-5.19,1.26-6.53,3.69,0,0-.55.81-.55.81-.92,1.11-.44,2.79.01,4.09.97,3.02,6.03,2.49,8.68,2.79,2.72.41,5.42.58,8.12.25,1.09-.15,2.6-.41,3.29-1.17.17-.23.47-.61.81-.87.98-.64,1.42-1.1,2.3-1.92.48-.45.93-.91,1.06-1.25.27-.97-.34-1.74-1-2.57-.78-1-1.64-1.77-2.82-2.35-2.82-1.69-6.02-3.3-9.48-2.82h0ZM282.54,197.6c3.45-.47,7.13-.2,10.33,1.31,1.34.48,2.67,1.53,3.6,2.66.47.51,1.03,1.19,1.33,2.04,1.2,2.89-1.41,4.47-3.36,5.99-.75.46-.96.44-1.53,1.05-1.32,1.19-2.83,1.19-4.39,1.29-2.79.07-5.55-.41-8.27-.84-2.82-.32-5.61.26-8.37-.99-1.36-.79-1.98-2.44-2.39-3.9-.14-.75-.28-1.57.03-2.48.6-1.4,1.59-2.58,2.76-3.58,2.45-1.79,5.56-1.08,8.21-2.13.13-.05.36-.15.55-.13.48-.06,1-.25,1.5-.3h0Z"/>
    <path class="cls-1" d="M281.94,193.85c-1.07.24-2.17.44-3.19.81-1.01.49-2.08.82-3.15,1.12-3.14.89-6.58,1.2-9.34,3-1.69,1.27-2.94,3.21-4.11,4.97-.61.86-.81,1.84-.67,2.88.36,1.98,1.27,4.2,2.89,5.5,1.8,1.19,4.08,1.53,6.2,1.81,3.29.42,6.67.24,9.95.79,4.76.61,15.7,1.97,18.87-2.14.83-.86,1.91-1.34,2.29-2.17.21-.42.27-.9.41-1.5.18-1.04.93-2.05.98-3.06.01-.72-.13-1.66-.4-2.35-.2-.23-.26-.65-.26-.8.07-1.7-.13-2.93-1.65-3.97-3.58-2.42-7.98-3.72-12.23-4.56-2.16-.38-4.4-.64-6.59-.33h0ZM281.92,193.75c2.21-.37,4.45-.11,6.65.16,4.43.65,8.88,1.61,12.74,4.06,1.01.66,1.9,1.72,2.05,2.98.09.68.03,1.44.08,1.87.52.88.68,2.02.67,3.11-.08,1.24-.84,2.1-1.1,3.23-.13.47-.22,1.11-.52,1.68-.57,1.11-1.72,1.55-2.54,2.34-3.59,4.31-14.41,2.52-19.5,1.88-3.28-.61-6.62-.36-9.94-.73-3.32-.28-7.22-.92-8.7-4.35-2.26-3.85-1.18-6.27,1.55-9.44,2.73-3.96,7.9-4.1,12.16-5.04,2.17-.47,4.18-1.47,6.4-1.74h0Z"/>
  </g>
  <g>
    <path class="cls-1" d="M528.19,303.61c-1.37.19-2.57.93-3.89,1.32-2.52.76-5.19,1.26-6.53,3.69,0,0-.55.81-.55.81-.92,1.11-.44,2.79.01,4.09.97,3.02,6.03,2.49,8.68,2.79,2.72.41,5.42.58,8.12.25,1.09-.15,2.6-.41,3.29-1.17.17-.23.47-.61.81-.87.98-.64,1.42-1.1,2.3-1.92.48-.45.93-.91,1.06-1.25.27-.97-.34-1.74-1-2.57-.78-1-1.64-1.77-2.82-2.35-2.82-1.69-6.02-3.3-9.48-2.82h0ZM528.15,303.41c3.45-.47,7.13-.2,10.33,1.31,1.34.48,2.67,1.53,3.6,2.66.47.51,1.03,1.19,1.33,2.04,1.2,2.89-1.41,4.47-3.36,5.99-.75.46-.96.44-1.53,1.05-1.32,1.19-2.83,1.19-4.39,1.29-2.79.07-5.55-.41-8.27-.84-2.82-.32-5.61.26-8.37-.99-1.36-.79-1.98-2.44-2.39-3.9-.14-.75-.28-1.57.03-2.48.6-1.4,1.59-2.58,2.76-3.58,2.45-1.79,5.56-1.08,8.21-2.13.13-.05.36-.15.55-.13.48-.06,1-.25,1.5-.3h0Z"/>
    <path class="cls-1" d="M527.56,299.67c-1.07.24-2.17.44-3.19.81-1.01.49-2.08.82-3.15,1.12-3.14.89-6.58,1.2-9.34,3-1.69,1.27-2.94,3.21-4.11,4.97-.61.86-.81,1.84-.67,2.88.36,1.98,1.27,4.2,2.89,5.5,1.8,1.19,4.08,1.53,6.2,1.81,3.29.42,6.67.24,9.95.79,4.76.61,15.7,1.97,18.87-2.14.83-.86,1.91-1.34,2.29-2.17.21-.42.27-.9.41-1.5.18-1.04.93-2.05.98-3.06.01-.72-.13-1.66-.4-2.35-.2-.23-.26-.65-.26-.8.07-1.7-.13-2.93-1.65-3.97-3.58-2.42-7.98-3.72-12.23-4.56-2.16-.38-4.4-.64-6.59-.33h0ZM527.54,299.57c2.21-.37,4.45-.11,6.65.16,4.43.65,8.88,1.61,12.74,4.06,1.01.66,1.9,1.72,2.05,2.98.09.68.03,1.44.08,1.87.52.88.68,2.02.67,3.11-.08,1.24-.84,2.1-1.1,3.23-.13.47-.22,1.11-.52,1.68-.57,1.11-1.72,1.55-2.54,2.33-3.59,4.31-14.41,2.52-19.5,1.88-3.28-.61-6.62-.36-9.94-.73-3.32-.28-7.22-.92-8.7-4.35-2.26-3.85-1.18-6.27,1.55-9.44,2.73-3.96,7.9-4.1,12.16-5.04,2.17-.47,4.18-1.47,6.4-1.74h0Z"/>
  </g>
  <g>
    <path class="cls-1" d="M672.23,303.84c-.47.11-.92.19-1.34.42-1.59.88-3.7,1.08-5.03,2.26-.47.53-1.08,1.44-1.46,2.03-.27.77.05,1.97.41,2.74,1.1,1.48,3.9,1.2,5.66,1.36,1.93.26,3.82.31,5.71.02.71-.12,1.76-.35,2.19-.84.09-.15.37-.47.55-.63.72-.52.94-.74,1.6-1.38.34-.32.64-.64.72-.83.13-.42-.18-.96-.57-1.42-.53-.68-1.04-1.19-1.86-1.6-1.94-1.2-4.12-2.51-6.58-2.13h0ZM672.19,303.64c2.99-.45,6.28-.38,8.89,1.4,2.21,1.77,3.53,4.3.74,6.26-.4.3-.68.59-1.25.95-.62.35-.59.25-1.06.7-1.02.86-2.08.85-3.23.91-1.97.03-3.95-.32-5.85-.6-.94-.07-1.92-.04-2.9-.05-1.18-.05-2.94.02-3.85-1.17-.83-1.24-1.43-2.61-.92-4.17.56-1.09,1.13-1.78,2.08-2.53,1.8-1.26,3.99-.67,5.89-1.4,0,0,1.46-.3,1.46-.3h0Z"/>
    <path class="cls-1" d="M671.82,301.06c-1.58.24-2.95.99-4.45,1.43-2.89.87-6.24,1.11-8.08,3.79-.64.86-1.43,1.79-1.82,2.78-.28,1.04.06,2.11.52,3.09.82,2.34,3.31,2.77,5.56,3.04,2.32.28,4.7.13,7.02.47,2.31.33,4.65.45,6.98.35,2.21-.2,4.73-.19,6.24-2,.98-.97,1.8-1.17,1.92-2.5.12-.72.63-1.5.72-2.15.05-.44-.06-1.06-.18-1.52-.02-.08-.05-.14-.05-.15-.25-.23-.18-.84-.2-1.13.09-.88-.23-1.54-.99-2.11-3.79-2.38-8.69-3.81-13.2-3.4h0ZM671.8,300.96c3.37-.56,14.81.72,15.22,4.98.04.38,0,.95.02,1.16-.04-.08-.02-.04.04.05.1.16.13.28.17.39.18.67.31,1.23.22,1.96-.15.91-.65,1.43-.83,2.25-.08.31-.18.84-.44,1.23-.47.77-1.25,1.05-1.83,1.62-2.84,3.07-10.02,1.8-13.85,1.4-2.31-.4-4.66-.18-7.01-.41-2.31-.13-5.18-.61-6.19-3.09-1.6-2.7-.59-4.61,1.3-6.76,1.99-2.73,5.67-2.85,8.67-3.53,1.53-.34,2.96-1.02,4.5-1.25h0Z"/>
  </g>
  <g>
    <path class="cls-1" d="M649.01,295.87c-.23.06-.48.14-.7.22-1.02.68-2.53.99-3.41,1.84-.26.3-.69.99-.95,1.34-.19.33-.05,1.09.09,1.5.12.51.92.64,1.6.75,1.88.12,3.88.31,5.72-.11,1.21-.32,1.17-.4,1.66-.99.44-.38.7-.6,1.06-.99.23-.22.44-.44.5-.56.03-.06.01-.06,0-.03-.01.01,0,.08-.02-.03-.04-.15-.05-.18-.2-.39-.14-.14-.37-.48-.49-.59-1.39-.93-2.99-2.29-4.86-1.96h0ZM648.97,295.68c2.2-.42,4.93-.8,6.68,1.01.45.45.89.97,1.03,1.69.39,1.51-1.15,2.53-2.2,3.19-.39.21-.23.03-.7.45-2.56,1.44-5.44-.19-8.16.27-.67,0-1.34.13-2.21-.29-.41-.24-.67-.65-.87-1.04-.38-.83-.62-1.66-.11-2.61.44-.68.83-1.15,1.53-1.62,1.28-.78,2.73-.37,4.03-.83.3-.08.67-.1.98-.21h0Z"/>
    <path class="cls-1" d="M648.79,294.02c-1.06.2-1.95.72-2.94,1.06-1.45.51-3.02.78-4.3,1.62-.77.55-1.38,1.44-1.94,2.22-.33.45-.49.74-.52,1.19-.05.82.41,1.96.96,2.53,2.59,1.52,6.17.64,9.06,1.13,2.35-.04,5.45.24,7.2-1.43.56-.69,1.2-.79,1.34-1.57.07-.47.39-1.1.54-1.5.1-.25-.03-.9-.08-1.09-.23-.28-.13-.75-.12-1.09-.03-1.29-2.04-1.75-3.1-2.24-1.93-.63-4.05-1.16-6.09-.83h0ZM648.77,293.93c3.15-.35,6.52-.14,9.36,1.47.51.32.95,1.06.89,1.75,0,.11-.01.43,0,.53,0,.02,0,.03,0-.02.01-.03-.1-.17-.02-.06.46.89.32,1.95-.19,2.74-.26.5-.27,1.07-.67,1.53-.48.52-.93.67-1.24,1.02-1.98,1.85-5.33,1.3-7.81,1.24-2.11-.29-4.13-.25-6.25-.26-1.09-.06-2.2-.08-3.17-.73-.9-.85-1.4-1.84-1.44-3.07-.03-.62.37-1.28.65-1.66.65-.89,1.3-1.75,2.29-2.34,1.44-.76,3.08-.88,4.61-1.26,1.02-.24,1.98-.7,3-.88h0Z"/>
  </g>
  <path class="cls-1" d="M555.85,300.57c-.46.1-.84.32-1.26.48-.79.31-1.71.45-2.21,1.18-.24.33-.58.72-.58.95-.03.28.14.78.34,1.01,1.05.66,2.64.33,3.84.51,1.03-.04,2.25.06,3-.65.17-.21.42-.37.46-.45.08-.15.09-.39.17-.56.13-.3.12-.27.1-.45,0-.05-.06-.26-.01-.15.04.05-.06-.07-.07-.15-.02-.12-.02-.15-.02-.24,0-.18.07-.29-.11-.45-1-.69-2.42-1.19-3.67-1.03h0ZM555.83,300.5c1.38-.14,2.85-.19,4.13.53.36.22.49.65.46,1.1,0,0,0,0,0-.04-.01-.05-.08-.15-.03-.08.24.51.18.91-.08,1.34-.12.23-.13.47-.32.69-.42.35-.87.75-1.24.85-1.88.43-3.61-.17-5.47-.02-.71.03-1.6-.13-1.91-.92-.49-.78-.02-1.57.54-2.13.83-.96,2.69-.84,3.93-1.31h0Z"/>
  <g>
    <g>
      <path class="cls-6" d="M267.78,160.05c8.35,12.04,13.06,26.38,13.4,41.04.03,1.45,2.28,1.45,2.25,0-.35-15.03-5.14-29.82-13.71-42.18-.82-1.18-2.77-.06-1.94,1.14h0Z"/>
      <rect class="cls-4" x="267.18" y="154.42" width="4.63" height="11.05" rx="2.14" ry="2.14" transform="translate(-43.07 137.34) rotate(-26.55)"/>
    </g>
    <g>
      <path class="cls-6" d="M262.45,180.56c5.08,1.12,9.64,3.52,12.13,8.27,2.68,5.12,2.91,11.35,3.04,17,.03,1.45,2.28,1.45,2.25,0-.13-6.14-.47-12.83-3.46-18.35-2.77-5.11-7.83-7.86-13.36-9.08-1.41-.31-2.01,1.86-.6,2.17h0Z"/>
      <rect class="cls-4" x="258.17" y="174.76" width="4.63" height="11.05" rx="2.14" ry="2.14" transform="translate(126.57 467.38) rotate(-99.68)"/>
    </g>
    <g>
      <path class="cls-6" d="M291.24,181.42c-3.16,1.53-4.82,4.01-5.2,7.47-.22,2.02-.12,4.07-.04,6.1.14,3.22.3,6.44.37,9.66.04,1.93,3.04,1.93,3,0-.11-4.98-.76-10.07-.4-15.05.05-.73.1-1.15.3-1.9.19-.71.23-.83.61-1.47.23-.39.12-.24.43-.57.2-.21.41-.41.63-.59.33-.27,1.2-.77,1.81-1.06,1.74-.84.22-3.43-1.51-2.59h0Z"/>
      <rect class="cls-4" x="292.97" y="175.3" width="5.56" height="11.05" rx="2.48" ry="2.48" transform="translate(266.21 526.2) rotate(-116.55)"/>
    </g>
  </g>
  <g>
    <g>
      <path class="cls-6" d="M635.16,257.27c8.35,12.04,13.06,26.38,13.4,41.04.03,1.45,2.28,1.45,2.25,0-.35-15.03-5.14-29.82-13.71-42.18-.82-1.18-2.77-.06-1.94,1.14h0Z"/>
      <rect class="cls-4" x="634.57" y="251.64" width="4.63" height="11.05" rx="2.14" ry="2.14" transform="translate(-47.78 311.83) rotate(-26.55)"/>
      <path class="cls-6" d="M513.43,265.76c8.35,12.04,13.06,26.38,13.4,41.04.03,1.45,2.28,1.45,2.25,0-.35-15.03-5.14-29.82-13.71-42.18-.82-1.18-2.77-.06-1.94,1.14h0Z"/>
      <rect class="cls-4" x="512.83" y="260.13" width="4.63" height="11.05" rx="2.14" ry="2.14" transform="translate(-64.42 258.31) rotate(-26.55)"/>
      <path class="cls-6" d="M541.28,261.63c8.35,12.04,13.06,26.38,13.4,41.04.03,1.45,2.28,1.45,2.25,0-.35-15.03-5.14-29.82-13.71-42.18-.82-1.18-2.77-.06-1.94,1.14h0Z"/>
      <rect class="cls-4" x="540.68" y="256" width="4.63" height="11.05" rx="2.14" ry="2.14" transform="translate(-59.63 270.32) rotate(-26.55)"/>
    </g>
    <g>
      <path class="cls-6" d="M508.11,286.27c5.08,1.12,9.64,3.52,12.13,8.27,2.68,5.12,2.91,11.35,3.04,17,.03,1.45,2.28,1.45,2.25,0-.13-6.14-.47-12.83-3.46-18.35-2.77-5.11-7.83-7.86-13.36-9.08-1.41-.31-2.01,1.86-.6,2.17h0Z"/>
      <rect class="cls-4" x="503.82" y="280.47" width="4.63" height="11.05" rx="2.14" ry="2.14" transform="translate(309.32 833.02) rotate(-99.68)"/>
    </g>
    <g>
      <path class="cls-6" d="M536.9,287.13c-3.16,1.53-4.82,4.01-5.2,7.47-.22,2.02-.12,4.07-.04,6.1.14,3.22.3,6.44.37,9.66.04,1.93,3.04,1.93,3,0-.11-4.98-.76-10.07-.4-15.05.05-.73.1-1.15.3-1.9.19-.71.23-.83.61-1.47.23-.39.12-.24.43-.57.2-.21.41-.41.63-.59.33-.27,1.2-.77,1.81-1.06,1.74-.84.22-3.43-1.51-2.59h0Z"/>
      <rect class="cls-4" x="538.62" y="281" width="5.56" height="11.05" rx="2.48" ry="2.48" transform="translate(527.12 898.91) rotate(-116.55)"/>
      <path class="cls-6" d="M516.2,299.81c.37.12.74.24,1.1.38.3.12-.19-.09.12.05.15.07.29.14.43.21.23.12.44.25.66.39.35.22-.07-.1.09.07.06.07.14.13.21.19.09.09.16.18.25.27-.28-.28-.08-.12-.02-.02s.12.2.18.3c.07.11.16.47.04.05.06.21.14.41.19.62.02.1.04.19.06.29.09.42,0-.16.02.11.16,3.15-.29,6.3-.4,9.45-.06,1.93,2.94,1.93,3,0,.07-2.04.23-4.07.36-6.1.09-1.39.16-2.78-.08-4.16-.49-2.85-2.87-4.21-5.42-5.01-1.85-.57-2.64,2.32-.8,2.89h0Z"/>
      <path class="cls-4" d="M508.24,295.44l-.27.34c-.6.77-.11,1.71,1.08,2.09l5.34,1.72c1.2.39,2.65.07,3.25-.7l.27-.34c.6-.77.11-1.71-1.08-2.09l-5.34-1.72c-1.2-.39-2.65-.07-3.25.7Z"/>
    </g>
  </g>
  <g>
    <g>
      <path class="cls-6" d="M656.97,264.69c8.35,12.04,13.06,26.38,13.4,41.04.03,1.45,2.28,1.45,2.25,0-.35-15.03-5.14-29.82-13.71-42.18-.82-1.18-2.77-.06-1.94,1.14h0Z"/>
      <rect class="cls-4" x="656.37" y="259.06" width="4.63" height="11.05" rx="2.14" ry="2.14" transform="translate(-48.8 322.36) rotate(-26.55)"/>
    </g>
    <g>
      <path class="cls-6" d="M651.64,285.2c5.08,1.12,9.64,3.52,12.13,8.27,2.68,5.12,2.91,11.35,3.04,17,.03,1.45,2.28,1.45,2.25,0-.13-6.14-.47-12.83-3.46-18.35-2.77-5.11-7.83-7.86-13.36-9.08-1.41-.31-2.01,1.86-.6,2.17h0Z"/>
      <rect class="cls-4" x="647.36" y="279.4" width="4.63" height="11.05" rx="2.14" ry="2.14" transform="translate(478.05 973.26) rotate(-99.68)"/>
    </g>
    <g>
      <path class="cls-6" d="M680.43,286.06c-3.16,1.53-4.82,4.01-5.2,7.47-.22,2.02-.12,4.07-.04,6.1.14,3.22.3,6.44.37,9.66.04,1.93,3.04,1.93,3,0-.11-4.98-.76-10.07-.4-15.05.05-.73.1-1.15.3-1.9.19-.71.23-.83.61-1.47.23-.39.12-.24.43-.57.2-.21.41-.41.63-.59.33-.27,1.2-.77,1.81-1.06,1.74-.84.22-3.43-1.51-2.59h0Z"/>
      <rect class="cls-4" x="682.16" y="279.93" width="5.56" height="11.05" rx="2.48" ry="2.48" transform="translate(735.78 1025.76) rotate(-116.55)"/>
    </g>
  </g>
  <g>
    <ellipse class="cls-5" cx="326.08" cy="262.27" rx="1.85" ry="4.08" transform="translate(27.26 555.21) rotate(-83.24)"/>
    <ellipse class="cls-5" cx="331.21" cy="267.51" rx="1.85" ry="4.08" transform="translate(26.57 564.93) rotate(-83.24)"/>
    <ellipse class="cls-5" cx="321.49" cy="266.36" rx="1.85" ry="4.08" transform="translate(19.14 554.26) rotate(-83.24)"/>
  </g>
  <g>
    <ellipse class="cls-5" cx="355.79" cy="276.49" rx="1.85" ry="4.08" transform="translate(39.35 597.27) rotate(-83.24)"/>
    <ellipse class="cls-5" cx="360.92" cy="281.74" rx="1.85" ry="4.08" transform="translate(38.66 606.98) rotate(-83.24)"/>
    <ellipse class="cls-5" cx="351.2" cy="280.58" rx="1.85" ry="4.08" transform="translate(31.23 596.32) rotate(-83.24)"/>
  </g>
  <g>
    <ellipse class="cls-5" cx="320.72" cy="272.85" rx="1.85" ry="4.08" transform="translate(12.02 559.22) rotate(-83.24)"/>
    <ellipse class="cls-5" cx="336.06" cy="280.26" rx="1.85" ry="4.08" transform="translate(18.19 581) rotate(-83.24)"/>
    <ellipse class="cls-5" cx="345.27" cy="286.53" rx="1.85" ry="4.08" transform="translate(20.09 595.67) rotate(-83.24)"/>
    <ellipse class="cls-5" cx="311.53" cy="281.09" rx="1.85" ry="4.08" transform="translate(-4.28 557.37) rotate(-83.24)"/>
    <ellipse class="cls-5" cx="308.86" cy="275.17" rx="1.85" ry="4.08" transform="translate(-.76 549.49) rotate(-83.24)"/>
    <ellipse class="cls-5" cx="326.35" cy="279.11" rx="1.85" ry="4.08" transform="translate(10.76 570.34) rotate(-83.24)"/>
  </g>
  <g>
    <ellipse class="cls-5" cx="371" cy="286.22" rx="1.85" ry="4.08" transform="translate(43.1 620.95) rotate(-83.24)"/>
    <ellipse class="cls-5" cx="386.34" cy="293.64" rx="1.85" ry="4.08" transform="translate(49.27 642.73) rotate(-83.24)"/>
    <ellipse class="cls-5" cx="395.55" cy="299.9" rx="1.85" ry="4.08" transform="translate(51.17 657.4) rotate(-83.24)"/>
    <ellipse class="cls-5" cx="361.81" cy="294.46" rx="1.85" ry="4.08" transform="translate(26.8 619.09) rotate(-83.24)"/>
    <ellipse class="cls-5" cx="359.14" cy="288.55" rx="1.85" ry="4.08" transform="translate(30.32 611.22) rotate(-83.24)"/>
    <ellipse class="cls-5" cx="376.63" cy="292.49" rx="1.85" ry="4.08" transform="translate(41.84 632.07) rotate(-83.24)"/>
  </g>
  <g>
    <ellipse class="cls-5" cx="333.6" cy="290.29" rx="1.85" ry="4.08" transform="translate(22.81 604.89) rotate(-86.38)"/>
    <ellipse class="cls-5" cx="349.33" cy="296.86" rx="1.85" ry="4.08" transform="translate(30.99 626.73) rotate(-86.38)"/>
    <ellipse class="cls-5" cx="339.56" cy="296.24" rx="1.85" ry="4.08" transform="translate(22.46 616.41) rotate(-86.38)"/>
  </g>
  <g>
    <ellipse class="cls-5" cx="382.4" cy="300.23" rx="1.85" ry="4.08" transform="translate(58.61 662.9) rotate(-86.38)"/>
    <ellipse class="cls-5" cx="398.13" cy="306.8" rx="1.85" ry="4.08" transform="translate(66.79 684.75) rotate(-86.38)"/>
    <ellipse class="cls-5" cx="388.37" cy="306.18" rx="1.85" ry="4.08" transform="translate(58.26 674.42) rotate(-86.38)"/>
  </g>
  <path class="cls-1" d="M644.62,305.75c2.91-.65,6.32.08,8.3,2.47,1.5,1.79,1.76,4.07,2.95,5.94.38.59.93,1.11,1.68,1.2-.76.08-1.47-.42-1.97-.98-1.39-1.71-1.86-4.07-3.23-5.69-1.84-2.23-4.9-2.99-7.73-2.95h0Z"/>
  <path class="cls-1" d="M660.07,295.29c.62,2.09-.42,4.74,2.7,4.88.73.08,1.6.16,2.22.66-1.15-.32-2.28.12-3.47-.17-2.47-.66-1.68-3.55-1.46-5.36h0Z"/>
</svg>