<?xml version="1.0" encoding="UTF-8"?>
<svg id="_Слой_1" data-name="Слой 1" xmlns="http://www.w3.org/2000/svg" viewBox="0 0 1707.02 590.87">
  <defs>
    <style>
      .cls-1 {
        fill: #ffde59;
      }

      .cls-2 {
        fill: #603813;
      }
    </style>
  </defs>
  <path class="cls-1" d="M488.94,40.78C431.82,28.28,359.41.43,283.35,1.61c-6.35.1-13.76,1.79-16.48,7.52-2,4.2-.58,9.19,1.19,13.49,15.25,37.17,40.07,50.35,77.97,63.68,37.9,13.33,94.21,25.75,131.11,41.66,69.99,30.18,117,96.28,160.93,158.56,2.56,3.63,5.2,7.5,5.6,11.93,1.16,12.77-15.09,18.76-27.77,20.65-201.44,30.08-417.49-45.79-614.43,4.07,108.91,34.45,223.87,45.94,337.95,51.97,86.31,4.57,173.7,10.37,254.32,41.53-21.83,59.62-69.51,127.94-126.53,155.87l165.13,16.82c86.23-67.82,192.06-104.82,295.74-140.66,47.03-16.26,94.27-32.57,143.19-41.64,54.33-10.07,109.9-11.05,165.16-11.22,152.44-.48,304.89,4.94,456.91,16.22,4.06-37.97,8.12-75.95,12.18-113.92-60.1,1.75-120.21,3.26-180.33,3.15-40.72-.08-122.17-3.18-162.86-1.76-125.56,4.36-258.69-2.27-401.05-5.53-60.12-1.38-126.19,5.97-177.64-25.17-51.78-31.34-163.52-96.03-197.65-146.03-17.91-26.24-66.02-75.23-97.05-82.02Z"/>
  <path class="cls-2" d="M489.34,39.34c-21.01-4.61-41.7-10.56-62.46-16.16-23.21-6.25-46.53-12.17-70.2-16.43-12.29-2.21-24.67-3.99-37.11-5.15-6.3-.59-12.62-1.02-18.95-1.27s-12.44-.49-18.62-.17c-4.61.24-9.49,1.24-13.17,4.19-4.39,3.5-5.09,9.02-3.76,14.2s3.74,9.84,6.09,14.4c2.09,4.05,4.43,7.97,7.06,11.7,9.89,14.01,23.57,24.17,38.89,31.6,17.63,8.55,36.53,14.48,55.27,20.07,21.45,6.4,43.09,12.19,64.47,18.84,20,6.22,39.84,13.13,58.23,23.29,18.72,10.34,35.82,23.38,51.46,37.93,15.87,14.76,30.28,31.03,43.82,47.93,13.71,17.1,26.54,34.89,39.21,52.77,3.19,4.51,6.59,8.95,9.52,13.63,2.54,4.05,4.26,8.86,2.24,13.5-1.56,3.6-4.84,6.14-8.18,7.99-3.88,2.15-8.17,3.52-12.48,4.5-5.18,1.18-10.51,1.77-15.77,2.46-6.03.79-12.07,1.48-18.12,2.09-12.12,1.22-24.27,2.1-36.43,2.7-24.49,1.19-49.03,1.22-73.53.49s-49.45-2.22-74.12-4.07c-24.81-1.86-49.59-4.07-74.37-6.26-24.75-2.19-49.5-4.35-74.28-6.1-24.58-1.73-49.2-3.06-73.84-3.56-24.36-.5-48.74-.2-73.06,1.33-24.1,1.52-48.14,4.25-71.9,8.57-11.46,2.08-22.86,4.54-34.15,7.4-1.48.38-1.37,2.46,0,2.89,18.86,5.96,37.94,11.25,57.16,15.94s38.42,8.74,57.8,12.3,39.06,6.66,58.68,9.31c19.56,2.64,39.17,4.88,58.81,6.79,19.76,1.92,39.54,3.52,59.35,4.88,19.61,1.35,39.24,2.39,58.87,3.47,19.41,1.06,38.81,2.25,58.18,3.82,19.28,1.57,38.53,3.52,57.7,6.16s38.17,5.94,57.01,10.19c18.74,4.23,37.27,9.4,55.4,15.75,4.46,1.56,8.89,3.19,13.3,4.89l-1.05-1.85c-4.43,12.07-9.65,23.83-15.51,35.28-6.19,12.08-13.08,23.81-20.64,35.09s-16.06,22.5-25.17,32.89c-8.85,10.09-18.39,19.59-28.72,28.17-9.81,8.16-20.36,15.47-31.66,21.43-1.37.72-2.76,1.43-4.15,2.11-1.47.72-.57,2.66.76,2.8,3.89.4,7.79.79,11.68,1.19,9.79,1,19.58,1.99,29.37,2.99,12.84,1.31,25.69,2.62,38.53,3.92,13.05,1.33,26.11,2.66,39.16,3.99l31.26,3.18c3.34.34,6.67.68,10.01,1.02,1.6.16,3.23.42,4.84.49.09,0,.18.03.28.03.84-.04,1.47-.75,2.1-1.25,1.27-.99,2.55-1.98,3.83-2.96,4.6-3.52,9.27-6.97,13.99-10.34,9.53-6.8,19.29-13.29,29.23-19.48,19.89-12.39,40.5-23.6,61.55-33.9,21.17-10.36,42.79-19.8,64.64-28.64,21.93-8.86,44.09-17.11,66.35-25.09,22.64-8.11,45.38-15.95,68.12-23.78,24.6-8.46,49.27-16.75,74.31-23.82,25.12-7.1,50.58-12.87,76.43-16.58s52.55-5.65,78.94-6.63c26.5-.98,53.03-1.07,79.54-1.08,26.9-.02,53.8.15,80.7.5s53.79.88,80.69,1.6c26.89.72,53.78,1.62,80.66,2.7,26.88,1.08,53.75,2.35,80.61,3.8,26.86,1.45,53.71,3.08,80.55,4.9,12.92.87,25.84,1.79,38.76,2.75.87.06,1.42-.74,1.5-1.5,3.16-29.55,6.32-59.11,9.48-88.66.9-8.42,1.8-16.84,2.7-25.26.08-.79-.76-1.52-1.5-1.5-27.14.79-54.28,1.53-81.42,2.1-27.14.57-54.28.96-81.43,1.04-18.65.06-37.29-.15-55.94-.53-19.92-.4-39.84-.88-59.75-1.21-18.21-.31-36.43-.56-54.64-.26-9.82.16-19.63.58-29.45.84-12.02.31-24.05.53-36.07.66-24.62.28-49.25.23-73.87-.04-25.14-.27-50.27-.77-75.4-1.37-25.75-.62-51.49-1.36-77.23-2.11s-52.91-1.56-79.37-2.27c-24.69-.66-49.36-1.25-74.06-1.15-22.76.09-45.59.19-68.25-2.19-21.96-2.31-43.95-7.11-63.86-16.92-7.45-3.67-14.46-8.15-21.57-12.43-6.74-4.05-13.48-8.1-20.2-12.18-15.61-9.46-31.15-19.04-46.51-28.91-16.47-10.58-32.75-21.48-48.61-32.97-14.76-10.69-29.22-21.88-42.71-34.14-5.87-5.34-11.57-10.89-16.88-16.78-4.55-5.04-8.56-10.39-12.49-15.92-9.87-13.88-21.56-26.59-33.77-38.43-13.13-12.74-27.35-25.01-43.31-34.09-6.06-3.45-12.53-6.51-19.37-8.03-1.88-.42-2.68,2.47-.8,2.89,7.14,1.58,13.82,4.87,20.09,8.56,7.65,4.49,14.83,9.76,21.71,15.35,14.57,11.84,28.02,25.17,40.27,39.39,4.87,5.66,9.58,11.49,13.82,17.65,3.96,5.75,8.38,11.15,13.11,16.28,11.45,12.4,24.36,23.43,37.6,33.86,15.16,11.96,30.93,23.15,46.94,33.93,15.95,10.74,32.17,21.07,48.52,31.18,14.04,8.68,28.19,17.19,42.34,25.7,7.39,4.45,14.69,9.04,22.51,12.73,9.88,4.66,20.26,8.2,30.86,10.81,21.89,5.39,44.54,6.99,67.01,7.49s45.64-.18,68.45.34c26.78.61,53.55,1.36,80.32,2.13,25.97.75,51.94,1.54,77.91,2.25,25.5.7,51.01,1.34,76.52,1.81,24.9.46,49.81.75,74.72.76,24.33.01,48.66-.24,72.99-.89,9.61-.25,19.22-.66,28.83-.81,8.55-.13,17.09-.13,25.64-.08,19.87.13,39.73.54,59.59.96,18.43.39,36.86.84,55.29,1.06,23.85.28,47.71.04,71.56-.29,26.98-.37,53.95-.97,80.92-1.67,13.15-.35,26.31-.72,39.46-1.1l-1.5-1.5c-3.16,29.55-6.32,59.11-9.48,88.66-.9,8.42-1.8,16.84-2.7,25.26l1.5-1.5c-18.8-1.39-37.6-2.7-56.41-3.92-18.81-1.22-37.62-2.34-56.44-3.38s-37.64-1.98-56.47-2.84c-18.83-.86-37.66-1.62-56.49-2.3s-37.67-1.26-56.51-1.76c-18.84-.5-37.68-.9-56.53-1.22-18.84-.32-37.69-.54-56.54-.68-18.85-.14-37.69-.18-56.54-.14-18.55.04-37.09.15-55.64.63s-36.99,1.33-55.43,2.87c-18.38,1.54-36.72,3.76-54.89,6.95-17.95,3.16-35.72,7.32-53.3,12.12-17.58,4.8-34.97,10.25-52.27,15.97s-33.92,11.51-50.85,17.37c-15.64,5.41-31.26,10.86-46.84,16.44-15.6,5.59-31.15,11.33-46.6,17.31s-30.72,12.19-45.88,18.77-30.08,13.47-44.82,20.85c-14.68,7.35-29.13,15.17-43.26,23.53-14.12,8.36-27.9,17.28-41.25,26.82-6.47,4.63-12.84,9.41-19.1,14.33l1.06-.44c-5.5-.56-11.01-1.12-16.51-1.68-13.13-1.34-26.25-2.67-39.38-4.01-15.91-1.62-31.82-3.24-47.73-4.86-13.75-1.4-27.5-2.8-41.24-4.2-4.52-.46-9.03-.92-13.55-1.38-2.1-.21-4.32-.66-6.44-.66-.09,0-.19-.02-.28-.03l.76,2.8c11.56-5.68,22.35-12.79,32.43-20.78,10.57-8.38,20.34-17.73,29.4-27.71s17.97-21.29,25.9-32.73c7.83-11.31,14.99-23.1,21.43-35.25s11.68-23.62,16.41-35.91c.56-1.45,1.1-2.91,1.64-4.37.3-.81-.34-1.57-1.05-1.85-18.02-6.95-36.48-12.7-55.21-17.42-18.63-4.7-37.51-8.39-56.49-11.36-19.13-2.99-38.36-5.24-57.64-7.03s-38.59-3.12-57.92-4.26-39.2-2.1-58.8-3.33c-19.73-1.24-39.44-2.69-59.13-4.44-19.77-1.76-39.51-3.82-59.2-6.27s-39.17-5.29-58.65-8.62c-19.5-3.34-38.92-7.16-58.21-11.56s-38.28-9.34-57.16-14.96c-4.63-1.38-9.25-2.79-13.85-4.25v2.89c23.44-5.92,47.3-10.12,71.32-12.87s48.33-4.1,72.58-4.45c24.44-.35,48.89.3,73.29,1.55s49.29,3.11,73.89,5.17c24.8,2.08,49.58,4.37,74.37,6.48,24.74,2.11,49.49,4.04,74.29,5.41s49.07,2.14,73.63,1.97c24.33-.17,48.66-1.3,72.86-3.79,6.05-.62,12.08-1.33,18.11-2.13,5.25-.7,10.56-1.28,15.72-2.5,7.82-1.84,17.23-5.25,21.42-12.67,2.23-3.95,2.38-8.67.74-12.87-2.05-5.24-5.87-9.76-9.09-14.32-6.3-8.92-12.63-17.82-19.08-26.63-12.85-17.57-26.15-34.85-40.57-51.16-14.27-16.14-29.66-31.36-46.67-44.62-16.77-13.06-35.01-24.06-54.68-32.16-19.82-8.17-40.49-14.2-61.06-20.14s-41.51-11.56-61.92-18.45c-17.19-5.8-34.73-12.28-49.65-22.83-6.76-4.78-12.84-10.5-17.97-17-5.73-7.26-10.24-15.51-13.77-24.05-2-4.83-3.93-11.05.34-15.27,3.2-3.16,8.21-4.01,12.52-4.18,12.55-.48,25.26.34,37.75,1.53,24.57,2.35,48.84,7.12,72.81,12.91,22.3,5.38,44.35,11.7,66.52,17.56,9.61,2.54,19.25,4.98,28.95,7.1,1.88.41,2.69-2.48.8-2.89Z"/>
</svg>