<?xml version="1.0" encoding="UTF-8"?>
<svg id="_Слой_1" data-name="Слой 1" xmlns="http://www.w3.org/2000/svg" viewBox="0 0 259.12 154.46">
  <defs>
    <style>
      .cls-1 {
        fill: #754027;
        stroke: #603813;
      }

      .cls-1, .cls-2, .cls-3, .cls-4, .cls-5, .cls-6, .cls-7, .cls-8, .cls-9 {
        stroke-miterlimit: 10;
      }

      .cls-1, .cls-3, .cls-9 {
        stroke-width: 3px;
      }

      .cls-10 {
        fill: #4d4d4d;
      }

      .cls-2, .cls-11 {
        fill: #009245;
      }

      .cls-2, .cls-3, .cls-4, .cls-5, .cls-7, .cls-8, .cls-9 {
        stroke: #233327;
      }

      .cls-2, .cls-4, .cls-5, .cls-7 {
        stroke-width: .75px;
      }

      .cls-12 {
        fill: #998675;
      }

      .cls-3, .cls-13 {
        fill: #006837;
      }

      .cls-14 {
        fill: #736357;
      }

      .cls-4 {
        fill: #fbb03b;
      }

      .cls-15 {
        fill: #233327;
      }

      .cls-16 {
        fill: #999;
      }

      .cls-5 {
        fill: #f2f2f2;
      }

      .cls-6 {
        fill: #60382e;
        stroke: #42210b;
      }

      .cls-6, .cls-8 {
        stroke-width: 2px;
      }

      .cls-7 {
        fill: #fcee21;
      }

      .cls-8 {
        fill: none;
      }

      .cls-17 {
        fill: #e6e6e6;
      }

      .cls-9 {
        fill: #f7931e;
      }
    </style>
  </defs>
  <path class="cls-1" d="M244.57,152.96H14.55c-8.85,0-15.12-8.62-12.41-17.04L30.36,48.46c1.74-5.38,6.75-9.03,12.41-9.03h173.59c5.66,0,10.67,3.65,12.41,9.03l28.22,87.46c2.72,8.42-3.56,17.04-12.41,17.04Z"/>
  <ellipse class="cls-6" cx="161.63" cy="101.81" rx=".76" ry=".91" transform="translate(53.8 259.48) rotate(-87.84)"/>
  <ellipse class="cls-6" cx="168.4" cy="101.26" rx=".76" ry=".91" transform="translate(60.86 265.72) rotate(-87.84)"/>
  <ellipse class="cls-6" cx="226.27" cy="100.03" rx=".76" ry=".91" transform="translate(117.77 322.37) rotate(-87.84)"/>
  <path class="cls-11" d="M170.58,106.23c.76-1.36,2.28-1.1,3.53-1.07.89.1,1.82.15,2.63.52.09.06.22.27.06.34.11-.1-.04-.2-.13-.23-1.41.03-3.06.36-4.26,1.09-.09.1-.05.15.02.11l-1.85-.76h0Z"/>
  <path class="cls-11" d="M155.21,54.04c.59-1.45,1.1-2.97,2.01-4.37.3-.92,1.34-1.69,2.1-2.14-.61.73-1.17,1.44-1.28,2.42-.38,1.22-.78,2.4-.82,3.7-.03.35-.03.66-.17,1.15l-1.85-.76h0Z"/>
  <path class="cls-11" d="M50.25,54.04c.59-1.45,1.1-2.97,2.01-4.37.3-.92,1.34-1.69,2.1-2.14-.61.73-1.17,1.44-1.28,2.42-.38,1.22-.78,2.4-.82,3.7-.03.35-.03.66-.17,1.15l-1.85-.76h0Z"/>
  <path class="cls-11" d="M200.01,96.85c.02-1.15-.2-2.54-.45-3.68-.19-.8-.44-1.78-1.14-2.17-.55-.33-1.52-.23-2.12-.77.72.36,1.44-.01,2.33.18,1.16.3,1.73,1.35,2.24,2.25.54,1.41.94,2.66,1.14,4.19,0,0-2,0-2,0h0Z"/>
  <g>
    <g>
      <ellipse class="cls-9" cx="86.28" cy="65.9" rx="10.01" ry="5.03" transform="translate(-12.2 111.59) rotate(-62.26)"/>
      <ellipse class="cls-9" cx="113.5" cy="65.52" rx="5.09" ry="9.4" transform="translate(-15.26 41.14) rotate(-19.27)"/>
      <ellipse class="cls-9" cx="101.21" cy="58.99" rx="7.31" ry="5.57"/>
      <ellipse class="cls-3" cx="101.21" cy="64.51" rx="7.68" ry="5.06"/>
      <path class="cls-9" d="M107.91,91.02c0-14.09-3.83-20.2,1.87-26.51,7.94-8.79,20.58,12.43,20.58,26.51s-12.29,27.41-18.49,27.41-3.96-13.32-3.96-27.41Z"/>
      <path class="cls-9" d="M93.64,91.02c0-14.09,4.01-20.2-1.96-26.51-8.31-8.79-21.54,12.43-21.54,26.51s12.86,27.41,19.35,27.41c6.49,0,4.15-13.32,4.15-27.41Z"/>
      <path class="cls-9" d="M88.1,92.92c0-14.09,2.19-25.5,13.12-25.5s13.12,11.42,13.12,25.5-3.66,25.5-13.12,25.5-13.12-11.42-13.12-25.5Z"/>
    </g>
    <path class="cls-15" d="M98.71,64.11c.05-1.53.28-3.46,1.28-4.87,1.11-1.57,2.69-3.03,3.76-4.22,2.11-2.3,2.68-5.23,5-7.61,2.4-2.81,6.44-2.63,9.76-2.64,3.15.01,6.49.43,9.36,1.9,3.03,1.31,4.23,4.55,6.5,6.74,2.06,2.18,4.36,4.24,6.22,6.73,1.23,1.56,1.52,3.77,1.1,5.61.67.87.35,2.23.34,3.27-.19,2.66-.72,5.28-.71,7.94.03.37.03.78.25,1.09-.23-.31-.25-.72-.29-1.09-.09-2.66.36-5.31.46-7.96-.02-1.03.24-2.26-.41-3.11-.1-.48.1-.93.1-1.36.15-1.48-.37-2.93-1.26-4.11-2.9-3.48-7.06-5.88-9.89-9.53-3.78-4.59-10.78-3.65-16.03-2.85-2.87.44-3.67,2.79-4.8,5.23-.91,3.06-3.74,5.89-5.4,8.35-.43.69-.36,1.5-.35,2.47,0,0-5,0-5,0h0Z"/>
    <path class="cls-13" d="M100.21,64.11c.03-1.24.13-2.62.78-3.79,1.04-1.69,2.58-3.08,3.76-4.5,2.5-2.88,3.1-7.33,6.75-9.28,2.3-.96,4.65-.86,7.03-.96,3.82-.07,7.99.43,11.1,2.88,1.7,1.58,2.75,3.64,4.49,5.2,2.12,2.15,4.48,4.12,6.35,6.56,1.2,1.54,1.52,3.58,1.11,5.46.01.11,0,.12.08.2.21.23.25.55.29.84.16,2.29-.26,4.56-.46,6.83-.05,1.47-.52,3.12.07,4.5-.23-.31-.24-.72-.28-1.09-.07-2.66.41-5.3.54-7.96-.01-1.04.27-2.28-.38-3.15-.07-.45.1-.88.11-1.31.17-1.5-.36-3.01-1.26-4.21-1.88-2.37-4.32-4.23-6.53-6.33-2.3-1.89-3.58-4.98-6.48-6.08-2.75-1.21-5.76-1.4-8.74-1.24-2.75.26-6.11,0-7.97,2.35-1.94,2.25-2.54,5.57-4.52,7.88-1.3,1.8-3.09,3.1-3.71,5.17-.14.62-.17,1.33-.16,2.04h-2Z"/>
    <path class="cls-15" d="M130.32,48.27c1.04-.52,2.16-.83,3.28-1.12,1.01-.26,2.15-.63,3.18-.49.85.11,1.34.7,1.76,1.29.68.94,1.32,1.81,2.28,2.49.66.47,1.67.12,2.05-.54.44-.75.13-1.58-.54-2.05s-1.24-1.52-1.9-2.32c-.91-1.1-2.13-1.72-3.55-1.86-1.34-.13-2.69.24-3.98.56-1.41.36-2.8.78-4.1,1.44-.72.37-.93,1.38-.54,2.05.43.73,1.33.91,2.05.54h0Z"/>
    <g>
      <path class="cls-15" d="M143.02,59.42c.41-2.27,1.75-4.44,3.05-6.32s2.93-3.66,4.79-5.04c3.92-2.9,8.97-4.15,13.71-2.73,1.85.56,2.64-2.34.8-2.89-5.45-1.64-11.47-.3-16.02,3.03-2.16,1.58-3.99,3.49-5.55,5.66s-3.19,4.82-3.67,7.49c-.34,1.89,2.55,2.7,2.89.8h0Z"/>
      <g>
        <path class="cls-11" d="M165.1,44.39c-2.74,2.9-1.86,7.41.54,8.7,2.39,1.29,5.32,2.06,7.91,3.17s4.95,2.79,5.14,4.84c.94-2.22,1.06-4.58.34-6.84,4.49,1.71,7.41,5.12,7.33,8.56,2.78-1.18,4.19-3.61,3.34-5.72,4.25.38,8.33,1.05,11.98,2.24-2.58-1.72-2.88-2.62-4.07-3.6-1.62-1.33-1.76-1.06-2.28-2.73-.05-.17-.1-.35-.01-.52.15-.28,1.01-.77,1.31-1,2-1.51,2.51-1.74,1.98-3.06-4.29.56-8.94-.27-12.21-2.19,2.45.21,5.04-.6,6.35-2-3.21-.2-5.68-1.88-8.42-3.02-3.47-1.44-7.69-2.05-11.75-1.71-1.8.15-5.35,1.09-6.94,4.38"/>
        <path class="cls-15" d="M164.04,43.32c-2.67,3-3.14,8.5.62,10.92,2.12,1.37,4.77,2,7.1,2.9,1.98.75,5.13,1.94,5.48,4.35.24,1.64,2.42,1.18,2.89,0,.99-2.46,1.09-5.09.34-7.63l-1.85,1.85c2.96,1.17,6.22,3.62,6.23,7.11,0,1.23,1.25,1.75,2.26,1.3,2.8-1.27,5.17-4.21,4.03-7.41l-1.45,1.9c3.92.36,7.82.98,11.58,2.19,1.69.54,2.5-1.83,1.16-2.74-1.19-.81-2.11-1.74-3.1-2.75-.7-.71-1.89-1.26-2.35-2.07-.07-.2-.14-.4-.2-.61l-.27.78c.11.03.75-.52.88-.61.66-.47,1.37-.96,1.95-1.52.93-.9,1.17-2.02.72-3.24-.21-.56-.77-1.18-1.45-1.1-3.9.47-8-.03-11.46-1.99l-.76,2.8c2.65.16,5.48-.54,7.41-2.44.99-.97.18-2.46-1.06-2.56-2.9-.25-5.38-1.88-8.02-2.96-2.77-1.13-5.76-1.7-8.75-1.83-4.53-.2-9.37.8-11.64,5.19-.88,1.71,1.7,3.23,2.59,1.51,2.06-4,6.94-4.02,10.85-3.57,2.67.31,5.2,1.11,7.63,2.27s4.68,2.16,7.34,2.39l-1.06-2.56c-1.38,1.36-3.43,1.67-5.29,1.56-1.51-.09-2.01,2.09-.76,2.8,3.89,2.21,8.56,2.93,12.97,2.4l-1.45-1.1c.2.53-.02.44.21.15-.16.2-.38.36-.58.52-.61.49-1.27.89-1.89,1.36-1.45,1.08-1.27,2.7-.37,4.12.68,1.08,1.95,1.68,2.83,2.6,1.1,1.15,2.23,2.16,3.56,3.06l1.16-2.74c-4.01-1.29-8.19-1.91-12.37-2.3-.93-.08-1.75,1.03-1.45,1.9.69,1.95-1.05,3.3-2.65,4.03l2.26,1.3c-.01-4.94-4.2-8.33-8.43-10.01-1.08-.43-2.15.83-1.85,1.85.62,2.08.47,4.03-.34,6.04h2.89c-.66-4.49-6.66-6.11-10.22-7.41-1.61-.58-3.87-1.1-4.64-2.79s-.32-3.7.88-5.05c1.28-1.44-.83-3.57-2.12-2.12h0Z"/>
      </g>
    </g>
    <g>
      <path class="cls-15" d="M148.82,82.32c.3-1.93,1.3-3.78,2.31-5.43s2.15-3.05,3.55-4.28c2.91-2.55,6.91-3.77,10.66-2.5,1.37.47,1.96-1.71.6-2.17-4.33-1.47-8.96-.1-12.42,2.72-1.66,1.35-3.04,3.04-4.18,4.85s-2.35,4.04-2.69,6.21c-.22,1.42,1.95,2.03,2.17.6h0Z"/>
      <g>
        <path class="cls-13" d="M165.74,69.45c-2.09,2.49-1.42,6.36.41,7.47,1.83,1.11,4.08,1.76,6.05,2.72,1.98.96,3.79,2.4,3.94,4.15.72-1.9.81-3.94.26-5.87,3.44,1.47,5.67,4.39,5.61,7.35,2.12-1.01,3.21-3.1,2.56-4.91,3.25.32,6.38.9,9.17,1.92-1.98-1.48-2.2-2.25-3.11-3.09-1.24-1.14-1.34-.91-1.74-2.34-.04-.15-.08-.3,0-.45.11-.24.77-.66,1-.86,1.53-1.3,1.92-1.49,1.52-2.63-3.28.48-6.84-.23-9.35-1.88,1.88.18,3.85-.52,4.86-1.71-2.46-.18-4.35-1.62-6.44-2.59-2.65-1.24-5.89-1.76-8.99-1.47-1.38.13-4.09.94-5.31,3.77"/>
        <path class="cls-15" d="M164.94,68.66c-1.91,2.44-2.45,6.6.12,8.85,1.44,1.26,3.58,1.82,5.32,2.55s4.36,1.84,4.67,4.04c.17,1.2,1.84.93,2.17,0,.75-2.12.82-4.29.26-6.47l-1.65,1.27c2.6,1.16,5.03,3.33,5.05,6.38,0,.88.94,1.36,1.69.97,2.28-1.18,3.87-3.58,3.07-6.18l-1.08,1.42c3.02.31,6,.86,8.87,1.88,1.31.47,1.79-1.35.87-2.06s-1.63-1.55-2.4-2.41c-.58-.65-1.42-1.11-1.8-1.89-.29-.59.08-.32-.08-.18.2-.17.44-.32.64-.49.47-.37.96-.76,1.35-1.21.65-.75.75-1.58.46-2.51-.13-.42-.59-.89-1.08-.83-3.05.4-6.15-.07-8.78-1.73l-.57,2.1c2.07.13,4.22-.49,5.66-2.04.7-.76.16-1.82-.8-1.92-2.24-.23-4.07-1.63-6.07-2.52-2.18-.98-4.53-1.5-6.92-1.6-3.59-.15-7.11.89-8.74,4.39-.61,1.3,1.33,2.45,1.94,1.14,1.61-3.45,5.37-3.62,8.71-3.09,2.08.33,3.93,1.09,5.77,2.08,1.7.91,3.36,1.67,5.3,1.86l-.8-1.92c-1.06,1.14-2.55,1.48-4.06,1.39-1.17-.07-1.46,1.53-.57,2.1,2.92,1.85,6.51,2.48,9.91,2.04l-1.08-.83c.16.51.03.45-.47.9s-1.06.79-1.52,1.24c-.87.86-.6,2.08-.04,3.06.48.85,1.41,1.36,2.05,2.08.9,1.02,1.77,1.93,2.86,2.76l.87-2.06c-3.05-1.09-6.25-1.63-9.46-1.97-.73-.07-1.28.78-1.08,1.42.5,1.65-.65,2.92-2.04,3.64l1.69.97c-.03-3.82-2.83-6.83-6.17-8.32-.87-.39-1.92.25-1.65,1.27.47,1.81.36,3.52-.26,5.27h2.17c-.51-3.56-4.75-5.01-7.61-6.17-1.38-.56-3.19-1.08-3.77-2.59s-.28-3.26.69-4.5c.88-1.13-.7-2.73-1.59-1.59h0Z"/>
      </g>
    </g>
    <circle class="cls-6" cx="159.5" cy="106.11" r="2.82"/>
    <circle class="cls-6" cx="170.02" cy="104.62" r="2.82"/>
    <circle class="cls-6" cx="172.84" cy="108.92" r="2.82"/>
    <circle class="cls-6" cx="157.91" cy="111.74" r="2.82"/>
    <g>
      <path class="cls-15" d="M135.58,61.69c2.46-1.18,4.58-3.45,6.27-5.56s3.11-4.48,4.05-7.07c1.9-5.21,1.56-11.27-1.42-16.01-1.03-1.63-3.62-.13-2.59,1.51,2.59,4.12,2.77,9.18,1.12,13.69-.8,2.19-2.05,4.26-3.54,6.05s-3.28,3.75-5.41,4.78c-1.74.84-.22,3.42,1.51,2.59h0Z"/>
      <g>
        <path class="cls-11" d="M143.78,34.04c-2.67,3.32-7.81,3.45-9.71,1.38-1.89-2.06-3.31-4.77-5.05-7.06-1.74-2.29-4.05-4.25-6.34-3.98,2.26-1.41,4.85-2.05,7.48-1.83-2.77-4.03-7.09-6.14-10.88-5.31.76-2.98,3.16-4.91,5.66-4.53-1.24-4.09-2.78-7.94-4.81-11.25,2.4,2.16,3.46,2.25,4.77,3.2,1.78,1.29,1.51,1.49,3.46,1.63.2.01.41.02.58-.1.28-.21.65-1.16.85-1.5,1.28-2.29,1.43-2.84,2.99-2.62.21,4.33,2.04,8.7,4.8,11.5-.71-2.36-.32-5.07.97-6.67.85,3.1,3.19,5.16,4.97,7.59,2.27,3.09,3.77,7.09,4.18,11.15.18,1.8-.16,5.48-3.49,7.77"/>
        <path class="cls-15" d="M142.72,32.98c-1.26,1.49-3.01,2.33-4.97,2.31-2.12-.03-3.08-1.34-4.22-2.98-2.54-3.64-5.54-9.78-10.84-9.43l.76,2.8c2.08-1.25,4.3-1.78,6.72-1.63,1.09.07,1.94-1.35,1.3-2.26-2.86-4.06-7.46-7.01-12.57-6l1.85,1.85c.56-2,1.99-3.68,4.22-3.43.97.11,1.71-1.05,1.45-1.9-1.24-4.03-2.78-7.99-4.96-11.61l-2.36,1.82c1.28,1.13,2.63,2,4.11,2.83,1.17.65,2.11,1.79,3.41,2.18,1.76.54,3.31.29,4.16-1.42.38-.76.74-1.56,1.22-2.26.17-.26.48-.41.12-.31.09-.03.48,0,.68.03l-1.5-1.5c.28,4.63,2,9.18,5.24,12.56,1.05,1.09,2.9-.03,2.51-1.46-.52-1.89-.39-3.9.81-5.51l-2.74-.36c.71,2.38,2.14,4.29,3.71,6.19,1.72,2.09,3.19,4.26,4.13,6.82,1.42,3.89,2.43,8.99-1.47,11.81-1.55,1.12-.05,3.72,1.51,2.59,4.44-3.21,4.81-8.19,3.51-13.12-.77-2.92-2.07-5.74-3.89-8.15-1.67-2.22-3.78-4.2-4.6-6.93-.4-1.33-1.99-1.36-2.74-.36-1.65,2.21-1.82,5.24-1.12,7.82l2.51-1.46c-2.68-2.78-4.13-6.61-4.36-10.44-.05-.88-.65-1.4-1.5-1.5-1.41-.17-2.46.39-3.24,1.54-.43.63-.8,1.32-1.14,2-.04.09-.5.99-.49.99.59-.26.63-.37.1-.34-.1,0-.2-.02-.29-.04-1-.23-1.89-1.31-2.82-1.85-1.31-.76-2.54-1.46-3.69-2.47-1.23-1.08-3.28.29-2.36,1.82,2.06,3.41,3.49,7.1,4.66,10.9l1.45-1.9c-3.53-.39-6.22,2.46-7.11,5.63-.33,1.16.75,2.06,1.85,1.85,3.68-.73,7.16,1.75,9.19,4.62l1.3-2.26c-2.92-.18-5.73.54-8.24,2.04-1.21.73-.78,2.9.76,2.8,2.7-.18,4.72,2.68,6.06,4.66,1.46,2.14,2.79,4.92,4.91,6.5,3.38,2.52,8.64,1.09,11.19-1.93,1.24-1.47-.87-3.6-2.12-2.12h0Z"/>
      </g>
    </g>
    <path class="cls-15" d="M165.1,113.17c-1.87-4.44-2.64-9.01-3.08-13.7-.47-4.44.35-8.43-.63-12.75-2.17-8.59-5.29-17.57-7.44-26.2,0,0,.65-.26.65-.26,2.19,4.04,4.25,8.13,6.32,12.22,4.02,8.15,9.2,17.48,8.1,27.02-.49,4.69-1.3,9.24-3.22,13.67,0,0-.7,0-.7,0h0Z"/>
    <path class="cls-13" d="M165.49,110.36c-.97-4.26-1.49-8.65-1.52-12.97-.04-4.26-.11-8.34-1.4-12.44-2.59-8.15-5.76-16.33-8.43-24.5,0,0,.28-.11.28-.11,3.46,7.82,7.24,15.91,10.34,23.9,2.47,6.23,2.64,13.06,1.97,19.6-.18,2.15-.4,4.36-.94,6.51h-.3Z"/>
    <g>
      <path class="cls-11" d="M142.63,50.31c6.06-.21,12.53,4.64,13.15,8.19s.13,7.18.38,10.77c.25,3.59,1.48,7.45,4.54,9.44-3.97-1-7.7-2.96-10.77-5.67.07,6.04,3.67,11.98,9.05,14.92-3.41,1.77-7.99,1.06-10.77-1.66-1.86,4.62-3.15,9.33-3.4,14.06-1.18-4.12-2.41-5.21-3.24-7.27-1.13-2.8-.63-2.7-2.92-4.7-.24-.2-.49-.41-.8-.47-.52-.1-1.77.34-2.29.44-3.49.68-4.13,1-5.87-.69,3.33-3.83,4.7-9.26,3.61-14.25-1.08,2.66-3.82,4.55-6.73,4.65,1.52-3.42.34-7.39.16-11.15-.24-4.77,1.23-9.57,4.09-13.36,1.27-1.68,4.76-4.44,10.77-3.15"/>
      <path class="cls-15" d="M142.63,51.81c3.1-.06,6.13,1.13,8.58,2.99,1,.76,1.96,1.67,2.6,2.76.74,1.25.74,2.79.79,4.2.21,6.44-.77,14.06,5.35,18.25l1.16-2.74c-3.74-.97-7.19-2.75-10.11-5.28-.93-.81-2.59-.32-2.56,1.06.16,6.69,3.97,12.94,9.79,16.22v-2.59c-2.93,1.44-6.59.79-8.95-1.42-.89-.83-2.09-.38-2.51.66-1.84,4.64-3.16,9.45-3.45,14.45l2.95-.4c-.66-2.25-1.65-4.25-2.76-6.31-.84-1.56-1.11-3.43-2.24-4.81-.63-.77-1.47-1.63-2.35-2.11-1.09-.6-2.26-.17-3.37.1-.99.25-2.1.55-3.13.58-.73.02-1.11-.28-1.65-.8v2.12c3.7-4.37,5.15-10.1,3.99-15.71-.25-1.19-2.22-1.54-2.74-.36-.97,2.22-2.98,3.76-5.44,3.91l1.45,1.9c1.33-3.23.67-6.67.33-10.02s0-6.63,1.26-9.76c.83-2.05,2.02-4.36,3.91-5.64,2.26-1.54,5.04-1.72,7.66-1.2,1.89.38,2.69-2.52.8-2.89-3.16-.63-6.45-.5-9.32,1.1-2.25,1.26-3.76,3.32-4.92,5.57-1.67,3.22-2.56,6.82-2.53,10.45.03,3.85,1.46,7.87-.08,11.59-.36.88.56,1.95,1.45,1.9,3.44-.21,6.62-2.19,8.03-5.4l-2.74-.36c.92,4.49-.25,9.29-3.22,12.79-.51.61-.63,1.53,0,2.12,1.38,1.31,2.75,1.84,4.65,1.58,1.07-.15,2.14-.36,3.19-.63.31-.08.97-.29,1.13-.23.41.15.97.85,1.26,1.18.97,1.11,1.2,2.88,1.89,4.21,1.01,1.96,1.99,3.77,2.62,5.91.49,1.66,2.85,1.28,2.95-.4.28-4.72,1.6-9.28,3.34-13.66l-2.51.66c3.4,3.18,8.41,3.94,12.59,1.89,1.02-.5.93-2.07,0-2.59-4.9-2.76-8.17-7.97-8.31-13.63l-2.56,1.06c3.32,2.88,7.18,4.95,11.44,6.05,1.7.44,2.53-1.8,1.16-2.74-2.61-1.79-3.58-5.14-3.8-8.15-.28-3.79.53-7.91-.54-11.61-.75-2.6-3.09-4.64-5.28-6.06-2.72-1.77-5.96-2.85-9.22-2.79-1.93.03-1.93,3.04,0,3h0Z"/>
    </g>
    <g>
      <path class="cls-15" d="M124.96,44.75c-.48-2.67-2.1-5.31-3.67-7.49s-3.39-4.08-5.55-5.66c-4.55-3.33-10.57-4.67-16.02-3.03-1.84.56-1.06,3.45.8,2.89,4.73-1.43,9.78-.17,13.71,2.73,1.81,1.34,3.4,3.04,4.69,4.89s2.73,4.15,3.15,6.47c.34,1.9,3.23,1.09,2.89-.8h0Z"/>
      <g>
        <path class="cls-13" d="M99.99,30.51c2.74,2.9,1.86,7.41-.54,8.7-2.39,1.29-5.32,2.06-7.91,3.17s-4.95,2.79-5.14,4.84c-.94-2.22-1.06-4.58-.34-6.84-4.49,1.71-7.41,5.12-7.33,8.56-2.78-1.18-4.19-3.61-3.34-5.72-4.25.38-8.33,1.05-11.98,2.24,2.58-1.72,2.88-2.62,4.07-3.6,1.62-1.33,1.76-1.06,2.28-2.73.05-.17.1-.35.01-.52-.15-.28-1.01-.77-1.31-1-2-1.51-2.51-1.74-1.98-3.06,4.29.56,8.94-.27,12.21-2.19-2.45.21-5.04-.6-6.35-2,3.21-.2,5.68-1.88,8.42-3.02,3.47-1.44,7.69-2.05,11.75-1.71,1.8.15,5.35,1.09,6.94,4.38"/>
        <path class="cls-15" d="M98.93,31.57c1.18,1.33,1.63,3.29.92,4.96-.74,1.76-3.05,2.28-4.68,2.88-3.56,1.3-9.56,2.92-10.22,7.41h2.89c-.8-2.01-.96-3.96-.34-6.04.3-1.01-.76-2.27-1.85-1.85-4.23,1.68-8.42,5.06-8.43,10.01l2.26-1.3c-1.6-.72-3.34-2.08-2.65-4.03.31-.87-.51-1.98-1.45-1.9-4.19.38-8.36,1.01-12.37,2.3l1.16,2.74c1.33-.9,2.46-1.91,3.56-3.06.87-.91,2.15-1.52,2.83-2.6.89-1.41,1.07-3.04-.37-4.12-.62-.46-1.28-.87-1.89-1.36-.2-.16-.42-.32-.58-.52.23.3.01.38.21-.15l-1.45,1.1c4.41.53,9.08-.19,12.97-2.4,1.25-.71.76-2.89-.76-2.8-1.85.11-3.91-.2-5.29-1.56l-1.06,2.56c2.59-.22,4.84-1.19,7.16-2.3,2.49-1.19,5.06-2.04,7.81-2.35,3.91-.45,8.78-.43,10.85,3.57.89,1.72,3.47.2,2.59-1.51-2.26-4.39-7.11-5.39-11.64-5.19-2.99.13-5.98.7-8.75,1.83s-5.12,2.72-8.02,2.96c-1.24.11-2.05,1.59-1.06,2.56,1.93,1.9,4.76,2.6,7.41,2.44l-.76-2.8c-3.45,1.96-7.55,2.46-11.46,1.99-.68-.08-1.24.53-1.45,1.1-.44,1.21-.2,2.33.72,3.24.58.56,1.29,1.06,1.95,1.52.15.1.63.55.79.54.29.25.22,0-.19-.72-.06.2-.13.41-.2.61-.45.81-1.65,1.37-2.35,2.07-1,1.01-1.91,1.94-3.1,2.75-1.33.91-.55,3.29,1.16,2.74,3.76-1.21,7.65-1.83,11.58-2.19l-1.45-1.9c-1.14,3.2,1.23,6.14,4.03,7.41,1.01.46,2.25-.07,2.26-1.3,0-3.49,3.27-5.94,6.23-7.11l-1.85-1.85c-.75,2.54-.65,5.17.34,7.63.47,1.18,2.65,1.65,2.89,0,.34-2.34,3.35-3.52,5.28-4.27,2.4-.93,5.12-1.57,7.3-2.97,3.76-2.42,3.29-7.92.62-10.92-1.29-1.45-3.4.68-2.12,2.12h0Z"/>
      </g>
    </g>
    <path class="cls-8" d="M145.01,48.67c3.07-6.14,8.4-11.12,14.73-13.77,1.49-.62,3.12-1.19,4.05-2.52.5-.72.73-1.59.91-2.45.41-2.04.56-4.14.42-6.22"/>
    <g>
      <path class="cls-2" d="M168.94,24.4c-.46.8-2.5,1.28-4.08.37s-2.1-2.85-1.65-3.65,2.11-.71,3.69.19,2.49,2.29,2.03,3.08Z"/>
      <path class="cls-7" d="M171.38,18.73c.7.42-1.64,2.35-.37,5.04.44.93-2.38,1.81-4.16.16-1.78-1.64-1.05-4.68-.16-4.16,2.25,1.32,4.26-1.3,4.7-1.04Z"/>
      <path class="cls-7" d="M168.27,16.56c.7.42-1.64,2.35-.37,5.04.44.93-2.38,1.81-4.16.16-1.78-1.64-1.05-4.68-.16-4.16,2.25,1.32,4.26-1.3,4.7-1.04Z"/>
      <path class="cls-4" d="M174.14,21.27c.4.71-2.59,1.24-2.8,4.21-.07,1.02-2.96.4-3.71-1.9-.74-2.31,1.38-4.6,1.9-3.71,1.31,2.26,4.35.95,4.6,1.4Z"/>
      <path class="cls-4" d="M172.77,19.79c.6.55-2.07,1.99-1.34,4.87.25,1-2.69,1.31-4.11-.65s-.12-4.8.65-4.11c1.95,1.73,4.43-.45,4.81-.11Z"/>
      <path class="cls-4" d="M163.92,14.19c.8-.15.36,2.85,3.1,3.99.95.4-.56,2.94-2.98,2.91s-3.92-2.77-2.91-2.98c2.55-.52,2.28-3.82,2.79-3.92Z"/>
      <path class="cls-4" d="M166.61,15.32c.78.25-1.04,2.67.82,4.98.64.8-1.89,2.32-4.01,1.14s-2.12-4.31-1.14-4.01c2.49.76,3.83-2.27,4.32-2.11Z"/>
      <path class="cls-4" d="M169.9,17.49c.7.42-1.64,2.35-.37,5.04.44.93-2.38,1.81-4.16.16s-1.05-4.68-.16-4.16c2.25,1.32,4.26-1.3,4.7-1.04Z"/>
    </g>
    <circle class="cls-6" cx="169.34" cy="111.74" r="2.82"/>
    <circle class="cls-6" cx="161.63" cy="113.17" r="2.82"/>
  </g>
  <path class="cls-11" d="M214.92,86.5l1.58-3.54.79-1.77c.29-.54.45-1.34,1.06-1.62-.49.41-.44,1.17-.58,1.76,0,0-.31,1.91-.31,1.91l-.62,3.83-1.92-.57h0Z"/>
  <g>
    <g>
      <polygon class="cls-12" points="205.31 92.09 216.01 96.48 228.34 91.43 224.31 102.65 206.16 103.03 205.31 92.09"/>
      <path class="cls-10" d="M226.64,93.21l-3.04,8.46-16.52.34-.65-8.38,8.81,3.62.76.31.76-.31,9.87-4.05M230.04,89.65l-14.03,5.75-11.82-4.85,1.05,13.5,19.78-.41,5.02-13.99h0Z"/>
    </g>
    <g>
      <polygon class="cls-14" points="204.91 89.76 201.5 83.18 225.92 85.43 228.51 89.2 216.01 94.32 204.91 89.76"/>
      <path class="cls-16" d="M203.23,84.35l22.13,2.04,1.62,2.36-10.97,4.5-10.38-4.26-2.4-4.63M199.77,82.02l4.42,8.52,11.82,4.85,14.03-5.75-3.56-5.17-26.71-2.46h0Z"/>
    </g>
    <g>
      <polygon class="cls-14" points="201.6 96.53 201.03 86.63 203.21 90.83 203.93 100.17 201.6 96.53"/>
      <path class="cls-16" d="M202.46,94.04l.17,2.25-.05-.08-.12-2.17M199.77,82.02l.85,14.83,4.62,7.2-1.05-13.5-4.42-8.52h0Z"/>
    </g>
  </g>
  <path class="cls-11" d="M204.78,104.8c.04-1.66-1.16-3.29-2.19-4.6-1.15-1.46-2.94-2.36-4.83-2.38.95-.15,1.95-.09,2.91.2,1.96.58,3.43,2.09,4.73,3.63.63.81,1.2,1.81,1.38,2.99l-1.99.16h0Z"/>
  <path class="cls-11" d="M76.44,119.5c0-3.51-2.59-10.76-7.03-10.55,1.19-.23,2.48.13,3.51.82,1.06.69,1.86,1.71,2.54,2.71,1.42,2.06,2.68,4.34,2.97,6.91,0,0-2,.1-2,.1h0Z"/>
  <path class="cls-11" d="M105.59,122.32c.03-2.86-1.87-8.61-5.5-8.55,2.06-.43,3.93,1.2,4.98,2.81,1.14,1.59,2.23,3.43,2.51,5.63l-2,.1h0Z"/>
  <path class="cls-11" d="M42.93,59.09c.03-2.85-1.87-8.61-5.5-8.55,2.06-.44,3.93,1.2,4.98,2.81,1.14,1.59,2.23,3.43,2.51,5.63l-2,.1h0Z"/>
  <path class="cls-11" d="M26.47,133.82c.03-2.86-1.87-8.61-5.5-8.55,2.06-.43,3.93,1.2,4.98,2.81,1.14,1.59,2.23,3.43,2.51,5.63l-2,.1h0Z"/>
  <path class="cls-11" d="M205.59,103.76c.35-1.28,1.09-3.19,2.66-3.49.48-.11.93-.12,1.39-.12-.42.17-.84.34-1.19.58-1.09.76-.95,1.98-.87,3.25,0,0-1.99-.23-1.99-.23h0Z"/>
  <path class="cls-11" d="M217.37,103.76c.51-1.16.48-3.28,2.07-3.71.5-.16,1.03-.13,1.44.08-.46-.05-.9.11-1.22.36-1.11,1.07-.18,2.06-.35,3.72,0,0-1.95-.46-1.95-.46h0Z"/>
  <path class="cls-11" d="M92.96,123.14c.51-1.16.48-3.28,2.07-3.71.5-.16,1.03-.13,1.44.08-.46-.05-.9.11-1.22.36-1.11,1.07-.18,2.06-.35,3.72,0,0-1.95-.46-1.95-.46h0Z"/>
  <path class="cls-11" d="M28.9,135.62c.4-.82.67-4.48,2.26-3.74-.84-.12-.73,1.07-.66,1.62.1.72.32,1.45.39,2.35l-1.99-.23h0Z"/>
  <path class="cls-11" d="M173.41,113.48c.51-1.16.48-3.28,2.07-3.71.5-.16,1.03-.13,1.44.08-.46-.05-.9.11-1.22.36-1.11,1.07-.18,2.06-.35,3.72,0,0-1.95-.46-1.95-.46h0Z"/>
  <path class="cls-11" d="M72.56,121.2c.32-.58.34-1.59.77-2.56.38-.95,1.6-1.59,2.51-1.08-.85-.11-1.54.57-1.55,1.37-.05.74.27,1.55.22,2.7l-1.96-.42h0Z"/>
  <path class="cls-11" d="M233.43,135.5c.51-1.16.48-3.28,2.07-3.71.5-.16,1.03-.13,1.44.08-.46-.05-.9.11-1.22.36-1.11,1.07-.18,2.06-.35,3.72,0,0-1.95-.46-1.95-.46h0Z"/>
  <path class="cls-11" d="M47.56,67.25c.51-1.16.48-3.28,2.07-3.71.5-.16,1.03-.13,1.44.08-.46-.05-.9.11-1.22.36-1.11,1.07-.18,2.06-.35,3.72,0,0-1.95-.46-1.95-.46h0Z"/>
  <path class="cls-11" d="M91.29,124c.63-1.93.38-4.25,1.27-6.23.86-2.14,3.48-3.3,5.59-2.48-2.02-.43-4.19.85-4.65,2.83-.51,1.88.09,3.95-.27,6.34l-1.95-.46h0Z"/>
  <path class="cls-11" d="M223.76,103.36c.66-.6,2.35-2.12,2.99-2.7.33-.3.75-.66,1.22-.62-.44.14-.63.55-.82.93-.38.76-1.41,2.82-1.8,3.61,0,0-1.59-1.21-1.59-1.21h0Z"/>
  <path class="cls-11" d="M224.98,103.73c.76-1.36,2.28-1.1,3.53-1.07.89.1,1.82.15,2.63.52.09.06.22.27.06.34.11-.1-.04-.2-.13-.23-1.41.03-3.06.36-4.26,1.09-.09.1-.05.15.02.11l-1.85-.76h0Z"/>
  <path class="cls-11" d="M89.3,123.83c.69-.84,1.06-2.16.76-3.5.9,1.04,1.39,2.6,1.1,4.24l-1.86-.74h0Z"/>
  <path class="cls-11" d="M144.58,139c.69-.84,1.06-2.16.76-3.5.9,1.04,1.39,2.6,1.1,4.24l-1.86-.74h0Z"/>
  <path class="cls-11" d="M199.34,104.46c.85-.94-.29-4.16-1.71-4.1,1.06-.37,2.03.7,2.64,1.44.75.94,1.31,2.17.89,3.49,0,0-1.82-.83-1.82-.83h0Z"/>
  <path class="cls-11" d="M153.58,116.99c.85-.94-.29-4.16-1.71-4.1,1.06-.37,2.03.7,2.64,1.44.75.94,1.31,2.17.89,3.49,0,0-1.82-.83-1.82-.83h0Z"/>
  <ellipse class="cls-6" cx="100.75" cy="135.25" rx="2.6" ry="2.18"/>
  <ellipse class="cls-6" cx="140.2" cy="124.23" rx="2.18" ry="2.6" transform="translate(10.78 259.65) rotate(-87.84)"/>
  <ellipse class="cls-6" cx="197.09" cy="141.44" rx="2.18" ry="2.6" transform="translate(48.31 333.06) rotate(-87.84)"/>
  <ellipse class="cls-6" cx="213.2" cy="106.19" rx="2.18" ry="2.6" transform="translate(99.04 315.24) rotate(-87.84)"/>
  <ellipse class="cls-6" cx="213.37" cy="57.17" rx="2.18" ry="2.6" transform="translate(148.19 268.23) rotate(-87.84)"/>
  <ellipse class="cls-6" cx="44.93" cy="62.44" rx="2.18" ry="2.6" transform="translate(-19.16 104.98) rotate(-87.84)"/>
  <ellipse class="cls-6" cx="41.83" cy="65.9" rx=".76" ry=".91" transform="translate(-25.6 105.21) rotate(-87.84)"/>
  <ellipse class="cls-6" cx="44.69" cy="68.63" rx=".76" ry=".91" transform="translate(-25.57 110.7) rotate(-87.84)"/>
  <ellipse class="cls-6" cx="33.55" cy="111.74" rx=".76" ry=".91" transform="translate(-79.38 141.06) rotate(-87.84)"/>
  <ellipse class="cls-6" cx="51.08" cy="96.19" rx=".76" ry=".91" transform="translate(-46.97 143.6) rotate(-87.84)"/>
  <ellipse class="cls-6" cx="26.55" cy="107.87" rx=".76" ry=".91" transform="translate(-82.24 130.34) rotate(-87.84)"/>
  <ellipse class="cls-6" cx="93.94" cy="136.67" rx=".76" ry=".91" transform="translate(-46.17 225.38) rotate(-87.84)"/>
  <ellipse class="cls-6" cx="51.08" cy="54.78" rx=".76" ry=".91" transform="translate(-5.59 103.76) rotate(-87.84)"/>
  <ellipse class="cls-6" cx="96.48" cy="139.37" rx=".76" ry=".91" transform="translate(-46.43 230.52) rotate(-87.84)"/>
  <ellipse class="cls-6" cx="112.77" cy="139.98" rx=".76" ry=".91" transform="translate(-31.36 247.39) rotate(-87.84)"/>
  <ellipse class="cls-6" cx="209.64" cy="61.16" rx=".76" ry=".91" transform="translate(140.62 268.35) rotate(-87.84)"/>
  <ellipse class="cls-6" cx="217.53" cy="60.39" rx=".76" ry=".91" transform="translate(148.97 275.49) rotate(-87.84)"/>
  <ellipse class="cls-6" cx="206.66" cy="55.51" rx=".76" ry=".91" transform="translate(143.4 259.93) rotate(-87.84)"/>
  <ellipse class="cls-6" cx="203.25" cy="62.45" rx=".76" ry=".91" transform="translate(133.19 263.2) rotate(-87.84)"/>
  <ellipse class="cls-6" cx="157.91" cy="115.99" rx=".76" ry=".91" transform="translate(36.05 269.41) rotate(-87.84)"/>
  <ellipse class="cls-6" cx="166.52" cy="115.55" rx=".76" ry=".91" transform="translate(44.78 277.6) rotate(-87.84)"/>
  <ellipse class="cls-6" cx="164.45" cy="117.49" rx=".76" ry=".91" transform="translate(40.84 277.38) rotate(-87.84)"/>
  <ellipse class="cls-6" cx="172.84" cy="115.79" rx=".76" ry=".91" transform="translate(50.62 284.13) rotate(-87.84)"/>
  <ellipse class="cls-6" cx="154.68" cy="107.87" rx=".76" ry=".91" transform="translate(41.05 258.37) rotate(-87.84)"/>
  <ellipse class="cls-6" cx="162.32" cy="108.92" rx=".76" ry=".91" transform="translate(47.35 267.02) rotate(-87.84)"/>
  <ellipse class="cls-6" cx="21.91" cy="132.34" rx=".76" ry=".91" transform="translate(-111.17 149.25) rotate(-87.84)"/>
  <ellipse class="cls-6" cx="106.59" cy="134.75" rx=".76" ry=".91" transform="translate(-32.09 236.19) rotate(-87.84)"/>
  <ellipse class="cls-6" cx="48.54" cy="60.39" rx=".76" ry=".91" transform="translate(-13.65 106.62) rotate(-87.84)"/>
  <ellipse class="cls-6" cx="40.68" cy="60.39" rx=".76" ry=".91" transform="translate(-21.2 98.77) rotate(-87.84)"/>
  <path class="cls-17" d="M116.9,74.67c.36.28.72,1.02.91,1.59.28.85.45,1.73.65,2.6.49,2.14.97,4.29,1.33,6.46.13.8,1.12,1.25,1.85,1.05.85-.23,1.18-1.04,1.05-1.85-.4-2.39-.93-4.76-1.48-7.12-.48-2.06-1.05-3.98-2.79-5.32-.64-.49-1.68-.1-2.05.54-.45.77-.11,1.56.54,2.05h0Z"/>
  <path class="cls-17" d="M121.57,92.76c1.93,0,1.93-3,0-3s-1.93,3,0,3h0Z"/>
  <g>
    <path class="cls-13" d="M35.74,86.86c2.06,2.89,2.11,6.68,2.29,10.11,0,0-1.98-.27-1.98-.27.45-3.24,1.11-6.73-.31-9.85h0Z"/>
    <ellipse class="cls-4" cx="35.74" cy="86.78" rx=".6" ry=".52"/>
    <g>
      <ellipse class="cls-5" cx="35.74" cy="85.19" rx=".9" ry="1.17" transform="translate(-9.25 4.5) rotate(-6.38)"/>
      <path class="cls-16" d="M35.68,86.14c.16-.67.04-1.34-.14-2,.26.62.46,1.33.39,2,0,0-.25,0-.25,0h0Z"/>
    </g>
    <g>
      <ellipse class="cls-5" cx="37.12" cy="86.36" rx=".88" ry=".68" transform="translate(-9.37 4.66) rotate(-6.38)"/>
      <path class="cls-16" d="M36.43,86.33c.11-.03.21-.02.33-.08.22-.01.49-.1.71-.05.38.2.34.18-.01.05-.18-.01-.46.11-.65.16-.07.06-.21.11-.31.17l-.07-.24h0Z"/>
    </g>
    <g>
      <ellipse class="cls-5" cx="34.46" cy="86.14" rx=".68" ry=".88" transform="translate(-54.35 59.3) rotate(-51.38)"/>
      <path class="cls-16" d="M34.82,86.68c-.14-.22-.1-.43-.3-.6-.16-.18-.28-.32-.52-.41.22-.02.44.18.61.32.19.1.28.4.41.55,0,0-.2.15-.2.15h0Z"/>
    </g>
    <g>
      <ellipse class="cls-5" cx="34.55" cy="87.94" rx="1.17" ry=".9" transform="translate(-57.66 67.3) rotate(-55.94)"/>
      <path class="cls-16" d="M35.18,87.24c-.54.45-.83.91-1.12,1.53,0,0,.35-.9.35-.9.11-.32.41-.55.57-.77l.2.14h0Z"/>
    </g>
    <g>
      <ellipse class="cls-5" cx="36.67" cy="88.16" rx=".9" ry="1.17" transform="translate(-42.78 35.21) rotate(-33.74)"/>
      <path class="cls-16" d="M36.24,87.31c.37.43.54,1.02.6,1.57-.12-.39-.24-.82-.5-1.14-.28-.31-.46-.24-.11-.44h0Z"/>
    </g>
  </g>
  <g>
    <path class="cls-13" d="M230.01,125.68c2.06,2.89,2.11,6.68,2.29,10.11,0,0-1.98-.27-1.98-.27.45-3.24,1.11-6.73-.31-9.85h0Z"/>
    <ellipse class="cls-4" cx="230.01" cy="125.61" rx=".6" ry=".52"/>
    <g>
      <ellipse class="cls-5" cx="230.01" cy="124.02" rx=".9" ry="1.17" transform="translate(-12.36 26.33) rotate(-6.38)"/>
      <path class="cls-16" d="M229.94,124.97c.16-.67.04-1.34-.14-2,.26.62.46,1.33.39,2,0,0-.25,0-.25,0h0Z"/>
    </g>
    <g>
      <ellipse class="cls-5" cx="231.38" cy="125.18" rx=".88" ry=".68" transform="translate(-12.48 26.49) rotate(-6.38)"/>
      <path class="cls-16" d="M230.7,125.16c.11-.03.21-.02.33-.08.22-.01.49-.1.71-.05.38.2.34.18-.01.05-.18-.01-.46.11-.65.16-.07.06-.21.11-.31.17l-.07-.24h0Z"/>
    </g>
    <g>
      <ellipse class="cls-5" cx="228.72" cy="124.97" rx=".68" ry=".88" transform="translate(-11.68 225.67) rotate(-51.38)"/>
      <path class="cls-16" d="M229.08,125.51c-.14-.22-.1-.43-.3-.6-.16-.18-.28-.32-.52-.41.22-.02.44.18.61.32.19.1.28.4.41.55,0,0-.2.15-.2.15h0Z"/>
    </g>
    <g>
      <ellipse class="cls-5" cx="228.81" cy="126.77" rx="1.17" ry=".9" transform="translate(-4.36 245.32) rotate(-55.94)"/>
      <path class="cls-16" d="M229.45,126.07c-.54.45-.83.91-1.12,1.53,0,0,.35-.9.35-.9.11-.32.41-.55.57-.77l.2.14h0Z"/>
    </g>
    <g>
      <ellipse class="cls-5" cx="230.93" cy="126.98" rx=".9" ry="1.17" transform="translate(-31.64 149.63) rotate(-33.74)"/>
      <path class="cls-16" d="M230.5,126.14c.37.43.54,1.02.6,1.57-.12-.39-.24-.82-.5-1.14-.28-.31-.46-.24-.11-.44h0Z"/>
    </g>
  </g>
  <path class="cls-11" d="M37.2,99.42c.32-.58.34-1.59.77-2.56.38-.95,1.6-1.59,2.51-1.08-.85-.11-1.54.57-1.55,1.37-.05.74.27,1.55.22,2.7l-1.96-.42h0Z"/>
  <path class="cls-11" d="M36.03,100.31c-.37-2.74.95-5.31-1.04-7.3-.6-.53-1.47-.81-2.33-.61.8-.37,1.81-.28,2.61.2,2.49,1.42,2.01,5.21,2.71,7.31,0,0-1.96.4-1.96.4h0Z"/>
  <path class="cls-11" d="M34.95,98.35c-.07-1.65,1.1-3.98-1.19-4.05.38-.22.92-.23,1.38,0,1.34.59,1.33,2.77,1.77,3.66,0,0-1.96.4-1.96.4h0Z"/>
</svg>