<?xml version="1.0" encoding="UTF-8"?>
<svg id="_Слой_1" data-name="Слой 1" xmlns="http://www.w3.org/2000/svg" viewBox="0 0 64.88 149.07">
  <defs>
    <style>
      .cls-1 {
        fill: #603813;
      }

      .cls-2 {
        fill: #a67c52;
      }

      .cls-3 {
        fill: #754c24;
        stroke: #603813;
        stroke-miterlimit: 10;
      }

      .cls-4 {
        fill: #604f44;
      }

      .cls-5 {
        fill: #6f5943;
      }
    </style>
  </defs>
  <path class="cls-1" d="M34.99,144.78c-4.66-41.97,9.06-83.7,2.17-125.62-.94-5.7-9.61-3.28-8.68,2.39,6.74,41.01-7.06,82.09-2.49,123.22.63,5.69,9.64,5.76,9,0h0Z"/>
  <g>
    <path class="cls-2" d="M16.49,55.3L1.14,47.18c-.07-.04-.11-.07-.13-.1.02,0,.06-.04.13-.08l15.34-8.12h35.84c.36,0,.58.16.62.23v16s-.25.2-.62.2H16.49Z"/>
    <path class="cls-1" d="M51.94,39.89v14.42H16.73s-13.62-7.21-13.62-7.21l13.62-7.21h35.21M52.33,37.89H16.24S.68,46.12.68,46.12c-.9.48-.9,1.47,0,1.95l15.56,8.24h0s36.09,0,36.09,0c.89,0,1.61-.54,1.61-1.2v-16.03c0-.66-.72-1.2-1.61-1.2h0Z"/>
  </g>
  <g>
    <path class="cls-2" d="M18.02,57.09l-15.34-8.12c-.07-.04-.11-.07-.13-.1.02,0,.06-.04.13-.08l15.34-8.12h35.84c.36,0,.58.16.62.23v16s-.25.2-.62.2H18.02Z"/>
    <path class="cls-1" d="M53.48,41.67v14.42H18.27s-13.62-7.21-13.62-7.21l13.62-7.21h35.21M53.87,39.67H17.77s-15.56,8.24-15.56,8.24c-.9.48-.9,1.47,0,1.95l15.56,8.24h0s36.09,0,36.09,0c.89,0,1.61-.54,1.61-1.2v-16.03c0-.66-.72-1.2-1.61-1.2h0Z"/>
  </g>
  <g>
    <path class="cls-2" d="M10.7,91.43c-.36,0-.58-.16-.62-.23v-16s.25-.2.62-.2h35.84l15.34,8.12c.07.04.11.08.13.1-.02,0-.06.04-.13.08l-15.34,8.12H10.7Z"/>
    <path class="cls-1" d="M46.29,76.01l13.62,7.21-13.62,7.21H11.08v-14.42h35.21M46.79,74.01H10.7c-.89,0-1.61.54-1.61,1.2v16.03c0,.66.72,1.2,1.61,1.2h36.09s15.56-8.24,15.56-8.24c.9-.48.9-1.47,0-1.95l-15.56-8.24h0Z"/>
  </g>
  <g>
    <path class="cls-2" d="M29.84,75.51l-3.34-7.64c-.1-.22-.1-.93,0-1.15l3.34-7.64h7.07c0,.06,0,.12,0,.2v16.03c0,.07,0,.14,0,.2h-7.07Z"/>
    <path class="cls-1" d="M35.91,60.09v14.42h-5.42s-3.05-6.98-3.05-6.98c-.02-.12-.02-.35,0-.47l3.05-6.98h5.42M37.54,58.09h-8.35s-3.6,8.24-3.6,8.24c-.21.48-.21,1.47,0,1.95l3.6,8.24h0s8.35,0,8.35,0c.21,0,.37-.54.37-1.2v-16.03c0-.66-.17-1.2-.37-1.2h0Z"/>
  </g>
  <g>
    <path class="cls-2" d="M32.99,75.15l-3.34-7.64c-.1-.22-.1-.93,0-1.15l3.34-7.64h7.07c0,.06,0,.12,0,.2v16.03c0,.07,0,.14,0,.2h-7.07Z"/>
    <path class="cls-1" d="M39.06,59.73v14.42h-5.42s-3.05-6.98-3.05-6.98c-.02-.12-.02-.35,0-.47l3.05-6.98h5.42M40.69,57.73h-8.35l-3.6,8.24c-.21.48-.21,1.47,0,1.95l3.6,8.24h0s8.35,0,8.35,0c.21,0,.37-.54.37-1.2v-16.03c0-.66-.17-1.2-.37-1.2h0Z"/>
  </g>
  <g>
    <path class="cls-2" d="M12.55,93.57c-.36,0-.58-.16-.62-.23v-16s.25-.2.62-.2h35.84l15.34,8.12c.07.04.11.07.13.1-.02,0-.06.04-.13.08l-15.34,8.12H12.55Z"/>
    <path class="cls-1" d="M48.15,78.15l13.62,7.21-13.62,7.21H12.94v-14.42h35.21M48.64,76.15H12.55c-.89,0-1.61.54-1.61,1.2v16.03c0,.66.72,1.2,1.61,1.2h36.09s15.56-8.24,15.56-8.24c.9-.48.9-1.47,0-1.95l-15.56-8.24h0Z"/>
  </g>
  <path class="cls-3" d="M53.48,9.15c0-4.78-8.55-8.65-19.1-8.65S15.29,4.37,15.29,9.15c0,.05-1,1.28-1,2.87s1,2.81,1,2.87c0,4.78,8.55,8.65,19.1,8.65s19.1-3.87,19.1-8.65c.1-.39.77-1.28.77-2.87s-.67-2.33-.77-2.87ZM15.84,12.01,52.71,12.01"/>
  <g>
    <path class="cls-4" d="M34.27,11.41c-4.82,0-9.69-1.09-9.69-3.18s4.88-3.18,9.69-3.18,9.69,1.09,9.69,3.18-4.88,3.18-9.69,3.18Z"/>
    <path class="cls-1" d="M34.27,5.55c5.08,0,9.19,1.2,9.19,2.68s-4.11,2.68-9.19,2.68-9.19-1.2-9.19-2.68,4.11-2.68,9.19-2.68M34.27,4.55c-3.78,0-10.19.77-10.19,3.68s6.41,3.68,10.19,3.68,10.19-.77,10.19-3.68-6.41-3.68-10.19-3.68h0Z"/>
  </g>
  <path class="cls-5" d="M26.32,9.57c1.59-.8,4.55-1.34,7.95-1.34s6.36.54,7.95,1.34c.78-.39,1.24-.85,1.24-1.34,0-1.48-4.11-2.68-9.19-2.68s-9.19,1.2-9.19,2.68c0,.49.46.94,1.24,1.34Z"/>
  <g>
    <path class="cls-1" d="M24.24,14.26c1.91,1.66,4.6,1.71,6.98,1.93,2.42.02,4.89-1.25,7.38-.61,0,0,0,.1,0,.1-2.51.47-4.85,1.68-7.43,1.31-2.32-.41-5.61-.74-6.92-2.73h0Z"/>
    <path class="cls-1" d="M15.22,12.5c-.85-.99-1.16-2.19-1.17-3.46-.09-1.23.03-2.51.5-3.64,0,0,.1.03.1.03-.18,1.19-.05,2.36.2,3.5.34,1.17.66,2.28.47,3.55,0,0-.1.03-.1.03h0Z"/>
    <path class="cls-1" d="M28.47,2.32c2.97-2.73,7.48-1.76,11.01-.92,1.16.33,2.53.58,3.53,1.47l-.05.09c-2.42-.5-4.96-.7-7.34-1.49-2.37-.53-5.05-.6-7.08.93,0,0-.07-.08-.07-.08h0Z"/>
    <path class="cls-1" d="M23.22,10.05c-.57-1.3-1.3-2.65-1.07-4.13.5-1.59,2.6-2.04,3.96-1.4,0,0,0,.1,0,.1-1.01.39-2.67.76-3.2,1.56-.3,1.09.15,2.68.41,3.84,0,0-.09.04-.09.04h0Z"/>
    <path class="cls-1" d="M26.98,22.25c-3.86,2.14-8.37-.12-12.06-1.58,0,0,.03-.09.03-.09,1.99.54,3.97,1.11,5.97,1.38,2.04.19,3.95.23,6.03.2,0,0,.03.1.03.1h0Z"/>
    <path class="cls-1" d="M47.17,20.32l1.98-1.56c.96-.83,2.97-1.86,3.14-3.25.15-.68.02-1.48-.1-2.34l.09-.05c1.49,1.49,1.34,3.76-.66,4.76-1.45.88-2.92,1.71-4.4,2.52l-.05-.08h0Z"/>
    <path class="cls-1" d="M47.33,13.16l3-1.36c1.03-.38,2.07-.71,2.92-1.27,1.78-1.24,2.11-3.38,2.93-5.32,0,0,.1.01.1.01.47,4.33-1.8,6.29-5.8,7.05,0,0-3.11.97-3.11.97,0,0-.04-.09-.04-.09h0Z"/>
  </g>
</svg>