<?xml version="1.0" encoding="UTF-8"?>
<svg id="_Слой_1" data-name="Слой 1" xmlns="http://www.w3.org/2000/svg" viewBox="0 0 249.98 255.29">
  <defs>
    <style>
      .cls-1 {
        stroke: #68631d;
      }

      .cls-1, .cls-2 {
        fill: #f6e281;
      }

      .cls-1, .cls-3, .cls-4, .cls-5 {
        stroke-miterlimit: 10;
      }

      .cls-1, .cls-3, .cls-5 {
        stroke-width: 3px;
      }

      .cls-6 {
        fill: #939357;
      }

      .cls-7 {
        fill: #68631d;
      }

      .cls-8, .cls-3 {
        fill: #c69c6d;
      }

      .cls-9 {
        fill: #603813;
      }

      .cls-3, .cls-4, .cls-5 {
        stroke: #603813;
      }

      .cls-4 {
        fill: none;
        stroke-width: 2px;
      }

      .cls-5, .cls-10 {
        fill: #8c6239;
      }

      .cls-11 {
        fill: #d9d39f;
      }
    </style>
  </defs>
  <g>
    <rect class="cls-3" x="111.66" y="164.29" width="28.89" height="132.13" transform="translate(-104.25 356.46) rotate(-90)"/>
    <rect class="cls-3" x="111.66" y="77.62" width="28.89" height="132.13" transform="translate(-17.58 269.79) rotate(-90)"/>
    <rect class="cls-3" x="111.66" y="106.51" width="28.89" height="132.13" transform="translate(-46.47 298.68) rotate(-90)"/>
    <rect class="cls-3" x="111.66" y="135.4" width="28.89" height="132.13" transform="translate(-75.36 327.57) rotate(-90)"/>
    <g>
      <g>
        <path class="cls-10" d="M47.22,253.79c-6.59,0-17.74-1.22-17.74-5.81V118.13h35.48v129.85c0,4.59-11.15,5.81-17.74,5.81Z"/>
        <path class="cls-9" d="M63.46,119.63v128.35c0,2.38-7.27,4.31-16.24,4.31s-16.24-1.93-16.24-4.31V119.63h32.48M66.46,116.63H27.98v131.35c0,6.79,14.73,7.31,19.24,7.31s19.24-.53,19.24-7.31V116.63h0Z"/>
      </g>
      <g>
        <path class="cls-8" d="M47.22,124.93c-6.59,0-17.74-1.22-17.74-5.81s11.15-5.81,17.74-5.81,17.74,1.22,17.74,5.81-11.15,5.81-17.74,5.81Z"/>
        <path class="cls-9" d="M47.22,114.8c8.97,0,16.24,1.93,16.24,4.31s-7.27,4.31-16.24,4.31-16.24-1.93-16.24-4.31,7.27-4.31,16.24-4.31M47.22,111.8c-4.51,0-19.24.53-19.24,7.31s14.73,7.31,19.24,7.31,19.24-.53,19.24-7.31-14.73-7.31-19.24-7.31h0Z"/>
      </g>
    </g>
    <g>
      <g>
        <path class="cls-10" d="M205.4,253.79c-6.59,0-17.74-1.22-17.74-5.81V118.13h35.48v129.85c0,4.59-11.15,5.81-17.74,5.81Z"/>
        <path class="cls-9" d="M221.64,119.63v128.35c0,2.38-7.27,4.31-16.24,4.31s-16.24-1.93-16.24-4.31V119.63h32.48M224.64,116.63h-38.48v131.35c0,6.79,14.73,7.31,19.24,7.31s19.24-.53,19.24-7.31V116.63h0Z"/>
      </g>
      <g>
        <path class="cls-8" d="M205.4,124.93c-6.59,0-17.74-1.22-17.74-5.81s11.15-5.81,17.74-5.81,17.74,1.22,17.74,5.81-11.15,5.81-17.74,5.81Z"/>
        <path class="cls-9" d="M205.4,114.8c8.97,0,16.24,1.93,16.24,4.31s-7.27,4.31-16.24,4.31-16.24-1.93-16.24-4.31,7.27-4.31,16.24-4.31M205.4,111.8c-4.51,0-19.24.53-19.24,7.31s14.73,7.31,19.24,7.31,19.24-.53,19.24-7.31-14.73-7.31-19.24-7.31h0Z"/>
      </g>
    </g>
    <rect class="cls-5" x="104.94" y="171.08" width="42.33" height="72.75"/>
    <path class="cls-1" d="M248.03,94.37c0-13.17-8.52-24.33-20.34-28.33-3.02-1.02-6.23-1.6-9.6-1.6-2.39,0-4.71.31-6.94.85-.4.1-.81.12-1.21.06-23.19-3.57-43.02-17.32-54.78-36.55-.14-.24-.25-.49-.33-.76-1.08-3.76-2.87-7.21-5.23-10.2-5.48-6.95-13.96-11.44-23.5-11.44s-18.72,4.86-24.16,12.32c-1.86,2.55-3.35,5.39-4.34,8.46-.07.21-.16.42-.27.62-11.65,19.69-31.67,33.84-55.17,37.52-.4.06-.81.04-1.21-.05-2.2-.52-4.48-.82-6.84-.82-3.38,0-6.62.59-9.65,1.62-11.79,4.02-20.29,15.16-20.29,28.32,0,6.65,2.18,12.79,5.85,17.76.4.54.63,1.18.63,1.86v18.65c0,1.7,1.38,3.08,3.08,3.08h225.61c1.7,0,3.08-1.38,3.08-3.08v-19.88c0-.62.2-1.22.54-1.74,3.19-4.76,5.06-10.48,5.06-16.64Z"/>
    <g>
      <path class="cls-2" d="M218.1,179.47c-6.19,0-12.09-1.98-17.07-5.73-3.56-2.68-6.48-6.21-8.44-10.21l-.1-.21-.16-.17c-17.41-18-40.93-27.91-66.22-27.91s-48.8,9.91-66.22,27.91l-.16.17-.1.21c-1.96,3.99-4.88,7.52-8.44,10.21-4.98,3.75-10.88,5.73-17.07,5.73-15.68,0-28.43-12.75-28.43-28.43,0-12.16,7.74-22.97,19.27-26.9,3-1.02,6.08-1.54,9.16-1.54,2.3,0,4.68.31,7.07.92l.29.08.3-.04c23.94-3.56,44.73-17.64,57.02-38.63l.09-.15.05-.17c.91-2.94,2.33-5.75,4.22-8.34,5.35-7.33,13.93-11.7,22.95-11.7s16.88,3.96,22.33,10.86c2.36,2.99,4.07,6.38,5.07,10.07l.06.2.11.18c12.4,20.51,33.06,34.25,56.68,37.7l.3.04.29-.08c2.42-.63,4.83-.95,7.16-.95,3.07,0,6.13.51,9.11,1.52,11.56,3.91,19.32,14.73,19.32,26.91,0,15.68-12.76,28.43-28.43,28.43Z"/>
      <path class="cls-7" d="M126.1,66.06c8.28,0,15.99,3.75,21.15,10.29,2.23,2.83,3.85,6.04,4.81,9.54l.11.4.22.36c12.63,20.9,33.68,34.9,57.74,38.41l.6.09.59-.15c2.29-.6,4.58-.9,6.78-.9,2.9,0,5.81.48,8.63,1.44,10.95,3.71,18.3,13.95,18.3,25.49,0,14.85-12.08,26.93-26.93,26.93-5.86,0-11.45-1.88-16.17-5.43-3.38-2.54-6.14-5.89-8-9.67l-.21-.42-.33-.34c-17.7-18.29-41.6-28.37-67.29-28.37s-49.59,10.08-67.29,28.37l-.33.34-.21.42c-1.86,3.78-4.62,7.13-8,9.67-4.72,3.55-10.31,5.43-16.17,5.43-14.85,0-26.93-12.08-26.93-26.93,0-11.52,7.34-21.76,18.25-25.48,2.84-.97,5.76-1.46,8.68-1.46,2.17,0,4.43.29,6.69.88l.59.15.6-.09c24.39-3.63,45.57-17.97,58.1-39.36l.18-.3.1-.33c.86-2.78,2.2-5.44,4-7.9,5.07-6.94,13.2-11.09,21.74-11.09M126.1,63.06c-9.94,0-18.72,4.86-24.16,12.32-1.93,2.64-3.46,5.59-4.44,8.78-11.72,20.01-32.07,34.36-55.95,37.91-2.38-.61-4.87-.97-7.44-.97-3.38,0-6.62.59-9.65,1.62-11.79,4.02-20.29,15.16-20.29,28.32,0,16.53,13.4,29.93,29.93,29.93,6.75,0,12.96-2.26,17.97-6.04,3.75-2.82,6.8-6.49,8.89-10.74,16.35-16.9,39.47-27.46,65.14-27.46s48.79,10.56,65.14,27.46c2.09,4.25,5.14,7.92,8.89,10.74,5.01,3.77,11.22,6.04,17.97,6.04,16.53,0,29.93-13.4,29.93-29.93,0-13.17-8.52-24.33-20.34-28.33-3.02-1.02-6.23-1.6-9.6-1.6-2.61,0-5.13.37-7.54,1-23.59-3.45-43.77-17.41-55.61-36.99-1.07-3.91-2.9-7.5-5.34-10.6-5.48-6.95-13.96-11.44-23.5-11.44h0Z"/>
    </g>
  </g>
  <path class="cls-6" d="M50.33,170.12c-.7,4.24-3.58,12.06-8.95,11.43,0,0,0-.1,0-.1,2.5-.64,4.13-2.53,5.66-4.49,1.45-2.05,2.54-4.38,3.2-6.86l.1.02h0Z"/>
  <path class="cls-6" d="M19.93,166.98c-1.45,4.86-7.95,3.85-11.68,2.57-3.25-1.31-8.52-3.21-8.24-7.49.09-.58.33-1.14.73-1.54l.08.06c-.53.95-.41,2.07.02,2.96.44.89,1.21,1.6,2.08,2.17,1.77,1.14,3.64,2.28,5.62,3.08,3.64,1.47,9.57,2.52,11.4-1.82h0Z"/>
  <path class="cls-11" d="M83.06,140.51c2.05-2.2,4.34-4.09,6.88-5.67,1.95-1.05,4.06-2.01,5.47-3.79,3.9-5.52,6.97-11.14,11.51-16.3,0,0,.28.12.28.12-.64,7.15-5.43,12.9-11.07,16.9-1.85,1.4-3.09,3.38-4.67,5.06-1.11,1.08-2.45,1.86-3.81,2.56-1.42.65-2.88,1.2-4.45,1.39,0,0-.14-.27-.14-.27h0Z"/>
  <path class="cls-11" d="M31.01,80.84c-.66,2.09-1.97,3.81-3.78,4.97-.92.51-2.03.77-2.89,1.31-1.35.76-2.29,2.13-3.38,3.22-1.17,1.03-2.42,2-3.81,2.71-1.89.87-3.94,1.45-6.19,1.34l-.12-.28c2.24-2.41,4.57-3.98,7.44-5.2,1.74-.94,3.98-1.15,5.48-2.58.75-.68,1.23-1.68,1.87-2.46.99-1.15,2.28-1.97,3.64-2.65.46-.24.96-.45,1.53-.6l.21.21h0Z"/>
  <path class="cls-6" d="M18.99,109.47c4.45-4.16,4.54-10.78,7.54-15.83,4.73-8.72,13.94-15.22,23.98-15.56,0,0,0,.1,0,.1-10.49,1.86-20.34,8.53-24.75,18.37-2.05,4.26-2.87,10.07-6.78,12.91h0Z"/>
  <path class="cls-6" d="M17.66,118.42c6.29-.26,11.99-3.27,17.81-5.38,0,0,8.67-3.51,8.67-3.51,2.88-1.17,5.94-2.04,8.12-4.3l.08.06c-1.78,2.7-5.02,3.85-7.81,5.17-2.87,1.26-5.83,2.29-8.77,3.34-5.82,1.84-12.03,5.01-18.09,4.63h0Z"/>
  <path class="cls-11" d="M54.61,89.99c2.92-1.82,5.37-4.23,8.46-5.75,1.53-.76,3.21-1.34,4.62-2.32,2.83-1.89,4.6-5.03,6.41-7.78,2.52-4.38,4.42-8.55,5.27-13.76,0,0,.3-.04.3-.04,2.06,5.15.26,11.31-3.26,15.43-2.16,2.89-5.49,4.56-8.13,6.9-2.49,2.45-5.03,5.01-8.35,6.33-1.56.7-3.38,1.47-5.26,1.27l-.06-.29h0Z"/>
  <path class="cls-6" d="M66.2,101.85c4.97.03,10.23-1.23,14.2-4.29,1.98-1.58,2.33-4.25,3.32-6.6,2.8-7.06,7.47-13.36,10.03-20.45,1.94-4.26.97-11.66,6.8-12.79-4.06,1.46-4.24,5.58-4.88,9.38-1.67,8.95-7.98,15.89-11.34,24.11-1,2.3-1.49,5.09-3.6,6.74-2.04,1.6-4.5,2.48-6.96,3.19-2.47.65-5.03.93-7.57.82v-.1h0Z"/>
  <path class="cls-6" d="M105.58,36.43c-.52-9.57,10-16.67,18.89-15.79,1.33.29,2.62,1.23,2.93,2.55l-.09.03c-.57-1.16-1.78-1.77-2.96-1.9-3.68-.05-7.53,1.26-10.82,2.89-4.64,2.43-7.72,7.13-7.95,12.22h0Z"/>
  <path class="cls-11" d="M127.79,13.77c2.57-1.18,5.17-1.82,7.94-1.98,1.35-.02,2.77.22,4.11.03,2.02-.23,3.82-1.32,5.48-2.41C149.15,6.99,152.27,4.35,154.28,0c0,0,.3.02.3.02,1.21,4.5-2.18,9.16-6.25,10.83-2.58,1.35-5.59,1.1-8.28,1.92-2.59.97-5.18,2.21-8.04,1.96-1.39-.03-2.79-.18-4.19-.66l-.02-.3h0Z"/>
  <path class="cls-6" d="M81.59,53.27c-4.35,2.5-5.74,1.13-9.56-1.21-2.97-1.71-5.87-3.56-8.43-5.86,0,0,.06-.08.06-.08,1.59.7,3.08,1.54,4.55,2.4,2.11,1.27,4.29,2.94,6.36,4.31.71.48,1.4.96,2.17,1.2,1.57.49,3.28-.19,4.82-.86l.04.09h0Z"/>
  <path class="cls-6" d="M27.08,72.27c-6.63,1.32-13.09-1.8-18.91-4.61,0,0,.55-.06.55-.06-2.92,2.55-5.43,5.47-7.54,8.75,0,0-.09-.05-.09-.05.72-1.83,1.69-3.58,2.89-5.16,1.24-1.69,2.71-3.22,4.37-4.52,5.7,3.24,12.17,6.31,18.73,5.64h0Z"/>
  <path class="cls-11" d="M18.05,138.72c-1.09,1.35-2.99,1.82-4.56,1.3-1.51-.83-2.46-1.75-4.32-1.59-3.12.04-6.12-1.42-7.83-4.08,0,0,.13-.27.13-.27,2.35-.37,4.58.11,6.48,1.46,1.26.65,2.23,2.17,3.71,2.33.72.1,1.51-.22,2.19-.31.68-.09,1.3.06,1.96.19.66.16,1.32.34,2.16.69l.08.29h0Z"/>
  <path class="cls-11" d="M29.44,141.86c3.58-.42,7.1.03,10.55,1.08.78.25,1.71.97,2,1.81.34.89.29,1.58.28,2.15-.06,2.39-.65,4.72-1.07,7-.42,2.29-.81,4.57-1.31,6.88-.68,2.54-.99,4.98-3.34,6.82-2.47,1.87-5.91.2-7.95-1.28-5.01-3.04-6.39-7.54-4.85-12.96,0,0,.3,0,.3,0,.79,5.07,1.58,7.73,6.28,10.26,1.53.85,3.1,2.32,4.67,1.61,1.46-.93,2.45-3.37,3.34-4.98,2.17-4.05,2.31-8.81,1.43-13.21-.12-.71-.09-1.1-.38-1.39-.84-.53-2.49-.9-3.48-1.29-2.13-.72-4.3-1.37-6.51-2.2l.03-.3h0Z"/>
  <path class="cls-6" d="M90.41,139.76c-.06,2.2-1.25,4.15-2.24,6.01l-3.1,5.63c-1.7,3.15-3.69,7.74-7.94,7.61-.56-.04-1.12-.18-1.6-.45l.04-.09c4.67.89,6.64-4.26,8.81-7.47,0,0,3.36-5.48,3.36-5.48,1.11-1.81,2.38-3.61,2.57-5.77h.1Z"/>
  <path class="cls-6" d="M73.68,126.64c-7.36-5.01-15.81-9.62-24.99-8.01,0,0-.03-.1-.03-.1,8.93-3.59,18.44,2.83,25.01,8.11h0Z"/>
  <path class="cls-6" d="M55.08,141.78c4.13.14,8.27-.24,12.29-1.14,2.4-.64,5.07-1.05,7.18-2.36.73-.59,1.6-3.15,2.05-3.98,3.4-7.56,7.56-14.82,12.68-21.37-3.84,7.07-8.37,14.31-11.95,21.71,0,0-1.34,2.8-1.34,2.8-.38,1.02-1.42,1.85-2.47,2.13-5.84,1.86-12.51,2.92-18.44,2.21h0Z"/>
  <path class="cls-11" d="M101.07,102.07c-2.25-5.63-.24-12.57,3.93-16.84,2.16-2.2,4.87-3.61,7.49-4.88,8.41-4.03,19.89-7.37,28.08-1.02,2.2,1.79,1.4,4.94,1.29,7.3-.24,2.88-.53,5.75-1.05,8.63h-.3c-.5-2.88-.78-5.76-1.01-8.64l-.15-2.16c-.09-.97.05-1.75-.39-2.38-4.77-3.98-11.98-3.72-17.95-3.33-2.8.28-5.6,1.04-8.06,2.45-4.77,2.91-7.95,7.66-10.09,12.66-.99,2.54-1.46,5.25-1.48,8.15l-.29.06h0Z"/>
  <path class="cls-6" d="M122.59,88.66c-3.74,3.4-7.78,7.12-9.12,12.15-.63,2.44-.65,5.11-.43,7.6.14,1.25.6,2.41,1.44,3.3.83.9,1.92,1.57,3.05,2.16,1.14.55,2.31,1.33,3.32,1.03,1.08-.37,2.21-1.17,3.14-1.9,6.11-4.88,7.96-13.17,6.78-20.73,2.32,7.14.22,16.71-6.16,21.51-1.12.82-2.16,1.55-3.53,1.99-.76.2-1.55,0-2.16-.28-1.81-.9-3.57-1.76-4.97-3.28-.93-1.01-1.43-2.39-1.55-3.71-.18-2.63-.11-5.26.6-7.81,1.52-4.99,5.72-9.07,9.6-12.02h0Z"/>
  <path class="cls-6" d="M107.44,130.44c12.28-8.79,25.69-11.26,38.09-1.19,3.54,2.84,7.34,5.76,10.81,8.37-4.13-2.02-7.7-4.96-11.4-7.56-3.67-2.62-7.5-5.13-11.89-6.13-9.03-2.15-18.2,1.92-25.61,6.52h0Z"/>
  <path class="cls-6" d="M145.77,107.4c7.53,14.43,28.09,16.72,42.59,14.22,0,0,.02.1.02.1-7.72,2.44-16.22,2.28-23.95-.07-7.5-2.19-15.78-6.79-18.66-14.25h0Z"/>
  <path class="cls-6" d="M178.6,140.96c3.44,1.86,6.1,4.92,8.13,8.23,4.23,7.19,5.12,14.18,14.17,16.93,1.79.66,3.67,1.09,5.54,1.55,1.88.43,3.75,1.04,5.65.6l.03.1c-.91.37-1.94.43-2.92.38-24.64-2.17-15.31-17-30.61-27.78h0Z"/>
  <path class="cls-11" d="M204.72,133.14c5.49-4.81,18.01-1.52,21.74,4.31,1.39,2.39,1.32,5.3,1.35,7.87.36,5.91-.44,10.99-6.78,13.16-7.18,2.6-14.74-.41-19.69-5.82-3.53-3.62-7.73-7.62-8.22-12.95,0,0,.29-.07.29-.07,1.26,3.15,3.59,5.46,6.06,7.62,4.9,4.08,9.59,8.98,16.24,9.3,4.41.21,10.21-1.1,10.98-6.25.48-3.12.27-6.8-.82-9.74-1.22-3.07-4.17-4.2-6.97-5.58-1.47-.67-2.98-1.25-4.52-1.68-3.13-.87-6.37-1.09-9.5.08,0,0-.15-.26-.15-.26h0Z"/>
  <path class="cls-11" d="M164.93,143.21c1.55.04,2.86,1.24,3.17,2.65.1.7-.12,1.47,0,2.09.11.63.47,1.17.93,1.7.91,1.02,1.47,2.23,1.73,3.53.14,1.29,0,2.65-.79,4.02l-.3.04c-1.44-1.46-2.25-3.18-2.28-5.18-.21-1.17.47-2.68-.2-3.78-.29-.55-.96-.95-1.38-1.39-.41-.44-.55-.97-.73-1.51-.15-.56-.27-1.12-.35-1.95l.2-.23h0Z"/>
  <path class="cls-6" d="M220.51,126.37c6.5,2.1,13.24,1.34,19.84.25,0,0,.03.1.03.1-3.07,1.55-6.58,2.04-9.98,1.82-3.31-.2-7.11-.73-9.9-2.17h0Z"/>
  <path class="cls-6" d="M110.48,55.53c.87-4.2,5.5-5.84,9.25-6.48,7.81-1.48,15.96-1.61,23.75.08,1.92.46,3.96.92,5.66,2.16,1.64,1.18,2.84,3.35,2.23,5.36,0,0-.1-.02-.1-.02.29-1.94-.93-3.79-2.53-4.76-1.61-1-3.54-1.4-5.47-1.76-7.7-1.56-15.68-1.93-23.45-.57-4.04.56-7.97,1.95-9.34,5.99h0Z"/>
  <path class="cls-11" d="M131.14,35.55c4.99-.37,10.03.39,14.71,2.08,2.33.91,4.51,2.18,6.76,3.16,3.46,1.7,7.14,2.31,10.49,4.36,3.42,2.53,3.31,7.21,4.09,10.93.68,4.82,1.35,9.64,1.64,14.62l-.29.08c-2.16-4.52-3.54-9.3-4.51-14.16-.84-3.18-.13-7.12-2.47-9.62-2.57-2.29-6.03-4.11-9.3-5.3-4.67-1.39-9.51-1.99-14.14-3.59-2.33-.7-4.67-1.37-7.02-2.27l.04-.3h0Z"/>
  <path class="cls-6" d="M142.17,63.2c11.95,12.11,25.7,24.46,43.38,26.09,0,0,0,.1,0,.1-17.99.3-32.21-13.98-43.38-26.19h0Z"/>
  <path class="cls-6" d="M155.03,32.01c-.03.18.21.3.41.36.4.16,1.5.55,1.92.69,2.57.97,5.29,1.23,7.73,2.55,0,0-.02.1-.02.1-1.89.18-3.69-.33-5.39-1.08-1.24-.49-2.57-1.11-3.74-1.75,0,0-.6-.33-.6-.33-.17-.1-.5-.26-.41-.58l.09.03h0Z"/>
  <path class="cls-6" d="M183.49,60.71c3.22,2.36,7.99,5.13,12.02,3.85,4.08-1.57,7.56-4.37,10.44-7.67,0,0,.08.06.08.06-2.43,4.66-8.24,9.31-13.76,8.54-3.08-.71-6.77-2.57-8.78-4.78h0Z"/>
  <path class="cls-6" d="M200.96,73.46c6.52-1.29,13.27-2.36,19.88-.94,3.27.76,6.93,1.9,8.68,5.08,1.63,3.18.53,6.67,1.69,9.9,0,0-.09.04-.09.04-1.69-3.01-.87-6.78-2.47-9.46-1.64-2.77-4.99-3.97-7.99-4.79-6.4-1.68-13.41-.52-19.7.16h0Z"/>
  <path class="cls-11" d="M195.09,90.16c2.03-.59,4.06-.84,6.1-1.06,1.74-.05,3.38-.54,5.14.26,2.5,1.6,3.13,4.66,4.31,7.06,1.6,4.24,5.22,5.12,9.26,5.85,3.88.67,7.73,1.03,11.68,1.24,1.99.09,3.99.07,6.08.12l.07.29c-7.35,3.57-17.64,3.24-24.27-1.85-1.67-1.4-2.64-3.38-3.67-5.21-.99-1.78-2.46-3.18-3.84-4.5-.74-.66-.81-.67-1.73-.77-.92-.03-2.01-.07-3-.15-2.04-.19-4.07-.42-6.11-.98v-.3h0Z"/>
  <path class="cls-6" d="M179.94,99.4c12.77,8.66,28.02,12.47,43.28,13.31,0,0,0,.1,0,.1-15.28,1.07-31.23-4.48-43.28-13.41h0Z"/>
  <path class="cls-6" d="M235.9,115.58c3.59-.62,7.38-.27,10.86.89,2.42.63,3.38,3.33,3.2,5.6,0,0-.1.02-.1.02-.5-1.37-.91-2.79-1.83-3.67-3.28-2.41-8.06-2.92-12.13-2.74,0,0-.01-.1-.01-.1h0Z"/>
  <path class="cls-6" d="M211.62,67.25c3.3-.99,6.54-2.15,9.72-3.46,2.68-1.3,6.82-2.58,8.99-4.69-1.28,3.08-5.71,4.33-8.7,5.44-3.22,1.04-6.81,2.34-10,2.71h0Z"/>
  <path class="cls-6" d="M230.59,72.53c4.74-1.3,10,1.06,12.44,5.3,2.65,4.06,3.38,8.83,5.84,12.95-1.62-1.15-2.88-4.18-3.75-6.08-.94-2.18-1.61-4.45-2.77-6.45-2.41-4.46-7-6.31-11.75-5.71h0Z"/>
  <path class="cls-9" d="M58.44,185.02c2.95,9.97,2.98,20.8.58,30.89-.36-10.17-.36-20.72-.58-30.89h0Z"/>
  <path class="cls-4" d="M117.85,171.39c2.06,2.29,2.62,5.58,2.44,8.65s-.99,6.07-1.32,9.13c-.32,2.93-.19,5.9-.1,8.85.46,15.06-.13,30.14-1.77,45.12"/>
  <path class="cls-9" d="M132.47,243.32c-.62-2.94-1.14-5.9-1.42-8.93-.18-6.01,1.63-12,2.74-17.8,1.99-11.73-1.21-23.49-3.85-34.91-.39-2.97-.78-5.94-1.07-8.93,2.25,5.58,3.85,11.31,5.04,17.2,1.94,8.75,3.41,17.99,1.85,26.98-.52,3-1.3,5.89-1.87,8.77-1.11,5.82-.9,11.7-1.42,17.62h0Z"/>
  <path class="cls-9" d="M34.71,252.08c-.92-2.67-.63-5.42-.66-8.16.14-8.07,1.19-16.13,3.09-23.97-1.65,7.88-2.45,15.93-2.34,23.97.1,2.58-.08,5.38.84,7.8,0,0-.93.36-.93.36h0Z"/>
  <path class="cls-9" d="M206.96,252.44c-.73-2.36-.13-3.85-.76-6.08-.83-3.98-1.08-8.16-.33-12.17.71-3.96,2.32-7.62,3.44-11.43,1.72-5.66,1.8-11.64.88-17.49.81,3.86,1.3,7.83,1.03,11.83-.37,7.83-4.66,15.14-3.65,23.07.22,2.46.79,4.71,1.45,7.13.31,1.31.26,3.07.75,4.08,0,0-2.8,1.08-2.8,1.08h0Z"/>
</svg>