<?xml version="1.0" encoding="UTF-8"?>
<svg id="_Слой_1" data-name="Слой 1" xmlns="http://www.w3.org/2000/svg" viewBox="0 0 1769.1 1053.47">
  <defs>
    <style>
      .cls-1 {
        fill: #ffde59;
      }

      .cls-2 {
        fill: #603813;
      }
    </style>
  </defs>
  <path class="cls-1" d="M1082.39,494.3c-9.79,2.51-14.76,7.79-25.12,7.99-28.2.55-56.66-.94-84.84-2.01-28.4-1.07-75.91,2.25-97.57-16.15-14.06-11.93-46.72-30.39-53.97-47.34-31.16-72.78-46.2-121.64-35.85-200.12,7.66-58.05,9.45-176.66,7.11-235.17h-72.16c-5.48,119.66-45,213.75-54.36,358.33-1.56,24.06-12.31,90.63-25.41,110.87-28.11,43.42-84.82,41.46-135.69,50.82-17.83,3.28-35.46,7.94-53.49,9.83-35.49,3.71-110.2-10.11-142.67,4.71-13.47,6.15-26.04,13.11-40.04,12.63-88.44-3.03-178.39,17.16-266.82,14.13l2.26,75.45c141.94-6.11,273.34-22.94,363.93-13.77,21.05,2.13,64.59-.16,84.24-7.99,16.64-6.63,44.72-5.51,79.1-9.78,39.72-4.94,66.98,25.77,87.21,38.16,25.55,15.65,46.75,28.17,44.7,58.06-2.34,34.16.27,62.76-.44,87.54-.28,9.79,5.38,67.72,5.11,77.25-1.65,59.11-2.24,70.78-4.9,117.44-1.98,34.71,23.02,57.46,57.43,62.39,25.83,3.7,76.11,11.41,90.84-10.53,11.64-17.33,15.12-63.02,9.11-83.01-3.12-10.38-9.88-26.61-12.7-36.92-4.03-14.72-6.67-29.79-7.85-45-2.14-27.58.7-55.16,5.09-82.37,6.05-37.51,13.18-77.32,38.81-105.37,36.63-40.09,97.75-42.99,152.05-42.4,152.69,1.66,306.03,8.48,457.58-10.24,40.95-5.06,290.77-6.24,311.59-41.87,3.47-5.94,3.25-7.07,2.42-13.9-1.85-15.35-19.1-23.16-33.98-27.37-52.53-14.88-106.86-23.11-161.04-29.08-57.52-6.34-115.35-9.81-173.16-12.05-29.87-1.16-59.77-1.57-89.65-2.56-56.75-1.89-171.87-24.67-226.88-10.59Z"/>
  <path class="cls-2" d="M1082,492.85c-5.94,1.55-11.16,4.81-16.98,6.65-3.2,1.01-6.38,1.27-9.71,1.32-4.02.06-8.05.09-12.07.08-16.06-.03-32.1-.59-48.14-1.22-12.75-.5-25.48-1.06-38.24-1.19-11.32-.11-22.66-.23-33.95-1.14-10.89-.88-21.93-2.42-32.26-6.15-4.45-1.61-8.75-3.69-12.59-6.46-1.71-1.23-3.29-2.65-4.95-3.96-1.95-1.53-3.94-3.02-5.95-4.48-9.12-6.65-18.51-12.94-27.23-20.11-4.09-3.37-8.07-6.92-11.58-10.91-1.5-1.7-2.9-3.49-4.11-5.4-1.45-2.3-2.45-4.78-3.51-7.28-10.49-24.66-20.48-49.66-27.47-75.57-6.45-23.94-9.91-48.52-9.96-73.33-.03-13.88.92-27.74,2.55-41.52,1.13-9.54,2.33-19.06,3.18-28.63,1.93-21.78,3.07-43.64,3.9-65.49.91-23.8,1.43-47.61,1.61-71.43.16-20.95.09-41.9-.48-62.85-.11-4.1-.24-8.2-.41-12.3-.03-.81-.66-1.5-1.5-1.5h-72.16c-.84,0-1.46.69-1.5,1.5-.86,18.66-2.58,37.26-4.98,55.78-2.34,17.98-5.32,35.87-8.65,53.7-3.34,17.89-7.02,35.72-10.71,53.54s-7.65,36.79-11.2,55.24c-3.76,19.53-7.2,39.12-10.11,58.8-3.14,21.3-5.67,42.7-7.45,64.16-.67,8.1-1.06,16.22-1.88,24.3-.64,6.34-1.47,12.66-2.4,18.96-2.28,15.41-5.11,30.77-8.77,45.92-1.7,7.04-3.59,14.05-5.89,20.93-1.77,5.3-3.74,10.62-6.53,15.47-7.76,13.49-20.55,23.73-34.43,30.39-14.95,7.17-31.43,10.69-47.69,13.36-17.26,2.83-34.67,4.64-51.89,7.71-20.52,3.67-40.9,9.68-61.82,10.59-15.14.66-30.34-.46-45.45-1.29-16.82-.93-33.69-1.9-50.55-1.39-13.73.42-28.25,1.5-40.91,7.29-9.86,4.51-19.68,9.81-30.49,11.66-5.47.94-11,.46-16.51.36s-11.52-.12-17.27-.06c-23.08.26-46.13,1.78-69.12,3.74s-46.35,4.41-69.54,6.48c-23.09,2.06-46.22,3.78-69.4,4.32-11.12.26-22.24.24-33.35-.14-.79-.03-1.52.71-1.5,1.5.26,8.52.51,17.04.77,25.55.41,13.55.81,27.11,1.22,40.66.09,3.08.18,6.16.28,9.24.02.78.67,1.54,1.5,1.5,18.01-.78,36.01-1.73,54.01-2.8,17.53-1.04,35.06-2.2,52.59-3.39,16.85-1.15,33.7-2.34,50.56-3.51s32.4-2.21,48.6-3.19c15.27-.92,30.55-1.75,45.83-2.38,14.36-.59,28.73-1.01,43.1-1.14,13.26-.11,26.52.03,39.77.59,6.18.26,12.35.62,18.51,1.09,5.45.42,10.88,1.07,16.34,1.39,12.1.71,24.29.33,36.36-.61,12.18-.94,24.56-2.36,36.36-5.68,4.7-1.32,9.15-3.32,13.89-4.47,5.71-1.39,11.57-2.14,17.41-2.73,15.23-1.54,30.53-2.17,45.75-3.77,7.56-.79,14.98-1.87,22.6-1.21,6.44.56,12.77,2.11,18.82,4.35,11.38,4.21,21.64,10.92,31.37,18.07,4.36,3.2,8.63,6.52,12.99,9.73s8.47,5.84,12.88,8.55c10.44,6.41,21.33,12.95,29.5,22.24,3.61,4.1,6.55,8.81,8.32,13.99,2.03,5.91,2.51,12.12,2.1,18.32-1.11,16.64-1.1,33.31-.75,49.98.15,7.35.35,14.7.43,22.05.06,5.55-.17,11.11-.1,16.66.1,7.62.83,15.25,1.42,22.84.8,10.37,1.66,20.73,2.45,31.1.54,7.07,1.3,14.23,1.26,21.33s-.41,14.88-.63,22.31c-.2,6.61-.4,13.22-.62,19.83-.35,10.47-.76,20.93-1.25,31.39s-1.1,21.58-1.71,32.36c-.37,6.55-1.08,13.17-.69,19.73.35,5.88,1.51,11.73,3.62,17.23,4.06,10.57,11.34,19.46,20.55,25.98,9.86,6.98,21.61,11.1,33.49,12.91,10.58,1.62,21.23,3.05,31.91,3.89,11.6.91,23.43,1.19,34.94-.75,9.3-1.57,19.29-4.9,25.35-12.57,2.91-3.68,4.83-8.09,6.39-12.49,1.9-5.35,3.23-10.89,4.26-16.47,2.22-12.09,3.16-24.52,2.66-36.8-.21-5.26-.69-10.55-1.75-15.71-1.16-5.65-3.26-11.09-5.22-16.5-2.4-6.62-4.92-13.21-7.09-19.91-2.47-7.64-4.27-15.51-5.77-23.39-3.36-17.6-4.61-35.5-4.11-53.39.51-18.08,2.67-36.08,5.53-53.93,2.34-14.61,4.8-29.23,8.41-43.6s8.27-28.11,15.32-40.94c6.79-12.35,15.76-23.32,26.81-32.09,10.27-8.16,22.1-14.25,34.43-18.65,12.81-4.57,26.2-7.42,39.66-9.21,13.84-1.84,27.81-2.6,41.76-2.87,15.62-.3,31.24.03,46.86.24,18.13.25,36.26.55,54.39.85s36.28.6,54.42.85,36.27.44,54.41.53c18.04.09,36.09.08,54.13-.09,18.11-.17,36.22-.49,54.33-1.01s36.01-1.25,54-2.24c18.07-.99,36.12-2.23,54.15-3.79,18.04-1.55,36.05-3.45,54.02-5.64,4-.49,8.03-.78,12.06-1.06,5.85-.4,11.71-.72,17.57-1.02,7.41-.38,14.82-.73,22.23-1.07,8.61-.4,17.22-.8,25.83-1.21,9.43-.45,18.86-.93,28.28-1.44,10-.54,20-1.12,30-1.76s20.39-1.36,30.58-2.16,20.02-1.65,30.02-2.64,19.17-2.01,28.73-3.23c8.85-1.14,17.68-2.41,26.48-3.92,7.65-1.31,15.27-2.8,22.81-4.63,6.25-1.51,12.47-3.24,18.49-5.49,4.62-1.72,9.25-3.71,13.33-6.51,4.31-2.96,7.77-7.07,9.2-12.22.73-2.64.34-5.38.02-8.05-.37-3.09-1.07-5.99-2.48-8.78-2.71-5.35-7.41-9.43-12.45-12.53-5.42-3.33-11.44-5.68-17.5-7.56-8.06-2.49-16.28-4.54-24.46-6.57-17.2-4.26-34.56-7.89-52-11.03-17.35-3.12-34.78-5.76-52.25-8.07s-35.47-4.37-53.24-6.14-36.22-3.36-54.36-4.69-36.13-2.43-54.21-3.38-36.36-1.77-54.54-2.4c-18.26-.64-36.52-1.03-54.79-1.5-13.81-.35-27.65-.56-41.43-1.57-11.23-.83-22.43-2-33.63-3.22-12.71-1.39-25.4-2.88-38.1-4.3s-26.57-2.89-39.88-4.06c-12.9-1.13-25.83-2.05-38.78-2.5-11.78-.41-23.59-.45-35.35.35-9.15.62-18.34,1.73-27.25,3.99-1.87.48-1.08,3.37.8,2.89,9.62-2.45,19.55-3.52,29.44-4.07,11.86-.66,23.76-.52,35.62-.04,13.01.53,26,1.51,38.97,2.69,13.23,1.2,26.45,2.63,39.65,4.11s25.11,2.88,37.67,4.24c10.99,1.19,22,2.31,33.03,3.07,14.46,1,28.98,1.16,43.47,1.52,18.1.45,36.2.86,54.29,1.53s36.36,1.49,54.52,2.47c18.08.97,36.15,2.11,54.21,3.46s36.09,2.92,54.11,4.76c17.69,1.81,35.36,3.84,52.98,6.22s34.94,5.07,52.3,8.27c17.35,3.2,34.6,6.89,51.7,11.23,7.75,1.97,15.58,3.88,23.17,6.42,5.97,2,11.85,4.55,17,8.23,4.65,3.32,8.62,7.83,10.14,13.44.76,2.8,1.18,6.03,1.03,8.93-.13,2.54-1.52,4.92-2.82,7.03-.2.32-.41.63-.63.94-.28.4.12-.13-.19.25-.13.16-.26.32-.4.48-.56.64-1.17,1.24-1.81,1.8-.36.31-.73.61-1.1.91.31-.24-.21.16-.33.24-.2.15-.41.3-.62.44-.87.61-1.76,1.17-2.68,1.7-4.61,2.68-9.1,4.39-14.16,6.07-6.41,2.13-12.96,3.8-19.55,5.26-7.85,1.74-15.77,3.17-23.7,4.44-8.88,1.42-17.79,2.62-26.72,3.69-9.67,1.16-19.35,2.16-29.05,3.07s-20.14,1.76-30.21,2.51c-10.13.75-20.26,1.43-30.39,2.05s-19.71,1.15-29.57,1.67c-9.29.49-18.59.94-27.89,1.38-8.32.39-16.63.78-24.95,1.17-7.05.33-14.1.67-21.15,1.05-5.46.29-10.91.6-16.36,1.02-7.02.53-13.99,1.47-20.99,2.28-17.9,2.05-35.84,3.76-53.8,5.17s-35.94,2.53-53.93,3.4-36.01,1.5-54.02,1.94c-18.03.44-36.06.68-54.1.78-18.05.1-36.1.06-54.14-.07-18.06-.13-36.11-.36-54.17-.62-18.06-.26-36.11-.57-54.17-.87-18.05-.3-36.09-.58-54.14-.81-14.79-.19-29.58-.4-44.36.12-13.87.49-27.73,1.58-41.43,3.83-13.26,2.18-26.4,5.48-38.85,10.59-12.17,5-23.6,11.71-33.48,20.44-10.62,9.38-19.07,20.93-25.41,33.57s-10.94,27.06-14.3,41.23-5.97,29.78-8.25,44.77c-2.7,17.73-4.67,35.61-4.93,53.55s1.29,35.46,4.81,52.86c1.54,7.59,3.36,15.14,5.82,22.49,2.27,6.79,4.84,13.48,7.26,20.22,1.85,5.16,3.75,10.34,4.74,15.74s1.34,10.57,1.47,15.89c.3,12.21-.7,24.55-3.16,36.52-1.1,5.37-2.5,10.71-4.51,15.81-1.6,4.06-3.63,8.11-6.74,11.23-6.91,6.92-17.41,9.27-26.8,10.3-11.63,1.27-23.43.65-35.04-.5-5.43-.53-10.84-1.21-16.24-1.96-5.29-.73-10.61-1.38-15.81-2.56-11.4-2.6-22.46-7.52-31.25-15.34s-14.17-17.22-16.54-28.15c-1.34-6.16-1.37-12.34-1.01-18.61s.71-12.53,1.06-18.8c.56-10.23,1.09-20.46,1.54-30.7.48-11.08.87-22.16,1.21-33.25.23-7.4.45-14.79.66-22.19.13-4.65.4-9.31.21-13.96-.36-8.46-1.09-16.91-1.76-25.35-.8-10.2-1.65-20.4-2.39-30.61-.52-7.25-.9-14.41-.8-21.67.2-14.68-.45-29.36-.61-44.04-.09-8.26-.05-16.53.23-24.79.15-4.45.36-8.9.66-13.34.22-3.37.29-6.73-.06-10.1-.6-5.73-2.23-11.27-4.99-16.33s-6.33-9.25-10.41-13.06c-9.19-8.6-20.27-14.74-30.84-21.42-8.81-5.57-16.78-12.4-25.3-18.4-10-7.04-20.71-13.29-32.48-16.83-6.25-1.88-12.76-2.96-19.29-3.1-7.96-.17-15.89,1.27-23.79,2.01-14.75,1.38-29.59,1.91-44.3,3.67-5.59.67-11.2,1.51-16.62,3.06-2.29.66-4.48,1.55-6.72,2.35-2.37.84-4.79,1.53-7.22,2.14-12.04,3.03-24.52,4.35-36.89,5.16-11.73.76-23.59,1.06-35.31.13-5.69-.45-11.36-1.06-17.05-1.46-6.17-.43-12.35-.74-18.53-.97-13.3-.49-26.61-.57-39.91-.41-14.4.17-28.79.64-43.18,1.26-15.36.67-30.72,1.52-46.07,2.47-16.2,1-32.39,2.1-48.58,3.22s-33.81,2.37-50.72,3.51-35.14,2.34-52.72,3.36c-16.54.97-33.09,1.83-49.64,2.54l1.5,1.5c-.26-8.52-.51-17.04-.77-25.55-.41-13.55-.81-27.11-1.22-40.66-.09-3.08-.18-6.16-.28-9.24l-1.5,1.5c23.24.79,46.5-.01,69.7-1.56,23.21-1.55,46.36-3.84,69.51-6.06,23.29-2.24,46.6-4.41,69.97-5.68,11.53-.63,23.08-1.04,34.63-1.12,5.76-.04,11.51,0,17.27.13,5.48.13,10.79.32,16.2-.75,10.77-2.14,20.54-7.49,30.45-11.97,5.76-2.6,12.06-3.99,18.28-4.94,15.71-2.41,31.84-2.05,47.67-1.46,16.68.62,33.32,1.9,50,2.42,6.9.22,13.82.32,20.72-.07,9.92-.56,19.77-2.34,29.5-4.27,11.1-2.2,22.12-4.75,33.28-6.68,8.7-1.5,17.44-2.71,26.19-3.91,16.98-2.33,34.08-4.55,50.62-9.18,15.53-4.34,30.61-11.04,42.66-21.97,5.61-5.08,10.78-11.09,14.52-17.69,2.82-4.97,4.84-10.41,6.65-15.81,4.85-14.47,8.1-29.5,10.92-44.48,2.61-13.87,4.82-27.86,6.25-41.91.83-8.12,1.22-16.27,1.89-24.41.91-11.06,2.02-22.1,3.32-33.12,2.41-20.5,5.47-40.92,9-61.25,3.32-19.1,7.06-38.12,10.94-57.12s7.51-36.06,11.14-54.12c3.59-17.87,7-35.78,9.9-53.77,2.91-18.11,5.31-36.31,6.95-54.58.82-9.15,1.44-18.32,1.87-27.49l-1.5,1.5h72.16l-1.5-1.5c.79,19.74.97,39.52.96,59.27-.02,23.7-.39,47.41-1.11,71.1-.7,22.93-1.71,45.86-3.41,68.75-.7,9.49-1.53,18.97-2.6,28.42-1.43,12.58-3.1,25.09-3.75,37.74-1.32,25.5.55,51.03,5.97,75.99,5.52,25.4,14.4,49.92,24.18,73.94,2.78,6.83,5.63,13.63,8.54,20.41,1.84,4.29,4.69,8.02,7.85,11.43,7.63,8.26,16.92,14.96,26.01,21.49,4.46,3.2,8.96,6.34,13.38,9.59,3.67,2.69,7.06,5.8,10.83,8.35,8.54,5.79,18.91,8.6,28.96,10.35,21.81,3.79,43.98,2.63,66,3.45,16.11.6,32.22,1.35,48.34,1.78,8.06.21,16.12.35,24.19.35,7.14,0,14.68.59,21.54-1.73,5.55-1.88,10.59-4.93,16.29-6.42,1.87-.49,1.07-3.38-.8-2.89Z"/>
</svg>