<?xml version="1.0" encoding="UTF-8"?>
<svg id="_Слой_1" data-name="Слой 1" xmlns="http://www.w3.org/2000/svg" viewBox="0 0 350.7 490.41">
  <defs>
    <style>
      .cls-1 {
        stroke: #68631d;
      }

      .cls-1, .cls-2 {
        fill: #f6e281;
      }

      .cls-1, .cls-3, .cls-4, .cls-5 {
        stroke-miterlimit: 10;
      }

      .cls-1, .cls-3, .cls-5 {
        stroke-width: 3px;
      }

      .cls-6 {
        fill: #939357;
      }

      .cls-7 {
        fill: #68631d;
      }

      .cls-8, .cls-3 {
        fill: #c69c6d;
      }

      .cls-9 {
        fill: #603813;
      }

      .cls-3, .cls-4, .cls-5 {
        stroke: #603813;
      }

      .cls-10 {
        fill: #a67c52;
      }

      .cls-4 {
        fill: none;
        stroke-width: 2px;
      }

      .cls-5, .cls-11 {
        fill: #8c6239;
      }

      .cls-12 {
        fill: #fbb03b;
      }

      .cls-13 {
        fill: #d9d39f;
      }
    </style>
  </defs>
  <g>
    <g>
      <rect class="cls-3" x="154.87" y="164.29" width="28.89" height="132.13" transform="translate(-61.04 399.66) rotate(-90)"/>
      <rect class="cls-3" x="154.87" y="77.62" width="28.89" height="132.13" transform="translate(25.62 313) rotate(-90)"/>
      <rect class="cls-3" x="154.87" y="106.51" width="28.89" height="132.13" transform="translate(-3.26 341.89) rotate(-90)"/>
      <rect class="cls-3" x="154.87" y="135.4" width="28.89" height="132.13" transform="translate(-32.15 370.77) rotate(-90)"/>
      <g>
        <g>
          <path class="cls-11" d="M90.43,253.79c-6.59,0-17.74-1.22-17.74-5.81V118.13h35.48v129.85c0,4.59-11.15,5.81-17.74,5.81Z"/>
          <path class="cls-9" d="M106.67,119.63v128.35c0,2.38-7.27,4.31-16.24,4.31s-16.24-1.93-16.24-4.31V119.63h32.48M109.67,116.63h-38.48v131.35c0,6.79,14.73,7.31,19.24,7.31s19.24-.53,19.24-7.31V116.63h0Z"/>
        </g>
        <g>
          <path class="cls-8" d="M90.43,124.93c-6.59,0-17.74-1.22-17.74-5.81s11.15-5.81,17.74-5.81,17.74,1.22,17.74,5.81-11.15,5.81-17.74,5.81Z"/>
          <path class="cls-9" d="M90.43,114.8c8.97,0,16.24,1.93,16.24,4.31s-7.27,4.31-16.24,4.31-16.24-1.93-16.24-4.31,7.27-4.31,16.24-4.31M90.43,111.8c-4.51,0-19.24.53-19.24,7.31s14.73,7.31,19.24,7.31,19.24-.53,19.24-7.31-14.73-7.31-19.24-7.31h0Z"/>
        </g>
      </g>
      <g>
        <g>
          <path class="cls-11" d="M248.61,253.79c-6.59,0-17.74-1.22-17.74-5.81V118.13h35.48v129.85c0,4.59-11.15,5.81-17.74,5.81Z"/>
          <path class="cls-9" d="M264.85,119.63v128.35c0,2.38-7.27,4.31-16.24,4.31s-16.24-1.93-16.24-4.31V119.63h32.48M267.85,116.63h-38.48v131.35c0,6.79,14.73,7.31,19.24,7.31s19.24-.53,19.24-7.31V116.63h0Z"/>
        </g>
        <g>
          <path class="cls-8" d="M248.61,124.93c-6.59,0-17.74-1.22-17.74-5.81s11.15-5.81,17.74-5.81,17.74,1.22,17.74,5.81-11.15,5.81-17.74,5.81Z"/>
          <path class="cls-9" d="M248.61,114.8c8.97,0,16.24,1.93,16.24,4.31s-7.27,4.31-16.24,4.31-16.24-1.93-16.24-4.31,7.27-4.31,16.24-4.31M248.61,111.8c-4.51,0-19.24.53-19.24,7.31s14.73,7.31,19.24,7.31,19.24-.53,19.24-7.31-14.73-7.31-19.24-7.31h0Z"/>
        </g>
      </g>
      <rect class="cls-5" x="148.15" y="171.08" width="42.33" height="72.75"/>
      <path class="cls-1" d="M291.24,94.37c0-13.17-8.52-24.33-20.34-28.33-3.02-1.02-6.23-1.6-9.6-1.6-2.39,0-4.71.31-6.94.85-.4.1-.81.12-1.21.06-23.19-3.57-43.02-17.32-54.78-36.55-.14-.24-.25-.49-.33-.76-1.08-3.76-2.87-7.21-5.23-10.2-5.48-6.95-13.96-11.44-23.5-11.44s-18.72,4.86-24.16,12.32c-1.86,2.55-3.35,5.39-4.34,8.46-.07.21-.16.42-.27.62-11.65,19.69-31.67,33.84-55.17,37.52-.4.06-.81.04-1.21-.05-2.2-.52-4.48-.82-6.84-.82-3.38,0-6.62.59-9.65,1.62-11.79,4.02-20.29,15.16-20.29,28.32,0,6.65,2.18,12.79,5.85,17.76.4.54.63,1.18.63,1.86v18.65c0,1.7,1.38,3.08,3.08,3.08h225.61c1.7,0,3.08-1.38,3.08-3.08v-19.88c0-.62.2-1.22.54-1.74,3.19-4.76,5.06-10.48,5.06-16.64Z"/>
      <g>
        <path class="cls-2" d="M261.31,179.47c-6.19,0-12.09-1.98-17.07-5.73-3.56-2.68-6.48-6.21-8.44-10.21l-.1-.21-.16-.17c-17.41-18-40.93-27.91-66.22-27.91s-48.8,9.91-66.22,27.91l-.16.17-.1.21c-1.96,3.99-4.88,7.52-8.44,10.21-4.98,3.75-10.88,5.73-17.07,5.73-15.68,0-28.43-12.75-28.43-28.43,0-12.16,7.74-22.97,19.27-26.9,3-1.02,6.08-1.54,9.16-1.54,2.3,0,4.68.31,7.07.92l.29.08.3-.04c23.94-3.56,44.73-17.64,57.02-38.63l.09-.15.05-.17c.91-2.94,2.33-5.75,4.22-8.34,5.35-7.33,13.93-11.7,22.95-11.7s16.88,3.96,22.33,10.86c2.36,2.99,4.07,6.38,5.07,10.07l.06.2.11.18c12.4,20.51,33.06,34.25,56.68,37.7l.3.04.29-.08c2.42-.63,4.83-.95,7.16-.95,3.07,0,6.13.51,9.11,1.52,11.56,3.91,19.32,14.73,19.32,26.91,0,15.68-12.76,28.43-28.43,28.43Z"/>
        <path class="cls-7" d="M169.31,66.06c8.28,0,15.99,3.75,21.15,10.29,2.23,2.83,3.85,6.04,4.81,9.54l.11.4.22.36c12.63,20.9,33.68,34.9,57.74,38.41l.6.09.59-.15c2.29-.6,4.58-.9,6.78-.9,2.9,0,5.81.48,8.63,1.44,10.95,3.71,18.3,13.95,18.3,25.49,0,14.85-12.08,26.93-26.93,26.93-5.86,0-11.45-1.88-16.17-5.43-3.38-2.54-6.14-5.89-8-9.67l-.21-.42-.33-.34c-17.7-18.29-41.6-28.37-67.29-28.37s-49.59,10.08-67.29,28.37l-.33.34-.21.42c-1.86,3.78-4.62,7.13-8,9.67-4.72,3.55-10.31,5.43-16.17,5.43-14.85,0-26.93-12.08-26.93-26.93,0-11.52,7.34-21.76,18.25-25.48,2.84-.97,5.76-1.46,8.68-1.46,2.17,0,4.43.29,6.69.88l.59.15.6-.09c24.39-3.63,45.57-17.97,58.1-39.36l.18-.3.1-.33c.86-2.78,2.2-5.44,4-7.9,5.07-6.94,13.2-11.09,21.74-11.09M169.31,63.06c-9.94,0-18.72,4.86-24.16,12.32-1.93,2.64-3.46,5.59-4.44,8.78-11.72,20.01-32.07,34.36-55.95,37.91-2.38-.61-4.87-.97-7.44-.97-3.38,0-6.62.59-9.65,1.62-11.79,4.02-20.29,15.16-20.29,28.32,0,16.53,13.4,29.93,29.93,29.93,6.75,0,12.96-2.26,17.97-6.04,3.75-2.82,6.8-6.49,8.89-10.74,16.35-16.9,39.47-27.46,65.14-27.46s48.79,10.56,65.14,27.46c2.09,4.25,5.14,7.92,8.89,10.74,5.01,3.77,11.22,6.04,17.97,6.04,16.53,0,29.93-13.4,29.93-29.93,0-13.17-8.52-24.33-20.34-28.33-3.02-1.02-6.23-1.6-9.6-1.6-2.61,0-5.13.37-7.54,1-23.59-3.45-43.77-17.41-55.61-36.99-1.07-3.91-2.9-7.5-5.34-10.6-5.48-6.95-13.96-11.44-23.5-11.44h0Z"/>
      </g>
    </g>
    <path class="cls-6" d="M93.54,170.12c-.7,4.24-3.58,12.06-8.95,11.43,0,0,0-.1,0-.1,2.5-.64,4.13-2.53,5.66-4.49,1.45-2.05,2.54-4.38,3.2-6.86l.1.02h0Z"/>
    <path class="cls-6" d="M63.14,166.98c-1.45,4.86-7.95,3.85-11.68,2.57-3.25-1.31-8.52-3.21-8.24-7.49.09-.58.33-1.14.73-1.54l.08.06c-.53.95-.41,2.07.02,2.96.44.89,1.21,1.6,2.08,2.17,1.77,1.14,3.64,2.28,5.62,3.08,3.64,1.47,9.57,2.52,11.4-1.82h0Z"/>
    <path class="cls-13" d="M126.26,140.51c2.05-2.2,4.34-4.09,6.88-5.67,1.95-1.05,4.06-2.01,5.47-3.79,3.9-5.52,6.97-11.14,11.51-16.3,0,0,.28.12.28.12-.64,7.15-5.43,12.9-11.07,16.9-1.85,1.4-3.09,3.38-4.67,5.06-1.11,1.08-2.45,1.86-3.81,2.56-1.42.65-2.88,1.2-4.45,1.39,0,0-.14-.27-.14-.27h0Z"/>
    <path class="cls-13" d="M74.22,80.84c-.66,2.09-1.97,3.81-3.78,4.97-.92.51-2.03.77-2.89,1.31-1.35.76-2.29,2.13-3.38,3.22-1.17,1.03-2.42,2-3.81,2.71-1.89.87-3.94,1.45-6.19,1.34l-.12-.28c2.24-2.41,4.57-3.98,7.44-5.2,1.74-.94,3.98-1.15,5.48-2.58.75-.68,1.23-1.68,1.87-2.46.99-1.15,2.28-1.97,3.64-2.65.46-.24.96-.45,1.53-.6l.21.21h0Z"/>
    <path class="cls-6" d="M62.2,109.47c4.45-4.16,4.54-10.78,7.54-15.83,4.73-8.72,13.94-15.22,23.98-15.56,0,0,0,.1,0,.1-10.49,1.86-20.34,8.53-24.75,18.37-2.05,4.26-2.87,10.07-6.78,12.91h0Z"/>
    <path class="cls-6" d="M60.87,118.42c6.29-.26,11.99-3.27,17.81-5.38,0,0,8.67-3.51,8.67-3.51,2.88-1.17,5.94-2.04,8.12-4.3l.08.06c-1.78,2.7-5.02,3.85-7.81,5.17-2.87,1.26-5.83,2.29-8.77,3.34-5.82,1.84-12.03,5.01-18.09,4.63h0Z"/>
    <path class="cls-13" d="M97.82,89.99c2.92-1.82,5.37-4.23,8.46-5.75,1.53-.76,3.21-1.34,4.62-2.32,2.83-1.89,4.6-5.03,6.41-7.78,2.52-4.38,4.42-8.55,5.27-13.76,0,0,.3-.04.3-.04,2.06,5.15.26,11.31-3.26,15.43-2.16,2.89-5.49,4.56-8.13,6.9-2.49,2.45-5.03,5.01-8.35,6.33-1.56.7-3.38,1.47-5.26,1.27l-.06-.29h0Z"/>
    <path class="cls-6" d="M109.41,101.85c4.97.03,10.23-1.23,14.2-4.29,1.98-1.58,2.33-4.25,3.32-6.6,2.8-7.06,7.47-13.36,10.03-20.45,1.94-4.26.97-11.66,6.8-12.79-4.06,1.46-4.24,5.58-4.88,9.38-1.67,8.95-7.98,15.89-11.34,24.11-1,2.3-1.49,5.09-3.6,6.74-2.04,1.6-4.5,2.48-6.96,3.19-2.47.65-5.03.93-7.57.82v-.1h0Z"/>
    <path class="cls-6" d="M148.79,36.43c-.52-9.57,10-16.67,18.89-15.79,1.33.29,2.62,1.23,2.93,2.55l-.09.03c-.57-1.16-1.78-1.77-2.96-1.9-3.68-.05-7.53,1.26-10.82,2.89-4.64,2.43-7.72,7.13-7.95,12.22h0Z"/>
    <path class="cls-13" d="M171,13.77c2.57-1.18,5.17-1.82,7.94-1.98,1.35-.02,2.77.22,4.11.03,2.02-.23,3.82-1.32,5.48-2.41C192.36,6.99,195.48,4.35,197.49,0c0,0,.3.02.3.02,1.21,4.5-2.18,9.16-6.25,10.83-2.58,1.35-5.59,1.1-8.28,1.92-2.59.97-5.18,2.21-8.04,1.96-1.39-.03-2.79-.18-4.19-.66l-.02-.3h0Z"/>
    <path class="cls-6" d="M124.8,53.27c-4.35,2.5-5.74,1.13-9.56-1.21-2.97-1.71-5.87-3.56-8.43-5.86,0,0,.06-.08.06-.08,1.59.7,3.08,1.54,4.55,2.4,2.11,1.27,4.29,2.94,6.36,4.31.71.48,1.4.96,2.17,1.2,1.57.49,3.28-.19,4.82-.86l.04.09h0Z"/>
    <path class="cls-6" d="M70.28,72.27c-6.63,1.32-13.09-1.8-18.91-4.61,0,0,.55-.06.55-.06-2.92,2.55-5.43,5.47-7.54,8.75,0,0-.09-.05-.09-.05.72-1.83,1.69-3.58,2.89-5.16,1.24-1.69,2.71-3.22,4.37-4.52,5.7,3.24,12.17,6.31,18.73,5.64h0Z"/>
    <path class="cls-13" d="M61.25,138.72c-1.09,1.35-2.99,1.82-4.56,1.3-1.51-.83-2.46-1.75-4.32-1.59-3.12.04-6.12-1.42-7.83-4.08,0,0,.13-.27.13-.27,2.35-.37,4.58.11,6.48,1.46,1.26.65,2.23,2.17,3.71,2.33.72.1,1.51-.22,2.19-.31.68-.09,1.3.06,1.96.19.66.16,1.32.34,2.16.69l.08.29h0Z"/>
    <path class="cls-13" d="M72.64,141.86c3.58-.42,7.1.03,10.55,1.08.78.25,1.71.97,2,1.81.34.89.29,1.58.28,2.15-.06,2.39-.65,4.72-1.07,7-.42,2.29-.81,4.57-1.31,6.88-.68,2.54-.99,4.98-3.34,6.82-2.47,1.87-5.91.2-7.95-1.28-5.01-3.04-6.39-7.54-4.85-12.96,0,0,.3,0,.3,0,.79,5.07,1.58,7.73,6.28,10.26,1.53.85,3.1,2.32,4.67,1.61,1.46-.93,2.45-3.37,3.34-4.98,2.17-4.05,2.31-8.81,1.43-13.21-.12-.71-.09-1.1-.38-1.39-.84-.53-2.49-.9-3.48-1.29-2.13-.72-4.3-1.37-6.51-2.2l.03-.3h0Z"/>
    <path class="cls-6" d="M133.62,139.76c-.06,2.2-1.25,4.15-2.24,6.01l-3.1,5.63c-1.7,3.15-3.69,7.74-7.94,7.61-.56-.04-1.12-.18-1.6-.45l.04-.09c4.67.89,6.64-4.26,8.81-7.47,0,0,3.36-5.48,3.36-5.48,1.11-1.81,2.38-3.61,2.57-5.77h.1Z"/>
    <path class="cls-6" d="M116.89,126.64c-7.36-5.01-15.81-9.62-24.99-8.01,0,0-.03-.1-.03-.1,8.93-3.59,18.44,2.83,25.01,8.11h0Z"/>
    <path class="cls-6" d="M98.29,141.78c4.13.14,8.27-.24,12.29-1.14,2.4-.64,5.07-1.05,7.18-2.36.73-.59,1.6-3.15,2.05-3.98,3.4-7.56,7.56-14.82,12.68-21.37-3.84,7.07-8.37,14.31-11.95,21.71,0,0-1.34,2.8-1.34,2.8-.38,1.02-1.42,1.85-2.47,2.13-5.84,1.86-12.51,2.92-18.44,2.21h0Z"/>
    <path class="cls-13" d="M144.28,102.07c-2.25-5.63-.24-12.57,3.93-16.84,2.16-2.2,4.87-3.61,7.49-4.88,8.41-4.03,19.89-7.37,28.08-1.02,2.2,1.79,1.4,4.94,1.29,7.3-.24,2.88-.53,5.75-1.05,8.63h-.3c-.5-2.88-.78-5.76-1.01-8.64l-.15-2.16c-.09-.97.05-1.75-.39-2.38-4.77-3.98-11.98-3.72-17.95-3.33-2.8.28-5.6,1.04-8.06,2.45-4.77,2.91-7.95,7.66-10.09,12.66-.99,2.54-1.46,5.25-1.48,8.15l-.29.06h0Z"/>
    <path class="cls-6" d="M165.8,88.66c-3.74,3.4-7.78,7.12-9.12,12.15-.63,2.44-.65,5.11-.43,7.6.14,1.25.6,2.41,1.44,3.3.83.9,1.92,1.57,3.05,2.16,1.14.55,2.31,1.33,3.32,1.03,1.08-.37,2.21-1.17,3.14-1.9,6.11-4.88,7.96-13.17,6.78-20.73,2.32,7.14.22,16.71-6.16,21.51-1.12.82-2.16,1.55-3.53,1.99-.76.2-1.55,0-2.16-.28-1.81-.9-3.57-1.76-4.97-3.28-.93-1.01-1.43-2.39-1.55-3.71-.18-2.63-.11-5.26.6-7.81,1.52-4.99,5.72-9.07,9.6-12.02h0Z"/>
    <path class="cls-6" d="M150.65,130.44c12.28-8.79,25.69-11.26,38.09-1.19,3.54,2.84,7.34,5.76,10.81,8.37-4.13-2.02-7.7-4.96-11.4-7.56-3.67-2.62-7.5-5.13-11.89-6.13-9.03-2.15-18.2,1.92-25.61,6.52h0Z"/>
    <path class="cls-6" d="M188.98,107.4c7.53,14.43,28.09,16.72,42.59,14.22,0,0,.02.1.02.1-7.72,2.44-16.22,2.28-23.95-.07-7.5-2.19-15.78-6.79-18.66-14.25h0Z"/>
    <path class="cls-6" d="M221.81,140.96c3.44,1.86,6.1,4.92,8.13,8.23,4.23,7.19,5.12,14.18,14.17,16.93,1.79.66,3.67,1.09,5.54,1.55,1.88.43,3.75,1.04,5.65.6l.03.1c-.91.37-1.94.43-2.92.38-24.64-2.17-15.31-17-30.61-27.78h0Z"/>
    <path class="cls-13" d="M247.93,133.14c5.49-4.81,18.01-1.52,21.74,4.31,1.39,2.39,1.32,5.3,1.35,7.87.36,5.91-.44,10.99-6.78,13.16-7.18,2.6-14.74-.41-19.69-5.82-3.53-3.62-7.73-7.62-8.22-12.95,0,0,.29-.07.29-.07,1.26,3.15,3.59,5.46,6.06,7.62,4.9,4.08,9.59,8.98,16.24,9.3,4.41.21,10.21-1.1,10.98-6.25.48-3.12.27-6.8-.82-9.74-1.22-3.07-4.17-4.2-6.97-5.58-1.47-.67-2.98-1.25-4.52-1.68-3.13-.87-6.37-1.09-9.5.08,0,0-.15-.26-.15-.26h0Z"/>
    <path class="cls-13" d="M208.14,143.21c1.55.04,2.86,1.24,3.17,2.65.1.7-.12,1.47,0,2.09.11.63.47,1.17.93,1.7.91,1.02,1.47,2.23,1.73,3.53.14,1.29,0,2.65-.79,4.02l-.3.04c-1.44-1.46-2.25-3.18-2.28-5.18-.21-1.17.47-2.68-.2-3.78-.29-.55-.96-.95-1.38-1.39-.41-.44-.55-.97-.73-1.51-.15-.56-.27-1.12-.35-1.95l.2-.23h0Z"/>
    <path class="cls-6" d="M263.72,126.37c6.5,2.1,13.24,1.34,19.84.25,0,0,.03.1.03.1-3.07,1.55-6.58,2.04-9.98,1.82-3.31-.2-7.11-.73-9.9-2.17h0Z"/>
    <path class="cls-6" d="M153.69,55.53c.87-4.2,5.5-5.84,9.25-6.48,7.81-1.48,15.96-1.61,23.75.08,1.92.46,3.96.92,5.66,2.16,1.64,1.18,2.84,3.35,2.23,5.36,0,0-.1-.02-.1-.02.29-1.94-.93-3.79-2.53-4.76-1.61-1-3.54-1.4-5.47-1.76-7.7-1.56-15.68-1.93-23.45-.57-4.04.56-7.97,1.95-9.34,5.99h0Z"/>
    <path class="cls-13" d="M174.34,35.55c4.99-.37,10.03.39,14.71,2.08,2.33.91,4.51,2.18,6.76,3.16,3.46,1.7,7.14,2.31,10.49,4.36,3.42,2.53,3.31,7.21,4.09,10.93.68,4.82,1.35,9.64,1.64,14.62l-.29.08c-2.16-4.52-3.54-9.3-4.51-14.16-.84-3.18-.13-7.12-2.47-9.62-2.57-2.29-6.03-4.11-9.3-5.3-4.67-1.39-9.51-1.99-14.14-3.59-2.33-.7-4.67-1.37-7.02-2.27l.04-.3h0Z"/>
    <path class="cls-6" d="M185.38,63.2c11.95,12.11,25.7,24.46,43.38,26.09,0,0,0,.1,0,.1-17.99.3-32.21-13.98-43.38-26.19h0Z"/>
    <path class="cls-6" d="M198.24,32.01c-.03.18.21.3.41.36.4.16,1.5.55,1.92.69,2.57.97,5.29,1.23,7.73,2.55,0,0-.02.1-.02.1-1.89.18-3.69-.33-5.39-1.08-1.24-.49-2.57-1.11-3.74-1.75,0,0-.6-.33-.6-.33-.17-.1-.5-.26-.41-.58l.09.03h0Z"/>
    <path class="cls-6" d="M226.7,60.71c3.22,2.36,7.99,5.13,12.02,3.85,4.08-1.57,7.56-4.37,10.44-7.67,0,0,.08.06.08.06-2.43,4.66-8.24,9.31-13.76,8.54-3.08-.71-6.77-2.57-8.78-4.78h0Z"/>
    <path class="cls-6" d="M244.17,73.46c6.52-1.29,13.27-2.36,19.88-.94,3.27.76,6.93,1.9,8.68,5.08,1.63,3.18.53,6.67,1.69,9.9,0,0-.09.04-.09.04-1.69-3.01-.87-6.78-2.47-9.46-1.64-2.77-4.99-3.97-7.99-4.79-6.4-1.68-13.41-.52-19.7.16h0Z"/>
    <path class="cls-13" d="M238.3,90.16c2.03-.59,4.06-.84,6.1-1.06,1.74-.05,3.38-.54,5.14.26,2.5,1.6,3.13,4.66,4.31,7.06,1.6,4.24,5.22,5.12,9.26,5.85,3.88.67,7.73,1.03,11.68,1.24,1.99.09,3.99.07,6.08.12l.07.29c-7.35,3.57-17.64,3.24-24.27-1.85-1.67-1.4-2.64-3.38-3.67-5.21-.99-1.78-2.46-3.18-3.84-4.5-.74-.66-.81-.67-1.73-.77-.92-.03-2.01-.07-3-.15-2.04-.19-4.07-.42-6.11-.98v-.3h0Z"/>
    <path class="cls-6" d="M223.15,99.4c12.77,8.66,28.02,12.47,43.28,13.31,0,0,0,.1,0,.1-15.28,1.07-31.23-4.48-43.28-13.41h0Z"/>
    <path class="cls-6" d="M279.1,115.58c3.59-.62,7.38-.27,10.86.89,2.42.63,3.38,3.33,3.2,5.6,0,0-.1.02-.1.02-.5-1.37-.91-2.79-1.83-3.67-3.28-2.41-8.06-2.92-12.13-2.74,0,0-.01-.1-.01-.1h0Z"/>
    <path class="cls-6" d="M254.83,67.25c3.3-.99,6.54-2.15,9.72-3.46,2.68-1.3,6.82-2.58,8.99-4.69-1.28,3.08-5.71,4.33-8.7,5.44-3.22,1.04-6.81,2.34-10,2.71h0Z"/>
    <path class="cls-6" d="M273.8,72.53c4.74-1.3,10,1.06,12.44,5.3,2.65,4.06,3.38,8.83,5.84,12.95-1.62-1.15-2.88-4.18-3.75-6.08-.94-2.18-1.61-4.45-2.77-6.45-2.41-4.46-7-6.31-11.75-5.71h0Z"/>
    <path class="cls-9" d="M101.65,185.02c2.95,9.97,2.98,20.8.58,30.89-.36-10.17-.36-20.72-.58-30.89h0Z"/>
    <path class="cls-4" d="M161.05,171.39c2.06,2.29,2.62,5.58,2.44,8.65s-.99,6.07-1.32,9.13c-.32,2.93-.19,5.9-.1,8.85.46,15.06-.13,30.14-1.77,45.12"/>
    <path class="cls-9" d="M175.68,243.32c-.62-2.94-1.14-5.9-1.42-8.93-.18-6.01,1.63-12,2.74-17.8,1.99-11.73-1.21-23.49-3.85-34.91-.39-2.97-.78-5.94-1.07-8.93,2.25,5.58,3.85,11.31,5.04,17.2,1.94,8.75,3.41,17.99,1.85,26.98-.52,3-1.3,5.89-1.87,8.77-1.11,5.82-.9,11.7-1.42,17.62h0Z"/>
    <path class="cls-9" d="M77.92,252.08c-.92-2.67-.63-5.42-.66-8.16.14-8.07,1.19-16.13,3.09-23.97-1.65,7.88-2.45,15.93-2.34,23.97.1,2.58-.08,5.38.84,7.8,0,0-.93.36-.93.36h0Z"/>
    <path class="cls-9" d="M250.17,252.44c-.73-2.36-.13-3.85-.76-6.08-.83-3.98-1.08-8.16-.33-12.17.71-3.96,2.32-7.62,3.44-11.43,1.72-5.66,1.8-11.64.88-17.49.81,3.86,1.3,7.83,1.03,11.83-.37,7.83-4.66,15.14-3.65,23.07.22,2.46.79,4.71,1.45,7.13.31,1.31.26,3.07.75,4.08,0,0-2.8,1.08-2.8,1.08h0Z"/>
  </g>
  <g>
    <g>
      <path class="cls-12" d="M56.85,489.91c-28.06,0-50.9-19.92-50.94-44.41l32.72-142.4v-.06c0-24.52,18.33-44.47,40.87-44.47h186.16c22.54,0,40.87,19.95,40.87,44.47v.06l32.72,142.4c-.04,24.49-22.87,44.41-50.94,44.41H56.85Z"/>
      <path d="M265.67,259.07c22.26,0,40.37,19.72,40.37,43.97v.11l.03.11,32.7,142.29c-.07,24.19-22.67,43.86-50.44,43.86H56.85c-27.77,0-50.37-19.66-50.44-43.86l32.7-142.29.03-.11v-.11c0-24.24,18.11-43.97,40.37-43.97h186.16M265.67,258.07H79.5c-22.85,0-41.37,20.13-41.37,44.97L5.41,445.44c0,24.84,23.03,44.97,51.44,44.97h231.47c28.41,0,51.44-20.13,51.44-44.97l-32.72-142.4c0-24.84-18.52-44.97-41.37-44.97h0Z"/>
    </g>
    <g>
      <g>
        <path class="cls-10" d="M82.97,276.53c-2.63,0-4.51-1.11-4.8-2.83l-11.35-67.81,11.87-2.11,11.36,67.84c.36,2.14-1.87,4.14-5.3,4.75-.6.11-1.2.16-1.78.16h0Z"/>
        <path class="cls-9" d="M77.47,205.52l11.11,66.35c.21,1.23-1.62,2.58-4.09,3.02-.52.09-1.04.14-1.52.14-1.78,0-3.15-.6-3.32-1.57l-11.11-66.35,8.92-1.59M79.93,202.04l-2.98.53-8.92,1.59-2.92.52.49,2.93,11.11,66.35c.41,2.48,2.88,4.08,6.28,4.08.67,0,1.36-.06,2.04-.18,4.28-.76,7.02-3.48,6.52-6.47l-11.11-66.35-.5-2.99h0Z"/>
      </g>
      <g>
        <path class="cls-8" d="M71.82,209.91c-2.63,0-4.51-1.11-4.8-2.83-.36-2.14,1.87-4.14,5.3-4.75.6-.11,1.2-.16,1.78-.16,2.63,0,4.51,1.11,4.8,2.83.36,2.14-1.87,4.14-5.3,4.75-.6.11-1.2.16-1.78.16Z"/>
        <path class="cls-9" d="M74.11,203.68c1.78,0,3.15.6,3.32,1.57.21,1.23-1.62,2.58-4.09,3.02-.52.09-1.04.14-1.52.14-1.78,0-3.15-.6-3.32-1.57-.21-1.23,1.62-2.58,4.09-3.02.52-.09,1.04-.14,1.52-.14M74.11,200.68h0c-.67,0-1.36.06-2.04.18-4.28.76-7.02,3.48-6.52,6.47.41,2.48,2.88,4.08,6.28,4.08.67,0,1.36-.06,2.04-.18,4.28-.76,7.02-3.48,6.52-6.47-.41-2.48-2.88-4.08-6.28-4.08h0Z"/>
      </g>
    </g>
    <g>
      <path class="cls-10" d="M47.31,275.79l23.28-52.17c.21-.47.91-1.56,2.9-1.56,1.12,0,2.44.34,3.73.96,3.03,1.46,4.6,3.74,3.8,5.52l-23.32,52.25-10.39-5.01Z"/>
      <path class="cls-9" d="M73.49,223.57c.85,0,1.96.27,3.07.81,2.12,1.02,3.5,2.62,3.08,3.56l-22.69,50.84-7.69-3.71,22.69-50.84c.2-.45.77-.67,1.53-.67M73.49,220.57c-2.87,0-3.94,1.71-4.27,2.44l-22.69,50.84-1.19,2.66,2.62,1.27,7.69,3.71,2.78,1.34,1.26-2.82,22.69-50.84c1.15-2.57-.71-5.65-4.52-7.49-1.49-.72-3.04-1.11-4.38-1.11h0Z"/>
    </g>
    <g>
      <path class="cls-10" d="M51.36,305.86l23.28-52.17c.21-.47.91-1.56,2.9-1.56,1.12,0,2.44.34,3.73.96,3.04,1.47,4.6,3.74,3.8,5.53l-23.32,52.25-10.39-5.02Z"/>
      <path class="cls-9" d="M77.54,253.64c.85,0,1.96.27,3.07.81,2.12,1.02,3.5,2.62,3.08,3.56l-22.69,50.84-7.69-3.71,22.69-50.84c.2-.45.77-.67,1.53-.67M77.54,250.64c-2.87,0-3.94,1.71-4.27,2.44l-22.69,50.84-1.19,2.66,2.62,1.27,7.69,3.71,2.78,1.34,1.26-2.82,22.69-50.84c1.15-2.57-.71-5.65-4.52-7.49-1.49-.72-3.04-1.11-4.38-1.11h0Z"/>
    </g>
    <g>
      <g>
        <path class="cls-10" d="M60.08,339.09c-2.72,0-4.68-1.21-5-3.08l-12.73-75.88,11.91-2.12,12.73,75.91c.38,2.26-1.89,4.42-5.28,5.02-.55.1-1.11.15-1.65.15h0Z"/>
        <path class="cls-9" d="M53.04,259.75l12.48,74.42c.23,1.38-1.59,2.86-4.06,3.3-.48.08-.94.12-1.38.12-1.86,0-3.33-.71-3.52-1.83l-12.48-74.42,8.96-1.6M55.5,256.27l-2.98.53-8.96,1.6-2.92.52.49,2.93,12.48,74.42c.43,2.59,3.04,4.33,6.47,4.33.63,0,1.27-.06,1.91-.17,4.22-.75,7.01-3.65,6.49-6.75l-12.48-74.42-.5-2.99h0Z"/>
      </g>
      <g>
        <path class="cls-8" d="M47.55,264.37c-2.72,0-4.68-1.21-5-3.08-.38-2.26,1.89-4.42,5.28-5.02.55-.1,1.11-.15,1.65-.15,2.72,0,4.68,1.21,4.99,3.08.38,2.26-1.89,4.42-5.28,5.02-.55.1-1.1.15-1.65.15Z"/>
        <path class="cls-9" d="M49.47,257.62c1.86,0,3.33.71,3.52,1.83.23,1.38-1.59,2.86-4.06,3.3-.48.08-.94.12-1.38.12-1.86,0-3.33-.71-3.52-1.83-.23-1.38,1.59-2.86,4.06-3.3.48-.08.94-.12,1.38-.12M49.47,254.62h0c-.63,0-1.27.06-1.91.17-4.22.75-7.01,3.65-6.49,6.75.43,2.59,3.04,4.33,6.47,4.33.63,0,1.27-.06,1.91-.17,4.22-.75,7.01-3.65,6.49-6.75-.43-2.59-3.04-4.33-6.47-4.33h0Z"/>
      </g>
    </g>
    <g>
      <path class="cls-10" d="M27.1,340.41l20.24-58.82c.43-1.24,1.69-1.95,3.48-1.95.98,0,2.06.21,3.13.62,3.1,1.17,4.88,3.41,4.22,5.33l-20.27,58.91-10.79-4.08Z"/>
      <path class="cls-9" d="M50.82,281.14c.77,0,1.67.17,2.6.52,2.2.83,3.69,2.37,3.33,3.44l-19.77,57.44-7.98-3.02,19.77-57.44c.21-.62,1-.94,2.06-.94M50.82,278.14c-2.43,0-4.26,1.11-4.9,2.96l-19.77,57.44-.95,2.75,2.72,1.03,7.98,3.02,2.89,1.09,1.01-2.92,19.77-57.44c.95-2.76-1.15-5.73-5.1-7.22-1.24-.47-2.5-.71-3.66-.71h0Z"/>
    </g>
    <g>
      <path class="cls-10" d="M33.03,368.16l19.67-53.63c.19-.53.89-1.76,3.19-1.76,1.04,0,2.21.25,3.38.72,3.13,1.25,4.84,3.42,4.17,5.25l-19.7,53.71-10.71-4.29Z"/>
      <path class="cls-9" d="M55.89,314.27c.81,0,1.8.2,2.82.61,2.19.88,3.67,2.38,3.32,3.34l-19.17,52.26-7.92-3.18,19.17-52.26c.19-.52.86-.78,1.78-.78M55.89,311.27c-2.25,0-3.97,1.03-4.6,2.75l-19.17,52.26-1,2.73,2.7,1.08,7.92,3.18,2.87,1.15,1.06-2.9,19.17-52.26c.97-2.64-1.09-5.59-5.02-7.16-1.35-.54-2.71-.83-3.94-.83h0Z"/>
    </g>
    <g>
      <g>
        <path class="cls-10" d="M40.27,402.04c-2.72,0-4.68-1.21-4.99-3.08l-12.73-75.88,11.91-2.12,12.73,75.91c.38,2.26-1.89,4.42-5.28,5.02-.55.1-1.11.15-1.65.15h0Z"/>
        <path class="cls-9" d="M33.23,322.7l12.48,74.42c.23,1.38-1.59,2.86-4.06,3.3-.48.08-.94.12-1.38.12-1.86,0-3.33-.71-3.52-1.83l-12.48-74.42,8.96-1.6M35.69,319.22l-2.98.53-8.96,1.6-2.92.52.49,2.93,12.48,74.42c.43,2.59,3.04,4.33,6.47,4.33.63,0,1.27-.06,1.91-.17,4.22-.75,7.01-3.65,6.49-6.75l-12.48-74.42-.5-2.99h0Z"/>
      </g>
      <g>
        <path class="cls-8" d="M27.74,327.32c-2.72,0-4.68-1.21-5-3.08-.38-2.26,1.89-4.42,5.28-5.02.55-.1,1.11-.15,1.65-.15,2.72,0,4.68,1.21,5,3.08.38,2.26-1.89,4.42-5.28,5.02-.55.1-1.11.15-1.65.15Z"/>
        <path class="cls-9" d="M29.66,320.57c1.86,0,3.33.71,3.52,1.83.23,1.38-1.59,2.86-4.06,3.3-.48.08-.94.12-1.38.12-1.86,0-3.33-.71-3.52-1.83-.23-1.38,1.59-2.86,4.06-3.3.48-.08.94-.12,1.38-.12M29.66,317.57h0c-.63,0-1.27.06-1.91.17-4.22.75-7.01,3.65-6.49,6.75.43,2.59,3.04,4.33,6.47,4.33.63,0,1.27-.06,1.91-.17,4.22-.75,7.01-3.65,6.49-6.75-.43-2.59-3.04-4.33-6.47-4.33h0Z"/>
      </g>
    </g>
    <g>
      <path class="cls-10" d="M8.47,415.53l20.24-58.82c.43-1.24,1.69-1.95,3.48-1.95.98,0,2.06.21,3.13.62,3.1,1.17,4.88,3.41,4.22,5.33l-20.27,58.91-10.79-4.08Z"/>
      <path class="cls-9" d="M32.19,356.25c.77,0,1.67.17,2.6.52,2.2.83,3.69,2.37,3.33,3.44l-19.77,57.44-7.98-3.02,19.77-57.44c.21-.62,1-.94,2.06-.94M32.19,353.25c-2.43,0-4.26,1.11-4.9,2.96l-19.77,57.44-.95,2.75,2.72,1.03,7.98,3.02,2.89,1.09,1.01-2.92,19.77-57.44c.95-2.76-1.15-5.73-5.1-7.22-1.24-.47-2.5-.71-3.66-.71h0Z"/>
    </g>
    <g>
      <g>
        <path class="cls-10" d="M19.45,465.8c-2.72,0-4.68-1.21-5-3.08L1.72,386.83l11.91-2.12,12.73,75.91c.38,2.26-1.89,4.42-5.28,5.02-.55.1-1.11.15-1.65.15Z"/>
        <path class="cls-9" d="M12.41,386.46l12.48,74.42c.23,1.38-1.59,2.86-4.06,3.3-.48.08-.94.12-1.38.12-1.86,0-3.33-.71-3.52-1.83l-12.48-74.42,8.96-1.6M14.87,382.97l-2.98.53-8.96,1.6-2.92.52.49,2.93,12.48,74.42c.43,2.59,3.04,4.33,6.47,4.33.63,0,1.27-.06,1.91-.17,4.22-.75,7.01-3.65,6.49-6.75l-12.48-74.42-.5-2.99h0Z"/>
      </g>
      <g>
        <path class="cls-8" d="M6.92,391.08c-2.72,0-4.68-1.21-5-3.08-.38-2.26,1.89-4.42,5.28-5.02.55-.1,1.11-.15,1.65-.15,2.72,0,4.68,1.21,4.99,3.08.38,2.26-1.89,4.42-5.28,5.02-.55.1-1.11.15-1.65.15Z"/>
        <path class="cls-9" d="M8.84,384.33c1.86,0,3.33.71,3.52,1.83.23,1.38-1.59,2.86-4.06,3.3-.48.08-.94.12-1.38.12-1.86,0-3.33-.71-3.52-1.83-.23-1.38,1.59-2.86,4.06-3.3.48-.08.94-.12,1.38-.12M8.84,381.33h0c-.63,0-1.27.06-1.91.17-4.22.75-7.01,3.65-6.49,6.75.43,2.59,3.04,4.33,6.47,4.33.63,0,1.27-.06,1.91-.17,4.22-.75,7.01-3.65,6.49-6.75-.43-2.59-3.04-4.33-6.47-4.33h0Z"/>
      </g>
    </g>
    <g>
      <g>
        <path class="cls-10" d="M267.72,272.92c-.58,0-1.18-.05-1.78-.16-3.43-.61-5.66-2.61-5.3-4.75l11.36-67.84,11.87,2.11-11.35,67.81c-.29,1.72-2.17,2.83-4.8,2.83Z"/>
        <path class="cls-9" d="M273.23,201.92l8.92,1.59-11.11,66.35c-.16.97-1.54,1.57-3.32,1.57-.48,0-.99-.04-1.52-.14-2.46-.44-4.29-1.79-4.09-3.02l11.11-66.35M270.77,198.43l-.5,2.99-11.11,66.35c-.5,2.99,2.24,5.71,6.52,6.47.69.12,1.37.18,2.04.18,3.4,0,5.86-1.6,6.28-4.08l11.11-66.35.49-2.93-2.92-.52-8.92-1.59-2.98-.53h0Z"/>
      </g>
      <g>
        <path class="cls-8" d="M278.88,206.31c-.58,0-1.18-.05-1.78-.16-3.43-.61-5.66-2.61-5.3-4.75.29-1.72,2.17-2.83,4.8-2.83.58,0,1.18.05,1.78.16,3.43.61,5.66,2.61,5.3,4.75-.29,1.72-2.17,2.83-4.8,2.83h0Z"/>
        <path class="cls-9" d="M276.59,200.07c.48,0,.99.04,1.52.14,2.46.44,4.29,1.79,4.09,3.02-.16.97-1.54,1.57-3.32,1.57-.48,0-.99-.04-1.52-.14-2.46-.44-4.29-1.79-4.09-3.02.16-.97,1.54-1.57,3.32-1.57M276.59,197.07c-3.4,0-5.86,1.6-6.28,4.08-.5,2.99,2.24,5.71,6.52,6.47.69.12,1.37.18,2.04.18,3.4,0,5.86-1.6,6.28-4.08.5-2.99-2.24-5.71-6.52-6.47-.69-.12-1.37-.18-2.04-.18h0Z"/>
      </g>
    </g>
    <g>
      <path class="cls-10" d="M125.92,470.86c-2.77,0-4.94-2.86-5.05-6.65-.11-3.85,1.99-7,4.78-7.17l106.82-6.62.41,13.81-106.73,6.61c-.08,0-.16,0-.24,0Z"/>
      <path class="cls-9" d="M231.02,452.02l.32,10.81-105.28,6.52s-.1,0-.15,0c-1.89,0-3.47-2.28-3.55-5.19-.09-2.99,1.42-5.5,3.38-5.63l105.28-6.52M233.92,448.84l-3.09.19-105.28,6.52c-3.61.22-6.33,4.05-6.19,8.71.14,4.62,2.95,8.1,6.55,8.1.11,0,.22,0,.33-.01l105.28-6.52,2.9-.18-.09-2.9-.32-10.81-.09-3.1h0Z"/>
    </g>
    <g>
      <path class="cls-10" d="M136.81,436.64c-1.14,0-2.23-.48-3.08-1.36-1.11-1.14-1.7-2.84-1.64-4.66.11-3.32,2.32-5.92,5.02-5.92l102.02-.07-.4,11.93-101.92.07h0Z"/>
      <path class="cls-9" d="M237.59,426.14l-.3,8.93-100.47.06h0c-1.86,0-3.31-2-3.22-4.46.08-2.47,1.66-4.47,3.53-4.47l100.47-.06M240.69,423.14h-3.1s-100.47.07-100.47.07c-3.52,0-6.38,3.24-6.52,7.37-.07,2.22.68,4.32,2.06,5.75,1.13,1.17,2.61,1.81,4.16,1.81l100.48-.06h2.9s.1-2.9.1-2.9l.3-8.93.1-3.1h0Z"/>
    </g>
    <g>
      <path class="cls-10" d="M269.68,224.96c-.8-1.79.76-4.06,3.8-5.53,1.29-.62,2.61-.96,3.73-.96,1.99,0,2.69,1.09,2.9,1.56l23.28,52.17-10.39,5.01-23.32-52.25Z"/>
      <path class="cls-9" d="M277.2,219.97c.77,0,1.33.22,1.53.67l22.69,50.84-7.69,3.71-22.69-50.84c-.42-.94.96-2.54,3.08-3.56,1.12-.54,2.22-.81,3.07-.81M277.2,216.97h0c-1.34,0-2.89.39-4.38,1.11-3.81,1.84-5.66,4.92-4.52,7.49l22.69,50.84,1.26,2.82,2.78-1.34,7.69-3.71,2.62-1.27-1.19-2.66-22.69-50.84c-.33-.73-1.4-2.44-4.27-2.44h0Z"/>
    </g>
    <g>
      <path class="cls-10" d="M265.63,252.56c-.8-1.79.76-4.06,3.8-5.53,1.29-.62,2.61-.96,3.73-.96,1.99,0,2.69,1.09,2.9,1.55l23.28,52.17-10.39,5.02-23.32-52.25Z"/>
      <path class="cls-9" d="M273.15,247.58c.77,0,1.33.22,1.53.67l22.69,50.84-7.69,3.71-22.69-50.84c-.42-.94.96-2.54,3.08-3.56,1.12-.54,2.22-.81,3.07-.81M273.15,244.58h0c-1.34,0-2.89.39-4.38,1.11-3.81,1.84-5.66,4.92-4.52,7.49l22.69,50.84,1.26,2.82,2.78-1.34,7.69-3.71,2.62-1.27-1.19-2.66-22.69-50.84c-.33-.73-1.4-2.44-4.27-2.44h0Z"/>
    </g>
    <g>
      <g>
        <path class="cls-10" d="M290.62,335.49c-.54,0-1.09-.05-1.65-.15-3.39-.6-5.66-2.76-5.28-5.02l12.73-75.91,11.91,2.12-12.73,75.88c-.31,1.87-2.27,3.08-5,3.08Z"/>
        <path class="cls-9" d="M297.66,256.15l8.96,1.6-12.48,74.42c-.19,1.12-1.65,1.83-3.52,1.83-.44,0-.91-.04-1.38-.12-2.47-.44-4.29-1.92-4.06-3.3l12.48-74.42M295.2,252.66l-.5,2.99-12.48,74.42c-.52,3.1,2.27,6,6.49,6.75.64.11,1.28.17,1.91.17,3.44,0,6.04-1.74,6.47-4.33l12.48-74.42.49-2.93-2.92-.52-8.96-1.6-2.98-.53h0Z"/>
      </g>
      <g>
        <path class="cls-8" d="M303.15,260.77c-.54,0-1.09-.05-1.64-.15-3.39-.6-5.66-2.76-5.28-5.02.32-1.87,2.28-3.08,5-3.08.54,0,1.09.05,1.65.15,3.39.6,5.66,2.76,5.28,5.02-.31,1.87-2.27,3.08-5,3.08h0Z"/>
        <path class="cls-9" d="M301.22,254.02c.44,0,.91.04,1.38.12,2.47.44,4.29,1.92,4.06,3.3-.19,1.12-1.65,1.83-3.52,1.83-.44,0-.91-.04-1.38-.12-2.47-.44-4.29-1.92-4.06-3.3.19-1.12,1.65-1.83,3.52-1.83M301.22,251.02c-3.44,0-6.04,1.74-6.47,4.33-.52,3.1,2.27,6,6.49,6.75.64.11,1.28.17,1.91.17,3.44,0,6.04-1.74,6.47-4.33.52-3.1-2.27-6-6.49-6.75-.64-.11-1.28-.17-1.91-.17h0Z"/>
      </g>
    </g>
    <g>
      <path class="cls-10" d="M292.31,293.34c-.66-1.92,1.11-4.16,4.22-5.33,1.07-.4,2.15-.62,3.13-.62,1.78,0,3.05.71,3.48,1.95l20.24,58.82-10.79,4.08-20.27-58.91Z"/>
      <path class="cls-9" d="M299.65,288.89c1.06,0,1.85.32,2.06.94l19.77,57.44-7.98,3.02-19.77-57.44c-.37-1.07,1.12-2.61,3.33-3.44.93-.35,1.83-.52,2.6-.52M299.65,285.89c-1.16,0-2.42.25-3.66.71-3.95,1.49-6.05,4.46-5.1,7.22l19.77,57.44,1.01,2.92,2.89-1.09,7.98-3.02,2.72-1.03-.95-2.75-19.77-57.44c-.64-1.86-2.47-2.96-4.9-2.96h0Z"/>
    </g>
    <g>
      <g>
        <path class="cls-10" d="M310.43,398.44c-.54,0-1.09-.05-1.65-.15-3.39-.6-5.66-2.76-5.28-5.02l12.73-75.91,11.91,2.12-12.73,75.88c-.31,1.87-2.27,3.08-5,3.08Z"/>
        <path class="cls-9" d="M317.47,319.1l8.96,1.6-12.48,74.42c-.19,1.12-1.65,1.83-3.52,1.83-.44,0-.91-.04-1.38-.12-2.47-.44-4.29-1.92-4.06-3.3l12.48-74.42M315.01,315.61l-.5,2.99-12.48,74.42c-.52,3.1,2.27,6,6.49,6.75.64.11,1.28.17,1.91.17,3.44,0,6.04-1.74,6.47-4.33l12.48-74.42.49-2.93-2.92-.52-8.96-1.6-2.98-.53h0Z"/>
      </g>
      <g>
        <path class="cls-8" d="M322.96,323.72c-.54,0-1.09-.05-1.64-.15-3.39-.6-5.66-2.76-5.28-5.02.31-1.87,2.27-3.08,5-3.08.54,0,1.09.05,1.65.15,3.39.6,5.66,2.76,5.28,5.02-.31,1.87-2.27,3.08-5,3.08h0Z"/>
        <path class="cls-9" d="M321.03,316.97c.44,0,.91.04,1.38.12,2.47.44,4.29,1.92,4.06,3.3-.19,1.12-1.65,1.83-3.52,1.83-.44,0-.91-.04-1.38-.12-2.47-.44-4.29-1.92-4.06-3.3.19-1.12,1.65-1.83,3.52-1.83M321.03,313.97c-3.44,0-6.04,1.74-6.47,4.33-.52,3.1,2.27,6,6.49,6.75.64.11,1.28.17,1.91.17,3.44,0,6.04-1.74,6.47-4.33.52-3.1-2.27-6-6.49-6.75-.64-.11-1.28-.17-1.91-.17h0Z"/>
      </g>
    </g>
    <g>
      <path class="cls-10" d="M313.35,345.73c-.66-1.92,1.11-4.16,4.22-5.33,1.07-.4,2.15-.62,3.13-.62,1.78,0,3.05.71,3.48,1.95l20.24,58.82-10.79,4.08-20.27-58.91Z"/>
      <path class="cls-9" d="M320.69,341.29c1.06,0,1.85.32,2.06.94l19.77,57.44-7.98,3.02-19.77-57.44c-.37-1.07,1.12-2.61,3.33-3.44.93-.35,1.83-.52,2.6-.52M320.69,338.29c-1.16,0-2.42.25-3.66.71-3.95,1.49-6.05,4.46-5.1,7.22l19.77,57.44,1.01,2.92,2.89-1.09,7.98-3.02,2.72-1.03-.95-2.75-19.77-57.44c-.64-1.86-2.47-2.96-4.9-2.96h0Z"/>
    </g>
    <g>
      <path class="cls-10" d="M308.08,378.89c-.68-1.84,1.04-4,4.17-5.25,1.17-.47,2.34-.72,3.38-.72,2.3,0,3,1.23,3.19,1.76l19.67,53.63-10.71,4.3-19.7-53.71Z"/>
      <path class="cls-9" d="M315.63,374.42c.92,0,1.59.26,1.78.78l19.17,52.26-7.92,3.18-19.17-52.26c-.36-.97,1.13-2.47,3.32-3.34,1.02-.41,2.02-.61,2.82-.61M315.63,371.42h0c-1.23,0-2.59.29-3.94.83-3.92,1.57-5.99,4.52-5.02,7.16l19.17,52.26,1.06,2.9,2.87-1.15,7.92-3.18,2.7-1.08-1-2.73-19.17-52.26c-.63-1.72-2.35-2.75-4.6-2.75h0Z"/>
    </g>
    <g>
      <g>
        <path class="cls-10" d="M331.25,462.19c-.54,0-1.09-.05-1.65-.15-3.39-.6-5.66-2.76-5.28-5.02l12.73-75.91,11.91,2.12-12.73,75.88c-.31,1.87-2.27,3.08-5,3.08Z"/>
        <path class="cls-9" d="M338.29,382.85l8.96,1.6-12.48,74.42c-.19,1.12-1.65,1.83-3.52,1.83-.44,0-.91-.04-1.38-.12-2.47-.44-4.29-1.92-4.06-3.3l12.48-74.42M335.83,379.37l-.5,2.99-12.48,74.42c-.52,3.1,2.27,6,6.49,6.75.64.11,1.28.17,1.91.17,3.44,0,6.04-1.74,6.47-4.33l12.48-74.42.49-2.93-2.92-.52-8.96-1.6-2.98-.53h0Z"/>
      </g>
      <g>
        <path class="cls-8" d="M343.78,387.48c-.54,0-1.09-.05-1.65-.15-3.39-.6-5.66-2.76-5.28-5.02.31-1.87,2.27-3.08,5-3.08.54,0,1.09.05,1.64.15,3.39.6,5.66,2.76,5.28,5.02-.32,1.87-2.28,3.08-5,3.08h0Z"/>
        <path class="cls-9" d="M341.85,380.72c.44,0,.91.04,1.38.12,2.47.44,4.29,1.92,4.06,3.3-.19,1.12-1.65,1.83-3.52,1.83-.44,0-.91-.04-1.38-.12-2.47-.44-4.29-1.92-4.06-3.3.19-1.12,1.65-1.83,3.52-1.83M341.85,377.72c-3.44,0-6.04,1.74-6.47,4.33-.52,3.1,2.27,6,6.49,6.75.64.11,1.28.17,1.91.17,3.44,0,6.04-1.74,6.47-4.33.52-3.1-2.27-6-6.49-6.75-.64-.11-1.28-.17-1.91-.17h0Z"/>
      </g>
    </g>
    <g>
      <path class="cls-10" d="M16.93,426.54c-1.15-.1-2.2-.69-2.97-1.65-1-1.24-1.44-2.98-1.21-4.78.39-3.11,2.63-5.45,5.2-5.45.12,0,.25,0,.38.02l102.53,9.32-1.49,11.85-102.43-9.31Z"/>
      <path class="cls-9" d="M17.94,416.17c.08,0,.16,0,.24.01l100.98,9.18-1.11,8.87-100.98-9.18c-1.87-.17-3.14-2.29-2.84-4.74.29-2.34,1.93-4.14,3.71-4.14M17.94,413.17c-3.33,0-6.2,2.91-6.69,6.76-.28,2.2.28,4.35,1.53,5.9,1.03,1.28,2.45,2.06,4.01,2.2l100.98,9.18,2.89.26.36-2.88,1.11-8.87.39-3.08-3.09-.28-100.98-9.18c-.17-.02-.34-.02-.51-.02h0Z"/>
    </g>
    <g>
      <path class="cls-10" d="M24.65,453.42c-1.1-.06-2.14-.59-2.91-1.49-1.04-1.21-1.53-2.95-1.36-4.78.29-3.15,2.5-5.62,5.04-5.62.08,0,.15,0,.23,0l99.09,5.77-1.1,11.89-98.99-5.77Z"/>
      <path class="cls-9" d="M25.42,443.02s.1,0,.14,0l97.54,5.68-.82,8.9-97.54-5.68c-1.81-.11-3.09-2.18-2.87-4.64.22-2.39,1.79-4.26,3.54-4.26M25.42,440.02c-3.36,0-6.16,3-6.53,6.99-.21,2.24.42,4.39,1.72,5.9,1.04,1.21,2.45,1.92,3.96,2.01l97.54,5.68,2.9.17.27-2.89.82-8.9.28-3.09-3.1-.18-97.54-5.68c-.11,0-.21,0-.32,0h0Z"/>
    </g>
    <g>
      <path class="cls-10" d="M240.13,425.94l95.69-18.46c.23-.04.47-.07.71-.07,2.38,0,4.47,2.25,4.97,5.36.54,3.42-1.05,6.49-3.62,6.98l-95.79,18.48-1.96-12.3Z"/>
      <path class="cls-9" d="M336.53,408.92c1.6,0,3.11,1.73,3.49,4.09.41,2.58-.68,4.94-2.42,5.28l-94.26,18.18-1.49-9.33,94.26-18.18c.14-.03.28-.04.42-.04M336.53,405.92c-.33,0-.66.03-.99.09l-94.26,18.18-2.85.55.46,2.87,1.49,9.33.49,3.06,3.04-.59,94.26-18.18c3.37-.65,5.49-4.47,4.82-8.69-.61-3.84-3.32-6.62-6.45-6.62h0Z"/>
    </g>
    <g>
      <path class="cls-10" d="M241.1,454.27l91.02-17.5c.23-.04.47-.07.71-.07,2.29,0,4.28,2.06,4.72,4.9.5,3.14-1.06,5.98-3.55,6.46l-91.12,17.52-1.78-11.31Z"/>
      <path class="cls-9" d="M332.83,438.2c1.51,0,2.91,1.53,3.24,3.63.36,2.3-.69,4.43-2.35,4.75l-89.59,17.23-1.31-8.34,89.59-17.23c.14-.03.28-.04.42-.04M332.83,435.2c-.33,0-.66.03-.99.09l-89.59,17.23-2.85.55.45,2.87,1.31,8.34.48,3.06,3.05-.59,89.59-17.23c3.29-.63,5.37-4.22,4.75-8.16-.56-3.57-3.17-6.16-6.21-6.16h0Z"/>
    </g>
    <g>
      <g>
        <path class="cls-10" d="M237.6,483.6c-3.45,0-5.96-1.51-6.1-3.66l-4.99-76.51,12.98-.71,4.98,76.48c.05.8-.24,1.58-.83,2.26-1.07,1.21-3.09,2.01-5.41,2.13-.21.01-.42.02-.63.02Z"/>
        <path class="cls-9" d="M238.09,404.29l4.89,75c.09,1.39-2.07,2.64-4.83,2.79-.18.01-.37.02-.55.02-2.51,0-4.52-.96-4.61-2.26l-4.89-75,9.99-.55M240.89,401.13l-2.97.16-9.99.55-3.03.17.2,3.02,4.89,75c.19,2.98,3.32,5.07,7.6,5.07.23,0,.47,0,.71-.02,2.75-.15,5.1-1.11,6.45-2.64.86-.97,1.29-2.16,1.21-3.35l-4.89-75-.19-2.96h0Z"/>
      </g>
      <g>
        <path class="cls-8" d="M232.7,408.3c-3.46,0-5.97-1.51-6.11-3.66-.05-.8.24-1.58.83-2.26,1.07-1.21,3.09-2.01,5.41-2.13.21-.01.42-.02.63-.02,3.46,0,5.97,1.51,6.11,3.66.05.8-.24,1.58-.83,2.26-1.07,1.21-3.09,2.01-5.41,2.13-.21.01-.42.02-.63.02Z"/>
        <path class="cls-9" d="M233.46,401.73c2.51,0,4.52.96,4.61,2.26.09,1.39-2.07,2.64-4.83,2.79-.19.01-.37.02-.55.02-2.51,0-4.52-.96-4.61-2.26-.09-1.39,2.07-2.64,4.83-2.79.19-.01.37-.02.55-.02M233.46,398.73c-.23,0-.47,0-.71.02-2.75.15-5.1,1.11-6.45,2.64-.86.97-1.29,2.16-1.21,3.35.19,2.98,3.32,5.06,7.6,5.06.23,0,.47,0,.71-.02,2.75-.15,5.1-1.11,6.45-2.64.86-.97,1.29-2.16,1.21-3.35-.19-2.98-3.32-5.06-7.6-5.06h0Z"/>
      </g>
    </g>
    <g>
      <g>
        <path class="cls-10" d="M127.83,483.12c-3.49-.01-7.26-1.25-7.28-3.93l-.46-73.59,14.54.06.46,73.56c0,.51-.15,1.27-.87,2-1.19,1.2-3.55,1.91-6.32,1.91h-.07Z"/>
        <path class="cls-9" d="M121.6,407.1l11.54.05.45,72.08c0,1.33-2.54,2.4-5.7,2.4-.02,0-.04,0-.06,0-3.19-.01-5.78-1.11-5.78-2.45l-.45-72.08M118.58,404.09l.02,3.03.45,72.08c.02,3.22,3.55,5.41,8.77,5.43h.07c1.52,0,5.28-.23,7.39-2.35.85-.86,1.32-1.95,1.31-3.06l-.45-72.08-.02-2.97h-2.97s-11.54-.06-11.54-.06h-3.03Z"/>
      </g>
      <g>
        <path class="cls-8" d="M127.37,410.76c-3.49-.01-7.26-1.25-7.28-3.94,0-.51.15-1.27.87-2,1.19-1.2,3.55-1.91,6.32-1.91,3.56.01,7.33,1.25,7.34,3.93,0,.51-.15,1.27-.87,2-1.19,1.2-3.55,1.91-6.32,1.91h-.06Z"/>
        <path class="cls-9" d="M127.29,404.41s.04,0,.06,0c3.19.01,5.78,1.11,5.78,2.45,0,1.33-2.54,2.4-5.7,2.4-.02,0-.04,0-.06,0-3.19-.01-5.78-1.11-5.78-2.45,0-1.33,2.54-2.4,5.7-2.4M127.29,401.41c-1.52,0-5.28.23-7.39,2.35-.85.86-1.32,1.95-1.31,3.07.02,3.22,3.54,5.41,8.77,5.43h.07c1.52,0,5.28-.23,7.39-2.35.85-.86,1.32-1.95,1.31-3.07-.02-3.22-3.55-5.41-8.77-5.43h-.07Z"/>
      </g>
    </g>
  </g>
</svg>