<?xml version="1.0" encoding="UTF-8"?>
<svg id="_Слой_1" data-name="Слой 1" xmlns="http://www.w3.org/2000/svg" viewBox="0 0 97.26 67.39">
  <defs>
    <style>
      .cls-1 {
        fill: #c69c6d;
        stroke: #42210b;
        stroke-miterlimit: 10;
      }

      .cls-2 {
        fill: #42210b;
      }

      .cls-3 {
        fill: #754c24;
      }
    </style>
  </defs>
  <g>
    <g>
      <path class="cls-3" d="M86.36,39.78c1.73,1.19,3.36,2.45,4.31,4.27,1.42,2.75.95,6.49,3.68,8.28.92.6,2.19.98,2.51,1.96.32.99-.65,2.02-1.77,2.28s-2.29-.02-3.39-.3c-2.49-.63-4.98-1.26-7.47-1.88-3.42-.86-6.96-1.78-9.68-3.83-2.87-2.15-4.57-5.65-8.49-6.03-4.71-.47-9.78,0-14.53,0-5.37,0-10.74,0-16.11,0-2.89,0-5.08-.2-7.84.7-3.66,1.19-7.31,2.45-11.13,3.17-5.02.94-10.5.88-14.97-1.36,1.67-.93,3.34-1.87,5.01-2.8,2.08-1.16,4.2-2.35,5.82-4,.71-.72,1.31-1.53,2-2.26,1.1-1.17,2.43-2.15,3.74-3.12,2.91-2.15,7.12-4.06,7.74-7.49s1.3-6.77,1.95-10.16c.74-3.87,1.48-7.74,2.22-11.61,0,0,44.88,0,44.88,0,1.19,6.2,2.37,12.4,3.56,18.6.73,3.82.53,9.26,3.48,12.24,1.28,1.29,2.92,2.3,4.47,3.37Z"/>
      <path class="cls-2" d="M86.41,39.7c2.07,1.37,4.14,3.08,4.89,5.55.82,2.24.83,5.07,2.84,6.62.98.81,2.51.95,3.04,2.36.25.79-.18,1.58-.7,2.04-1.6,1.44-4,.68-5.75.29-6.01-1.62-12.92-1.91-17.85-6.2-1.92-1.75-3.45-3.73-5.45-4.47-2.25-.72-4.69-.48-7.03-.54-9.9.45-20.05.11-29.79.24-1.18.11-2.24.37-3.43.77-8.23,2.72-17.78,5.47-26.02,1.29,0,0-1.16-.61-1.16-.61.57-.3,6.33-3.41,7.07-3.8,1.96-1.06,3.86-2.2,5.32-3.81,2.79-3.66,7.09-5.76,10.55-8.43,1.27-1.04,2.33-2.31,2.59-3.95,0,0,.33-1.65.33-1.65,0,0,1.22-6.63,1.22-6.63.83-4.42,1.63-8.85,2.37-13.28,0,0,.07-.41.07-.41h.43c14.79-.29,30.14-.55,44.88-.25,0,0,.64.01.64.01l.1.6,3.1,18.49c1.05,7.79.2,11.39,7.73,15.77h0ZM86.3,39.87c-7.65-4.39-6.84-8.12-8.25-15.82,0,0-3.95-18.33-3.95-18.33,0,0,.74.61.74.61-3.74.06-7.48.12-11.22.13-10.81.04-22.79-.15-33.66-.37,0,0,.5-.42.5-.42-1.38,6.34-2.73,13.43-4.01,19.83,0,0-.31,1.66-.31,1.66-.24,1.76-1.44,3.28-2.76,4.36-2.67,2.15-5.63,3.69-8.07,6.05-.8.74-1.46,1.61-2.21,2.49-1.53,1.79-3.52,3.04-5.46,4.18l-5.84,3.39-.03-1.22c4.34,2.05,9.42,2.08,14.16,1.18,2.39-.46,4.75-1.13,7.11-1.88,2.25-.68,5.01-1.86,7.37-2.07,7.21-.3,15.25-.1,22.5-.16,5.01.08,10.34-.82,15.26.55,2.56.99,4.11,3.27,5.95,5.01,3.52,3.33,8.71,4.15,13.27,5.53,0,0,3.6,1,3.6,1,1.7.42,3.52,1.23,5,.12.41-.33.67-.82.55-1.27-.38-1.09-1.87-1.37-2.71-2.16-1.03-.85-1.58-2.1-1.9-3.3-.34-1.22-.52-2.45-.89-3.62-.7-2.43-2.72-4.1-4.74-5.48h0Z"/>
    </g>
    <g>
      <path class="cls-3" d="M59.4,24.49c6.81,9.56-1.51,13.14.18,19.85.54,2.15-7.4,8.14-9.65,9.05-1.32.54-2.82.87-3.83,1.81-.68.63-.38,4.14-1.3,4.42l-8.05,5.57c-3.49,2.95-12.14.84-12.73-3.3-.08-.52-.17-3.05,0-3.55l9.56-11.54c4.79-4.67,4.79-9.94,7.13-24.07"/>
      <path class="cls-2" d="M59.48,24.43c2.18,2.92,3.63,6.71,2.42,10.34-.78,2.82-2.42,5.38-2.14,8.35,0,0,.12.63.12.63.5,1.53-.76,2.89-1.65,3.91-2.23,2.34-4.76,4.38-7.56,6.01-1.38.72-3.01.95-4.13,1.96-.45,1.11-.25,2.54-.71,3.73-.13.26-.23.66-.84.9l.18-.09-7.99,5.66c-1.08.94-3.21,1.56-4.76,1.56-3.46-.02-7.33-.97-9.09-4.38-.41-1.14-.39-2.34-.41-3.52.04-.59-.04-.77.15-1.47,0,0,.04-.14.04-.14l.13-.16c1.58-1.93,3.15-3.88,4.76-5.79,1.63-1.94,3.24-3.89,4.91-5.8,4.69-4.35,5.03-11.23,6.37-17.15.43-2.09.84-4.18,1.32-6.26,0,0,.2.03.2.03-.4,3.81-.93,8.98-1.48,12.71-.47,4.18-2.08,9.24-5.02,11.94-2.81,3.44-7.18,9.03-9.35,11.27.02-.09-.03.16-.03.3-.01.94-.11,2.22.12,3.11,1.31,3.53,8.33,4.75,11.19,2.51.05,0,8.11-5.52,8.17-5.53,0,0,.18-.09.18-.09-.16.08-.04.03,0-.11.53-1.35.1-2.92,1.1-4.14,1.28-1.15,3.01-1.37,4.44-2.06,3.24-1.95,6.97-4.39,8.94-7.66.2-.39.06-.71.01-1.12-.09-.4-.13-1.01-.11-1.42.14-4.56,4.04-8.42,2.64-13.1-.44-1.74-1.34-3.32-2.32-4.83,0,0,.16-.12.16-.12h0Z"/>
    </g>
  </g>
  <ellipse class="cls-1" cx="52.4" cy="5.58" rx="22.44" ry="5.08"/>
  <path class="cls-2" d="M58.3,2.75c-2.18-.62-4.23.34-6.42.34-1.82.09-12.21-.39-11.84,2.04.09.49.49.86.95,1.12,1.39.94,2.96,1.07,4.58,1.01,3.2.46,6.41.37,9.6.05.52-.08,1.91-.26,2.42-.32,1.87.04,3.71-.05,5.4-.85.47-.2.91-.48.84-.81-.06-.36-.6-.64-1.05-.9-1.38-.83-2.9-1.39-4.49-1.68h0ZM58.32,2.68c1.88.29,3.7.93,5.38,1.82.24.15.52.35.63.72.19.73-.52,1.23-1.05,1.49-1.45.8-3.22,1.1-4.82,1.05,0,0-.8.01-.8.01-1.85.29-3.78.49-5.64.46-2.14.07-4.38-.11-6.46-.56-1.62-.04-3.3-.26-4.67-1.22-.46-.28-.96-.66-1.08-1.27-.27-1.36,1.47-1.62,2.4-1.95,3.14-.92,6.49-.88,9.7-.61,2.13.18,4.31-.54,6.42.06h0Z"/>
  <path class="cls-2" d="M50.37,4.7c2.04-.57,4.15-1.2,6.29-.73.62.07,1.45.57,1.17,1.34-.16.36-.5.52-.8.62-1.79.52-3.67.33-5.5.34,0,0-3.64-.12-3.64-.12-1.25-.16-2.45.17-3.67-.26-.32-.12-.64-.68-.24-.9.33-.15.64-.11.94-.12,1.82,0,3.65.2,5.45-.17h0ZM50.37,4.7c-2.04.53-4.26.04-6.29.47-.19.08.02.42.25.5,1.1.32,2.42-.05,3.57.06,0,0,3.64.05,3.64.05.93-.05,7.21.63,5.84-1.25-2.13-1.2-4.79-.37-7.01.18h0Z"/>
  <path class="cls-2" d="M37.78,8.19c-.74.2-1.34.8-2.14.79-.09.02-.06.02-.05-.01,0-.02,0,.1.02.2.12.7.32,1.73-.42,2.16.26-.35.25-.78.18-1.16-.09-.46-.32-.86-.24-1.36.08-.26.36-.33.47-.33.76.02,1.41-.47,2.18-.3h0Z"/>
</svg>