<?xml version="1.0" encoding="UTF-8"?>
<svg id="_Слой_1" data-name="Слой 1" xmlns="http://www.w3.org/2000/svg" viewBox="0 0 52.07 62">
  <defs>
    <style>
      .cls-1 {
        fill: #939357;
      }

      .cls-2 {
        fill: #68631d;
      }

      .cls-3 {
        fill: #f6e281;
      }

      .cls-4 {
        fill: #d9d39f;
      }
    </style>
  </defs>
  <g>
    <g>
      <path class="cls-3" d="M1.83,7.83v46.45c0,3.74,10.8,6.78,24.12,6.78s24.12-3.03,24.12-6.78V7.83H1.83Z"/>
      <path class="cls-2" d="M2.88,7.84c.18,15.05.23,30.36.1,45.43.05.62-.15,1.07.18,1.59,1.13,1.55,3.29,2.26,5.15,2.92,8.54,2.53,17.77,2.74,26.61,1.93,3.34-.41,15.33-1.83,14.43-6.45.04-5.87.3-38.83.35-45.42,0,0,.37.37.37.37l-47.19-.37h0ZM.76,7.84h1.06s48.24-.38,48.24-.38h.37c.06,7.09.3,39.41.35,45.79.53,3.8-3.8,5.34-6.64,6.31-8.87,2.62-18.23,2.84-27.38,2-3.05-.33-6.1-.83-9.11-1.73-2.32-.79-4.89-1.58-6.43-3.79-.54-.73-.58-1.93-.55-2.81-.11-15.02-.09-30.39.08-45.39h0Z"/>
    </g>
    <g>
      <ellipse class="cls-3" cx="25.95" cy="7.83" rx="24.12" ry="6.78"/>
      <path class="cls-2" d="M50.16,7.83c-.39,3.75-8.03,5.26-11.11,6.03-8.67,1.84-17.59,2.34-26.43,1.21-16.77-2.24-16.82-12.22,0-14.47C21.46-.53,30.39-.03,39.05,1.8c3.1.78,10.72,2.28,11.11,6.03h0ZM49.96,7.83c-.53-3.65-7.93-4.92-10.99-5.58-8.59-1.44-17.46-1.42-26.04.05-14.41,2.63-14.49,8.41,0,11.05,8.58,1.47,17.46,1.49,26.04.05,3.08-.65,10.46-1.93,10.99-5.58h0Z"/>
    </g>
    <path class="cls-4" d="M19.35,4.18c2.46-.82,5.07-1.07,7.65-1.12,4.52,0,9.14.46,13.32,2.3,1.38.58,2.02,1.96,1.94,3.43-.18,2.27-3.13,2.67-4.83,3.14-5.08,1.09-10.35,1.13-15.47.24-2.56-.51-5.03-1.29-7.43-2.15-2.34-.94-5.16-1.64-6.77-3.73,0,0,.16-.12.16-.12.92.81,2.18,1.12,3.37,1.46,3.64.88,7.4,1.81,11.05,2.44,2.7.54,19.28,2.4,19.32-1.31.12-2.22-1.43-2.79-3.45-3.06-6.27-.6-12.47-1.48-18.82-1.33,0,0-.04-.2-.04-.2h0Z"/>
  </g>
  <path class="cls-1" d="M.53,15.98c.89,1.21,2.35,1.62,3.74,1.96,4.26,1.06,8.57,1.68,12.94,2.08-3.79.48-14.83-.33-16.68-4.04h0Z"/>
  <path class="cls-1" d="M33.32,56.93c3.02-.86,5.9-2.51,8.93-3.48,2.31-.66,2.91-1.47,2.59-3.99,1.4,3.77-1.33,4.23-4.13,5.37-2.42.81-4.8,2.04-7.4,2.11h0Z"/>
  <path class="cls-1" d="M4.14,42.73c1.82,1.04,3.69,1.78,5.69,2.31,3.46.41,6.99-.66,10.42.33,0,0,0,.07,0,.07-3.5.35-6.97.46-10.45-.16-2.02-.09-4.62-.76-5.66-2.55h0Z"/>
  <path class="cls-1" d="M24.35,35.31c4.91-.4,9.57-.66,14.36-1.58,4.72-1.06,9.23-3.05,13.23-5.8l.12.16c-5.59,4.86-12.88,8.14-20.33,8.61-2.52.03-5.05-.29-7.41-1.18l.03-.2h0Z"/>
  <path class="cls-4" d="M30.13,25.57c3.14-.37,6.13-1.25,9.1-2.25.89-.3,2.11-.32,2.35-1.37,0,0,.1-.02.1-.02.41,1.26-1.2,1.96-2.13,2.34-3,1.03-6.26,1.38-9.41,1.41,0,0,0-.1,0-.1h0Z"/>
  <path class="cls-4" d="M32.41,47.72c3.14-.37,6.13-1.25,9.1-2.25.89-.3,2.11-.32,2.35-1.37,0,0,.1-.02.1-.02.41,1.26-1.2,1.96-2.13,2.34-3,1.03-6.26,1.38-9.41,1.41,0,0,0-.1,0-.1h0Z"/>
  <path class="cls-4" d="M0,49.77c4.83,3.05,10.82,2.33,16.14,3.96-2.59.61-5.74-.06-8.41-.67-2.61-.64-5.94-1.38-7.73-3.29h0Z"/>
</svg>