<?xml version="1.0" encoding="UTF-8"?>
<svg xmlns="http://www.w3.org/2000/svg" xmlns:xlink="http://www.w3.org/1999/xlink" viewBox="0 0 1920 1080">
  <defs>
    <style>
      .cls-1 {
        fill: url(#_Безымянный_градиент_18-40);
      }

      .cls-2 {
        fill: url(#_Безымянный_градиент_18-10);
      }

      .cls-2, .cls-3, .cls-4, .cls-5, .cls-6, .cls-7, .cls-8, .cls-9, .cls-10, .cls-11, .cls-12, .cls-13, .cls-14, .cls-15 {
        isolation: isolate;
        opacity: .8;
      }

      .cls-16 {
        fill: url(#_Безымянный_градиент_18-41);
      }

      .cls-16, .cls-17, .cls-18, .cls-19, .cls-20, .cls-21, .cls-22, .cls-23, .cls-24, .cls-25, .cls-26, .cls-27, .cls-28, .cls-29, .cls-30, .cls-31, .cls-32, .cls-33, .cls-34, .cls-35, .cls-36, .cls-37, .cls-38, .cls-39, .cls-40, .cls-41, .cls-42, .cls-43 {
        fill-opacity: 0;
      }

      .cls-17 {
        fill: url(#_Безымянный_градиент_18-25);
      }

      .cls-44 {
        fill: url(#_Безымянный_градиент_10-12);
      }

      .cls-3 {
        fill: url(#_Безымянный_градиент_10-10);
      }

      .cls-4 {
        fill: url(#_Безымянный_градиент_18-18);
      }

      .cls-45 {
        fill: url(#_Безымянный_градиент_10-4);
      }

      .cls-18 {
        fill: url(#_Безымянный_градиент_18-29);
      }

      .cls-19 {
        fill: url(#_Безымянный_градиент_10);
      }

      .cls-20 {
        fill: url(#_Безымянный_градиент_18-11);
      }

      .cls-21 {
        fill: url(#_Безымянный_градиент_18-27);
      }

      .cls-22 {
        fill: url(#_Безымянный_градиент_18-3);
      }

      .cls-5 {
        fill: url(#_Безымянный_градиент_18-34);
      }

      .cls-23 {
        fill: url(#_Безымянный_градиент_18-15);
      }

      .cls-6 {
        fill: url(#_Безымянный_градиент_18-14);
      }

      .cls-7 {
        fill: url(#_Безымянный_градиент_10-2);
      }

      .cls-46 {
        fill: #fff;
      }

      .cls-24 {
        fill: url(#_Безымянный_градиент_18-37);
      }

      .cls-47 {
        fill: url(#_Безымянный_градиент_18-16);
      }

      .cls-25 {
        fill: url(#_Безымянный_градиент_18);
      }

      .cls-26 {
        fill: url(#_Безымянный_градиент_18-23);
      }

      .cls-27 {
        fill: url(#_Безымянный_градиент_10-3);
      }

      .cls-28 {
        fill: url(#_Безымянный_градиент_18-5);
      }

      .cls-8 {
        fill: url(#_Безымянный_градиент_18-2);
      }

      .cls-29 {
        fill: url(#_Безымянный_градиент_18-35);
      }

      .cls-48 {
        fill: url(#_Безымянный_градиент_18-24);
      }

      .cls-9 {
        fill: url(#_Безымянный_градиент_18-30);
      }

      .cls-30 {
        fill: url(#_Безымянный_градиент_10-7);
      }

      .cls-31 {
        fill: url(#_Безымянный_градиент_18-7);
      }

      .cls-10 {
        fill: url(#_Безымянный_градиент_18-38);
      }

      .cls-49 {
        fill: url(#_Безымянный_градиент_18-32);
      }

      .cls-50 {
        fill: url(#_Безымянный_градиент_18-28);
      }

      .cls-32 {
        fill: url(#_Безымянный_градиент_18-33);
      }

      .cls-33 {
        fill: url(#_Безымянный_градиент_18-39);
      }

      .cls-51 {
        fill: url(#_Безымянный_градиент_89);
      }

      .cls-52 {
        fill: url(#_Безымянный_градиент_10-8);
      }

      .cls-53 {
        fill: url(#_Безымянный_градиент_18-12);
      }

      .cls-11 {
        fill: url(#_Безымянный_градиент_18-26);
      }

      .cls-54 {
        fill: url(#_Безымянный_градиент_11);
      }

      .cls-12 {
        fill: url(#_Безымянный_градиент_18-6);
      }

      .cls-13 {
        fill: url(#_Безымянный_градиент_18-22);
      }

      .cls-55 {
        fill: url(#_Безымянный_градиент_18-44);
      }

      .cls-34 {
        fill: url(#_Безымянный_градиент_10-11);
      }

      .cls-56 {
        fill: url(#_Безымянный_градиент_18-36);
      }

      .cls-35 {
        fill: url(#_Безымянный_градиент_18-13);
      }

      .cls-57 {
        fill: url(#_Безымянный_градиент_18-20);
      }

      .cls-36 {
        fill: url(#_Безымянный_градиент_10-5);
      }

      .cls-37 {
        fill: url(#_Безымянный_градиент_18-21);
      }

      .cls-38 {
        fill: url(#_Безымянный_градиент_10-9);
      }

      .cls-14 {
        fill: url(#_Безымянный_градиент_18-42);
      }

      .cls-39 {
        fill: url(#_Безымянный_градиент_18-31);
      }

      .cls-40 {
        fill: url(#_Безымянный_градиент_18-9);
      }

      .cls-15 {
        fill: url(#_Безымянный_градиент_10-6);
      }

      .cls-41 {
        fill: url(#_Безымянный_градиент_18-17);
      }

      .cls-58 {
        fill: url(#_Безымянный_градиент_18-8);
      }

      .cls-42 {
        fill: url(#_Безымянный_градиент_18-19);
      }

      .cls-43 {
        fill: url(#_Безымянный_градиент_18-43);
      }

      .cls-59 {
        fill: url(#_Безымянный_градиент_18-4);
      }
    </style>
    <linearGradient id="_Безымянный_градиент_89" data-name="Безымянный градиент 89" x1="960" y1="1079.5" x2="960" y2=".5" gradientUnits="userSpaceOnUse">
      <stop offset="0" stop-color="#2e69aa"/>
      <stop offset=".43" stop-color="#2b1a7f"/>
      <stop offset=".82" stop-color="#04002a"/>
    </linearGradient>
    <radialGradient id="_Безымянный_градиент_10" data-name="Безымянный градиент 10" cx="671.64" cy="354.58" fx="671.64" fy="354.58" r="15.47" gradientUnits="userSpaceOnUse">
      <stop offset="0" stop-color="#e52623"/>
      <stop offset="0" stop-color="#e6302d"/>
      <stop offset=".3" stop-color="#e94b48"/>
      <stop offset=".6" stop-color="#ef7974" stop-opacity=".9"/>
      <stop offset=".9" stop-color="#f6b7b1" stop-opacity=".9"/>
      <stop offset="1" stop-color="#f9cac4" stop-opacity=".9"/>
    </radialGradient>
    <radialGradient id="_Безымянный_градиент_10-2" data-name="Безымянный градиент 10" cx="671.63" cy="354.58" fx="671.63" fy="354.58" r="6.87" xlink:href="#_Безымянный_градиент_10"/>
    <radialGradient id="_Безымянный_градиент_10-3" data-name="Безымянный градиент 10" cx="671.63" fx="671.63" r="7.77" xlink:href="#_Безымянный_градиент_10"/>
    <radialGradient id="_Безымянный_градиент_10-4" data-name="Безымянный градиент 10" cx="671.63" fx="671.63" r="13.35" xlink:href="#_Безымянный_градиент_10"/>
    <radialGradient id="_Безымянный_градиент_10-5" data-name="Безымянный градиент 10" cx="301.81" cy="208.37" fx="301.81" fy="208.37" xlink:href="#_Безымянный_градиент_10"/>
    <radialGradient id="_Безымянный_градиент_10-6" data-name="Безымянный градиент 10" cx="301.8" cy="208.37" fx="301.8" fy="208.37" r="6.87" xlink:href="#_Безымянный_градиент_10"/>
    <radialGradient id="_Безымянный_градиент_10-7" data-name="Безымянный градиент 10" cx="301.8" cy="208.37" fx="301.8" fy="208.37" r="7.77" xlink:href="#_Безымянный_градиент_10"/>
    <radialGradient id="_Безымянный_градиент_10-8" data-name="Безымянный градиент 10" cx="301.8" cy="208.37" fx="301.8" fy="208.37" r="13.35" xlink:href="#_Безымянный_градиент_10"/>
    <radialGradient id="_Безымянный_градиент_10-9" data-name="Безымянный градиент 10" cx="1443.51" cy="215.25" fx="1443.51" fy="215.25" r="15.47" xlink:href="#_Безымянный_градиент_10"/>
    <radialGradient id="_Безымянный_градиент_10-10" data-name="Безымянный градиент 10" cx="1443.5" cy="215.25" fx="1443.5" fy="215.25" r="6.87" xlink:href="#_Безымянный_градиент_10"/>
    <radialGradient id="_Безымянный_градиент_10-11" data-name="Безымянный градиент 10" cx="1443.5" cy="215.25" fx="1443.5" fy="215.25" r="7.77" xlink:href="#_Безымянный_градиент_10"/>
    <radialGradient id="_Безымянный_градиент_10-12" data-name="Безымянный градиент 10" cx="1443.5" cy="215.25" fx="1443.5" fy="215.25" r="13.35" xlink:href="#_Безымянный_градиент_10"/>
    <radialGradient id="_Безымянный_градиент_18" data-name="Безымянный градиент 18" cx="778.23" cy="196.42" fx="778.23" fy="196.42" r="11.72" gradientUnits="userSpaceOnUse">
      <stop offset="0" stop-color="#2e69aa"/>
      <stop offset="0" stop-color="#2e6bab"/>
      <stop offset="0" stop-color="#3585c0"/>
      <stop offset="0" stop-color="#3b9bd1"/>
      <stop offset="0" stop-color="#40acde"/>
      <stop offset="0" stop-color="#43b8e7"/>
      <stop offset="0" stop-color="#45bfec"/>
      <stop offset="0" stop-color="#46c1ee"/>
      <stop offset="1" stop-color="#fff" stop-opacity=".9"/>
    </radialGradient>
    <radialGradient id="_Безымянный_градиент_18-2" data-name="Безымянный градиент 18" cx="778.23" cy="196.42" fx="778.23" fy="196.42" r="5.21" xlink:href="#_Безымянный_градиент_18"/>
    <radialGradient id="_Безымянный_градиент_18-3" data-name="Безымянный градиент 18" cx="778.24" fx="778.24" r="5.89" xlink:href="#_Безымянный_градиент_18"/>
    <radialGradient id="_Безымянный_градиент_18-4" data-name="Безымянный градиент 18" cx="778.23" fx="778.23" r="10.13" xlink:href="#_Безымянный_градиент_18"/>
    <radialGradient id="_Безымянный_градиент_18-5" data-name="Безымянный градиент 18" cx="1692.66" cy="101.47" fx="1692.66" fy="101.47" r="11.72" xlink:href="#_Безымянный_градиент_18"/>
    <radialGradient id="_Безымянный_градиент_18-6" data-name="Безымянный градиент 18" cx="1692.66" cy="101.47" fx="1692.66" fy="101.47" r="5.21" xlink:href="#_Безымянный_градиент_18"/>
    <radialGradient id="_Безымянный_градиент_18-7" data-name="Безымянный градиент 18" cx="1692.67" cy="101.47" fx="1692.67" fy="101.47" r="5.89" xlink:href="#_Безымянный_градиент_18"/>
    <radialGradient id="_Безымянный_градиент_18-8" data-name="Безымянный градиент 18" cx="1692.66" cy="101.47" fx="1692.66" fy="101.47" r="10.13" xlink:href="#_Безымянный_градиент_18"/>
    <radialGradient id="_Безымянный_градиент_18-9" data-name="Безымянный градиент 18" cx="1398.08" cy="948.33" fx="1398.08" fy="948.33" r="11.72" xlink:href="#_Безымянный_градиент_18"/>
    <radialGradient id="_Безымянный_градиент_18-10" data-name="Безымянный градиент 18" cx="1398.08" cy="948.33" fx="1398.08" fy="948.33" r="5.21" xlink:href="#_Безымянный_градиент_18"/>
    <radialGradient id="_Безымянный_градиент_18-11" data-name="Безымянный градиент 18" cx="1398.09" cy="948.33" fx="1398.09" fy="948.33" r="5.89" xlink:href="#_Безымянный_градиент_18"/>
    <radialGradient id="_Безымянный_градиент_18-12" data-name="Безымянный градиент 18" cx="1398.08" cy="948.33" fx="1398.08" fy="948.33" r="10.13" xlink:href="#_Безымянный_градиент_18"/>
    <radialGradient id="_Безымянный_градиент_18-13" data-name="Безымянный градиент 18" cx="308.67" cy="632.53" fx="308.67" fy="632.53" xlink:href="#_Безымянный_градиент_18"/>
    <radialGradient id="_Безымянный_градиент_18-14" data-name="Безымянный градиент 18" cx="308.67" cy="632.53" fx="308.67" fy="632.53" r="5.21" xlink:href="#_Безымянный_градиент_18"/>
    <radialGradient id="_Безымянный_градиент_18-15" data-name="Безымянный градиент 18" cx="308.68" cy="632.53" fx="308.68" fy="632.53" r="5.89" xlink:href="#_Безымянный_градиент_18"/>
    <radialGradient id="_Безымянный_градиент_18-16" data-name="Безымянный градиент 18" cx="308.67" cy="632.53" fx="308.67" fy="632.53" r="10.13" xlink:href="#_Безымянный_градиент_18"/>
    <radialGradient id="_Безымянный_градиент_18-17" data-name="Безымянный градиент 18" cx="1121.24" cy="97.63" fx="1121.24" fy="97.63" r="11.72" xlink:href="#_Безымянный_градиент_18"/>
    <radialGradient id="_Безымянный_градиент_18-18" data-name="Безымянный градиент 18" cx="1121.24" cy="97.63" fx="1121.24" fy="97.63" r="5.21" xlink:href="#_Безымянный_градиент_18"/>
    <radialGradient id="_Безымянный_градиент_18-19" data-name="Безымянный градиент 18" cx="1121.25" cy="97.63" fx="1121.25" fy="97.63" r="5.89" xlink:href="#_Безымянный_градиент_18"/>
    <radialGradient id="_Безымянный_градиент_18-20" data-name="Безымянный градиент 18" cx="1121.24" cy="97.63" fx="1121.24" fy="97.63" r="10.13" xlink:href="#_Безымянный_градиент_18"/>
    <radialGradient id="_Безымянный_градиент_18-21" data-name="Безымянный градиент 18" cx="1169.55" cy="234.45" fx="1169.55" fy="234.45" r="11.72" xlink:href="#_Безымянный_градиент_18"/>
    <radialGradient id="_Безымянный_градиент_18-22" data-name="Безымянный градиент 18" cx="1169.55" cy="234.45" fx="1169.55" fy="234.45" r="5.21" xlink:href="#_Безымянный_градиент_18"/>
    <radialGradient id="_Безымянный_градиент_18-23" data-name="Безымянный градиент 18" cx="1169.56" cy="234.45" fx="1169.56" fy="234.45" r="5.89" xlink:href="#_Безымянный_градиент_18"/>
    <radialGradient id="_Безымянный_градиент_18-24" data-name="Безымянный градиент 18" cx="1169.55" cy="234.45" fx="1169.55" fy="234.45" r="10.13" xlink:href="#_Безымянный_градиент_18"/>
    <radialGradient id="_Безымянный_градиент_18-25" data-name="Безымянный градиент 18" cx="1282.23" cy="567.13" fx="1282.23" fy="567.13" r="11.72" xlink:href="#_Безымянный_градиент_18"/>
    <radialGradient id="_Безымянный_градиент_18-26" data-name="Безымянный градиент 18" cx="1282.23" cy="567.13" fx="1282.23" fy="567.13" r="5.21" xlink:href="#_Безымянный_градиент_18"/>
    <radialGradient id="_Безымянный_градиент_18-27" data-name="Безымянный градиент 18" cx="1282.24" cy="567.13" fx="1282.24" fy="567.13" r="5.89" xlink:href="#_Безымянный_градиент_18"/>
    <radialGradient id="_Безымянный_градиент_18-28" data-name="Безымянный градиент 18" cx="1282.23" cy="567.13" fx="1282.23" fy="567.13" r="10.13" xlink:href="#_Безымянный_градиент_18"/>
    <radialGradient id="_Безымянный_градиент_18-29" data-name="Безымянный градиент 18" cx="257.95" cy="921.84" fx="257.95" fy="921.84" xlink:href="#_Безымянный_градиент_18"/>
    <radialGradient id="_Безымянный_градиент_18-30" data-name="Безымянный градиент 18" cx="257.95" cy="921.84" fx="257.95" fy="921.84" r="5.21" xlink:href="#_Безымянный_градиент_18"/>
    <radialGradient id="_Безымянный_градиент_18-31" data-name="Безымянный градиент 18" cx="257.96" cy="921.84" fx="257.96" fy="921.84" r="5.89" xlink:href="#_Безымянный_градиент_18"/>
    <radialGradient id="_Безымянный_градиент_18-32" data-name="Безымянный градиент 18" cx="257.95" cy="921.84" fx="257.95" fy="921.84" r="10.13" xlink:href="#_Безымянный_градиент_18"/>
    <radialGradient id="_Безымянный_градиент_18-33" data-name="Безымянный градиент 18" cx="843.89" cy="608.52" fx="843.89" fy="608.52" xlink:href="#_Безымянный_градиент_18"/>
    <radialGradient id="_Безымянный_градиент_18-34" data-name="Безымянный градиент 18" cx="843.89" cy="608.52" fx="843.89" fy="608.52" r="5.21" xlink:href="#_Безымянный_градиент_18"/>
    <radialGradient id="_Безымянный_градиент_18-35" data-name="Безымянный градиент 18" cx="843.9" cy="608.52" fx="843.9" fy="608.52" r="5.89" xlink:href="#_Безымянный_градиент_18"/>
    <radialGradient id="_Безымянный_градиент_18-36" data-name="Безымянный градиент 18" cx="843.89" cy="608.52" fx="843.89" fy="608.52" r="10.13" xlink:href="#_Безымянный_градиент_18"/>
    <radialGradient id="_Безымянный_градиент_18-37" data-name="Безымянный градиент 18" cx="1616.36" cy="415.65" fx="1616.36" fy="415.65" xlink:href="#_Безымянный_градиент_18"/>
    <radialGradient id="_Безымянный_градиент_18-38" data-name="Безымянный градиент 18" cx="1616.36" cy="415.65" fx="1616.36" fy="415.65" r="5.21" xlink:href="#_Безымянный_градиент_18"/>
    <radialGradient id="_Безымянный_градиент_18-39" data-name="Безымянный градиент 18" cx="1616.37" cy="415.65" fx="1616.37" fy="415.65" r="5.89" xlink:href="#_Безымянный_градиент_18"/>
    <radialGradient id="_Безымянный_градиент_18-40" data-name="Безымянный градиент 18" cx="1616.36" cy="415.65" fx="1616.36" fy="415.65" r="10.13" xlink:href="#_Безымянный_градиент_18"/>
    <radialGradient id="_Безымянный_градиент_18-41" data-name="Безымянный градиент 18" cx="538.89" cy="71.73" fx="538.89" fy="71.73" r="18.86" gradientTransform="translate(199.33 20.27) scale(.62)" xlink:href="#_Безымянный_градиент_18"/>
    <radialGradient id="_Безымянный_градиент_18-42" data-name="Безымянный градиент 18" cx="538.89" cy="71.73" fx="538.89" fy="71.73" r="8.38" gradientTransform="translate(199.33 20.27) scale(.62)" xlink:href="#_Безымянный_градиент_18"/>
    <radialGradient id="_Безымянный_градиент_18-43" data-name="Безымянный градиент 18" cx="538.9" cy="71.73" fx="538.9" fy="71.73" r="9.47" gradientTransform="translate(199.33 20.27) scale(.62)" xlink:href="#_Безымянный_градиент_18"/>
    <radialGradient id="_Безымянный_градиент_18-44" data-name="Безымянный градиент 18" cx="538.89" cy="71.73" fx="538.89" fy="71.73" r="16.29" gradientTransform="translate(199.33 20.27) scale(.62)" xlink:href="#_Безымянный_градиент_18"/>
    <linearGradient id="_Безымянный_градиент_11" data-name="Безымянный градиент 11" x1="960" y1="1079.5" x2="960" y2=".5" gradientUnits="userSpaceOnUse">
      <stop offset="0" stop-color="#2e69aa" stop-opacity=".8"/>
      <stop offset=".43" stop-color="#2b1a7f" stop-opacity=".4"/>
      <stop offset=".82" stop-color="#04002a" stop-opacity="0"/>
    </linearGradient>
  </defs>
  <g id="_Слой_1" data-name="Слой 1">
    <g>
      <rect class="cls-51" x=".5" y=".5" width="1919" height="1079"/>
      <path d="M1919,1v1078H1V1h1918M1920,0H0v1080h1920V0h0Z"/>
    </g>
  </g>
  <g id="_Слой_3" data-name="Слой 3">
    <g>
      <path class="cls-46" d="M914.01,543.34c-1.84,0-3.34-1.5-3.34-3.34s1.5-3.34,3.34-3.34,3.34,1.5,3.34,3.34-1.5,3.34-3.34,3.34Z"/>
      <path d="M914.01,537.16c1.57,0,2.84,1.27,2.84,2.84s-1.27,2.84-2.84,2.84-2.84-1.27-2.84-2.84,1.27-2.84,2.84-2.84M914.01,536.16c-2.12,0-3.84,1.72-3.84,3.84s1.72,3.84,3.84,3.84,3.84-1.72,3.84-3.84-1.72-3.84-3.84-3.84h0Z"/>
    </g>
    <g>
      <path class="cls-46" d="M1014.62,354.08c-1.84,0-3.34-1.5-3.34-3.34s1.5-3.34,3.34-3.34,3.34,1.5,3.34,3.34-1.5,3.34-3.34,3.34Z"/>
      <path d="M1014.62,347.9c1.57,0,2.84,1.27,2.84,2.84s-1.27,2.84-2.84,2.84-2.84-1.27-2.84-2.84,1.27-2.84,2.84-2.84M1014.62,346.9c-2.12,0-3.84,1.72-3.84,3.84s1.72,3.84,3.84,3.84,3.84-1.72,3.84-3.84-1.72-3.84-3.84-3.84h0Z"/>
    </g>
    <g>
      <path class="cls-46" d="M1173.39,344.58c-1.84,0-3.34-1.5-3.34-3.34s1.5-3.34,3.34-3.34,3.34,1.5,3.34,3.34-1.5,3.34-3.34,3.34Z"/>
      <path d="M1173.39,338.4c1.57,0,2.84,1.27,2.84,2.84s-1.27,2.84-2.84,2.84-2.84-1.27-2.84-2.84,1.27-2.84,2.84-2.84M1173.39,337.4c-2.12,0-3.84,1.72-3.84,3.84s1.72,3.84,3.84,3.84,3.84-1.72,3.84-3.84-1.72-3.84-3.84-3.84h0Z"/>
    </g>
    <g>
      <path class="cls-46" d="M1031.58,50.93c-1.84,0-3.34-1.5-3.34-3.34s1.5-3.34,3.34-3.34,3.34,1.5,3.34,3.34-1.5,3.34-3.34,3.34Z"/>
      <path d="M1031.58,44.75c1.57,0,2.84,1.27,2.84,2.84s-1.27,2.84-2.84,2.84-2.84-1.27-2.84-2.84,1.27-2.84,2.84-2.84M1031.58,43.75c-2.12,0-3.84,1.72-3.84,3.84s1.72,3.84,3.84,3.84,3.84-1.72,3.84-3.84-1.72-3.84-3.84-3.84h0Z"/>
    </g>
    <g>
      <path class="cls-46" d="M671.64,547.18c-1.84,0-3.34-1.5-3.34-3.34s1.5-3.34,3.34-3.34,3.34,1.5,3.34,3.34-1.5,3.34-3.34,3.34Z"/>
      <path d="M671.64,541c1.57,0,2.84,1.27,2.84,2.84s-1.27,2.84-2.84,2.84-2.84-1.27-2.84-2.84,1.27-2.84,2.84-2.84M671.64,540c-2.12,0-3.84,1.72-3.84,3.84s1.72,3.84,3.84,3.84,3.84-1.72,3.84-3.84-1.72-3.84-3.84-3.84h0Z"/>
    </g>
    <g>
      <path class="cls-46" d="M879.93,369.44c-1.84,0-3.34-1.5-3.34-3.34s1.5-3.34,3.34-3.34,3.34,1.5,3.34,3.34-1.5,3.34-3.34,3.34Z"/>
      <path d="M879.93,363.26c1.57,0,2.84,1.27,2.84,2.84s-1.27,2.84-2.84,2.84-2.84-1.27-2.84-2.84,1.27-2.84,2.84-2.84M879.93,362.26c-2.12,0-3.84,1.72-3.84,3.84s1.72,3.84,3.84,3.84,3.84-1.72,3.84-3.84-1.72-3.84-3.84-3.84h0Z"/>
    </g>
    <g>
      <path class="cls-46" d="M929.47,260.84c-1.84,0-3.34-1.5-3.34-3.34s1.5-3.34,3.34-3.34,3.34,1.5,3.34,3.34-1.5,3.34-3.34,3.34Z"/>
      <path d="M929.47,254.66c1.57,0,2.84,1.27,2.84,2.84s-1.27,2.84-2.84,2.84-2.84-1.27-2.84-2.84,1.27-2.84,2.84-2.84M929.47,253.66c-2.12,0-3.84,1.72-3.84,3.84s1.72,3.84,3.84,3.84,3.84-1.72,3.84-3.84-1.72-3.84-3.84-3.84h0Z"/>
    </g>
    <g>
      <path class="cls-46" d="M960,146.2c-1.84,0-3.34-1.5-3.34-3.34s1.5-3.34,3.34-3.34,3.34,1.5,3.34,3.34-1.5,3.34-3.34,3.34Z"/>
      <path d="M960,140.01c1.57,0,2.84,1.27,2.84,2.84s-1.27,2.84-2.84,2.84-2.84-1.27-2.84-2.84,1.27-2.84,2.84-2.84M960,139.01c-2.12,0-3.84,1.72-3.84,3.84s1.72,3.84,3.84,3.84,3.84-1.72,3.84-3.84-1.72-3.84-3.84-3.84h0Z"/>
    </g>
    <g>
      <path class="cls-46" d="M795.13,104.81c-1.84,0-3.34-1.5-3.34-3.34s1.5-3.34,3.34-3.34,3.34,1.5,3.34,3.34-1.5,3.34-3.34,3.34Z"/>
      <path d="M795.13,98.63c1.57,0,2.84,1.27,2.84,2.84s-1.27,2.84-2.84,2.84-2.84-1.27-2.84-2.84,1.27-2.84,2.84-2.84M795.13,97.63c-2.12,0-3.84,1.72-3.84,3.84s1.72,3.84,3.84,3.84,3.84-1.72,3.84-3.84-1.72-3.84-3.84-3.84h0Z"/>
    </g>
    <g>
      <path class="cls-46" d="M740.45,357.92c-1.84,0-3.34-1.5-3.34-3.34s1.5-3.34,3.34-3.34,3.34,1.5,3.34,3.34-1.5,3.34-3.34,3.34Z"/>
      <path d="M740.45,351.74c1.57,0,2.84,1.27,2.84,2.84s-1.27,2.84-2.84,2.84-2.84-1.27-2.84-2.84,1.27-2.84,2.84-2.84M740.45,350.74c-2.12,0-3.84,1.72-3.84,3.84s1.72,3.84,3.84,3.84,3.84-1.72,3.84-3.84-1.72-3.84-3.84-3.84h0Z"/>
    </g>
    <g>
      <path class="cls-46" d="M561.58,415.15c-1.84,0-3.34-1.5-3.34-3.34s1.5-3.34,3.34-3.34,3.34,1.5,3.34,3.34-1.5,3.34-3.34,3.34Z"/>
      <path d="M561.58,408.97c1.57,0,2.84,1.27,2.84,2.84s-1.27,2.84-2.84,2.84-2.84-1.27-2.84-2.84,1.27-2.84,2.84-2.84M561.58,407.97c-2.12,0-3.84,1.72-3.84,3.84s1.72,3.84,3.84,3.84,3.84-1.72,3.84-3.84-1.72-3.84-3.84-3.84h0Z"/>
    </g>
    <g>
      <path class="cls-46" d="M744.29,457.3c-1.84,0-3.34-1.5-3.34-3.34s1.5-3.34,3.34-3.34,3.34,1.5,3.34,3.34-1.5,3.34-3.34,3.34Z"/>
      <path d="M744.29,451.12c1.57,0,2.84,1.27,2.84,2.84s-1.27,2.84-2.84,2.84-2.84-1.27-2.84-2.84,1.27-2.84,2.84-2.84M744.29,450.12c-2.12,0-3.84,1.72-3.84,3.84s1.72,3.84,3.84,3.84,3.84-1.72,3.84-3.84-1.72-3.84-3.84-3.84h0Z"/>
    </g>
    <g>
      <path class="cls-46" d="M692.04,226.27c-1.84,0-3.34-1.5-3.34-3.34s1.5-3.34,3.34-3.34,3.34,1.5,3.34,3.34-1.5,3.34-3.34,3.34Z"/>
      <path d="M692.04,220.09c1.57,0,2.84,1.27,2.84,2.84s-1.27,2.84-2.84,2.84-2.84-1.27-2.84-2.84,1.27-2.84,2.84-2.84M692.04,219.09c-2.12,0-3.84,1.72-3.84,3.84s1.72,3.84,3.84,3.84,3.84-1.72,3.84-3.84-1.72-3.84-3.84-3.84h0Z"/>
    </g>
    <g>
      <path class="cls-46" d="M1014.62,525.79c-1.84,0-3.34-1.5-3.34-3.34s1.5-3.34,3.34-3.34,3.34,1.5,3.34,3.34-1.5,3.34-3.34,3.34Z"/>
      <path d="M1014.62,519.61c1.57,0,2.84,1.27,2.84,2.84s-1.27,2.84-2.84,2.84-2.84-1.27-2.84-2.84,1.27-2.84,2.84-2.84M1014.62,518.61c-2.12,0-3.84,1.72-3.84,3.84s1.72,3.84,3.84,3.84,3.84-1.72,3.84-3.84-1.72-3.84-3.84-3.84h0Z"/>
    </g>
    <g>
      <path class="cls-46" d="M795.13,284.34c-1.84,0-3.34-1.5-3.34-3.34s1.5-3.34,3.34-3.34,3.34,1.5,3.34,3.34-1.5,3.34-3.34,3.34Z"/>
      <path d="M795.13,278.16c1.57,0,2.84,1.27,2.84,2.84s-1.27,2.84-2.84,2.84-2.84-1.27-2.84-2.84,1.27-2.84,2.84-2.84M795.13,277.16c-2.12,0-3.84,1.72-3.84,3.84s1.72,3.84,3.84,3.84,3.84-1.72,3.84-3.84-1.72-3.84-3.84-3.84h0Z"/>
    </g>
    <g>
      <path class="cls-46" d="M942.77,451.02c-1.84,0-3.34-1.5-3.34-3.34s1.5-3.34,3.34-3.34,3.34,1.5,3.34,3.34-1.5,3.34-3.34,3.34Z"/>
      <path d="M942.77,444.84c1.57,0,2.84,1.27,2.84,2.84s-1.27,2.84-2.84,2.84-2.84-1.27-2.84-2.84,1.27-2.84,2.84-2.84M942.77,443.84c-2.12,0-3.84,1.72-3.84,3.84s1.72,3.84,3.84,3.84,3.84-1.72,3.84-3.84-1.72-3.84-3.84-3.84h0Z"/>
    </g>
    <g>
      <circle class="cls-46" cx="1010.78" cy="620.14" r="3.34"/>
      <path d="M1010.78,617.3c1.57,0,2.84,1.27,2.84,2.84s-1.27,2.84-2.84,2.84-2.84-1.27-2.84-2.84,1.27-2.84,2.84-2.84M1010.78,616.3c-2.12,0-3.84,1.72-3.84,3.84s1.72,3.84,3.84,3.84,3.84-1.72,3.84-3.84-1.72-3.84-3.84-3.84h0Z"/>
    </g>
    <g>
      <path class="cls-46" d="M883.77,678.65c-1.84,0-3.34-1.5-3.34-3.34s1.5-3.34,3.34-3.34,3.34,1.5,3.34,3.34-1.5,3.34-3.34,3.34Z"/>
      <path d="M883.77,672.47c1.57,0,2.84,1.27,2.84,2.84s-1.27,2.84-2.84,2.84-2.84-1.27-2.84-2.84,1.27-2.84,2.84-2.84M883.77,671.47c-2.12,0-3.84,1.72-3.84,3.84s1.72,3.84,3.84,3.84,3.84-1.72,3.84-3.84-1.72-3.84-3.84-3.84h0Z"/>
    </g>
    <g>
      <path class="cls-46" d="M1353.74,839.68c-1.84,0-3.34-1.5-3.34-3.34s1.5-3.34,3.34-3.34,3.34,1.5,3.34,3.34-1.5,3.34-3.34,3.34Z"/>
      <path d="M1353.74,833.5c1.57,0,2.84,1.27,2.84,2.84s-1.27,2.84-2.84,2.84-2.84-1.27-2.84-2.84,1.27-2.84,2.84-2.84M1353.74,832.5c-2.12,0-3.84,1.72-3.84,3.84s1.72,3.84,3.84,3.84,3.84-1.72,3.84-3.84-1.72-3.84-3.84-3.84h0Z"/>
    </g>
    <g>
      <path class="cls-46" d="M1524.1,1004.65c-1.84,0-3.34-1.5-3.34-3.34s1.5-3.34,3.34-3.34,3.34,1.5,3.34,3.34-1.5,3.34-3.34,3.34Z"/>
      <path d="M1524.1,998.46c1.57,0,2.84,1.27,2.84,2.84s-1.27,2.84-2.84,2.84-2.84-1.27-2.84-2.84,1.27-2.84,2.84-2.84M1524.1,997.46c-2.12,0-3.84,1.72-3.84,3.84s1.72,3.84,3.84,3.84,3.84-1.72,3.84-3.84-1.72-3.84-3.84-3.84h0Z"/>
    </g>
    <g>
      <path class="cls-46" d="M1244.12,921.34c-1.84,0-3.34-1.5-3.34-3.34s1.5-3.34,3.34-3.34,3.34,1.5,3.34,3.34-1.5,3.34-3.34,3.34Z"/>
      <path d="M1244.12,915.16c1.57,0,2.84,1.27,2.84,2.84s-1.27,2.84-2.84,2.84-2.84-1.27-2.84-2.84,1.27-2.84,2.84-2.84M1244.12,914.16c-2.12,0-3.84,1.72-3.84,3.84s1.72,3.84,3.84,3.84,3.84-1.72,3.84-3.84-1.72-3.84-3.84-3.84h0Z"/>
    </g>
    <g>
      <path class="cls-46" d="M1075.3,819.74c-1.84,0-3.34-1.5-3.34-3.34s1.5-3.34,3.34-3.34,3.34,1.5,3.34,3.34-1.5,3.34-3.34,3.34Z"/>
      <path d="M1075.3,813.56c1.57,0,2.84,1.27,2.84,2.84s-1.27,2.84-2.84,2.84-2.84-1.27-2.84-2.84,1.27-2.84,2.84-2.84M1075.3,812.56c-2.12,0-3.84,1.72-3.84,3.84s1.72,3.84,3.84,3.84,3.84-1.72,3.84-3.84-1.72-3.84-3.84-3.84h0Z"/>
    </g>
    <g>
      <circle class="cls-46" cx="1214.54" cy="697.11" r="3.34"/>
      <path d="M1214.54,694.27c1.57,0,2.84,1.27,2.84,2.84s-1.27,2.84-2.84,2.84-2.84-1.27-2.84-2.84,1.27-2.84,2.84-2.84M1214.54,693.27c-2.12,0-3.84,1.72-3.84,3.84s1.72,3.84,3.84,3.84,3.84-1.72,3.84-3.84-1.72-3.84-3.84-3.84h0Z"/>
    </g>
    <g>
      <circle class="cls-46" cx="1191.41" cy="484.55" r="3.34"/>
      <path d="M1191.41,481.71c1.57,0,2.84,1.27,2.84,2.84s-1.27,2.84-2.84,2.84-2.84-1.27-2.84-2.84,1.27-2.84,2.84-2.84M1191.41,480.71c-2.12,0-3.84,1.72-3.84,3.84s1.72,3.84,3.84,3.84,3.84-1.72,3.84-3.84-1.72-3.84-3.84-3.84h0Z"/>
    </g>
    <g>
      <circle class="cls-46" cx="1262.83" cy="238.29" r="3.34"/>
      <path d="M1262.83,235.45c1.57,0,2.84,1.27,2.84,2.84s-1.27,2.84-2.84,2.84-2.84-1.27-2.84-2.84,1.27-2.84,2.84-2.84M1262.83,234.45c-2.12,0-3.84,1.72-3.84,3.84s1.72,3.84,3.84,3.84,3.84-1.72,3.84-3.84-1.72-3.84-3.84-3.84h0Z"/>
    </g>
    <g>
      <circle class="cls-46" cx="1373.11" cy="154.38" r="3.34"/>
      <path d="M1373.11,151.54c1.57,0,2.84,1.27,2.84,2.84s-1.27,2.84-2.84,2.84-2.84-1.27-2.84-2.84,1.27-2.84,2.84-2.84M1373.11,150.54c-2.12,0-3.84,1.72-3.84,3.84s1.72,3.84,3.84,3.84,3.84-1.72,3.84-3.84-1.72-3.84-3.84-3.84h0Z"/>
    </g>
    <g>
      <circle class="cls-46" cx="1266.67" cy="72.94" r="3.34"/>
      <path d="M1266.67,70.1c1.57,0,2.84,1.27,2.84,2.84s-1.27,2.84-2.84,2.84-2.84-1.27-2.84-2.84,1.27-2.84,2.84-2.84M1266.67,69.1c-2.12,0-3.84,1.72-3.84,3.84s1.72,3.84,3.84,3.84,3.84-1.72,3.84-3.84-1.72-3.84-3.84-3.84h0Z"/>
    </g>
    <g>
      <circle class="cls-46" cx="1312.38" cy="660.24" r="3.34"/>
      <path d="M1312.38,657.4c1.57,0,2.84,1.27,2.84,2.84s-1.27,2.84-2.84,2.84-2.84-1.27-2.84-2.84,1.27-2.84,2.84-2.84M1312.38,656.4c-2.12,0-3.84,1.72-3.84,3.84s1.72,3.84,3.84,3.84,3.84-1.72,3.84-3.84-1.72-3.84-3.84-3.84h0Z"/>
    </g>
    <g>
      <circle class="cls-46" cx="1417.49" cy="484.55" r="3.34"/>
      <path d="M1417.49,481.71c1.57,0,2.84,1.27,2.84,2.84s-1.27,2.84-2.84,2.84-2.84-1.27-2.84-2.84,1.27-2.84,2.84-2.84M1417.49,480.71c-2.12,0-3.84,1.72-3.84,3.84s1.72,3.84,3.84,3.84,3.84-1.72,3.84-3.84-1.72-3.84-3.84-3.84h0Z"/>
    </g>
    <g>
      <circle class="cls-46" cx="1409.81" cy="305.86" r="3.34"/>
      <path d="M1409.81,303.02c1.57,0,2.84,1.27,2.84,2.84s-1.27,2.84-2.84,2.84-2.84-1.27-2.84-2.84,1.27-2.84,2.84-2.84M1409.81,302.02c-2.12,0-3.84,1.72-3.84,3.84s1.72,3.84,3.84,3.84,3.84-1.72,3.84-3.84-1.72-3.84-3.84-3.84h0Z"/>
    </g>
    <g>
      <circle class="cls-46" cx="1620.2" cy="197.09" r="3.34"/>
      <path d="M1620.2,194.24c1.57,0,2.84,1.27,2.84,2.84s-1.27,2.84-2.84,2.84-2.84-1.27-2.84-2.84,1.27-2.84,2.84-2.84M1620.2,193.24c-2.12,0-3.84,1.72-3.84,3.84s1.72,3.84,3.84,3.84,3.84-1.72,3.84-3.84-1.72-3.84-3.84-3.84h0Z"/>
    </g>
    <g>
      <circle class="cls-46" cx="1798.89" cy="302.02" r="3.34"/>
      <path d="M1798.89,299.18c1.57,0,2.84,1.27,2.84,2.84s-1.27,2.84-2.84,2.84-2.84-1.27-2.84-2.84,1.27-2.84,2.84-2.84M1798.89,298.18c-2.12,0-3.84,1.72-3.84,3.84s1.72,3.84,3.84,3.84,3.84-1.72,3.84-3.84-1.72-3.84-3.84-3.84h0Z"/>
    </g>
    <g>
      <circle class="cls-46" cx="1753.85" cy="158.22" r="3.34"/>
      <path d="M1753.85,155.38c1.57,0,2.84,1.27,2.84,2.84s-1.27,2.84-2.84,2.84-2.84-1.27-2.84-2.84,1.27-2.84,2.84-2.84M1753.85,154.38c-2.12,0-3.84,1.72-3.84,3.84s1.72,3.84,3.84,3.84,3.84-1.72,3.84-3.84-1.72-3.84-3.84-3.84h0Z"/>
    </g>
    <g>
      <circle class="cls-46" cx="1146.19" cy="146.7" r="3.34"/>
      <path d="M1146.19,143.85c1.57,0,2.84,1.27,2.84,2.84s-1.27,2.84-2.84,2.84-2.84-1.27-2.84-2.84,1.27-2.84,2.84-2.84M1146.19,142.85c-2.12,0-3.84,1.72-3.84,3.84s1.72,3.84,3.84,3.84,3.84-1.72,3.84-3.84-1.72-3.84-3.84-3.84h0Z"/>
    </g>
    <g>
      <circle class="cls-46" cx="1544.46" cy="93.79" r="3.34"/>
      <path d="M1544.46,90.95c1.57,0,2.84,1.27,2.84,2.84s-1.27,2.84-2.84,2.84-2.84-1.27-2.84-2.84,1.27-2.84,2.84-2.84M1544.46,89.95c-2.12,0-3.84,1.72-3.84,3.84s1.72,3.84,3.84,3.84,3.84-1.72,3.84-3.84-1.72-3.84-3.84-3.84h0Z"/>
    </g>
    <g>
      <circle class="cls-46" cx="1520.26" cy="383.95" r="3.34"/>
      <path d="M1520.26,381.11c1.57,0,2.84,1.27,2.84,2.84s-1.27,2.84-2.84,2.84-2.84-1.27-2.84-2.84,1.27-2.84,2.84-2.84M1520.26,380.11c-2.12,0-3.84,1.72-3.84,3.84s1.72,3.84,3.84,3.84,3.84-1.72,3.84-3.84-1.72-3.84-3.84-3.84h0Z"/>
    </g>
    <g>
      <circle class="cls-46" cx="1651.74" cy="309.71" r="3.34"/>
      <path d="M1651.74,306.86c1.57,0,2.84,1.27,2.84,2.84s-1.27,2.84-2.84,2.84-2.84-1.27-2.84-2.84,1.27-2.84,2.84-2.84M1651.74,305.86c-2.12,0-3.84,1.72-3.84,3.84s1.72,3.84,3.84,3.84,3.84-1.72,3.84-3.84-1.72-3.84-3.84-3.84h0Z"/>
    </g>
    <g>
      <circle class="cls-46" cx="1818.41" cy="124.52" r="3.34"/>
      <path d="M1818.41,121.68c1.57,0,2.84,1.27,2.84,2.84s-1.27,2.84-2.84,2.84-2.84-1.27-2.84-2.84,1.27-2.84,2.84-2.84M1818.41,120.68c-2.12,0-3.84,1.72-3.84,3.84s1.72,3.84,3.84,3.84,3.84-1.72,3.84-3.84-1.72-3.84-3.84-3.84h0Z"/>
    </g>
    <g>
      <circle class="cls-46" cx="1505.42" cy="219.09" r="3.34"/>
      <path d="M1505.42,216.25c1.57,0,2.84,1.27,2.84,2.84s-1.27,2.84-2.84,2.84-2.84-1.27-2.84-2.84,1.27-2.84,2.84-2.84M1505.42,215.25c-2.12,0-3.84,1.72-3.84,3.84s1.72,3.84,3.84,3.84,3.84-1.72,3.84-3.84-1.72-3.84-3.84-3.84h0Z"/>
    </g>
    <g>
      <circle class="cls-46" cx="1856.79" cy="23.39" r="3.34"/>
      <path d="M1856.79,20.55c1.57,0,2.84,1.27,2.84,2.84s-1.27,2.84-2.84,2.84-2.84-1.27-2.84-2.84,1.27-2.84,2.84-2.84M1856.79,19.55c-2.12,0-3.84,1.72-3.84,3.84s1.72,3.84,3.84,3.84,3.84-1.72,3.84-3.84-1.72-3.84-3.84-3.84h0Z"/>
    </g>
    <g>
      <circle class="cls-46" cx="1447.35" cy="97.63" r="3.34"/>
      <path d="M1447.35,94.79c1.57,0,2.84,1.27,2.84,2.84s-1.27,2.84-2.84,2.84-2.84-1.27-2.84-2.84,1.27-2.84,2.84-2.84M1447.35,93.79c-2.12,0-3.84,1.72-3.84,3.84s1.72,3.84,3.84,3.84,3.84-1.72,3.84-3.84-1.72-3.84-3.84-3.84h0Z"/>
    </g>
    <g>
      <circle class="cls-46" cx="1620.2" cy="31.07" r="3.34"/>
      <path d="M1620.2,28.23c1.57,0,2.84,1.27,2.84,2.84s-1.27,2.84-2.84,2.84-2.84-1.27-2.84-2.84,1.27-2.84,2.84-2.84M1620.2,27.23c-2.12,0-3.84,1.72-3.84,3.84s1.72,3.84,3.84,3.84,3.84-1.72,3.84-3.84-1.72-3.84-3.84-3.84h0Z"/>
    </g>
    <g>
      <circle class="cls-46" cx="1586.99" cy="76.79" r="3.34"/>
      <path d="M1586.99,73.94c1.57,0,2.84,1.27,2.84,2.84s-1.27,2.84-2.84,2.84-2.84-1.27-2.84-2.84,1.27-2.84,2.84-2.84M1586.99,72.94c-2.12,0-3.84,1.72-3.84,3.84s1.72,3.84,3.84,3.84,3.84-1.72,3.84-3.84-1.72-3.84-3.84-3.84h0Z"/>
    </g>
    <g>
      <circle class="cls-46" cx="1586.99" cy="124.52" r="3.34"/>
      <path d="M1586.99,121.68c1.57,0,2.84,1.27,2.84,2.84s-1.27,2.84-2.84,2.84-2.84-1.27-2.84-2.84,1.27-2.84,2.84-2.84M1586.99,120.68c-2.12,0-3.84,1.72-3.84,3.84s1.72,3.84,3.84,3.84,3.84-1.72,3.84-3.84-1.72-3.84-3.84-3.84h0Z"/>
    </g>
    <g>
      <circle class="cls-46" cx="1594.68" cy="484.55" r="3.34"/>
      <path d="M1594.68,481.71c1.57,0,2.84,1.27,2.84,2.84s-1.27,2.84-2.84,2.84-2.84-1.27-2.84-2.84,1.27-2.84,2.84-2.84M1594.68,480.71c-2.12,0-3.84,1.72-3.84,3.84s1.72,3.84,3.84,3.84,3.84-1.72,3.84-3.84-1.72-3.84-3.84-3.84h0Z"/>
    </g>
    <g>
      <circle class="cls-46" cx="1795.05" cy="476.87" r="3.34"/>
      <path d="M1795.05,474.03c1.57,0,2.84,1.27,2.84,2.84s-1.27,2.84-2.84,2.84-2.84-1.27-2.84-2.84,1.27-2.84,2.84-2.84M1795.05,473.03c-2.12,0-3.84,1.72-3.84,3.84s1.72,3.84,3.84,3.84,3.84-1.72,3.84-3.84-1.72-3.84-3.84-3.84h0Z"/>
    </g>
    <g>
      <circle class="cls-46" cx="1680.93" cy="766.68" r="3.34"/>
      <path d="M1680.93,763.84c1.57,0,2.84,1.27,2.84,2.84s-1.27,2.84-2.84,2.84-2.84-1.27-2.84-2.84,1.27-2.84,2.84-2.84M1680.93,762.84c-2.12,0-3.84,1.72-3.84,3.84s1.72,3.84,3.84,3.84,3.84-1.72,3.84-3.84-1.72-3.84-3.84-3.84h0Z"/>
    </g>
    <g>
      <circle class="cls-46" cx="1791.21" cy="971.37" r="3.34"/>
      <path d="M1791.21,968.53c1.57,0,2.84,1.27,2.84,2.84s-1.27,2.84-2.84,2.84-2.84-1.27-2.84-2.84,1.27-2.84,2.84-2.84M1791.21,967.53c-2.12,0-3.84,1.72-3.84,3.84s1.72,3.84,3.84,3.84,3.84-1.72,3.84-3.84-1.72-3.84-3.84-3.84h0Z"/>
    </g>
    <g>
      <circle class="cls-46" cx="1540.62" cy="671.47" r="3.34"/>
      <path d="M1540.62,668.63c1.57,0,2.84,1.27,2.84,2.84s-1.27,2.84-2.84,2.84-2.84-1.27-2.84-2.84,1.27-2.84,2.84-2.84M1540.62,667.63c-2.12,0-3.84,1.72-3.84,3.84s1.72,3.84,3.84,3.84,3.84-1.72,3.84-3.84-1.72-3.84-3.84-3.84h0Z"/>
    </g>
    <g>
      <circle class="cls-46" cx="1501.58" cy="840.18" r="3.34"/>
      <path d="M1501.58,837.34c1.57,0,2.84,1.27,2.84,2.84s-1.27,2.84-2.84,2.84-2.84-1.27-2.84-2.84,1.27-2.84,2.84-2.84M1501.58,836.34c-2.12,0-3.84,1.72-3.84,3.84s1.72,3.84,3.84,3.84,3.84-1.72,3.84-3.84-1.72-3.84-3.84-3.84h0Z"/>
    </g>
    <g>
      <circle class="cls-46" cx="1455.03" cy="660.24" r="3.34"/>
      <path d="M1455.03,657.4c1.57,0,2.84,1.27,2.84,2.84s-1.27,2.84-2.84,2.84-2.84-1.27-2.84-2.84,1.27-2.84,2.84-2.84M1455.03,656.4c-2.12,0-3.84,1.72-3.84,3.84s1.72,3.84,3.84,3.84,3.84-1.72,3.84-3.84-1.72-3.84-3.84-3.84h0Z"/>
    </g>
    <g>
      <circle class="cls-46" cx="1703.63" cy="600.84" r="3.34"/>
      <path d="M1703.63,598c1.57,0,2.84,1.27,2.84,2.84s-1.27,2.84-2.84,2.84-2.84-1.27-2.84-2.84,1.27-2.84,2.84-2.84M1703.63,597c-2.12,0-3.84,1.72-3.84,3.84s1.72,3.84,3.84,3.84,3.84-1.72,3.84-3.84-1.72-3.84-3.84-3.84h0Z"/>
    </g>
    <g>
      <circle class="cls-46" cx="1822.25" cy="711.6" r="3.34"/>
      <path d="M1822.25,708.75c1.57,0,2.84,1.27,2.84,2.84s-1.27,2.84-2.84,2.84-2.84-1.27-2.84-2.84,1.27-2.84,2.84-2.84M1822.25,707.75c-2.12,0-3.84,1.72-3.84,3.84s1.72,3.84,3.84,3.84,3.84-1.72,3.84-3.84-1.72-3.84-3.84-3.84h0Z"/>
    </g>
    <g>
      <path class="cls-46" d="M946.61,955.51c-1.84,0-3.34-1.5-3.34-3.34s1.5-3.34,3.34-3.34,3.34,1.5,3.34,3.34-1.5,3.34-3.34,3.34Z"/>
      <path d="M946.61,949.33c1.57,0,2.84,1.27,2.84,2.84s-1.27,2.84-2.84,2.84-2.84-1.27-2.84-2.84,1.27-2.84,2.84-2.84M946.61,948.33c-2.12,0-3.84,1.72-3.84,3.84s1.72,3.84,3.84,3.84,3.84-1.72,3.84-3.84-1.72-3.84-3.84-3.84h0Z"/>
    </g>
    <g>
      <circle class="cls-46" cx="621.65" cy="820.24" r="3.34"/>
      <path d="M621.65,817.4c1.57,0,2.84,1.27,2.84,2.84s-1.27,2.84-2.84,2.84-2.84-1.27-2.84-2.84,1.27-2.84,2.84-2.84M621.65,816.4c-2.12,0-3.84,1.72-3.84,3.84s1.72,3.84,3.84,3.84,3.84-1.72,3.84-3.84-1.72-3.84-3.84-3.84h0Z"/>
    </g>
    <g>
      <circle class="cls-46" cx="498.34" cy="476.87" r="3.34"/>
      <path d="M498.34,474.03c1.57,0,2.84,1.27,2.84,2.84s-1.27,2.84-2.84,2.84-2.84-1.27-2.84-2.84,1.27-2.84,2.84-2.84M498.34,473.03c-2.12,0-3.84,1.72-3.84,3.84s1.72,3.84,3.84,3.84,3.84-1.72,3.84-3.84-1.72-3.84-3.84-3.84h0Z"/>
    </g>
    <g>
      <path class="cls-46" d="M625.49,153.88c-1.84,0-3.34-1.5-3.34-3.34s1.5-3.34,3.34-3.34,3.34,1.5,3.34,3.34-1.5,3.34-3.34,3.34Z"/>
      <path d="M625.49,147.7c1.57,0,2.84,1.27,2.84,2.84s-1.27,2.84-2.84,2.84-2.84-1.27-2.84-2.84,1.27-2.84,2.84-2.84M625.49,146.7c-2.12,0-3.84,1.72-3.84,3.84s1.72,3.84,3.84,3.84,3.84-1.72,3.84-3.84-1.72-3.84-3.84-3.84h0Z"/>
    </g>
    <g>
      <circle class="cls-46" cx="301.81" cy="422.32" r="3.34"/>
      <path d="M301.81,419.48c1.57,0,2.84,1.27,2.84,2.84s-1.27,2.84-2.84,2.84-2.84-1.27-2.84-2.84,1.27-2.84,2.84-2.84M301.81,418.48c-2.12,0-3.84,1.72-3.84,3.84s1.72,3.84,3.84,3.84,3.84-1.72,3.84-3.84-1.72-3.84-3.84-3.84h0Z"/>
    </g>
    <g>
      <circle class="cls-46" cx="736.61" cy="623.98" r="3.34"/>
      <path d="M736.61,621.14c1.57,0,2.84,1.27,2.84,2.84s-1.27,2.84-2.84,2.84-2.84-1.27-2.84-2.84,1.27-2.84,2.84-2.84M736.61,620.14c-2.12,0-3.84,1.72-3.84,3.84s1.72,3.84,3.84,3.84,3.84-1.72,3.84-3.84-1.72-3.84-3.84-3.84h0Z"/>
    </g>
    <g>
      <circle class="cls-46" cx="391.24" cy="660.24" r="3.34"/>
      <path d="M391.24,657.4c1.57,0,2.84,1.27,2.84,2.84s-1.27,2.84-2.84,2.84-2.84-1.27-2.84-2.84,1.27-2.84,2.84-2.84M391.24,656.4c-2.12,0-3.84,1.72-3.84,3.84s1.72,3.84,3.84,3.84,3.84-1.72,3.84-3.84-1.72-3.84-3.84-3.84h0Z"/>
    </g>
    <g>
      <circle class="cls-46" cx="596.12" cy="608.52" r="3.34"/>
      <path d="M596.12,605.68c1.57,0,2.84,1.27,2.84,2.84s-1.27,2.84-2.84,2.84-2.84-1.27-2.84-2.84,1.27-2.84,2.84-2.84M596.12,604.68c-2.12,0-3.84,1.72-3.84,3.84s1.72,3.84,3.84,3.84,3.84-1.72,3.84-3.84-1.72-3.84-3.84-3.84h0Z"/>
    </g>
    <g>
      <circle class="cls-46" cx="383.56" cy="571.65" r="3.34"/>
      <path d="M383.56,568.8c1.57,0,2.84,1.27,2.84,2.84s-1.27,2.84-2.84,2.84-2.84-1.27-2.84-2.84,1.27-2.84,2.84-2.84M383.56,567.8c-2.12,0-3.84,1.72-3.84,3.84s1.72,3.84,3.84,3.84,3.84-1.72,3.84-3.84-1.72-3.84-3.84-3.84h0Z"/>
    </g>
    <g>
      <circle class="cls-46" cx="417.43" cy="362.26" r="3.34"/>
      <path d="M417.43,359.42c1.57,0,2.84,1.27,2.84,2.84s-1.27,2.84-2.84,2.84-2.84-1.27-2.84-2.84,1.27-2.84,2.84-2.84M417.43,358.42c-2.12,0-3.84,1.72-3.84,3.84s1.72,3.84,3.84,3.84,3.84-1.72,3.84-3.84-1.72-3.84-3.84-3.84h0Z"/>
    </g>
    <g>
      <circle class="cls-46" cx="454.13" cy="249.82" r="3.34"/>
      <path d="M454.13,246.97c1.57,0,2.84,1.27,2.84,2.84s-1.27,2.84-2.84,2.84-2.84-1.27-2.84-2.84,1.27-2.84,2.84-2.84M454.13,245.97c-2.12,0-3.84,1.72-3.84,3.84s1.72,3.84,3.84,3.84,3.84-1.72,3.84-3.84-1.72-3.84-3.84-3.84h0Z"/>
    </g>
    <g>
      <circle class="cls-46" cx="387.4" cy="404.13" r="3.34"/>
      <path d="M387.4,401.29c1.57,0,2.84,1.27,2.84,2.84s-1.27,2.84-2.84,2.84-2.84-1.27-2.84-2.84,1.27-2.84,2.84-2.84M387.4,400.29c-2.12,0-3.84,1.72-3.84,3.84s1.72,3.84,3.84,3.84,3.84-1.72,3.84-3.84-1.72-3.84-3.84-3.84h0Z"/>
    </g>
    <g>
      <circle class="cls-46" cx="454.13" cy="844.02" r="3.34"/>
      <path d="M454.13,841.18c1.57,0,2.84,1.27,2.84,2.84s-1.27,2.84-2.84,2.84-2.84-1.27-2.84-2.84,1.27-2.84,2.84-2.84M454.13,840.18c-2.12,0-3.84,1.72-3.84,3.84s1.72,3.84,3.84,3.84,3.84-1.72,3.84-3.84-1.72-3.84-3.84-3.84h0Z"/>
    </g>
    <g>
      <circle class="cls-46" cx="327.16" cy="778.2" r="3.34"/>
      <path d="M327.16,775.36c1.57,0,2.84,1.27,2.84,2.84s-1.27,2.84-2.84,2.84-2.84-1.27-2.84-2.84,1.27-2.84,2.84-2.84M327.16,774.36c-2.12,0-3.84,1.72-3.84,3.84s1.72,3.84,3.84,3.84,3.84-1.72,3.84-3.84-1.72-3.84-3.84-3.84h0Z"/>
    </g>
    <g>
      <circle class="cls-46" cx="142.64" cy="869.43" r="3.34"/>
      <path d="M142.64,866.59c1.57,0,2.84,1.27,2.84,2.84s-1.27,2.84-2.84,2.84-2.84-1.27-2.84-2.84,1.27-2.84,2.84-2.84M142.64,865.59c-2.12,0-3.84,1.72-3.84,3.84s1.72,3.84,3.84,3.84,3.84-1.72,3.84-3.84-1.72-3.84-3.84-3.84h0Z"/>
    </g>
    <g>
      <circle class="cls-46" cx="334.85" cy="887.82" r="3.34"/>
      <path d="M334.85,884.98c1.57,0,2.84,1.27,2.84,2.84s-1.27,2.84-2.84,2.84-2.84-1.27-2.84-2.84,1.27-2.84,2.84-2.84M334.85,883.98c-2.12,0-3.84,1.72-3.84,3.84s1.72,3.84,3.84,3.84,3.84-1.72,3.84-3.84-1.72-3.84-3.84-3.84h0Z"/>
    </g>
    <g>
      <path class="cls-46" d="M787.27,967.03c-1.84,0-3.34-1.5-3.34-3.34s1.5-3.34,3.34-3.34,3.34,1.5,3.34,3.34-1.5,3.34-3.34,3.34Z"/>
      <path d="M787.27,960.85c1.57,0,2.84,1.27,2.84,2.84s-1.27,2.84-2.84,2.84-2.84-1.27-2.84-2.84,1.27-2.84,2.84-2.84M787.27,959.85c-2.12,0-3.84,1.72-3.84,3.84s1.72,3.84,3.84,3.84,3.84-1.72,3.84-3.84-1.72-3.84-3.84-3.84h0Z"/>
    </g>
    <g>
      <path class="cls-46" d="M99.54,615.7c-1.84,0-3.34-1.5-3.34-3.34s1.5-3.34,3.34-3.34,3.34,1.5,3.34,3.34-1.5,3.34-3.34,3.34Z"/>
      <path d="M99.54,609.52c1.57,0,2.84,1.27,2.84,2.84s-1.27,2.84-2.84,2.84-2.84-1.27-2.84-2.84,1.27-2.84,2.84-2.84M99.54,608.52c-2.12,0-3.84,1.72-3.84,3.84s1.72,3.84,3.84,3.84,3.84-1.72,3.84-3.84-1.72-3.84-3.84-3.84h0Z"/>
    </g>
    <g>
      <circle class="cls-46" cx="721.42" cy="774.36" r="3.34"/>
      <path d="M721.42,771.52c1.57,0,2.84,1.27,2.84,2.84s-1.27,2.84-2.84,2.84-2.84-1.27-2.84-2.84,1.27-2.84,2.84-2.84M721.42,770.52c-2.12,0-3.84,1.72-3.84,3.84s1.72,3.84,3.84,3.84,3.84-1.72,3.84-3.84-1.72-3.84-3.84-3.84h0Z"/>
    </g>
    <g>
      <circle class="cls-46" cx="699.72" cy="902.7" r="3.34"/>
      <path d="M699.72,899.86c1.57,0,2.84,1.27,2.84,2.84s-1.27,2.84-2.84,2.84-2.84-1.27-2.84-2.84,1.27-2.84,2.84-2.84M699.72,898.86c-2.12,0-3.84,1.72-3.84,3.84s1.72,3.84,3.84,3.84,3.84-1.72,3.84-3.84-1.72-3.84-3.84-3.84h0Z"/>
    </g>
    <g>
      <circle class="cls-46" cx="502.19" cy="906.54" r="3.34"/>
      <path d="M502.19,903.7c1.57,0,2.84,1.27,2.84,2.84s-1.27,2.84-2.84,2.84-2.84-1.27-2.84-2.84,1.27-2.84,2.84-2.84M502.19,902.7c-2.12,0-3.84,1.72-3.84,3.84s1.72,3.84,3.84,3.84,3.84-1.72,3.84-3.84-1.72-3.84-3.84-3.84h0Z"/>
    </g>
    <g>
      <circle class="cls-46" cx="208.71" cy="711.6" r="3.34"/>
      <path d="M208.71,708.75c1.57,0,2.84,1.27,2.84,2.84s-1.27,2.84-2.84,2.84-2.84-1.27-2.84-2.84,1.27-2.84,2.84-2.84M208.71,707.75c-2.12,0-3.84,1.72-3.84,3.84s1.72,3.84,3.84,3.84,3.84-1.72,3.84-3.84-1.72-3.84-3.84-3.84h0Z"/>
    </g>
    <g>
      <circle class="cls-46" cx="138.8" cy="451.52" r="3.34"/>
      <path d="M138.8,448.68c1.57,0,2.84,1.27,2.84,2.84s-1.27,2.84-2.84,2.84-2.84-1.27-2.84-2.84,1.27-2.84,2.84-2.84M138.8,447.68c-2.12,0-3.84,1.72-3.84,3.84s1.72,3.84,3.84,3.84,3.84-1.72,3.84-3.84-1.72-3.84-3.84-3.84h0Z"/>
    </g>
    <g>
      <circle class="cls-46" cx="91.86" cy="234.45" r="3.34"/>
      <path d="M91.86,231.61c1.57,0,2.84,1.27,2.84,2.84s-1.27,2.84-2.84,2.84-2.84-1.27-2.84-2.84,1.27-2.84,2.84-2.84M91.86,230.61c-2.12,0-3.84,1.72-3.84,3.84s1.72,3.84,3.84,3.84,3.84-1.72,3.84-3.84-1.72-3.84-3.84-3.84h0Z"/>
    </g>
    <g>
      <circle class="cls-46" cx="238.74" cy="551.52" r="3.34"/>
      <path d="M238.74,548.68c1.57,0,2.84,1.27,2.84,2.84s-1.27,2.84-2.84,2.84-2.84-1.27-2.84-2.84,1.27-2.84,2.84-2.84M238.74,547.68c-2.12,0-3.84,1.72-3.84,3.84s1.72,3.84,3.84,3.84,3.84-1.72,3.84-3.84-1.72-3.84-3.84-3.84h0Z"/>
    </g>
    <g>
      <path class="cls-46" d="M201.03,336.9c-1.84,0-3.34-1.5-3.34-3.34s1.5-3.34,3.34-3.34,3.34,1.5,3.34,3.34-1.5,3.34-3.34,3.34Z"/>
      <path d="M201.03,330.72c1.57,0,2.84,1.27,2.84,2.84s-1.27,2.84-2.84,2.84-2.84-1.27-2.84-2.84,1.27-2.84,2.84-2.84M201.03,329.72c-2.12,0-3.84,1.72-3.84,3.84s1.72,3.84,3.84,3.84,3.84-1.72,3.84-3.84-1.72-3.84-3.84-3.84h0Z"/>
    </g>
    <g>
      <circle class="cls-46" cx="41.2" cy="488.39" r="3.34"/>
      <path d="M41.2,485.55c1.57,0,2.84,1.27,2.84,2.84s-1.27,2.84-2.84,2.84-2.84-1.27-2.84-2.84,1.27-2.84,2.84-2.84M41.2,484.55c-2.12,0-3.84,1.72-3.84,3.84s1.72,3.84,3.84,3.84,3.84-1.72,3.84-3.84-1.72-3.84-3.84-3.84h0Z"/>
    </g>
    <g>
      <path class="cls-46" d="M142.64,30.57c-1.84,0-3.34-1.5-3.34-3.34s1.5-3.34,3.34-3.34,3.34,1.5,3.34,3.34-1.5,3.34-3.34,3.34Z"/>
      <path d="M142.64,24.39c1.57,0,2.84,1.27,2.84,2.84s-1.27,2.84-2.84,2.84-2.84-1.27-2.84-2.84,1.27-2.84,2.84-2.84M142.64,23.39c-2.12,0-3.84,1.72-3.84,3.84s1.72,3.84,3.84,3.84,3.84-1.72,3.84-3.84-1.72-3.84-3.84-3.84h0Z"/>
    </g>
    <g>
      <circle class="cls-46" cx="254.11" cy="116.84" r="3.34"/>
      <path d="M254.11,114c1.57,0,2.84,1.27,2.84,2.84s-1.27,2.84-2.84,2.84-2.84-1.27-2.84-2.84,1.27-2.84,2.84-2.84M254.11,113c-2.12,0-3.84,1.72-3.84,3.84s1.72,3.84,3.84,3.84,3.84-1.72,3.84-3.84-1.72-3.84-3.84-3.84h0Z"/>
    </g>
    <g>
      <circle class="cls-46" cx="457.98" cy="109.16" r="3.34"/>
      <path d="M457.98,106.32c1.57,0,2.84,1.27,2.84,2.84s-1.27,2.84-2.84,2.84-2.84-1.27-2.84-2.84,1.27-2.84,2.84-2.84M457.98,105.32c-2.12,0-3.84,1.72-3.84,3.84s1.72,3.84,3.84,3.84,3.84-1.72,3.84-3.84-1.72-3.84-3.84-3.84h0Z"/>
    </g>
    <g>
      <circle class="cls-46" cx="246.43" cy="230.61" r="3.34"/>
      <path d="M246.43,227.77c1.57,0,2.84,1.27,2.84,2.84s-1.27,2.84-2.84,2.84-2.84-1.27-2.84-2.84,1.27-2.84,2.84-2.84M246.43,226.77c-2.12,0-3.84,1.72-3.84,3.84s1.72,3.84,3.84,3.84,3.84-1.72,3.84-3.84-1.72-3.84-3.84-3.84h0Z"/>
    </g>
    <g>
      <circle class="cls-46" cx="338.69" cy="142.86" r="3.34"/>
      <path d="M338.69,140.01c1.57,0,2.84,1.27,2.84,2.84s-1.27,2.84-2.84,2.84-2.84-1.27-2.84-2.84,1.27-2.84,2.84-2.84M338.69,139.01c-2.12,0-3.84,1.72-3.84,3.84s1.72,3.84,3.84,3.84,3.84-1.72,3.84-3.84-1.72-3.84-3.84-3.84h0Z"/>
    </g>
    <g>
      <circle class="cls-46" cx="103.38" cy="113" r="3.34"/>
      <path d="M103.38,110.16c1.57,0,2.84,1.27,2.84,2.84s-1.27,2.84-2.84,2.84-2.84-1.27-2.84-2.84,1.27-2.84,2.84-2.84M103.38,109.16c-2.12,0-3.84,1.72-3.84,3.84s1.72,3.84,3.84,3.84,3.84-1.72,3.84-3.84-1.72-3.84-3.84-3.84h0Z"/>
    </g>
    <g>
      <path class="cls-46" d="M859.45,755.76c-1.84,0-3.34-1.5-3.34-3.34s1.5-3.34,3.34-3.34,3.34,1.5,3.34,3.34-1.5,3.34-3.34,3.34Z"/>
      <path d="M859.45,749.58c1.57,0,2.84,1.27,2.84,2.84s-1.27,2.84-2.84,2.84-2.84-1.27-2.84-2.84,1.27-2.84,2.84-2.84M859.45,748.58c-2.12,0-3.84,1.72-3.84,3.84s1.72,3.84,3.84,3.84,3.84-1.72,3.84-3.84-1.72-3.84-3.84-3.84h0Z"/>
    </g>
    <g>
      <polygon class="cls-19" points="687.12 354.59 675.81 358.76 671.63 370.05 667.46 358.76 656.17 354.57 667.46 350.39 671.65 339.11 675.83 350.41 687.12 354.59"/>
      <polygon class="cls-7" points="678.5 348.21 675.22 354.71 678.02 361.46 671.51 358.16 664.76 360.95 668.07 354.45 665.25 347.7 671.78 351 678.5 348.21"/>
      <polygon class="cls-27" points="679.4 347.37 675.69 354.73 678.85 362.35 671.47 358.62 663.87 361.78 667.58 354.43 664.44 346.81 671.8 350.54 679.4 347.37"/>
      <polygon class="cls-45" points="684.99 354.59 675.24 358.2 671.63 367.92 668.03 358.18 658.28 354.57 668.03 350.96 671.63 341.23 675.24 350.98 684.99 354.59"/>
    </g>
    <g>
      <polygon class="cls-36" points="317.28 208.38 305.97 212.55 301.8 223.84 297.63 212.55 286.34 208.36 297.63 204.18 301.82 192.9 305.99 204.2 317.28 208.38"/>
      <polygon class="cls-15" points="308.67 201.99 305.39 208.5 308.18 215.25 301.68 211.94 294.93 214.74 298.23 208.24 295.42 201.49 301.94 204.79 308.67 201.99"/>
      <polygon class="cls-30" points="309.56 201.16 305.85 208.52 309.01 216.14 301.64 212.41 294.04 215.57 297.75 208.22 294.61 200.6 301.96 204.32 309.56 201.16"/>
      <polygon class="cls-52" points="315.15 208.38 305.41 211.98 301.8 221.71 298.19 211.96 288.45 208.36 298.19 204.75 301.8 195.02 305.41 204.77 315.15 208.38"/>
    </g>
    <g>
      <polygon class="cls-38" points="1458.98 215.26 1447.67 219.43 1443.5 230.72 1439.32 219.43 1428.03 215.24 1439.32 211.06 1443.52 199.78 1447.69 211.08 1458.98 215.26"/>
      <polygon class="cls-3" points="1450.37 208.87 1447.08 215.38 1449.88 222.13 1443.37 218.82 1436.63 221.62 1439.93 215.11 1437.11 208.37 1443.64 211.67 1450.37 208.87"/>
      <polygon class="cls-34" points="1451.26 208.04 1447.55 215.4 1450.71 223.02 1443.33 219.29 1435.74 222.45 1439.44 215.09 1436.3 207.48 1443.66 211.2 1451.26 208.04"/>
      <polygon class="cls-44" points="1456.85 215.26 1447.1 218.86 1443.5 228.59 1439.89 218.84 1430.14 215.24 1439.89 211.63 1443.5 201.9 1447.1 211.65 1456.85 215.26"/>
    </g>
    <g>
      <polygon class="cls-25" points="789.96 196.42 781.41 199.6 778.23 208.14 775.08 199.58 766.51 196.42 775.08 193.24 778.25 184.7 781.41 193.26 789.96 196.42"/>
      <polygon class="cls-8" points="783.45 191.59 780.95 196.52 783.07 201.63 778.13 199.14 773.02 201.25 775.52 196.32 773.4 191.21 778.33 193.7 783.45 191.59"/>
      <polygon class="cls-22" points="784.12 190.97 781.31 196.54 783.68 202.31 778.13 199.48 772.36 201.87 775.18 196.3 772.78 190.53 778.35 193.36 784.12 190.97"/>
      <polygon class="cls-59" points="788.36 196.42 780.97 199.16 778.23 206.55 775.5 199.16 768.11 196.42 775.5 193.68 778.23 186.29 780.97 193.68 788.36 196.42"/>
    </g>
    <g>
      <polygon class="cls-28" points="1704.38 101.47 1695.83 104.65 1692.66 113.2 1689.5 104.63 1680.93 101.47 1689.5 98.3 1692.68 89.75 1695.83 98.32 1704.38 101.47"/>
      <polygon class="cls-12" points="1697.87 96.64 1695.37 101.57 1697.49 106.69 1692.56 104.19 1687.44 106.31 1689.94 101.37 1687.82 96.26 1692.76 98.76 1697.87 96.64"/>
      <polygon class="cls-31" points="1698.55 96.02 1695.73 101.59 1698.11 107.37 1692.56 104.53 1686.78 106.93 1689.6 101.35 1687.2 95.58 1692.78 98.42 1698.55 96.02"/>
      <polygon class="cls-58" points="1702.78 101.47 1695.39 104.21 1692.66 111.6 1689.92 104.21 1682.53 101.47 1689.92 98.74 1692.66 91.35 1695.39 98.74 1702.78 101.47"/>
    </g>
    <g>
      <polygon class="cls-40" points="1409.81 948.33 1401.26 951.5 1398.08 960.05 1394.93 951.48 1386.36 948.33 1394.93 945.15 1398.1 936.6 1401.26 945.17 1409.81 948.33"/>
      <polygon class="cls-2" points="1403.3 943.49 1400.8 948.43 1402.92 953.54 1397.98 951.04 1392.87 953.16 1395.37 948.23 1393.25 943.11 1398.18 945.61 1403.3 943.49"/>
      <polygon class="cls-20" points="1403.98 942.87 1401.16 948.45 1403.54 954.22 1397.98 951.38 1392.21 953.78 1395.03 948.21 1392.63 942.43 1398.2 945.27 1403.98 942.87"/>
      <polygon class="cls-53" points="1408.21 948.33 1400.82 951.06 1398.08 958.45 1395.35 951.06 1387.96 948.33 1395.35 945.59 1398.08 938.2 1400.82 945.59 1408.21 948.33"/>
    </g>
    <g>
      <polygon class="cls-35" points="320.39 632.53 311.85 635.71 308.67 644.26 305.51 635.69 296.95 632.53 305.51 629.36 308.69 620.81 311.85 629.38 320.39 632.53"/>
      <polygon class="cls-6" points="313.88 627.7 311.39 632.63 313.5 637.75 308.57 635.25 303.46 637.37 305.95 632.43 303.84 627.32 308.77 629.82 313.88 627.7"/>
      <polygon class="cls-23" points="314.56 627.08 311.75 632.65 314.12 638.43 308.57 635.59 302.8 637.99 305.61 632.41 303.22 626.64 308.79 629.48 314.56 627.08"/>
      <polygon class="cls-47" points="318.8 632.53 311.41 635.27 308.67 642.66 305.93 635.27 298.54 632.53 305.93 629.8 308.67 622.41 311.41 629.8 318.8 632.53"/>
    </g>
    <g>
      <polygon class="cls-41" points="1132.96 97.63 1124.41 100.81 1121.24 109.36 1118.08 100.79 1109.51 97.63 1118.08 94.46 1121.26 85.91 1124.41 94.48 1132.96 97.63"/>
      <polygon class="cls-4" points="1126.45 92.8 1123.96 97.73 1126.07 102.85 1121.14 100.35 1116.03 102.47 1118.52 97.53 1116.41 92.42 1121.34 94.92 1126.45 92.8"/>
      <polygon class="cls-42" points="1127.13 92.18 1124.31 97.75 1126.69 103.53 1121.14 100.69 1115.37 103.09 1118.18 97.51 1115.79 91.74 1121.36 94.58 1127.13 92.18"/>
      <polygon class="cls-57" points="1131.37 97.63 1123.98 100.37 1121.24 107.76 1118.5 100.37 1111.11 97.63 1118.5 94.9 1121.24 87.51 1123.98 94.9 1131.37 97.63"/>
    </g>
    <g>
      <polygon class="cls-37" points="1181.28 234.45 1172.73 237.63 1169.55 246.18 1166.4 237.61 1157.83 234.45 1166.4 231.28 1169.57 222.73 1172.73 231.3 1181.28 234.45"/>
      <polygon class="cls-13" points="1174.77 229.62 1172.27 234.55 1174.39 239.66 1169.45 237.17 1164.34 239.29 1166.84 234.35 1164.72 229.24 1169.65 231.74 1174.77 229.62"/>
      <polygon class="cls-26" points="1175.45 229 1172.63 234.57 1175.01 240.34 1169.45 237.51 1163.68 239.9 1166.5 234.33 1164.1 228.56 1169.67 231.4 1175.45 229"/>
      <polygon class="cls-48" points="1179.68 234.45 1172.29 237.19 1169.55 244.58 1166.82 237.19 1159.43 234.45 1166.82 231.72 1169.55 224.33 1172.29 231.72 1179.68 234.45"/>
    </g>
    <g>
      <polygon class="cls-17" points="1293.96 567.13 1285.41 570.31 1282.23 578.85 1279.08 570.29 1270.51 567.13 1279.08 563.95 1282.25 555.4 1285.41 563.97 1293.96 567.13"/>
      <polygon class="cls-11" points="1287.45 562.3 1284.95 567.23 1287.07 572.34 1282.13 569.85 1277.02 571.96 1279.52 567.03 1277.4 561.92 1282.33 564.41 1287.45 562.3"/>
      <polygon class="cls-21" points="1288.12 561.68 1285.31 567.25 1287.69 573.02 1282.13 570.19 1276.36 572.58 1279.18 567.01 1276.78 561.24 1282.35 564.07 1288.12 561.68"/>
      <polygon class="cls-50" points="1292.36 567.13 1284.97 569.87 1282.23 577.26 1279.5 569.87 1272.11 567.13 1279.5 564.39 1282.23 557 1284.97 564.39 1292.36 567.13"/>
    </g>
    <g>
      <polygon class="cls-18" points="269.67 921.84 261.12 925.02 257.95 933.57 254.79 925 246.22 921.84 254.79 918.67 257.97 910.12 261.12 918.69 269.67 921.84"/>
      <polygon class="cls-9" points="263.16 917.01 260.67 921.94 262.78 927.06 257.85 924.56 252.74 926.68 255.23 921.74 253.12 916.63 258.05 919.13 263.16 917.01"/>
      <polygon class="cls-39" points="263.84 916.39 261.02 921.96 263.4 927.73 257.85 924.9 252.08 927.3 254.89 921.72 252.5 915.95 258.07 918.79 263.84 916.39"/>
      <polygon class="cls-49" points="268.08 921.84 260.69 924.58 257.95 931.97 255.21 924.58 247.82 921.84 255.21 919.11 257.95 911.72 260.69 919.11 268.08 921.84"/>
    </g>
    <g>
      <polygon class="cls-32" points="855.61 608.52 847.06 611.7 843.89 620.25 840.73 611.68 832.16 608.52 840.73 605.35 843.91 596.8 847.06 605.37 855.61 608.52"/>
      <polygon class="cls-5" points="849.1 603.69 846.6 608.62 848.72 613.73 843.79 611.24 838.67 613.35 841.17 608.42 839.05 603.31 843.99 605.8 849.1 603.69"/>
      <polygon class="cls-29" points="849.78 603.07 846.96 608.64 849.34 614.41 843.79 611.58 838.01 613.97 840.83 608.4 838.43 602.63 844.01 605.46 849.78 603.07"/>
      <polygon class="cls-56" points="854.01 608.52 846.62 611.26 843.89 618.65 841.15 611.26 833.76 608.52 841.15 605.78 843.89 598.39 846.62 605.78 854.01 608.52"/>
    </g>
    <g>
      <polygon class="cls-24" points="1628.09 415.65 1619.54 418.83 1616.36 427.38 1613.21 418.81 1604.64 415.65 1613.21 412.48 1616.38 403.93 1619.54 412.5 1628.09 415.65"/>
      <polygon class="cls-10" points="1621.58 410.82 1619.08 415.75 1621.2 420.87 1616.26 418.37 1611.15 420.49 1613.65 415.55 1611.53 410.44 1616.46 412.94 1621.58 410.82"/>
      <polygon class="cls-33" points="1622.26 410.2 1619.44 415.77 1621.82 421.55 1616.26 418.71 1610.49 421.11 1613.31 415.53 1610.91 409.76 1616.48 412.6 1622.26 410.2"/>
      <polygon class="cls-1" points="1626.49 415.65 1619.1 418.39 1616.36 425.78 1613.63 418.39 1606.24 415.65 1613.63 412.92 1616.36 405.53 1619.1 412.92 1626.49 415.65"/>
    </g>
    <g>
      <polygon class="cls-16" points="543.29 64.5 534.81 67.65 531.66 76.13 528.53 67.63 520.03 64.5 528.53 61.35 531.68 52.87 534.81 61.37 543.29 64.5"/>
      <polygon class="cls-14" points="536.83 59.71 534.35 64.6 536.45 69.67 531.56 67.19 526.49 69.29 528.96 64.4 526.86 59.33 531.76 61.81 536.83 59.71"/>
      <polygon class="cls-43" points="537.5 59.09 534.71 64.62 537.07 70.34 531.56 67.53 525.83 69.91 528.63 64.38 526.25 58.66 531.78 61.47 537.5 59.09"/>
      <polygon class="cls-55" points="541.7 64.5 534.37 67.21 531.66 74.54 528.94 67.21 521.61 64.5 528.94 61.79 531.66 54.46 534.37 61.79 541.7 64.5"/>
    </g>
  </g>
  <g id="_Слой_4" data-name="Слой 4">
    <g>
      <rect class="cls-54" x=".5" y=".5" width="1919" height="1079"/>
      <path d="M1919,1v1078H1V1h1918M1920,0H0v1080h1920V0h0Z"/>
    </g>
  </g>
</svg>