<?xml version="1.0" encoding="UTF-8"?>
<svg id="_Слой_2" data-name="Слой 2" xmlns="http://www.w3.org/2000/svg" viewBox="0 0 1611.05 857.69">
  <defs>
    <style>
      .cls-1 {
        fill: #fbb03b;
        stroke: #000;
        stroke-miterlimit: 10;
      }
    </style>
  </defs>
  <g id="_Слой_1-2" data-name="Слой 1">
    <path class="cls-1" d="M1543.4,857.1c-68.01,5.11-138.13-208.29-203.2-403.17-12.26-36.72-27.11-74.53-49.98-129.12-22.52-53.73-47.01-99.48-104.53-108.72-57.52-9.24-116.3,2.41-172.55,17.58-92.7,25-182.47,59.58-272.73,92.32-35.82,12.99-72.18,25.8-110.09,29.62-124.61,12.55-235.12-71.18-346.92-127.62C123.51,147.25,113.96,148.72,17.7,125.24c-44.84-10.94,6.3-92.64,58.67-116.71,38.65-17.77,84.22-12.81,284.43,85.73,188.86,92.96,247.55,137.39,346.92,127.62,17.43-1.71,48.32-11.01,110.09-29.62,134.35-40.46,164.4-64.78,272.73-92.32,80.18-20.38,121.31-30.31,172.55-17.58,14.7,3.65,96.82,25.58,136.54,96.74,27.59,49.43-3.04,92.62,17.97,141.1,72.19,166.6,129.47,250.91,187.5,408.23,21.42,58.06-24.59,125.87-61.7,128.66Z"/>
  </g>
</svg>