<?xml version="1.0" encoding="UTF-8"?>
<svg id="_Слой_1" data-name="Слой 1" xmlns="http://www.w3.org/2000/svg" viewBox="0 0 878.03 912.44">
  <defs>
    <style>
      .cls-1, .cls-2 {
        fill: #c69c6d;
      }

      .cls-3, .cls-4 {
        fill: #f6e281;
      }

      .cls-5 {
        fill: #603813;
      }

      .cls-2, .cls-4, .cls-6 {
        stroke-miterlimit: 10;
        stroke-width: 3px;
      }

      .cls-2, .cls-6 {
        stroke: #603813;
      }

      .cls-7, .cls-6 {
        fill: #a67c52;
      }

      .cls-4 {
        stroke: #000;
      }

      .cls-8 {
        fill: #fbb03b;
      }
    </style>
  </defs>
  <ellipse class="cls-8" cx="432.82" cy="772.8" rx="387.84" ry="139.64"/>
  <g>
    <g>
      <g>
        <g>
          <path class="cls-7" d="M149.7,677.52c-5.64,0-9.64-2.11-10.19-5.39l-29.42-175.73,26.38-4.69,29.43,175.76c.7,4.17-4.44,8.33-11.95,9.66-1.43.25-2.86.38-4.25.38Z"/>
          <path class="cls-5" d="M135.24,493.45l29.18,174.27c.54,3.23-4.26,6.79-10.73,7.94-1.38.24-2.72.36-3.98.36-4.67,0-8.29-1.59-8.71-4.13l-29.18-174.27,23.43-4.17M137.7,489.96l-2.98.53-23.43,4.17-2.92.52.49,2.93,29.18,174.27c.68,4.03,5.26,6.64,11.67,6.64,1.47,0,2.99-.14,4.51-.41,8.35-1.48,14.01-6.38,13.17-11.39l-29.18-174.27-.5-2.99h0Z"/>
        </g>
        <g>
          <path class="cls-7" d="M29.55,750.55l108.94-120.01c1.03-1.14,2.49-1.74,4.22-1.74,2.52,0,5.27,1.26,7.55,3.47,3.94,3.82,5.01,9.03,2.43,11.88l-109,120.08-14.13-13.68Z"/>
          <path class="cls-5" d="M142.7,630.3c2.03,0,4.46,1.06,6.5,3.04,3.31,3.2,4.36,7.58,2.36,9.79l-107.96,118.93-11.97-11.59,107.96-118.93c.76-.84,1.86-1.24,3.11-1.24M142.7,627.3c-2.13,0-4.03.79-5.33,2.23l-107.96,118.93-1.95,2.15,2.09,2.02,11.97,11.59,2.23,2.15,2.08-2.29,107.96-118.93c3.13-3.45,2.03-9.58-2.49-13.96-2.55-2.47-5.68-3.89-8.59-3.89h0Z"/>
        </g>
        <g>
          <path class="cls-7" d="M17.95,654.54l99.11-109.46c.9-1,2.2-1.53,3.75-1.53,2.49,0,5.41,1.39,7.82,3.71,4.02,3.87,5.29,8.98,2.9,11.63l-99.17,109.53-14.4-13.88Z"/>
          <path class="cls-5" d="M120.81,545.05c2.02,0,4.58,1.17,6.78,3.29,3.38,3.26,4.64,7.53,2.82,9.54l-98.14,108.38-12.24-11.79,98.14-108.38c.63-.7,1.56-1.03,2.64-1.03M120.81,542.05c-1.96,0-3.68.72-4.86,2.02l-98.14,108.38-1.95,2.16,2.09,2.02,12.24,11.79,2.23,2.15,2.08-2.29,98.14-108.38c2.99-3.3,1.72-9.2-2.97-13.71-2.72-2.62-5.95-4.13-8.86-4.13h0Z"/>
        </g>
        <g>
          <path class="cls-7" d="M45.47,815.39c-5.8,0-10.11-2.43-10.71-6.05L1.72,612.41l26.48-4.72,33.03,196.96c.75,4.5-4.46,9.07-11.88,10.39-1.31.23-2.62.35-3.89.35h0Z"/>
          <path class="cls-5" d="M26.98,609.43l32.78,195.46c.61,3.63-4.17,7.51-10.66,8.66-1.25.22-2.47.33-3.63.33-4.89,0-8.74-1.87-9.24-4.8L3.45,613.62l23.53-4.19M29.44,605.95l-2.98.53-23.53,4.19-2.92.52.49,2.93,32.78,195.46c.74,4.44,5.53,7.3,12.19,7.3,1.36,0,2.76-.13,4.16-.37,8.37-1.49,14-6.7,13.1-12.11l-32.78-195.46-.5-2.99h0Z"/>
        </g>
        <g>
          <path class="cls-1" d="M12.55,619.14c-5.8,0-10.11-2.43-10.71-6.05-.75-4.5,4.46-9.07,11.88-10.39,1.31-.23,2.62-.35,3.9-.35,5.8,0,10.11,2.43,10.71,6.05.76,4.5-4.46,9.07-11.88,10.39-1.31.23-2.62.35-3.9.35Z"/>
          <path class="cls-5" d="M17.61,603.85c4.89,0,8.74,1.87,9.24,4.8.61,3.63-4.17,7.51-10.66,8.66-1.25.22-2.47.33-3.63.33-4.89,0-8.74-1.87-9.23-4.8-.61-3.63,4.17-7.51,10.66-8.66,1.25-.22,2.47-.33,3.63-.33M17.61,600.85h0c-1.36,0-2.76.13-4.16.37-8.37,1.49-14,6.7-13.1,12.11.74,4.44,5.53,7.3,12.19,7.3,1.36,0,2.76-.13,4.16-.37,8.37-1.49,14-6.7,13.1-12.11-.74-4.44-5.53-7.3-12.19-7.3h0Z"/>
        </g>
        <g>
          <path class="cls-1" d="M120.41,502.55c-5.64,0-9.64-2.11-10.19-5.39-.7-4.17,4.44-8.33,11.95-9.66,1.43-.25,2.86-.38,4.25-.38,5.64,0,9.64,2.11,10.19,5.38.7,4.17-4.44,8.33-11.95,9.66-1.43.25-2.86.38-4.25.38Z"/>
          <path class="cls-5" d="M126.42,488.61c4.67,0,8.29,1.59,8.71,4.13.54,3.23-4.26,6.79-10.73,7.94-1.38.24-2.72.36-3.98.36-4.67,0-8.29-1.59-8.71-4.13-.54-3.23,4.26-6.79,10.73-7.94,1.38-.24,2.72-.36,3.98-.36M126.42,485.61h0c-1.47,0-2.99.14-4.51.41-8.35,1.48-14.01,6.38-13.17,11.39.68,4.03,5.26,6.64,11.67,6.64,1.47,0,2.99-.14,4.51-.41,8.35-1.48,14.01-6.38,13.17-11.39-.68-4.03-5.26-6.64-11.67-6.64h0Z"/>
        </g>
        <g>
          <path class="cls-7" d="M734.54,677.51c-1.28,0-2.6-.12-3.92-.37-7.12-1.33-12.16-5.73-11.47-10.03l29.97-186.73,25.47,4.74-29.96,186.65c-.56,3.48-4.52,5.74-10.09,5.74Z"/>
          <path class="cls-5" d="M750.36,482.14l22.52,4.19-29.73,185.21c-.44,2.74-4.02,4.47-8.61,4.47-1.16,0-2.39-.11-3.65-.35-6.22-1.16-10.81-4.88-10.26-8.32l29.73-185.21M747.88,478.62l-.49,3.04-29.73,185.21c-.83,5.19,4.61,10.24,12.67,11.74,1.41.26,2.82.4,4.2.4,6.35,0,10.89-2.75,11.57-7l29.73-185.21.46-2.89-2.88-.54-22.52-4.19-3.02-.56h0Z"/>
        </g>
        <g>
          <path class="cls-7" d="M726.16,643.6c-2.83-3.29.46-9.88,5-14.42,3.53-3.52,7.58-5.7,10.58-5.7,1.83,0,2.89.78,3.45,1.44l103.7,120.5-18.89,18.85-103.84-120.67Z"/>
          <path class="cls-5" d="M741.74,624.99c.98,0,1.78.29,2.31.92l102.79,119.44-16.76,16.73-102.79-119.44c-1.91-2.22.3-7.76,4.93-12.38,3.33-3.32,7.01-5.26,9.52-5.27M741.75,621.99h0c-3.44,0-7.79,2.3-11.64,6.14-5.15,5.13-8.54,12.44-5.08,16.46l102.79,119.44,2.11,2.45,2.29-2.28,16.76-16.73,1.97-1.97-1.82-2.11-102.79-119.44c-.77-.89-2.19-1.96-4.59-1.96h0Z"/>
        </g>
        <g>
          <path class="cls-7" d="M743.1,547.79c-2.83-3.29.46-9.88,5-14.42,3.53-3.52,7.58-5.7,10.58-5.7,1.83,0,2.89.78,3.45,1.44l103.7,120.5-18.89,18.85-103.84-120.67Z"/>
          <path class="cls-5" d="M758.68,529.18c.98,0,1.78.29,2.31.92l102.79,119.44-16.76,16.73-102.79-119.44c-1.91-2.22.3-7.76,4.93-12.38,3.33-3.32,7.01-5.26,9.52-5.26M758.68,526.18h0c-3.44,0-7.79,2.3-11.64,6.14-5.15,5.13-8.54,12.44-5.08,16.46l102.79,119.44,2.11,2.45,2.29-2.28,16.76-16.73,1.97-1.97-1.82-2.11-102.79-119.44c-.77-.89-2.19-1.96-4.59-1.96h0Z"/>
        </g>
        <g>
          <path class="cls-1" d="M764.38,491.55c-1.28,0-2.6-.12-3.92-.37-7.12-1.33-12.16-5.73-11.47-10.03.56-3.48,4.52-5.73,10.09-5.73,1.28,0,2.6.12,3.92.37,7.12,1.33,12.16,5.73,11.47,10.03-.56,3.48-4.52,5.73-10.09,5.73h0Z"/>
          <path class="cls-5" d="M759.09,476.92c1.16,0,2.39.11,3.65.35,6.22,1.16,10.81,4.88,10.26,8.32-.44,2.74-4.02,4.47-8.61,4.47-1.16,0-2.39-.11-3.65-.35-6.22-1.16-10.81-4.88-10.26-8.32.44-2.74,4.02-4.47,8.61-4.47M759.09,473.92c-6.35,0-10.89,2.75-11.57,7-.83,5.19,4.61,10.24,12.67,11.74,1.41.26,2.82.4,4.2.4,6.35,0,10.89-2.75,11.57-7,.83-5.19-4.61-10.24-12.67-11.74-1.41-.26-2.82-.4-4.2-.4h0Z"/>
        </g>
      </g>
      <g>
        <path class="cls-7" d="M834.4,815.39c-1.23,0-2.49-.12-3.75-.35-7.12-1.33-12.13-5.88-11.41-10.38l31.62-196.98,25.47,4.74-31.6,196.91c-.58,3.63-4.73,6.06-10.32,6.06Z"/>
        <path class="cls-5" d="M852.09,609.43l22.52,4.19-31.37,195.46c-.47,2.93-4.16,4.8-8.84,4.8-1.11,0-2.28-.11-3.48-.33-6.22-1.16-10.79-5.04-10.21-8.66l31.37-195.46M849.61,605.92l-.49,3.04-31.37,195.46c-.87,5.39,4.56,10.59,12.62,12.09,1.35.25,2.7.38,4.02.38,6.35,0,11.1-2.94,11.8-7.32l31.37-195.46.46-2.89-2.88-.54-22.52-4.19-3.02-.56h0Z"/>
      </g>
    </g>
    <g>
      <path class="cls-1" d="M865.9,619.14c-1.23,0-2.49-.12-3.75-.35-7.12-1.33-12.13-5.88-11.41-10.38.58-3.63,4.73-6.06,10.32-6.06,1.23,0,2.49.12,3.75.35,7.12,1.33,12.13,5.88,11.41,10.38-.58,3.63-4.73,6.06-10.32,6.06h0Z"/>
      <path class="cls-5" d="M861.05,603.85c1.11,0,2.28.11,3.48.33,6.22,1.16,10.79,5.04,10.21,8.66-.47,2.93-4.16,4.8-8.84,4.8-1.11,0-2.28-.11-3.48-.33-6.22-1.16-10.79-5.04-10.21-8.66.47-2.93,4.16-4.8,8.84-4.8M861.05,600.85c-6.35,0-11.1,2.94-11.8,7.32-.87,5.39,4.56,10.59,12.62,12.09,1.35.25,2.7.38,4.02.38,6.35,0,11.1-2.94,11.8-7.32.87-5.39-4.56-10.59-12.62-12.09-1.35-.25-2.7-.38-4.02-.38h0Z"/>
    </g>
  </g>
  <g>
    <rect class="cls-2" x="401.52" y="416.21" width="75.88" height="347.05" transform="translate(-150.27 1029.19) rotate(-90)"/>
    <rect class="cls-2" x="401.52" y="188.57" width="75.88" height="347.05" transform="translate(77.36 801.56) rotate(-90)"/>
    <rect class="cls-2" x="401.52" y="264.45" width="75.88" height="347.05" transform="translate(1.48 877.44) rotate(-90)"/>
    <rect class="cls-2" x="401.52" y="340.33" width="75.88" height="347.05" transform="translate(-74.39 953.32) rotate(-90)"/>
    <g>
      <path class="cls-7" d="M232.27,648.86c-21.4,0-44.15-4.5-44.15-12.83v-338.62h88.31v338.62c0,8.33-22.75,12.83-44.15,12.83Z"/>
      <path class="cls-5" d="M274.93,298.92v337.12c0,6.26-19.1,11.33-42.65,11.33s-42.65-5.07-42.65-11.33v-337.12h85.31M277.93,295.92h-91.31v340.12c0,4.64,4.95,8.31,14.72,10.91,8.3,2.2,19.28,3.42,30.93,3.42s22.63-1.21,30.93-3.42c9.77-2.59,14.72-6.26,14.72-10.91v-340.12h0Z"/>
    </g>
    <g>
      <path class="cls-1" d="M232.27,310.38c-21.4,0-44.15-4.5-44.15-12.83s22.75-12.83,44.15-12.83,44.15,4.5,44.15,12.83-22.75,12.83-44.15,12.83Z"/>
      <path class="cls-5" d="M232.28,286.23c23.56,0,42.65,5.07,42.65,11.33s-19.1,11.33-42.65,11.33-42.65-5.07-42.65-11.33,19.1-11.33,42.65-11.33M232.28,283.23c-11.65,0-22.63,1.21-30.93,3.42-9.77,2.59-14.72,6.26-14.72,10.91s4.95,8.31,14.72,10.91c8.3,2.2,19.28,3.42,30.93,3.42s22.63-1.21,30.93-3.42c9.77-2.59,14.72-6.26,14.72-10.91s-4.95-8.31-14.72-10.91c-8.3-2.2-19.28-3.42-30.93-3.42h0Z"/>
    </g>
    <g>
      <path class="cls-7" d="M647.74,648.86c-21.4,0-44.15-4.5-44.15-12.83v-338.62h88.31v338.62c0,8.33-22.75,12.83-44.15,12.83Z"/>
      <path class="cls-5" d="M690.4,298.92v337.12c0,6.26-19.1,11.33-42.65,11.33s-42.65-5.07-42.65-11.33v-337.12h85.31M693.4,295.92h-91.31v340.12c0,4.64,4.95,8.31,14.72,10.91,8.3,2.2,19.28,3.42,30.93,3.42s22.63-1.21,30.93-3.42c9.77-2.59,14.72-6.26,14.72-10.91v-340.12h0Z"/>
    </g>
    <g>
      <path class="cls-1" d="M647.74,310.38c-21.4,0-44.15-4.5-44.15-12.83s22.75-12.83,44.15-12.83,44.15,4.5,44.15,12.83-22.75,12.83-44.15,12.83Z"/>
      <path class="cls-5" d="M647.74,286.23c23.56,0,42.65,5.07,42.65,11.33s-19.1,11.33-42.65,11.33-42.65-5.07-42.65-11.33,19.1-11.33,42.65-11.33M647.74,283.23c-11.65,0-22.63,1.21-30.93,3.42-9.77,2.59-14.72,6.26-14.72,10.91s4.95,8.31,14.72,10.91c8.3,2.2,19.28,3.42,30.93,3.42s22.63-1.21,30.93-3.42c9.77-2.59,14.72-6.26,14.72-10.91s-4.95-8.31-14.72-10.91c-8.3-2.2-19.28-3.42-30.93-3.42h0Z"/>
    </g>
    <rect class="cls-6" x="383.87" y="434.04" width="111.18" height="191.08"/>
    <path class="cls-4" d="M759.71,232.56c0-34.6-22.38-63.91-53.42-74.42-7.92-2.68-16.38-4.2-25.2-4.2-6.29,0-12.37.81-18.23,2.22-1.04.25-2.12.31-3.17.15-60.91-9.39-113-45.49-143.89-95.99-.38-.62-.66-1.29-.86-1.99-2.84-9.87-7.54-18.93-13.74-26.79-14.4-18.27-36.67-30.04-61.73-30.04s-49.17,12.77-63.47,32.36c-4.89,6.7-8.8,14.15-11.4,22.21-.18.56-.42,1.11-.72,1.62-30.6,51.72-83.17,88.87-144.9,98.55-1.06.17-2.13.1-3.17-.14-5.78-1.37-11.77-2.16-17.97-2.16-8.88,0-17.38,1.54-25.34,4.25-30.97,10.55-53.29,39.83-53.29,74.37,0,17.47,5.72,33.6,15.36,46.65,1.05,1.42,1.65,3.11,1.65,4.87v48.98c0,4.47,3.63,8.1,8.1,8.1h592.58c4.47,0,8.1-3.63,8.1-8.1v-52.23c0-1.63.52-3.21,1.43-4.57,8.38-12.5,13.29-27.53,13.29-43.71Z"/>
    <g>
      <path class="cls-3" d="M681.09,458.51c-16.78,0-32.79-5.38-46.3-15.55-9.66-7.28-17.58-16.85-22.89-27.68l-.1-.21-.16-.17c-45.27-46.8-106.42-72.57-172.17-72.57s-126.89,25.77-172.17,72.57l-.16.17-.1.21c-5.32,10.83-13.23,20.4-22.89,27.68-13.51,10.17-29.52,15.55-46.3,15.55-42.53,0-77.12-34.6-77.12-77.12,0-32.98,21.01-62.3,52.27-72.95,8.12-2.77,16.48-4.17,24.85-4.17,6.24,0,12.69.84,19.17,2.5l.29.08.3-.04c62.15-9.24,116.11-45.79,148.03-100.29l.09-.15.05-.17c2.46-7.99,6.31-15.6,11.44-22.62,14.51-19.88,37.79-31.74,62.26-31.74s45.8,10.74,60.56,29.46c6.4,8.12,11.03,17.31,13.76,27.32l.06.2.11.18c32.19,53.25,85.82,88.92,147.13,97.87l.3.04.29-.08c6.55-1.7,13.08-2.57,19.42-2.57,8.33,0,16.64,1.39,24.72,4.12,31.34,10.61,52.4,39.95,52.4,73,0,42.53-34.6,77.12-77.12,77.12Z"/>
      <path d="M439.46,153.33c23.26,0,44.91,10.53,59.38,28.89,6.27,7.96,10.81,16.97,13.5,26.78l.11.4.22.36c32.42,53.63,86.44,89.56,148.2,98.58l.6.09.59-.15c6.43-1.67,12.83-2.52,19.04-2.52,8.16,0,16.32,1.36,24.24,4.04,30.73,10.41,51.38,39.17,51.38,71.58,0,41.7-33.92,75.62-75.62,75.62-16.45,0-32.15-5.27-45.4-15.25-9.47-7.14-17.24-16.52-22.45-27.14l-.21-.42-.33-.34c-45.56-47.09-107.09-73.03-173.24-73.03s-127.68,25.94-173.24,73.03l-.33.34-.21.42c-5.21,10.62-12.98,20-22.45,27.14-13.24,9.98-28.94,15.25-45.4,15.25-41.7,0-75.62-33.92-75.62-75.62,0-32.34,20.6-61.09,51.25-71.53,7.97-2.71,16.17-4.09,24.37-4.09,6.12,0,12.44.83,18.79,2.45l.59.15.6-.09c62.6-9.31,116.95-46.12,149.1-101.01l.18-.3.1-.33c2.42-7.83,6.19-15.29,11.22-22.18,6.89-9.43,15.97-17.26,26.27-22.63,10.81-5.64,22.51-8.49,34.77-8.49M439.46,150.33c-26.1,0-49.17,12.77-63.47,32.36-5.06,6.93-9.08,14.67-11.67,23.06-30.79,52.57-84.23,90.24-146.96,99.56-6.26-1.6-12.78-2.55-19.54-2.55-8.88,0-17.38,1.54-25.34,4.25-30.97,10.55-53.29,39.83-53.29,74.37,0,43.42,35.2,78.62,78.62,78.62,17.74,0,34.05-5.94,47.2-15.85,9.84-7.41,17.86-17.06,23.34-28.21,42.94-44.38,103.68-72.11,171.09-72.11s128.15,27.73,171.09,72.11c5.48,11.16,13.5,20.8,23.34,28.21,13.15,9.91,29.46,15.85,47.2,15.85,43.42,0,78.62-35.2,78.62-78.62,0-34.6-22.38-63.91-53.42-74.42-7.92-2.68-16.38-4.2-25.2-4.2-6.85,0-13.46.97-19.8,2.61-61.97-9.05-114.97-45.73-146.06-97.17-2.81-10.28-7.62-19.71-14.03-27.85-14.4-18.27-36.67-30.04-61.73-30.04h0Z"/>
    </g>
  </g>
</svg>