<?xml version="1.0" encoding="UTF-8"?>
<svg id="_Слой_1" xmlns="http://www.w3.org/2000/svg" version="1.1" viewBox="0 0 307.7 299.2">
  <!-- Generator: Adobe Illustrator 29.3.1, SVG Export Plug-In . SVG Version: 2.1.0 Build 151)  -->
  <defs>
    <style>
      .st0 {
        stroke-miterlimit: 10;
        stroke-width: 2px;
      }

      .st0, .st1, .st2, .st3, .st4, .st5, .st6, .st7, .st8, .st9, .st10, .st11, .st12, .st13, .st14, .st15, .st16 {
        fill: #39b54a;
      }

      .st0, .st1, .st3, .st4, .st5, .st6, .st7, .st8, .st9, .st10, .st11, .st12, .st13, .st14, .st15, .st16 {
        stroke: #006837;
      }

      .st1 {
        stroke-width: 2px;
      }

      .st1, .st17, .st18, .st19, .st20, .st21, .st22 {
        stroke-miterlimit: 10;
      }

      .st3 {
        stroke-miterlimit: 10;
        stroke-width: 2px;
      }

      .st17 {
        fill: none;
      }

      .st17, .st18, .st19, .st20, .st21, .st22 {
        stroke: #42210b;
      }

      .st23 {
        fill: #6fc8a6;
      }

      .st4 {
        stroke-miterlimit: 10;
        stroke-width: 2px;
      }

      .st5 {
        stroke-miterlimit: 10;
        stroke-width: 2px;
      }

      .st18, .st19, .st20, .st21, .st22 {
        stroke-width: 3px;
      }

      .st18, .st24 {
        fill: #603813;
      }

      .st6 {
        stroke-miterlimit: 10;
        stroke-width: 2px;
      }

      .st7 {
        stroke-miterlimit: 10;
        stroke-width: 2px;
      }

      .st8 {
        stroke-miterlimit: 10;
        stroke-width: 2px;
      }

      .st19 {
        fill: #fbb03b;
      }

      .st9 {
        stroke-miterlimit: 10;
        stroke-width: 2px;
      }

      .st10 {
        stroke-miterlimit: 10;
        stroke-width: 2px;
      }

      .st11 {
        stroke-miterlimit: 10;
        stroke-width: 2px;
      }

      .st20 {
        fill: #736357;
      }

      .st12 {
        stroke-miterlimit: 10;
        stroke-width: 2px;
      }

      .st13 {
        stroke-miterlimit: 10;
        stroke-width: 2px;
      }

      .st25 {
        fill: #006837;
      }

      .st14 {
        stroke-miterlimit: 10;
        stroke-width: 2px;
      }

      .st21, .st26 {
        fill: #754c24;
      }

      .st27 {
        fill: #42210b;
      }

      .st22 {
        fill: #8c6239;
      }

      .st15 {
        stroke-miterlimit: 10;
        stroke-width: 2px;
      }

      .st16 {
        stroke-miterlimit: 10;
        stroke-width: 2px;
      }
    </style>
  </defs>
  <g>
    <ellipse class="st19" cx="-160.7" cy="232.5" rx="149.3" ry="55"/>
    <rect class="st22" x="-308.8" y="204.9" width="296.1" height="27.6"/>
    <rect class="st22" x="-308.8" y="177.3" width="296.1" height="27.6"/>
    <rect class="st22" x="-308.8" y="149.8" width="296.1" height="27.6"/>
    <rect class="st22" x="-307.5" y="123.3" width="296.1" height="26.3"/>
    <rect class="st21" x="-307.5" y="123.3" width="296.1" height="19.3"/>
    <rect class="st22" x="-185.5" y="150.9" width="49.6" height="81.6"/>
    <rect class="st22" x="-272.2" y="94.6" width="225.6" height="27.6"/>
    <rect class="st21" x="-113" y="140" width="27.6" height="92.7"/>
    <rect class="st21" x="-237.4" y="140" width="27.6" height="92.7"/>
    <g>
      <polygon class="st26" points="-159.2 99.2 -159.2 8.2 -11.6 138.2 -11.6 229.2 -159.2 99.2"/>
      <path class="st27" d="M-157.7,11.5L-13.1,138.8v87l-144.6-127.3V11.5M-160.7,4.8v95L-10.1,232.5v-95L-160.7,4.8h0Z"/>
    </g>
    <g>
      <polygon class="st2" points="-159.2 84.2 -159.2 -6.8 -11.6 123.2 -11.6 214.2 -159.2 84.2"/>
      <path class="st25" d="M-157.7-3.5L-13.1,123.9v87l-144.6-127.3V-3.5M-160.7-10.1v95L-10.1,217.5v-95L-160.7-10.1h0Z"/>
    </g>
    <g>
      <polygon class="st26" points="-309.8 138.2 -162.2 8.2 -162.2 99.2 -309.8 229.2 -309.8 138.2"/>
      <path class="st27" d="M-163.7,11.5v87l-144.6,127.3v-87L-163.7,11.5M-160.7,4.8l-150.6,132.6v95L-160.7,99.9V4.8h0Z"/>
    </g>
    <g>
      <polygon class="st2" points="-309.8 123.2 -162.2 -6.8 -162.2 84.2 -309.8 214.2 -309.8 123.2"/>
      <path class="st25" d="M-163.7-3.5v87l-144.6,127.3v-87L-163.7-3.5M-160.7-10.1l-150.6,132.6v95L-160.7,84.9V-10.1h0Z"/>
    </g>
    <g>
      <polygon class="st23" points="-277.2 126.7 -232.2 87.1 -232.2 113.3 -277.2 152.9 -277.2 126.7"/>
      <path class="st25" d="M-233.7,90.4v22.3l-42,37v-22.3l42-37M-230.7,83.7l-48,42.2v30.3l48-42.2v-30.3h0Z"/>
    </g>
    <g>
      <path class="st2" d="M-279.8,126.9l2.8-2.5v31.3l-2.8,2.5v-31.3ZM-229.6,82.7l2.8-2.5v31.3l-2.8,2.5v-31.3Z"/>
      <path class="st27" d="M-225.3,76.9l-56,49.3v35.3l56-49.3v-35.3h0ZM-275.4,152.7v-27.9l44.3-39v27.9l-44.3,39h0Z"/>
    </g>
    <g>
      <path class="st2" d="M-282.9,126.9l2.8-2.5v31.3l-2.8,2.5v-31.3ZM-232.7,82.7l2.9-2.5v31.3l-2.9,2.5v-31.3Z"/>
      <path class="st24" d="M-228.4,76.9l-56,49.3v35.3l56-49.3v-35.3h0ZM-278.5,152.7v-27.9l44.3-39v27.9l-44.3,39h0Z"/>
    </g>
    <g>
      <polygon class="st20" points="-93.9 73 -93.9 31.3 -132.1 31.3 -132.1 39.3 -93.9 73"/>
      <rect class="st20" x="-138" y="21.4" width="50" height="12.6"/>
      <rect class="st20" x="-138" y="2.8" width="50" height="18.6"/>
      <rect class="st18" x="-129.8" y="7.5" width="33.7" height="9.3"/>
    </g>
    <ellipse class="st4" cx="-138" cy="21.4" rx="2.2" ry="4.2" transform="translate(-1.4 -7.8) rotate(-3.2)"/>
    <ellipse class="st3" cx="-136.9" cy="4.3" rx="4.2" ry="2.2" transform="translate(-74.8 -117.8) rotate(-61.2)"/>
    <ellipse class="st4" cx="-139.1" cy="27.7" rx="2.2" ry="4.2" transform="translate(-1.8 -7.8) rotate(-3.2)"/>
    <ellipse class="st4" cx="-136.9" cy="35.5" rx="2.2" ry="4.2" transform="translate(-2.2 -7.7) rotate(-3.2)"/>
    <ellipse class="st9" cx="-93.9" cy="70.4" rx="4.2" ry="2.2" transform="translate(-129.1 -41.5) rotate(-70.6)"/>
    <ellipse class="st15" cx="-91.8" cy="77.7" rx="2.2" ry="4.2" transform="translate(-21.3 -19.7) rotate(-13.9)"/>
    <ellipse class="st4" cx="-94.6" cy="61.6" rx="2.2" ry="4.2" transform="translate(-3.6 -5.3) rotate(-3.2)"/>
    <ellipse class="st4" cx="-94.6" cy="52.7" rx="2.2" ry="4.2" transform="translate(-3.1 -5.3) rotate(-3.2)"/>
    <ellipse class="st4" cx="-99.6" cy="58.1" rx="2.2" ry="4.2" transform="translate(-3.5 -5.6) rotate(-3.2)"/>
    <ellipse class="st4" cx="-95" cy="44.6" rx="2.2" ry="4.2" transform="translate(-2.7 -5.3) rotate(-3.2)"/>
    <ellipse class="st11" cx="-102.9" cy="62.7" rx="2.2" ry="4.2" transform="translate(-26 -30) rotate(-19)"/>
    <ellipse class="st0" cx="-107.3" cy="59.9" rx="2.2" ry="4.2" transform="translate(-32.9 -37.9) rotate(-23.5)"/>
    <ellipse class="st8" cx="-113" cy="56.2" rx="2.2" ry="4.2" transform="translate(-40.1 -46.8) rotate(-28.3)"/>
    <ellipse class="st13" cx="-134.5" cy="27.7" rx="4.2" ry="2.9" transform="translate(-100.6 -105.3) rotate(-64.1)"/>
    <ellipse class="st6" cx="-132.1" cy="21.4" rx="2.2" ry="4.2" transform="translate(-135.6 -112.3) rotate(-82.3)"/>
    <ellipse class="st1" cx="-205.4" cy="150.5" rx="2.2" ry="4.2"/>
    <ellipse class="st1" cx="-207.6" cy="144.2" rx="2.2" ry="4.2"/>
    <ellipse class="st1" cx="-203.3" cy="157.7" rx="2.2" ry="4.2"/>
    <ellipse class="st1" cx="-310" cy="216.9" rx="2.2" ry="4.2"/>
    <ellipse class="st1" cx="-306.6" cy="213.3" rx="2.2" ry="4.2"/>
    <ellipse class="st1" cx="-303.5" cy="216.9" rx="2.2" ry="4.2"/>
    <ellipse class="st1" cx="-300.2" cy="211.9" rx="2.2" ry="4.2"/>
    <ellipse class="st1" cx="-277.5" cy="188.7" rx="2.2" ry="4.2"/>
    <ellipse class="st1" cx="-275.3" cy="196" rx="2.2" ry="4.2"/>
    <ellipse class="st1" cx="-274.1" cy="183.7" rx="2.2" ry="4.2"/>
    <ellipse class="st1" cx="-276.3" cy="204.2" rx="2.2" ry="4.2"/>
    <ellipse class="st1" cx="-275.3" cy="211.7" rx="2.2" ry="4.2"/>
    <ellipse class="st1" cx="-203.3" cy="166" rx="2.2" ry="4.2"/>
    <ellipse class="st1" cx="-306.6" cy="221.7" rx="2.2" ry="4.2"/>
    <ellipse class="st1" cx="-306.6" cy="230.1" rx="2.2" ry="4.2"/>
    <ellipse class="st1" cx="-212" cy="138.3" rx="2.2" ry="4.2"/>
    <ellipse class="st1" cx="-207.6" cy="134.2" rx="2.2" ry="4.2"/>
    <ellipse class="st1" cx="-197.9" cy="135.8" rx="2.2" ry="4.2"/>
    <ellipse class="st1" cx="-197.9" cy="126.9" rx="2.2" ry="4.2"/>
    <ellipse class="st1" cx="-202.3" cy="123.4" rx="2.2" ry="4.2"/>
    <ellipse class="st1" cx="-195.7" cy="119.2" rx="2.2" ry="4.2"/>
    <ellipse class="st1" cx="-200.1" cy="118" rx="2.2" ry="4.2"/>
    <ellipse class="st1" cx="-197.9" cy="144.2" rx="2.2" ry="4.2"/>
    <ellipse class="st1" cx="-200.1" cy="150.5" rx="2.2" ry="4.2"/>
    <ellipse class="st4" cx="-157.3" cy="87.7" rx="2.2" ry="4.2" transform="translate(-5.2 -8.8) rotate(-3.2)"/>
    <ellipse class="st4" cx="-154.8" cy="93.9" rx="2.2" ry="4.2" transform="translate(-5.6 -8.6) rotate(-3.2)"/>
    <ellipse class="st9" cx="-152.6" cy="101.5" rx="4.2" ry="2.2" transform="translate(-197.7 -76.1) rotate(-70.6)"/>
    <ellipse class="st4" cx="-142.2" cy="122.2" rx="2.2" ry="4.2" transform="translate(-7.2 -7.9) rotate(-3.2)"/>
    <ellipse class="st4" cx="-160.1" cy="94.2" rx="2.2" ry="4.2" transform="translate(-5.6 -8.9) rotate(-3.2)"/>
    <ellipse class="st4" cx="-164.4" cy="94.4" rx="2.2" ry="4.2" transform="translate(-5.6 -9.2) rotate(-3.2)"/>
    <ellipse class="st4" cx="-166.7" cy="101.5" rx="2.2" ry="4.2" transform="translate(-6 -9.3) rotate(-3.2)"/>
    <ellipse class="st4" cx="-162.6" cy="88" rx="2.2" ry="4.2" transform="translate(-5.3 -9.1) rotate(-3.2)"/>
    <ellipse class="st1" cx="-144.4" cy="106.8" rx="2.2" ry="4.2"/>
    <ellipse class="st1" cx="-146.6" cy="100.6" rx="2.2" ry="4.2"/>
    <ellipse class="st1" cx="-141.3" cy="100.6" rx="2.2" ry="4.2"/>
    <ellipse class="st1" cx="-141.3" cy="114" rx="2.2" ry="4.2"/>
    <ellipse class="st1" cx="-109.5" cy="127.6" rx="2.2" ry="4.2"/>
    <ellipse class="st1" cx="-107.3" cy="135.8" rx="2.2" ry="4.2"/>
    <ellipse class="st1" cx="-102.9" cy="134.2" rx="2.2" ry="4.2"/>
    <ellipse class="st5" cx="-103.4" cy="128.3" rx="2.1" ry="4.9" transform="translate(-144.3 -31.4) rotate(-53.2)"/>
    <ellipse class="st5" cx="-133.2" cy="107.7" rx="2" ry="3.7" transform="translate(-139.7 -63.5) rotate(-53.2)"/>
    <ellipse class="st5" cx="-46.7" cy="182.5" rx="2" ry="3.7" transform="translate(-164.9 35.8) rotate(-53.2)"/>
    <ellipse class="st5" cx="-65.8" cy="131.6" rx="2" ry="3.7" transform="translate(-131.8 0) rotate(-53.2)"/>
    <ellipse class="st5" cx="-58.7" cy="133" rx="2" ry="3.7" transform="translate(-130.1 6.3) rotate(-53.2)"/>
    <ellipse class="st5" cx="-32.7" cy="181.2" rx="2" ry="3.7" transform="translate(-158.2 46.5) rotate(-53.2)"/>
    <ellipse class="st5" cx="-12.9" cy="136.5" rx="2" ry="3.7" transform="translate(-114.5 44.4) rotate(-53.2)"/>
    <ellipse class="st5" cx="-13.3" cy="130.8" rx="2" ry="3.7" transform="translate(-110.1 41.8) rotate(-53.2)"/>
    <ellipse class="st5" cx="-18.2" cy="130" rx="2" ry="3.7" transform="translate(-111.5 37.6) rotate(-53.2)"/>
    <ellipse class="st5" cx="-11.4" cy="122.7" rx="2" ry="3.7" transform="translate(-102.8 40.1) rotate(-53.2)"/>
    <ellipse class="st5" cx="-48.1" cy="92.1" rx="2" ry="3.7" transform="translate(-93 -1.6) rotate(-53.2)"/>
    <ellipse class="st5" cx="-50.1" cy="85.7" rx="2" ry="3.7" transform="translate(-88.8 -5.8) rotate(-53.2)"/>
    <ellipse class="st5" cx="-52.4" cy="88.8" rx="2" ry="3.7" transform="translate(-92.2 -6.4) rotate(-53.2)"/>
    <ellipse class="st5" cx="-56.3" cy="83.6" rx="2" ry="3.7" transform="translate(-89.5 -11.6) rotate(-53.2)"/>
    <ellipse class="st5" cx="-33.5" cy="176" rx="2" ry="3.7" transform="translate(-154.4 43.8) rotate(-53.2)"/>
    <ellipse class="st5" cx="-63.6" cy="126.9" rx="2" ry="3.7" transform="translate(-127.1 0) rotate(-53.2)"/>
    <ellipse class="st5" cx="-113" cy="98.2" rx="2" ry="3.7" transform="translate(-124 -51.1) rotate(-53.2)"/>
    <ellipse class="st5" cx="-108.1" cy="96.3" rx="2" ry="3.7" transform="translate(-120.5 -47.9) rotate(-53.2)"/>
    <ellipse class="st5" cx="-157.3" cy="51.7" rx="2" ry="3.7" transform="translate(-104.5 -105.3) rotate(-53.2)"/>
    <ellipse class="st5" cx="-158.4" cy="56.3" rx="2" ry="3.7" transform="translate(-108.7 -104.3) rotate(-53.2)"/>
    <ellipse class="st5" cx="-44.9" cy="187.9" rx="2" ry="3.7" transform="translate(-168.5 39.4) rotate(-53.2)"/>
    <ellipse class="st5" cx="-65.8" cy="164.8" rx="2.1" ry="4.9" transform="translate(-158.4 13.4) rotate(-53.2)"/>
    <ellipse class="st5" cx="-71" cy="157.7" rx="2.1" ry="4.9" transform="translate(-154.8 6.4) rotate(-53.2)"/>
    <ellipse class="st1" cx="-111.7" cy="142.5" rx="2.2" ry="4.2"/>
    <ellipse class="st1" cx="-113.9" cy="149.6" rx="2.2" ry="4.2"/>
    <ellipse class="st1" cx="-107.3" cy="144.2" rx="2.2" ry="4.2"/>
    <ellipse class="st1" cx="-102.9" cy="150.5" rx="2.2" ry="4.2"/>
    <ellipse class="st1" cx="-100.7" cy="157.7" rx="2.2" ry="4.2"/>
    <ellipse class="st16" cx="-97" cy="163.6" rx="2.2" ry="4.2" transform="translate(-119.1 -25.3) rotate(-37.3)"/>
    <ellipse class="st1" cx="-75.4" cy="167.8" rx="2.2" ry="4.2"/>
    <ellipse class="st13" cx="-79.3" cy="170.4" rx="4.2" ry="2.2" transform="translate(-197.9 24.6) rotate(-64.1)"/>
    <ellipse class="st10" cx="-84" cy="171.9" rx="4.2" ry="2.2" transform="translate(-211.6 29.3) rotate(-67.8)"/>
    <ellipse class="st7" cx="-88.4" cy="172" rx="2.2" ry="4.2" transform="translate(-37.7 -14.6) rotate(-12)"/>
    <ellipse class="st7" cx="-85.4" cy="178.8" rx="2.2" ry="4.2" transform="translate(-39 -13.9) rotate(-12)"/>
    <ellipse class="st1" cx="-92.4" cy="168.9" rx="2.2" ry="4.2"/>
    <ellipse class="st1" cx="-71" cy="163.6" rx="2.2" ry="4.2"/>
    <ellipse class="st1" cx="-71" cy="171.8" rx="2.2" ry="4.2"/>
    <ellipse class="st1" cx="-75.4" cy="159.4" rx="2.2" ry="4.2"/>
    <ellipse class="st1" cx="-139.1" cy="106.8" rx="2.2" ry="4.2"/>
    <ellipse class="st12" cx="-12.9" cy="209.6" rx="4.2" ry="2.2" transform="translate(-220.5 177.7) rotate(-84.8)"/>
    <ellipse class="st12" cx="-19.4" cy="221.9" rx="4.2" ry="2.2" transform="translate(-238.6 182.5) rotate(-84.8)"/>
    <ellipse class="st13" cx="-77.6" cy="257.6" rx="2.2" ry="4.2" transform="translate(-275.4 75.3) rotate(-64.1)"/>
    <ellipse class="st13" cx="-41.5" cy="241.1" rx="2.2" ry="4.2" transform="translate(-240.2 98.4) rotate(-64.1)"/>
    <ellipse class="st13" cx="-100.7" cy="241.1" rx="2.2" ry="4.2" transform="translate(-273.6 45.1) rotate(-64.1)"/>
    <ellipse class="st13" cx="-212" cy="261.8" rx="2.2" ry="4.2" transform="translate(-354.8 -43.3) rotate(-64.1)"/>
    <ellipse class="st13" cx="-215.9" cy="254.9" rx="2.2" ry="4.2" transform="translate(-350.9 -50.7) rotate(-64.1)"/>
    <ellipse class="st14" cx="-162.6" cy="253.4" rx="4.2" ry="2.2" transform="translate(-127.1 -45.6) rotate(-25.9)"/>
    <ellipse class="st14" cx="-287.5" cy="166.9" rx="4.2" ry="2.2" transform="translate(-101.8 -108.9) rotate(-25.9)"/>
    <ellipse class="st14" cx="-310" cy="197.4" rx="4.2" ry="2.2" transform="translate(-117.4 -115.6) rotate(-25.9)"/>
    <ellipse class="st14" cx="-284.4" cy="161.7" rx="4.2" ry="2.2" transform="translate(-99.2 -108) rotate(-25.9)"/>
    <ellipse class="st14" cx="-286" cy="126.9" rx="4.2" ry="2.2" transform="translate(-84.2 -112.2) rotate(-25.9)"/>
    <ellipse class="st14" cx="-274.1" cy="114" rx="4.2" ry="2.2" transform="translate(-77.4 -108.3) rotate(-25.9)"/>
    <ellipse class="st14" cx="-281.2" cy="113.8" rx="4.2" ry="2.2" transform="translate(-78 -111.5) rotate(-25.9)"/>
    <ellipse class="st14" cx="-274.1" cy="108.4" rx="4.2" ry="2.2" transform="translate(-74.9 -108.9) rotate(-25.9)"/>
    <ellipse class="st14" cx="-276.3" cy="157.7" rx="4.2" ry="2.2" transform="translate(-96.7 -104.9) rotate(-25.9)"/>
    <ellipse class="st14" cx="-271.9" cy="160" rx="4.2" ry="2.2" transform="translate(-97.2 -102.7) rotate(-25.9)"/>
    <ellipse class="st14" cx="-227.2" cy="111.1" rx="4.2" ry="2.2" transform="translate(-71.4 -88.1) rotate(-25.9)"/>
    <ellipse class="st14" cx="-227.2" cy="78.6" rx="4.2" ry="2.2" transform="translate(-57.2 -91.4) rotate(-25.9)"/>
    <ellipse class="st14" cx="-212" cy="46.1" rx="4.2" ry="2.2" transform="translate(-41.5 -88) rotate(-25.9)"/>
    <ellipse class="st14" cx="-212.3" cy="52.1" rx="4.2" ry="2.2" transform="translate(-44.1 -87.5) rotate(-25.9)"/>
    <ellipse class="st14" cx="-165.1" cy="4.8" rx="4.2" ry="2.2" transform="translate(-18.7 -71.7) rotate(-25.9)"/>
    <ellipse class="st14" cx="-168.3" cy="9.7" rx="4.2" ry="2.2" transform="translate(-21.1 -72.6) rotate(-25.9)"/>
    <ellipse class="st14" cx="-164.5" cy="12.1" rx="4.2" ry="2.2" transform="translate(-21.8 -70.6) rotate(-25.9)"/>
    <ellipse class="st14" cx="-234.9" cy="82.3" rx="4.2" ry="2.2" transform="translate(-59.6 -94.4) rotate(-25.9)"/>
    <ellipse class="st14" cx="-225.7" cy="104.9" rx="4.2" ry="2.2" transform="translate(-68.5 -88.1) rotate(-25.9)"/>
    <ellipse class="st14" cx="-223.6" cy="92.1" rx="4.2" ry="2.2" transform="translate(-62.7 -88.5) rotate(-25.9)"/>
    <ellipse class="st14" cx="-165.5" cy="53.6" rx="4.2" ry="2.2" transform="translate(-40.1 -66.9) rotate(-25.9)"/>
    <ellipse class="st14" cx="-164.5" cy="58.6" rx="4.2" ry="2.2" transform="translate(-42.2 -66) rotate(-25.9)"/>
    <ellipse class="st14" cx="-164.4" cy="48.1" rx="4.2" ry="2.2" transform="translate(-37.6 -67) rotate(-25.9)"/>
    <ellipse class="st14" cx="-170.7" cy="58.1" rx="4.2" ry="2.2" transform="translate(-42.6 -68.7) rotate(-25.9)"/>
    <ellipse class="st14" cx="-225.2" cy="82.6" rx="4.2" ry="2.2" transform="translate(-58.8 -90.1) rotate(-25.9)"/>
    <ellipse class="st14" cx="-220.5" cy="85.9" rx="4.2" ry="2.2" transform="translate(-59.7 -87.7) rotate(-25.9)"/>
    <ellipse class="st14" cx="-175.7" cy="12.1" rx="4.2" ry="2.2" transform="translate(-23 -75.6) rotate(-25.9)"/>
    <ellipse class="st14" cx="-176.9" cy="18.2" rx="4.2" ry="2.2" transform="translate(-25.7 -75.5) rotate(-25.9)"/>
    <ellipse class="st14" cx="-220.5" cy="105.9" rx="4.2" ry="2.2" transform="translate(-68.5 -85.7) rotate(-25.9)"/>
    <ellipse class="st14" cx="-230.3" cy="116.7" rx="4.2" ry="2.2" transform="translate(-74.1 -88.9) rotate(-25.9)"/>
    <ellipse class="st14" cx="-269.2" cy="152.7" rx="4.2" ry="2.2" transform="translate(-93.8 -102.3) rotate(-25.9)"/>
    <ellipse class="st14" cx="-285.8" cy="134.1" rx="4.2" ry="2.2" transform="translate(-87.3 -111.4) rotate(-25.9)"/>
    <ellipse class="st14" cx="-307.5" cy="126.9" rx="4.2" ry="2.2" transform="translate(-86.4 -121.6) rotate(-25.9)"/>
    <ellipse class="st14" cx="-308.8" cy="133.4" rx="4.2" ry="2.2" transform="translate(-89.3 -121.5) rotate(-25.9)"/>
    <ellipse class="st14" cx="-85.4" cy="269.9" rx="4.2" ry="2.2" transform="translate(-126.5 -10.2) rotate(-25.9)"/>
    <ellipse class="st14" cx="-259.1" cy="258.7" rx="4.2" ry="2.2" transform="translate(-139.1 -87.2) rotate(-25.9)"/>
    <ellipse class="st13" cx="-278.5" cy="236.7" rx="2.2" ry="4.2" transform="translate(-369.7 -117.3) rotate(-64.1)"/>
    <ellipse class="st13" cx="-270.6" cy="235.6" rx="2.2" ry="4.2" transform="translate(-364.3 -110.7) rotate(-64.1)"/>
    <ellipse class="st13" cx="-221.7" cy="258.7" rx="2.2" ry="4.2" transform="translate(-357.5 -53.7) rotate(-64.1)"/>
    <ellipse class="st12" cx="-16.6" cy="215.6" rx="4.2" ry="2.2" transform="translate(-229.8 179.5) rotate(-84.8)"/>
    <ellipse class="st12" cx="-21" cy="215.2" rx="4.2" ry="2.2" transform="translate(-233.4 174.8) rotate(-84.8)"/>
    <ellipse class="st12" cx="-18.2" cy="209.1" rx="4.2" ry="2.2" transform="translate(-224.8 172) rotate(-84.8)"/>
  </g>
  <path class="st27" d="M-172.7,151.6c-1.2,4.8-1.5,9.6.1,14.3.6,2.1,1.4,5.1,1.7,7.3.8,4.9.7,10,.5,15-.2,4.8-.9,17.4-1.1,22.3h-.2c-.1-8.6.2-21.2,0-29.7-.2-4.9-1.5-9.6-2.7-14.4-.6-2.5-.9-5.1-.6-7.6.3-2.6,1.2-4.9,2.2-7.2h.2c0,0,0,0,0,0Z"/>
  <path class="st27" d="M-178.3,232c.4-1.2.7-2.1-.7-2.6-1.4-.8-2-2.5-1.5-3.9-.1,1.4.9,2.6,2,2.9,2.1.3,2.5,2.2,2.2,3.9l-2-.4h0Z"/>
  <polygon class="st27" points="-166.8 231.9 -163.3 226.7 -165 232.7 -166.8 231.9 -166.8 231.9"/>
  <path class="st27" d="M-154.4,230.8c6.2-.9,8.5-2.8,8.5-9.2,0-1.7-.1-3.4-.8-5,.9,1.5,1.4,3.2,1.6,5,1.1,7.2-1.9,10.2-8.5,12.1l-.7-2.9h0Z"/>
  <path class="st17" d="M-227.5,231.6v-.2"/>
  <path class="st27" d="M-227.3,230.9c1.2-3,1.1-6.4.5-9.6-.7-3.1-2.1-6.9.4-9.6-1,1.3-1.4,3.1-1.2,4.7.7,3.2,2,6.4,2,9.8,0,1.7-.2,3.4-.7,5.1l-.9-.4h0Z"/>
  <path class="st17" d="M-220.2,194.6c.7-4.9,1.5-9.8.9-14.7-.2-1.8-.7-3.6-.7-5.5s.3-3.8,1.4-5.2"/>
  <path class="st27" d="M-194.8,129c4.2.1,8.4-.8,12.6-.3h0c-2,.9-4.1,1-6.3.9-2.1,0-4.2-.2-6.3-.5h0c0-.1,0,0,0,0Z"/>
  <path class="st27" d="M-90.5,231.6c1-3.4,1-7.1,1.2-10.7,0-3.6-.1-7.4-2.1-10.5,1.1,1.4,1.9,3.2,2.4,5,.5,1.8.7,3.7.8,5.5.2,3.8.5,7.5-.2,11.2l-1.9-.5h0Z"/>
  <path class="st27" d="M-104.9,200.7c-1.7-3.5.6-7.2,1.8-10.5,1.4-5.9-1-11.7-1.8-17.6h.1c1.5,3.3,2.6,6.8,2.8,10.4.3,3.6-.8,7.2-1.7,10.7-.7,2.3-1.5,4.5-1.1,6.9h0Z"/>
  <path class="st27" d="M-101.6,213.5c.5,3.2.6,6.8-.6,9.9-.5,1-1.2,2-2.1,2.7h-.2c0-2.4.7-4.3,1.5-6.3.6-2.1,1-4.1,1.2-6.3h.2s0,0,0,0Z"/>
  <path class="st27" d="M-65.1,226c3.1-.4,6.2-.1,9.4.1,5.2-.2,10.3-1.1,15.6-.8-4.8,1.7-10.4,1.1-15.6,1.1-3,.2-6.6.5-9.4-.4h0Z"/>
  <path class="st27" d="M-269.2,212.7c1.3,1.3,2.2,2.9,2.8,4.6.8,3.3,2.5,3.8,5.6,4.4,2.6.6,5.2,1.4,7.7,2.4h0c-2.7-.2-5.3-.7-7.9-1.5-1.7-.5-3.8-.9-4.8-2.6-.5-.8-.7-1.7-1-2.6-.4-1.7-1.2-3.3-2.4-4.7h0q0,0,0,0Z"/>
  <path class="st22" d="M-176.6,196.2c0,.8.8,0,0,0s0,.8,0,0-.8-1.5,0-1.5,0,.7,0,1.5Z"/>
</svg>