<?xml version="1.0" encoding="UTF-8"?>
<svg id="_Слой_1" data-name="Слой 1" xmlns="http://www.w3.org/2000/svg" viewBox="0 0 896.18 659.2">
  <defs>
    <style>
      .cls-1, .cls-2 {
        fill: #c69c6d;
      }

      .cls-3 {
        fill: #009245;
      }

      .cls-3, .cls-2, .cls-4 {
        stroke: #603813;
        stroke-miterlimit: 10;
        stroke-width: 3px;
      }

      .cls-5 {
        fill: #603813;
      }

      .cls-6, .cls-4 {
        fill: #a67c52;
      }
    </style>
  </defs>
  <rect class="cls-2" x="393.92" y="326.17" width="108.34" height="495.5" transform="translate(-125.83 1022.01) rotate(-90)"/>
  <rect class="cls-2" x="393.92" y="1.16" width="108.34" height="495.5" transform="translate(199.18 697) rotate(-90)"/>
  <rect class="cls-2" x="393.92" y="109.5" width="108.34" height="495.5" transform="translate(90.84 805.34) rotate(-90)"/>
  <rect class="cls-2" x="393.92" y="217.83" width="108.34" height="495.5" transform="translate(-17.49 913.68) rotate(-90)"/>
  <g>
    <g>
      <path class="cls-6" d="M152.28,657.7c-30.25,0-62.4-6.19-62.4-17.67V157.2h124.8v482.82c0,11.48-32.15,17.67-62.4,17.67Z"/>
      <path class="cls-5" d="M213.18,158.7v481.32c0,8.93-27.27,16.17-60.9,16.17s-60.9-7.24-60.9-16.17V158.7h121.8M216.18,155.7h-127.8v484.32c0,5.98,6.75,10.8,20.07,14.33,11.75,3.12,27.31,4.84,43.83,4.84s32.09-1.72,43.83-4.84c13.32-3.54,20.07-8.36,20.07-14.33V155.7h0Z"/>
    </g>
    <g>
      <path class="cls-1" d="M152.28,174.44c-30.25,0-62.4-6.19-62.4-17.67s32.15-17.67,62.4-17.67,62.4,6.19,62.4,17.67-32.15,17.67-62.4,17.67Z"/>
      <path class="cls-5" d="M152.28,140.59c33.63,0,60.9,7.24,60.9,16.17s-27.27,16.17-60.9,16.17-60.9-7.24-60.9-16.17,27.27-16.17,60.9-16.17M152.28,137.59c-16.52,0-32.09,1.72-43.83,4.84-13.32,3.54-20.07,8.36-20.07,14.33s6.75,10.8,20.07,14.33c11.75,3.12,27.31,4.84,43.83,4.84s32.09-1.72,43.83-4.84c13.32-3.54,20.07-8.36,20.07-14.33s-6.75-10.8-20.07-14.33c-11.75-3.12-27.31-4.84-43.83-4.84h0Z"/>
    </g>
  </g>
  <polygon class="cls-3" points="448.09 36.84 448.09 197.23 1.5 370.22 1.5 209.83 448.09 36.84"/>
  <polygon class="cls-3" points="448.09 2.19 448.09 162.58 1.5 335.57 1.5 175.18 448.09 2.19"/>
  <g>
    <g>
      <path class="cls-6" d="M745.47,657.7c-30.25,0-62.4-6.19-62.4-17.67V157.2h124.8v482.82c0,11.48-32.15,17.67-62.4,17.67Z"/>
      <path class="cls-5" d="M806.36,158.7v481.32c0,8.93-27.27,16.17-60.9,16.17s-60.9-7.24-60.9-16.17V158.7h121.8M809.36,155.7h-127.8v484.32c0,5.98,6.75,10.8,20.07,14.33,11.75,3.12,27.31,4.84,43.83,4.84s32.09-1.72,43.83-4.84c13.32-3.54,20.07-8.36,20.07-14.33V155.7h0Z"/>
    </g>
    <g>
      <path class="cls-1" d="M745.47,174.44c-30.25,0-62.4-6.19-62.4-17.67s32.15-17.67,62.4-17.67,62.4,6.19,62.4,17.67-32.15,17.67-62.4,17.67Z"/>
      <path class="cls-5" d="M745.47,140.59c33.63,0,60.9,7.24,60.9,16.17s-27.27,16.17-60.9,16.17-60.9-7.24-60.9-16.17,27.27-16.17,60.9-16.17M745.47,137.59c-16.52,0-32.09,1.72-43.83,4.84-13.32,3.54-20.07,8.36-20.07,14.33s6.75,10.8,20.07,14.33c11.75,3.12,27.31,4.84,43.83,4.84s32.09-1.72,43.83-4.84c13.32-3.54,20.07-8.36,20.07-14.33s-6.75-10.8-20.07-14.33c-11.75-3.12-27.31-4.84-43.83-4.84h0Z"/>
    </g>
  </g>
  <polygon class="cls-3" points="894.68 209.83 894.68 370.22 448.09 197.23 448.09 36.84 894.68 209.83"/>
  <polygon class="cls-3" points="894.68 175.18 894.68 335.57 448.09 162.57 448.09 2.19 894.68 175.18"/>
  <rect class="cls-4" x="368.72" y="351.63" width="158.74" height="272.81"/>
</svg>